<svg id="Layer_1" data-name="Layer 1" xmlns="http://www.w3.org/2000/svg" xmlns:xlink="http://www.w3.org/1999/xlink" width="1920" height="1080" viewBox="0 0 1920 1080"><defs><style>.cls-1{fill:url(#linear-gradient);}.cls-2,.cls-4,.cls-6{fill:#fff;}.cls-2{opacity:0.2;}.cls-3{fill:#feefd8;}.cls-5{opacity:0.5;}.cls-6{opacity:0.61;}.cls-7{fill:#8557a7;}.cls-8{fill:#662d91;}.cls-9{fill:#4d226d;}.cls-10{fill:#525266;}.cls-11{fill:#271137;}</style><linearGradient id="linear-gradient" x1="960.5" y1="1080" x2="960.5" y2="-0.5" gradientUnits="userSpaceOnUse"><stop offset="0.28" stop-color="#ed1e79"/><stop offset="0.72" stop-color="#662d91"/><stop offset="0.88" stop-color="#1b1464"/><stop offset="1" stop-color="#120334"/></linearGradient></defs><rect class="cls-1" x="0.5" y="-0.5" width="1920" height="1080.5"/><path class="cls-2" d="M752.47,334.17l-4-11.56a1.22,1.22,0,0,0-1.13-.81l-12.23-.25a1.22,1.22,0,0,1-.71-2.19l9.75-7.39a1.22,1.22,0,0,0,.43-1.32L741,298.93a1.22,1.22,0,0,1,1.86-1.35l10,7a1.22,1.22,0,0,0,1.39,0l10.05-7a1.21,1.21,0,0,1,1.85,1.35l-3.54,11.72a1.21,1.21,0,0,0,.43,1.32l9.75,7.39a1.22,1.22,0,0,1-.71,2.19l-12.23.25a1.22,1.22,0,0,0-1.13.81l-4,11.56A1.21,1.21,0,0,1,752.47,334.17Z"/><path class="cls-2" d="M962.2,497.74l-4-11.57a1.22,1.22,0,0,0-1.12-.81l-12.24-.25a1.22,1.22,0,0,1-.71-2.19l9.75-7.39a1.21,1.21,0,0,0,.43-1.32l-3.54-11.72a1.22,1.22,0,0,1,1.86-1.35l10,7a1.22,1.22,0,0,0,1.39,0l10.05-7a1.22,1.22,0,0,1,1.86,1.35l-3.55,11.72a1.24,1.24,0,0,0,.43,1.32l9.75,7.39a1.22,1.22,0,0,1-.71,2.19l-12.23.25a1.22,1.22,0,0,0-1.13.81l-4,11.57A1.22,1.22,0,0,1,962.2,497.74Z"/><path class="cls-2" d="M1194.13,398.13l-4-11.56a1.21,1.21,0,0,0-1.12-.82l-12.24-.25a1.21,1.21,0,0,1-.71-2.18l9.76-7.4a1.21,1.21,0,0,0,.42-1.32l-3.54-11.71a1.22,1.22,0,0,1,1.86-1.35l10,7a1.22,1.22,0,0,0,1.39,0l10-7a1.22,1.22,0,0,1,1.86,1.35l-3.54,11.71a1.2,1.2,0,0,0,.43,1.32l9.75,7.4a1.21,1.21,0,0,1-.71,2.18l-12.24.25a1.21,1.21,0,0,0-1.12.82l-4,11.56A1.22,1.22,0,0,1,1194.13,398.13Z"/><path class="cls-2" d="M1384.47,331.17l-4-11.56a1.22,1.22,0,0,0-1.13-.81l-12.23-.25a1.22,1.22,0,0,1-.71-2.19l9.75-7.39a1.22,1.22,0,0,0,.43-1.32L1373,295.93a1.22,1.22,0,0,1,1.86-1.35l10.05,7a1.22,1.22,0,0,0,1.39,0l10-7a1.21,1.21,0,0,1,1.85,1.35l-3.54,11.72a1.21,1.21,0,0,0,.43,1.32l9.75,7.39a1.22,1.22,0,0,1-.71,2.19l-12.23.25a1.22,1.22,0,0,0-1.13.81l-4,11.56A1.21,1.21,0,0,1,1384.47,331.17Z"/><path class="cls-2" d="M1594.2,494.74l-4-11.57a1.22,1.22,0,0,0-1.12-.81l-12.24-.25a1.22,1.22,0,0,1-.71-2.19l9.75-7.39a1.21,1.21,0,0,0,.43-1.32l-3.54-11.72a1.22,1.22,0,0,1,1.86-1.35l10,7a1.22,1.22,0,0,0,1.39,0l10-7a1.22,1.22,0,0,1,1.86,1.35l-3.55,11.72a1.24,1.24,0,0,0,.43,1.32l9.75,7.39a1.22,1.22,0,0,1-.71,2.19l-12.23.25a1.22,1.22,0,0,0-1.13.81l-4,11.57A1.22,1.22,0,0,1,1594.2,494.74Z"/><path class="cls-2" d="M1826.13,395.13l-4-11.56a1.21,1.21,0,0,0-1.12-.82l-12.24-.25a1.21,1.21,0,0,1-.71-2.18l9.76-7.4a1.21,1.21,0,0,0,.42-1.32l-3.54-11.71a1.22,1.22,0,0,1,1.86-1.35l10,7a1.22,1.22,0,0,0,1.39,0l10-7a1.22,1.22,0,0,1,1.86,1.35l-3.54,11.71a1.2,1.2,0,0,0,.43,1.32l9.75,7.4a1.21,1.21,0,0,1-.71,2.18l-12.24.25a1.21,1.21,0,0,0-1.12.82l-4,11.56A1.22,1.22,0,0,1,1826.13,395.13Z"/><path class="cls-3" d="M1727.8,55a98.12,98.12,0,0,0-78.08,12.36,4.67,4.67,0,0,0,2.09,8.59,98.7,98.7,0,0,1,16.69,2.88c52.65,13.83,84.09,67.88,70.21,120.73a98.66,98.66,0,0,1-21.62,40.54,4.66,4.66,0,0,0,4.4,7.67,99,99,0,0,0,76.52-72C1811.89,122.83,1780.45,68.78,1727.8,55Z"/><path class="cls-4" d="M121.47,300.17l-4-11.56a1.22,1.22,0,0,0-1.13-.81l-12.23-.25a1.22,1.22,0,0,1-.71-2.19l9.75-7.39a1.22,1.22,0,0,0,.43-1.32L110,264.93a1.22,1.22,0,0,1,1.86-1.35l10,7a1.22,1.22,0,0,0,1.39,0l10.05-7a1.21,1.21,0,0,1,1.85,1.35l-3.54,11.72a1.21,1.21,0,0,0,.43,1.32l9.75,7.39a1.22,1.22,0,0,1-.71,2.19l-12.23.25a1.22,1.22,0,0,0-1.13.81l-4,11.56A1.21,1.21,0,0,1,121.47,300.17Z"/><path class="cls-4" d="M331.2,463.74l-4-11.57a1.22,1.22,0,0,0-1.12-.81l-12.24-.25a1.22,1.22,0,0,1-.71-2.19l9.75-7.39a1.21,1.21,0,0,0,.43-1.32l-3.54-11.72a1.22,1.22,0,0,1,1.86-1.35l10,7a1.22,1.22,0,0,0,1.39,0l10-7a1.22,1.22,0,0,1,1.86,1.35l-3.55,11.72a1.24,1.24,0,0,0,.43,1.32l9.75,7.39a1.22,1.22,0,0,1-.71,2.19l-12.23.25a1.22,1.22,0,0,0-1.13.81l-4,11.57A1.22,1.22,0,0,1,331.2,463.74Z"/><path class="cls-4" d="M563.13,364.13l-4-11.56a1.21,1.21,0,0,0-1.12-.82l-12.24-.25a1.21,1.21,0,0,1-.71-2.18l9.76-7.4a1.21,1.21,0,0,0,.42-1.32l-3.54-11.71a1.22,1.22,0,0,1,1.86-1.35l10.05,7a1.22,1.22,0,0,0,1.39,0l10-7a1.22,1.22,0,0,1,1.86,1.35l-3.54,11.71a1.2,1.2,0,0,0,.43,1.32l9.75,7.4a1.21,1.21,0,0,1-.71,2.18l-12.24.25a1.21,1.21,0,0,0-1.12.82l-4,11.56A1.22,1.22,0,0,1,563.13,364.13Z"/><g class="cls-5"><path class="cls-6" d="M575.5,96.34l-6.26-18a1.9,1.9,0,0,0-1.75-1.28l-19-.38a1.9,1.9,0,0,1-1.1-3.41l15.18-11.51a1.9,1.9,0,0,0,.67-2.06l-5.52-18.24a1.89,1.89,0,0,1,2.9-2.1l15.64,10.88a1.86,1.86,0,0,0,2.16,0L594,39.36a1.89,1.89,0,0,1,2.89,2.1L591.39,59.7a1.9,1.9,0,0,0,.67,2.06l15.19,11.51a1.9,1.9,0,0,1-1.11,3.41l-19,.38a1.91,1.91,0,0,0-1.75,1.28l-6.26,18A1.9,1.9,0,0,1,575.5,96.34Z"/><path class="cls-6" d="M769.14,152.31l-4-11.56a1.21,1.21,0,0,0-1.12-.82l-12.24-.25a1.21,1.21,0,0,1-.71-2.18l9.76-7.4a1.23,1.23,0,0,0,.43-1.32l-3.55-11.71a1.22,1.22,0,0,1,1.86-1.35l10.05,7a1.22,1.22,0,0,0,1.39,0l10-7a1.22,1.22,0,0,1,1.86,1.35l-3.54,11.71a1.2,1.2,0,0,0,.43,1.32l9.75,7.4a1.21,1.21,0,0,1-.71,2.18l-12.24.25a1.22,1.22,0,0,0-1.12.82l-4,11.56A1.22,1.22,0,0,1,769.14,152.31Z"/><path class="cls-6" d="M341.14,65.31l-4-11.56a1.21,1.21,0,0,0-1.12-.82l-12.24-.25a1.21,1.21,0,0,1-.71-2.18l9.76-7.4a1.23,1.23,0,0,0,.43-1.32l-3.55-11.71a1.22,1.22,0,0,1,1.86-1.35l10.05,7a1.22,1.22,0,0,0,1.39,0l10-7a1.22,1.22,0,0,1,1.86,1.35l-3.54,11.71a1.2,1.2,0,0,0,.43,1.32l9.75,7.4a1.21,1.21,0,0,1-.71,2.18l-12.24.25a1.22,1.22,0,0,0-1.12.82l-4,11.56A1.22,1.22,0,0,1,341.14,65.31Z"/><path class="cls-6" d="M899.48,195.6l-2.58-7.41a.76.76,0,0,0-.72-.52l-7.85-.16a.78.78,0,0,1-.45-1.4l6.25-4.74a.8.8,0,0,0,.28-.85L892.14,173a.78.78,0,0,1,1.19-.87l6.44,4.48a.77.77,0,0,0,.89,0l6.44-4.48a.78.78,0,0,1,1.19.87L906,180.52a.77.77,0,0,0,.27.85l6.26,4.74a.78.78,0,0,1-.46,1.4l-7.84.16a.75.75,0,0,0-.72.52L901,195.6A.78.78,0,0,1,899.48,195.6Z"/><path class="cls-6" d="M981.43,100.83,976.7,87.22a1.42,1.42,0,0,0-1.32-1L961,86a1.44,1.44,0,0,1-.83-2.58l11.48-8.7a1.41,1.41,0,0,0,.5-1.55L968,59.35a1.43,1.43,0,0,1,2.19-1.59L982,66a1.4,1.4,0,0,0,1.63,0l11.83-8.22a1.43,1.43,0,0,1,2.19,1.59l-4.18,13.79a1.43,1.43,0,0,0,.51,1.55l11.48,8.7a1.44,1.44,0,0,1-.84,2.58l-14.4.29a1.42,1.42,0,0,0-1.32,1l-4.73,13.61A1.44,1.44,0,0,1,981.43,100.83Z"/><path class="cls-6" d="M1150.41,167.29l-4-11.56a1.21,1.21,0,0,0-1.12-.82l-12.24-.25a1.21,1.21,0,0,1-.71-2.18l9.76-7.4a1.21,1.21,0,0,0,.42-1.32L1139,132.05a1.22,1.22,0,0,1,1.86-1.35l10,7a1.22,1.22,0,0,0,1.39,0l10-7a1.22,1.22,0,0,1,1.86,1.35l-3.54,11.71a1.2,1.2,0,0,0,.43,1.32l9.75,7.4a1.21,1.21,0,0,1-.71,2.18l-12.24.25a1.21,1.21,0,0,0-1.12.82l-4,11.56A1.22,1.22,0,0,1,1150.41,167.29Z"/><path class="cls-6" d="M1315.44,112.55,1308,91.19a2.24,2.24,0,0,0-2.07-1.51l-22.61-.46a2.25,2.25,0,0,1-1.32-4l18-13.66a2.27,2.27,0,0,0,.8-2.45l-6.55-21.64a2.25,2.25,0,0,1,3.43-2.5l18.57,12.92a2.23,2.23,0,0,0,2.56,0l18.57-12.92a2.25,2.25,0,0,1,3.43,2.5l-6.55,21.64a2.27,2.27,0,0,0,.8,2.45l18,13.66a2.25,2.25,0,0,1-1.32,4l-22.6.46a2.25,2.25,0,0,0-2.08,1.51l-7.43,21.36A2.24,2.24,0,0,1,1315.44,112.55Z"/><path class="cls-6" d="M1379.91,209.48l-2.28-6.54a.69.69,0,0,0-.63-.47l-6.93-.14a.69.69,0,0,1-.41-1.24l5.53-4.18a.7.7,0,0,0,.24-.75l-2-6.64a.69.69,0,0,1,1.06-.76l5.69,4a.69.69,0,0,0,.78,0l5.69-4a.69.69,0,0,1,1.06.76l-2,6.64a.7.7,0,0,0,.24.75l5.53,4.18a.69.69,0,0,1-.41,1.24l-6.93.14a.69.69,0,0,0-.63.47l-2.28,6.54A.69.69,0,0,1,1379.91,209.48Z"/><path class="cls-6" d="M99.91,57.48l-2.28-6.54a.69.69,0,0,0-.63-.47l-6.93-.14a.69.69,0,0,1-.41-1.24l5.53-4.18a.7.7,0,0,0,.24-.75l-2-6.64a.69.69,0,0,1,1.06-.76l5.69,4a.69.69,0,0,0,.78,0l5.69-4a.69.69,0,0,1,1.06.76l-2,6.64a.7.7,0,0,0,.24.75l5.53,4.18a.69.69,0,0,1-.41,1.24l-6.93.14a.69.69,0,0,0-.63.47l-2.28,6.54A.69.69,0,0,1,99.91,57.48Z"/><path class="cls-6" d="M1491.14,119.31l-4-11.56a1.21,1.21,0,0,0-1.12-.82l-12.24-.25a1.21,1.21,0,0,1-.71-2.18l9.76-7.4a1.23,1.23,0,0,0,.43-1.32l-3.55-11.71a1.22,1.22,0,0,1,1.86-1.35l10,7a1.22,1.22,0,0,0,1.39,0l10-7a1.22,1.22,0,0,1,1.86,1.35l-3.54,11.71a1.2,1.2,0,0,0,.43,1.32l9.75,7.4a1.21,1.21,0,0,1-.71,2.18l-12.24.25a1.22,1.22,0,0,0-1.12.82l-4,11.56A1.22,1.22,0,0,1,1491.14,119.31Z"/><path class="cls-6" d="M1865.41,91.29l-4-11.56a1.21,1.21,0,0,0-1.12-.82L1848,78.66a1.21,1.21,0,0,1-.71-2.18l9.76-7.4a1.21,1.21,0,0,0,.42-1.32L1854,56.05a1.22,1.22,0,0,1,1.86-1.35l10,7a1.22,1.22,0,0,0,1.39,0l10-7a1.22,1.22,0,0,1,1.86,1.35l-3.54,11.71a1.2,1.2,0,0,0,.43,1.32l9.75,7.4a1.21,1.21,0,0,1-.71,2.18l-12.24.25a1.21,1.21,0,0,0-1.12.82l-4,11.56A1.22,1.22,0,0,1,1865.41,91.29Z"/><path class="cls-6" d="M208.14,110.31l-4-11.56a1.21,1.21,0,0,0-1.12-.82l-12.24-.25a1.21,1.21,0,0,1-.71-2.18l9.76-7.4a1.23,1.23,0,0,0,.43-1.32l-3.55-11.71a1.22,1.22,0,0,1,1.86-1.35l10,7a1.22,1.22,0,0,0,1.39,0l10-7a1.22,1.22,0,0,1,1.86,1.35l-3.54,11.71a1.2,1.2,0,0,0,.43,1.32l9.75,7.4a1.21,1.21,0,0,1-.71,2.18l-12.24.25a1.22,1.22,0,0,0-1.12.82l-4,11.56A1.22,1.22,0,0,1,208.14,110.31Z"/><path class="cls-6" d="M436.41,157.29l-4-11.56a1.21,1.21,0,0,0-1.12-.82L419,144.66a1.21,1.21,0,0,1-.71-2.18l9.76-7.4a1.21,1.21,0,0,0,.42-1.32L425,122.05a1.22,1.22,0,0,1,1.86-1.35l10.05,7a1.22,1.22,0,0,0,1.39,0l10-7a1.22,1.22,0,0,1,1.86,1.35l-3.54,11.71a1.2,1.2,0,0,0,.43,1.32l9.75,7.4a1.21,1.21,0,0,1-.71,2.18l-12.24.25a1.21,1.21,0,0,0-1.12.82l-4,11.56A1.22,1.22,0,0,1,436.41,157.29Z"/></g><rect class="cls-7" x="216" y="281" width="190" height="410" rx="4.32"/><path class="cls-7" d="M644.73,676H462.27a3.28,3.28,0,0,1-3.27-3.27V288L644.73,158a3.28,3.28,0,0,1,3.27,3.27V672.73A3.28,3.28,0,0,1,644.73,676Z"/><rect class="cls-7" x="695" y="242" width="179" height="445"/><path class="cls-7" d="M1069.34,634H924.66c-4.78,0-8.66-4.15-8.66-9.26V333.35a9.75,9.75,0,0,1,1.7-5.51l75.52-109.09a8.34,8.34,0,0,1,14.12.31l69.16,108.88a9.7,9.7,0,0,1,1.5,5.21V624.74C1078,629.85,1074.12,634,1069.34,634Z"/><rect class="cls-7" x="1642" y="298" width="162" height="419" rx="3.07"/><rect class="cls-7" x="1456" y="196" width="135" height="457" rx="2.93"/><path class="cls-7" d="M1303.53,263.81V238.19a3.19,3.19,0,0,0-3.2-3.19H1285.4a3.19,3.19,0,0,1-3.19-3.19V204.19A3.19,3.19,0,0,0,1279,201h-16.23a3.2,3.2,0,0,1-3.16-2.72l-9.22-61.56a3.2,3.2,0,0,0-3.16-2.72h-.48a3.19,3.19,0,0,0-3.16,2.74l-8.76,61.52a3.19,3.19,0,0,1-3.16,2.74h-16.21a3.19,3.19,0,0,0-3.19,3.19v27.62a3.19,3.19,0,0,1-3.19,3.19h-14.93a3.19,3.19,0,0,0-3.2,3.19v25.62a3.19,3.19,0,0,1-3.19,3.19h-25.59a3.19,3.19,0,0,0-3.19,3.19V799.81a3.19,3.19,0,0,0,3.19,3.19h170.12a3.19,3.19,0,0,0,3.19-3.19V270.19a3.19,3.19,0,0,0-3.19-3.19h-25.59A3.19,3.19,0,0,1,1303.53,263.81Z"/><polygon class="cls-7" points="99 218 60 163 -70 163 -70 218 -70 739 153 739 153 218 99 218"/><rect class="cls-8" x="1555.42" y="424.96" width="151.79" height="386.19" transform="translate(3262.63 1236.1) rotate(-180)"/><path class="cls-8" d="M1363,725.12h146.15a2.41,2.41,0,0,0,2.42-2.41V351.37a2.4,2.4,0,0,0-1-2l-146.2-102.33a2.38,2.38,0,0,0-3.76,1.77V722.71A2.41,2.41,0,0,0,1363,725.12Z"/><rect class="cls-8" x="1177.38" y="358.51" width="143" height="355.5" transform="translate(2497.76 1072.52) rotate(-180)"/><path class="cls-8" d="M991.28,742.12H1115.4a12.23,12.23,0,0,0,12.23-12.24l0-337.61a12.24,12.24,0,0,0-19.7-9.7L983.82,478a12.25,12.25,0,0,0-4.78,9.7V729.88A12.24,12.24,0,0,0,991.28,742.12Z"/><rect class="cls-8" x="483.75" y="311.41" width="107.85" height="365.09" rx="2.34" transform="translate(1075.34 987.91) rotate(-180)"/><rect class="cls-8" x="98.53" y="421.33" width="151.79" height="327.54" rx="3.45" transform="translate(348.84 1170.19) rotate(-180)"/><polygon class="cls-8" points="-78.44 688.99 70.15 688.99 70.17 314.3 -78.44 428.56 -78.44 688.99"/><polygon class="cls-8" points="302.34 379.25 302.34 353.68 407.79 355.52 407.79 379.25 437.75 379.25 437.75 807.45 272.38 807.45 272.38 379.25 302.34 379.25"/><rect class="cls-8" x="1728.42" y="397.95" width="107.85" height="365.09" rx="2.34" transform="translate(3564.69 1160.99) rotate(-180)"/><polygon class="cls-8" points="1825.46 292.94 1856.62 249 1960.47 249 1960.47 292.94 1960.47 709.15 1782.32 709.15 1782.32 292.94 1825.46 292.94"/><rect class="cls-8" x="638.25" y="377.63" width="129.42" height="334.73" rx="2.46" transform="translate(1405.92 1089.99) rotate(-180)"/><ellipse class="cls-8" cx="702.96" cy="388.78" rx="51.43" ry="55.45"/><rect class="cls-8" x="700.19" y="290.03" width="5.53" height="55.33" rx="2.77"/><rect class="cls-8" x="805.6" y="336.38" width="143" height="355.5" transform="translate(1754.19 1028.26) rotate(-180)"/><rect class="cls-8" x="882.91" y="307.1" width="48.69" height="36.51"/><rect class="cls-8" x="825.37" y="317.06" width="48.69" height="36.51"/><rect class="cls-9" x="432.9" y="502.6" width="131.97" height="284.79" rx="3"/><path class="cls-9" d="M719.31,817.88H592.57a2.27,2.27,0,0,1-2.27-2.27V548.37l129-90.3a2.28,2.28,0,0,1,2.27,2.28V815.61A2.27,2.27,0,0,1,719.31,817.88Z"/><rect class="cls-9" x="757.76" y="530.85" width="124.33" height="309.1"/><polygon class="cls-9" points="1041.81 819.83 912.61 819.83 912.59 494.04 1041.81 593.39 1041.81 819.83"/><rect class="cls-9" x="1387.12" y="472.46" width="93.77" height="317.43" rx="2.04"/><rect class="cls-9" x="1714.66" y="538.56" width="131.97" height="284.79" rx="3"/><rect class="cls-9" x="496.89" y="637.5" width="131.97" height="284.79" rx="3"/><rect class="cls-9" x="388.89" y="636.5" width="131.97" height="284.79" rx="3"/><rect class="cls-9" x="840.92" y="589.53" width="131.97" height="284.79" rx="3"/><polygon class="cls-9" points="1976 910.19 1846.8 910.19 1846.78 584.41 1976 683.75 1976 910.19"/><polygon class="cls-9" points="1595.14 540.49 1595.14 518.26 1503.45 519.86 1503.45 540.49 1477.4 540.49 1477.4 912.8 1621.18 912.8 1621.18 540.49 1595.14 540.49"/><rect class="cls-9" x="325.45" y="604.18" width="93.77" height="317.43" rx="2.04"/><polygon class="cls-9" points="350.61 487.84 323.52 449.63 233.22 449.63 233.22 487.84 233.22 849.73 388.12 849.73 388.12 487.84 350.61 487.84"/><rect class="cls-9" x="1677.45" y="735.18" width="93.77" height="317.43" rx="2.04"/><polygon class="cls-9" points="1702.61 618.84 1675.52 580.63 1585.22 580.63 1585.22 618.84 1585.22 980.73 1740.12 980.73 1740.12 618.84 1702.61 618.84"/><rect class="cls-9" x="1225.33" y="511.47" width="112.53" height="291.04" rx="2.13"/><ellipse class="cls-9" cx="1281.59" cy="521.16" rx="44.71" ry="48.21"/><rect class="cls-9" x="1279.19" y="435.31" width="4.81" height="48.1" rx="2.41" transform="translate(2563.19 918.73) rotate(-180)"/><rect class="cls-9" x="1066.02" y="527.61" width="124.33" height="309.1"/><rect class="cls-9" x="1080.8" y="502.15" width="42.33" height="31.75" transform="translate(2203.93 1036.06) rotate(-180)"/><rect class="cls-9" x="1130.83" y="510.81" width="42.33" height="31.75" transform="translate(2303.99 1053.37) rotate(-180)"/><path class="cls-9" d="M2003.31,753.88H1876.57a2.27,2.27,0,0,1-2.27-2.27V484.37l129-90.3a2.28,2.28,0,0,1,2.27,2.28V751.61A2.27,2.27,0,0,1,2003.31,753.88Z"/><rect class="cls-9" x="1325.76" y="591.85" width="124.33" height="309.1"/><polygon class="cls-9" points="164.81 755.83 35.61 755.83 35.59 447 164.81 529.39 164.81 755.83"/><rect class="cls-9" x="-51.88" y="476.46" width="93.77" height="317.43" rx="2.04"/><rect class="cls-9" x="1016.8" y="646.25" width="131.97" height="284.79" rx="3"/><polygon class="cls-9" points="835 890.19 705.8 890.19 705.78 564.41 835 663.75 835 890.19"/><polygon class="cls-9" points="1261.14 580.49 1261.14 558.26 1169.45 559.86 1169.45 580.49 1143.4 580.49 1143.4 952.8 1287.18 952.8 1287.18 580.49 1261.14 580.49"/><rect class="cls-9" x="142.33" y="574.47" width="112.53" height="291.04" rx="2.13"/><ellipse class="cls-9" cx="198.59" cy="584.16" rx="44.71" ry="48.21"/><rect class="cls-9" x="196.19" y="498.31" width="4.81" height="48.1" rx="2.41" transform="translate(397.19 1044.73) rotate(180)"/><rect class="cls-10" y="793" width="1920" height="285"/><rect class="cls-11" y="748" width="1920" height="45"/></svg>