<svg id="Layer_1" data-name="Layer 1" xmlns="http://www.w3.org/2000/svg" width="360" height="110" viewBox="0 0 360 110"><defs><style>.cls-1{fill:#fff;}.cls-2{fill:#4d226d;}</style></defs><path class="cls-1" d="M38,110C17.05,110,0,85.33,0,55S17.05,0,38,0H322C343,0,360,24.67,360,55S343,110,322,110Z"/><rect class="cls-2" x="6.39" y="5" width="347.21" height="100" rx="41.22"/><path class="cls-1" d="M90.93,32.86c-7.38,1.71-32.55,2.9-32.55,16,0,3.76,3,6.79,7.25,7.06a7.46,7.46,0,0,0,8.11-6.34,9.58,9.58,0,0,0-.46-3.5c-.14,1.52-1.06,2.78-2.57,2.78a1.87,1.87,0,0,1-1.92-2.12c0-4.15,6.86-7.26,16.21-9.83C78.61,54.31,70.44,64.4,65,64.4c-2.31,0-3.36-1.25-3.36-2.77a3.11,3.11,0,0,1,2.24-2.9A8.11,8.11,0,0,0,58.71,57,9.56,9.56,0,0,0,49,66.91c0,6.53,5.93,10.23,11.4,10.23,12.92,0,20-16.76,23.46-26C86.06,45.27,88.56,38.73,90.93,32.86Z"/><path class="cls-1" d="M238.81,50.48a4.56,4.56,0,1,0,0-9.11,4.56,4.56,0,0,0,0,9.11Z"/><path class="cls-1" d="M313.08,62.36c-1.65,3-3.23,5.28-5.4,6.73a8.62,8.62,0,0,0,.26-2.24c0-3.44-.92-6.74-.92-10.1,0-.66.13-1.39.92-1.39.27,0,.46.13.73.13a2.09,2.09,0,0,0,2.17-2.11,2,2,0,0,0-2.17-1.91c-2.9,0-8.24,6-10.15,8.18a2.15,2.15,0,0,0-1.39-.53c-3.62,0-5.74,5-6.12,8.39a3.82,3.82,0,0,1-2.51,1.25c-1.45,0-2-1.06-2-2.38,0-1.84,2.57-5.34,2.57-8.58,0-3-1.51-5.08-4.87-5.08-2.84,0-5.93,1.85-8,3.76l.92-2.63h-7.31l-3,8.82c-.93,1.63-2.37,3.78-4,3.78a12.89,12.89,0,0,0,.86-4.69c0-4.75-2-9.1-7.32-9.1-5.85,0-10.45,5.25-12.2,10.82-1.35,2.4-3.32,5.28-5.52,5.28a1.92,1.92,0,0,1-2-2.18c0-1.65.72-3.56,3.89-12.73h-7.45l-3,8.86c-1.23,2.35-3.45,6.05-6.21,6.05a2.23,2.23,0,0,1-2.44-2.38,8.58,8.58,0,0,1,.46-2.57l2.51-7.46h3.69l.92-2.5H225.3l3.1-9.05h-2.5a17.65,17.65,0,0,1-10.41,9.11l-1.13,2.44h2.71l-2.42,6.87c-2,3.12-5.35,6-8.85,6s-4.75-2.44-4.75-5.21a10.35,10.35,0,0,1,4.55-8.71,2.48,2.48,0,0,0-.07.72,2.94,2.94,0,0,0,3.1,3.1A3.25,3.25,0,0,0,211.79,56c0-1.79-1.51-3.1-3.62-3.1-5.94,0-11.82,5-14.09,10.91-1.29,2.26-3.14,5-5.35,5-1.38,0-2-.86-2-2.24a5.37,5.37,0,0,1,.39-2l3.69-10.69h-7.44l-2.57,7.39c-.79,2.31-2.77,7.52-5.8,7.52a1.83,1.83,0,0,1-2-2.05,6.14,6.14,0,0,1,.46-1.91l3.76-10.95h-7.58l-3,9c-1.2,2.22-3.36,5.93-5.81,5.93a2.05,2.05,0,0,1-2-2.24c0-2.38,2.83-9.71,4.61-10.89l-.86-1.78h-9c-.66,0-1.32-.2-1.32-.66s.27-.86.27-1.26a2.67,2.67,0,0,0-2.57-2.77c-1.72,0-2.77,1.72-2.77,3.3A4.39,4.39,0,0,0,149.32,56a75.14,75.14,0,0,1-5.4,10c-1.15,1.5-2.56,2.74-4.15,2.74a2.23,2.23,0,0,1-2.44-2.38,8.58,8.58,0,0,1,.46-2.57l2.5-7.46H144l.93-2.5h-3.76l3.1-9.05h-2.51a17.6,17.6,0,0,1-10.41,9.11l-1.12,2.44h2.7l-2.46,7a16.39,16.39,0,0,1-4.85,5.74,8.62,8.62,0,0,0,.26-2.24c0-3.44-.92-6.74-.92-10.1,0-.66.13-1.39.92-1.39.27,0,.46.13.73.13a2.09,2.09,0,0,0,2.17-2.11,2,2,0,0,0-2.17-1.91c-2.9,0-8.24,6-10.15,8.18a2.14,2.14,0,0,0-1.38-.53c-3.63,0-5.75,5-6.13,8.39a3.82,3.82,0,0,1-2.51,1.25c-1.45,0-2-1.06-2-2.38,0-1.84,2.57-5.34,2.57-8.58,0-3-1.51-5.08-4.87-5.08-2.84,0-5.93,1.85-8,3.76L95,53.85H87.71l-7.45,22.3h7.32l4.28-12.67c1-3.17,3.56-6.6,6.65-6.6,1.19,0,1.59,1,1.59,2,0,3.5-4.55,7.79-4.55,13.07a4.78,4.78,0,0,0,4.55,4.95c3.46,0,6.56-2.73,9.09-6a8.11,8.11,0,0,0,7.64,6.06c5.12,0,8.94-3.34,11.88-7.39a11.55,11.55,0,0,0-.08,1.32c0,3.3,1.65,6,5.21,6,5.87,0,10.87-7.9,13.53-13,1.25-2.19,2.62-4.87,3.47-6.45a9.72,9.72,0,0,0,4.41,2.51c-2,2.24-5.2,7.85-5.2,11.55,0,2.83,1.58,5.41,4.41,5.41,3.81,0,7.29-3.4,10-7.14a10.92,10.92,0,0,0-.23,2.06c0,2.7,1.18,5.08,4.15,5.08,4,0,7.58-3.63,9.75-6.6a8.51,8.51,0,0,0-.13,1.38c0,2.64,1.25,5.22,4.28,5.22,4.14,0,7.95-3.89,10.81-8,0,4.52,2.07,8.18,7.25,8.18,4.16,0,8.83-3.21,12.6-8a13.66,13.66,0,0,0-.15,1.81c0,3.3,1.65,6,5.21,6,4,0,7.57-3.64,10.29-7.58a15,15,0,0,0-.21,2.3c0,2.57,1.25,5.28,4.81,5.28,4.11,0,7.8-4.35,10.49-8.56.06,4.49,2.88,8.49,7.7,8.49,4.48,0,8.76-4,10.68-7.92a7.75,7.75,0,0,0,3.45-1.32l-2.86,8.58h7.31l4.29-12.67c1.05-3.17,3.56-6.6,6.65-6.6,1.19,0,1.58,1,1.58,2,0,3.5-4.54,7.79-4.54,13.07a4.78,4.78,0,0,0,4.54,4.95c3.46,0,6.56-2.73,9.1-6a8.11,8.11,0,0,0,7.64,6.06c7.85,0,12.66-7.85,15.88-14ZM115.72,69.82a2.17,2.17,0,0,1-2-1.06,7.89,7.89,0,0,0,3.56-6.47V61.7a49.88,49.88,0,0,1,5.8-6.27C121.38,59.26,121.45,69.82,115.72,69.82Zm143.52-3a4.84,4.84,0,0,1-3.49,1.85c-2.64,0-3.56-2.84-3.56-5.08,0-3.11,2.24-8.25,5.87-8.25a3.38,3.38,0,0,1,3.16,2.5c-2.44.14-3.82,2.64-3.82,4.89A5.19,5.19,0,0,0,259.24,66.78Zm38.55,3a2.16,2.16,0,0,1-2-1.06,7.86,7.86,0,0,0,3.55-6.47V61.7a51.42,51.42,0,0,1,5.8-6.27C303.46,59.26,303.53,69.82,297.79,69.82Z"/><path d="M40.15,15.71H317.81c7.7,0,14.81,3.85,20.51,10.29-6-9.66-14.66-15.74-24.21-15.74H43.85c-9.55,0-18.19,6.08-24.21,15.74C25.34,19.56,32.45,15.71,40.15,15.71Z"/></svg>