<svg id="Layer_1" data-name="Layer 1" xmlns="http://www.w3.org/2000/svg" width="130" height="370" viewBox="0 0 130 370"><defs><style>.cls-1{fill:#42210b;}.cls-2{fill:#3f1d05;}.cls-3,.cls-4{fill:#231003;}.cls-3{opacity:0.2;}.cls-4{opacity:0.64;}.cls-5{fill:#c7b299;}.cls-6{fill:#99c2d2;}.cls-7{fill:#fff;}.cls-8{fill:#d4145a;}.cls-9{fill:#25160f;}.cls-10{fill:#190d04;opacity:0.1;}</style></defs><path class="cls-1" d="M111.68,170.16s-1.38-1.16-2.4-2a10.44,10.44,0,0,1-2.23-2.47c-5.76-5.8-1-20.09.8-26.85,7.06-32.47,4.35-67.43,3.75-100.36,9.38-3.78,3.27-17.18,2.66-24.25a1.22,1.22,0,0,1,.33-.62c4.06-1.15,3.24-5.55.86-8.77C109.72.5,98,1.36,91.12,1.12,83.71.86,73.31-.65,66.9,2,64.56,3,63,5.75,63.16,7.53,64.92,8.82,64.85,9.6,64.81,10c-2.22,4.58-10.76,18-3.87,22A517.16,517.16,0,0,0,48.82,94.47c-1.77,13.29-3.9,27.36-2.46,40.78,0,0,.65,5.37,1,7.63.5,6.19,2.91,17.84-3.64,22.17l-1.38.73-.36.15h0c-15.6,8.73-20.93,24.78-22.95,41.23.2,40.34-1.46,80.66-2.19,121-.19,20.07,12.69,39.39,34.21,41.53,23.39,2.33,51.7-8.6,59.09-31.87,7.67-41,14-81.93,19.23-123.26C129.26,198.09,125.56,181,111.68,170.16Z"/><path class="cls-2" d="M111.68,170.16s-1.38-1.16-2.4-2a10.44,10.44,0,0,1-2.23-2.47c-5.76-5.8-1-20.09.8-26.85,7.06-32.47,4.35-67.43,3.75-100.36,9.38-3.78,3.27-17.18,2.66-24.25a1.22,1.22,0,0,1,.33-.62c4.06-1.15,3.24-5.55.86-8.77C109.83,1,98,.51,91.17.26,83.76,0,73.31-.65,66.9,2,64.56,3,63,5.75,63.16,7.53,64.92,8.82,64.85,9.6,64.81,10c-2.22,4.58-10.76,18-3.87,22A517.16,517.16,0,0,0,48.82,94.47c-1.77,13.29-3.9,27.36-2.46,40.78,0,0,.65,5.37,1,7.63.5,6.19,2.91,17.84-3.64,22.17l-1.38.73-.36.15h0c-15.6,8.73-20.93,24.78-22.95,41.23.2,40.34-1.46,80.66-2.19,121-.19,20.07,12.69,39.39,34.21,41.53,23.39,2.33,51.7-8.6,59.09-31.87,7.67-41,14-81.93,19.23-123.26C129.26,198.09,125.56,181,111.68,170.16Z"/><path class="cls-3" d="M57.33,364.71a55.83,55.83,0,0,1-5.68-.28,30,30,0,0,1-21.18-11.81,38.66,38.66,0,0,1-7.79-24c.24-13.47.59-27.18.93-40.44.68-26.3,1.38-53.49,1.25-80.29,2.36-18.68,8.73-30.33,20-36.64l.09-.05.17-.09c.42-.23.81-.44,1.19-.63a5.45,5.45,0,0,0,.62-.35c8.53-5.65,7.27-17.06,6.44-24.61-.11-1-.21-1.91-.27-2.69l0-.3c-.29-2.1-.88-7.06-.94-7.52-1.27-11.84.44-24.48,2.08-36.71l.37-2.71c.93-7,2-14,3.15-20.75,2.6-5.49,49.17-5,49,2.81.26,18.46-.14,39.92-4.54,60.28-.14.5-.3,1.05-.46,1.63-2.37,8.37-6.3,22.26.7,30a15.81,15.81,0,0,0,3.12,3.34c1,.8,2.31,1.92,2.32,1.93l.16.13c10.24,8,15.32,21,15.52,39.66-5.22,41.32-11.64,82.43-19.07,122.22-3.48,10.57-11.67,17-18,20.51A60.66,60.66,0,0,1,57.33,364.71Z"/><path class="cls-4" d="M33.22,338.14c-4.28-43.08-26.84-175,31.89-170.45C45.19,156.3,47.22,47.13,77.55,33.9c-10.11-4.16-.27-16.2,2-20.79,0-.38.2-1.35-1.56-2.64-.78-4.92,9-4.16,12.68-5a96.66,96.66,0,0,1,23-1.82c-6.1-2.72-16-3.14-22-3.36C84.15,0,73.7-.65,67.29,2,65,3,63.38,5.75,63.55,7.53,65.31,8.82,65.24,9.6,65.2,10,63,14.56,54.44,28,61.33,32A517.16,517.16,0,0,0,49.21,94.47c-1.77,13.29-3.9,27.36-2.46,40.78,0,0,.65,5.37,1,7.63.5,6.19,2.91,17.84-3.64,22.17l-1.38.73-.36.15h0c-15.6,8.73-20.93,24.78-22.95,41.23.2,40.34-1.47,80.66-2.19,121-.19,20.07,12.68,39.39,34.21,41.53a64.93,64.93,0,0,0,11.34.12C48.56,363.08,35.16,359.69,33.22,338.14Z"/><path class="cls-5" d="M105.76,26.07a10.9,10.9,0,0,1-8.51,6.64,2.38,2.38,0,0,1-2.79-1.85,54.4,54.4,0,0,0-.73-12.57c-.13-.66,1-1.73,2.33-1.62l7.35.66a2.13,2.13,0,0,1,2.08,1.72c.15,2.51.23,3.79.38,6.38A1.54,1.54,0,0,1,105.76,26.07Z"/><path class="cls-5" d="M105.72,11.35a41.23,41.23,0,0,1-8.17.2c-1.07,0-2.68-.49-2.59-1.42V10c0-.76.8-1.39,1.87-1.41a69.84,69.84,0,0,0,8.68-.25,1.85,1.85,0,0,1,2,1.4v.12A1.86,1.86,0,0,1,105.72,11.35Z"/><path class="cls-5" d="M100,338l.31,0c1.73.06,3.38-.52,3.67-3l15.89-118.64a4.52,4.52,0,0,0-4-5l-.31,0a4.59,4.59,0,0,0-5.1,3.93L99.09,334.22C98.8,336.66,98.94,337.76,100,338Z"/><path class="cls-5" d="M93.88,156.6l.17,0a3.53,3.53,0,0,0,3.66-2.31c7.89-23.15,11.05-56.31,9.36-99.69a3.46,3.46,0,0,0-3.18-3.27h0a3.45,3.45,0,0,0-3.83,3.53c1.57,35.82-1.41,68.5-9.25,97.45A3.43,3.43,0,0,0,93.88,156.6Z"/><path class="cls-5" d="M103.61,171.09c-.46-.35-3.6-1.21-5.14-.39h0c-1.86,1,.3,3.37.86,3.79,9.86,7.35,11.28,13,11.28,23.44,0,1.89,2.36,2.54,4.26,1.53l.15-.08,0,0c1.63-.87,2.19-2.64,2.3-4.44A24.63,24.63,0,0,0,103.61,171.09Z"/><path class="cls-6" d="M117.16,319.48C100.65,329.63,76.67,341,56.37,338.17c-18-2.48-30.55-17.58-41.56-30.17.29-30,.7-59.91.58-89.87,17.39,10.07,37.36,18.7,57.76,20.6,18.7,1.74,38.81-3.06,56.14-9.43C125.89,259.46,122,289.5,117.16,319.48Z"/><ellipse cx="22.62" cy="247.48" rx="22.61" ry="21.98"/><ellipse class="cls-7" cx="28.81" cy="241.22" rx="10.12" ry="9.83"/><ellipse class="cls-7" cx="11.33" cy="252.07" rx="5.81" ry="5.64"/><ellipse cx="107.38" cy="257.95" rx="22.61" ry="21.98"/><ellipse class="cls-7" cx="113.57" cy="251.7" rx="10.12" ry="9.83"/><ellipse class="cls-7" cx="95.97" cy="263.5" rx="5.81" ry="5.64"/><path d="M88.88,281.64c-19.26,0-36.71-3.25-55.56-6.84a3,3,0,0,0-3.41,3.51c1.75,9.9,6.49,20.3,15,26,.15-7.62,9.49-13.77,21-13.77,7.23,0,13.61,2.44,17.39,6.14a56.17,56.17,0,0,0,7.9-10.9A2.65,2.65,0,0,0,88.88,281.64Z"/><path class="cls-8" d="M44.89,304.35a25.47,25.47,0,0,0,9.18,3.89c11.38,2.37,21.65-3.41,29.21-11.52-3.78-3.7-10.16-6.14-17.39-6.14C54.38,290.58,45,296.73,44.89,304.35Z"/><path class="cls-5" d="M69.67,2.28C69.92,1.55,78.82.16,90.4.8s21.13,2.64,21.21,3.8c.09,1.46-9.55,2.12-21.13,1.48S69.59,3.74,69.67,2.28Z"/><path class="cls-9" d="M72.25,2.31c0-.76,8.89-1.42,17.47-.93,9.75.55,17.92,2.06,17.92,3.19s-9.27,1.2-17.86.72S72.25,3.44,72.25,2.31Z"/><path class="cls-10" d="M89.21,78.78c-2.32,0-4.76,0-7.25-.08a154.08,154.08,0,0,1-16.79-1.38c-5.14-.79-7.57-1.76-7.45-2.94.22-2.07,8.38-3.08,24.27-3,11.08,0,21,1.37,23.58,3.14.52.36.76.73.72,1.12h0c-.13,1.19-2.7,2.08-7.65,2.63C95.93,78.56,92.7,78.74,89.21,78.78Zm-12.3-5.84c-13.7.18-17.66,1.27-17.74,2-.05.41,1.58,1.13,6.36,1.79a165.12,165.12,0,0,0,16.53,1.21,131.7,131.7,0,0,0,16.35-.41c4.67-.48,6.39-1.18,6.45-1.62h0c0-.12-.1-.25-.34-.4-2-1.23-11-2.52-22.55-2.55C80.15,72.91,78.47,72.92,76.91,72.94Z"/></svg>