<svg id="Layer_1" data-name="Layer 1" xmlns="http://www.w3.org/2000/svg" width="80" height="80" viewBox="0 0 80 80"><defs><style>.cls-1{fill:#fff;}.cls-2{fill:#262626;}</style></defs><rect class="cls-1" x="17.7" y="29.08" width="12.56" height="23.07" rx="0.91"/><path class="cls-1" d="M57.2,63.46,34.09,52.4a.9.9,0,0,1-.52-.82V29.66a.93.93,0,0,1,.52-.83L57.2,17.77a.92.92,0,0,1,1.31.83v44A.91.91,0,0,1,57.2,63.46Z"/><circle class="cls-1" cx="40" cy="40" r="40"/><circle class="cls-2" cx="40" cy="40" r="37.29"/><path d="M40,10.39A32.23,32.23,0,0,1,72.17,40.62c0-.66.06-1.33.06-2a32.23,32.23,0,1,0-64.46,0c0,.67,0,1.34.06,2A32.23,32.23,0,0,1,40,10.39Z"/><rect class="cls-1" x="1.75" y="33.78" width="77.19" height="11.36" transform="translate(-16.08 40.09) rotate(-45)"/><rect class="cls-1" x="16.71" y="28.97" width="12.56" height="23.07" rx="0.91"/><path class="cls-1" d="M56.2,63.35,33.09,52.29a.9.9,0,0,1-.52-.82V29.55a.9.9,0,0,1,.52-.82L56.2,17.67a.91.91,0,0,1,1.31.82v44A.91.91,0,0,1,56.2,63.35Z"/></svg>