<svg xmlns="http://www.w3.org/2000/svg" width="335" height="113.1" viewBox="0 0 335 113.1"><defs><style>.cls-1{fill:#fff;}.cls-2{fill:#262626;}.cls-3{fill:#888790;}.cls-4{fill:#756965;}.cls-5{fill:#2b2a2a;}.cls-6{fill:#31352e;}.cls-7{fill:#514f5b;}.cls-8{fill:#6a6975;}.cls-9{fill:#ed1c24;}.cls-10{fill:#29abe2;}.cls-11{fill:#bbef1f;}.cls-12{fill:#bf1051;}.cls-13{fill:#ff7bac;}.cls-14{fill:#851014;}</style></defs><g id="Lite"><path class="cls-1" d="M285.67,14.63H49.33C22.13,14.63,0,29,0,46.58v27.1c0,17.62,22.13,31.95,49.33,31.95H285.67c27.2,0,49.33-14.33,49.33-31.95V46.58C335,29,312.87,14.63,285.67,14.63Z"/><path class="cls-2" d="M328.28,73.52V46.41c0-15.31-19.33-27.87-42.95-27.87H49.24c-23.63,0-43,12.54-43,27.87V73.52c0,15.31,19.33,27.86,43,27.86H285.33C309,101.38,328.28,88.85,328.28,73.52Z"/><path d="M54.13,29.21H281.35c15.06,0,28.38,3.35,36.41,8.46-4.75-8.48-21.41-14.73-41.17-14.73H58.89c-19.76,0-36.42,6.28-41.17,14.73C25.75,32.56,39.07,29.21,54.13,29.21Z"/><path d="M168.78,113.36c-18.85,0-34.18-15.89-34.18-35.42a36.41,36.41,0,0,1,.93-8.19l-11.1-22.94a5.78,5.78,0,0,1,.21-5.49,5.46,5.46,0,0,1,4.63-2.7,5.32,5.32,0,0,1,2.67.72l6.12,3.51,4.46-40.19a3.27,3.27,0,0,1,2.24-2.78,3.19,3.19,0,0,1,.91-.14A3.11,3.11,0,0,1,148.1.92l32.78,40.61,2.51,3,20.32-10.69a4.94,4.94,0,0,1,2.35-.59,5.74,5.74,0,0,1,5.56,5.92,5.93,5.93,0,0,1-.46,2.08L202,62.1a12.23,12.23,0,0,1,.9,13.55c.06.8.08,1.56.08,2.29C203,97.47,187.63,113.36,168.78,113.36Z"/><path class="cls-1" d="M183.2,48.29a1,1,0,0,0-.52,1.13c.34,1.71,2.69,5,6,8.34s6.62,5.6,8.26,5.88a1.07,1.07,0,0,0,1-.57h0l10.22-23.2c.85-1.91-1.33-4.07-3.1-3.1Z"/><ellipse class="cls-3" cx="168.78" cy="77.94" rx="31.01" ry="32.13"/><ellipse cx="163.22" cy="71.09" rx="8.34" ry="8.64"/><ellipse class="cls-1" cx="165.8" cy="68.94" rx="3.22" ry="3.35"/><ellipse class="cls-1" cx="159.48" cy="74.21" rx="1.61" ry="1.67"/><ellipse cx="192.99" cy="69.55" rx="8.34" ry="8.64"/><ellipse class="cls-1" cx="195.57" cy="67.39" rx="3.22" ry="3.35"/><ellipse class="cls-1" cx="189.24" cy="72.67" rx="1.61" ry="1.67"/><path class="cls-4" d="M182.85,48.87s-8,1.78-21.34,5.88-22.37,7.8-22.37,7.8l.54-5.51,2-18,1.15-10.33,2-18,.84-7.58,3,3.71,7.23,8.9,4.13,5.16,7.17,8.87,4.13,5.05,7.18,8.9Z"/><polygon class="cls-5" points="167.3 29.68 139.57 57.25 141.58 39.07 160.06 20.71 167.3 29.68"/><path class="cls-5" d="M178.65,43.74l-7,7-.28.1-11.1,3.45-.4.11L148.23,58l-.24.07,23.42-23.3Z"/><polygon class="cls-5" points="155.89 15.55 142.74 28.62 144.76 10.44 148.66 6.57 155.89 15.55"/><path class="cls-6" d="M187.87,87.18a46.85,46.85,0,0,1-4.79,7.59,16.15,16.15,0,0,1-4.43,4.13c-.19.19-1.2.36-1.39-.27a27.48,27.48,0,0,1-2.72-5.78,14,14,0,0,1-.87-5.78,1.22,1.22,0,0,1,.52-.82A8.44,8.44,0,0,1,177.76,85a23.74,23.74,0,0,1,3.76-.31,20.11,20.11,0,0,1,2.33.15,10.94,10.94,0,0,1,3.45,1l.19.1a.94.94,0,0,1,.41,1.25Z"/><path class="cls-1" d="M177.76,84.93l-1.41,4.67a.58.58,0,0,1-.71.41.6.6,0,0,1-.41-.41l-1-3.44A8.55,8.55,0,0,1,177.76,84.93Z"/><path class="cls-1" d="M187.3,85.72l-1,3.39a.58.58,0,0,1-.71.4.58.58,0,0,1-.4-.4l-1.31-4.34A10.81,10.81,0,0,1,187.3,85.72Z"/><path class="cls-7" d="M183.08,94.77a16.15,16.15,0,0,1-4.43,4.13c-.19.19-1.2.36-1.39-.27a27.48,27.48,0,0,1-2.72-5.78,6,6,0,0,1,2.07-.84A6.17,6.17,0,0,1,183.08,94.77Z"/><polygon class="cls-8" points="183.04 78.96 178.95 82.31 185.15 81.53 183.04 78.96"/><path class="cls-1" d="M154.43,56a1.26,1.26,0,0,1,.61,1.26c-.25,1.8-2.53,5.17-5.86,8.49s-6.68,5.53-8.42,5.71a1.16,1.16,0,0,1-1.18-.68h0L127.27,45.33a2.31,2.31,0,0,1,1-3.1,2.35,2.35,0,0,1,2.1,0Z"/><path d="M72.62,113.1c-18.84,0-34.17-15.82-34.17-35.26a36.06,36.06,0,0,1,.93-8.15L28.24,46.83a5.7,5.7,0,0,1,.22-5.46,5.43,5.43,0,0,1,4.63-2.69,5.35,5.35,0,0,1,2.65.72l6.13,3.5,4.46-40A3.24,3.24,0,0,1,48.57.14a3.08,3.08,0,0,1,3.34,1L84.72,41.59l2.51,3,20.32-10.66a5.07,5.07,0,0,1,2.35-.58,5.72,5.72,0,0,1,5.1,8L105.81,62.1a12.14,12.14,0,0,1,.91,13.49c0,.8.07,1.55.07,2.28C106.79,97.28,91.47,113.1,72.62,113.1Z"/><path class="cls-1" d="M87,48.34a1,1,0,0,0-.5,1.14c.33,1.69,2.67,5,6,8.29s6.62,5.58,8.27,5.85a1,1,0,0,0,1.09-.57h0L112.11,40c.84-1.9-1.33-4.05-3.13-3.11Z"/><ellipse class="cls-9" cx="72.62" cy="77.84" rx="31" ry="31.99"/><ellipse cx="67.07" cy="71.03" rx="8.34" ry="8.6"/><ellipse class="cls-1" cx="69.65" cy="68.88" rx="3.22" ry="3.33"/><ellipse class="cls-1" cx="63.32" cy="74.13" rx="1.61" ry="1.66"/><ellipse cx="96.83" cy="69.49" rx="8.34" ry="8.6"/><ellipse class="cls-1" cx="99.41" cy="67.35" rx="3.22" ry="3.33"/><ellipse class="cls-1" cx="93.08" cy="72.59" rx="1.61" ry="1.66"/><path class="cls-10" d="M86.68,48.9s-8,1.77-21.33,5.86S43,62.52,43,62.52L43.53,57l2-18,1.15-10.32,2-18,.84-7.54,3,3.72,7.2,8.89,4.13,5.09L71,29.83l4.08,5,7.18,8.86Z"/><polygon class="cls-11" points="71.14 29.79 43.42 57.25 45.43 39.15 63.9 20.86 71.14 29.79"/><path class="cls-11" d="M82.5,43.92l-7,7h-.26L64.09,54.36l-.39.12L52.08,58.07l-.24.08,23.4-23.23Z"/><polygon class="cls-11" points="59.74 15.72 46.59 28.74 48.61 10.65 52.5 6.79 59.74 15.72"/><path class="cls-12" d="M91.72,87a47.54,47.54,0,0,1-4.79,7.51,16.3,16.3,0,0,1-4.44,4.08c-.19.19-1.2.36-1.39-.27a27.68,27.68,0,0,1-2.72-5.74,14,14,0,0,1-.86-5.76A1.2,1.2,0,0,1,78,86a8.61,8.61,0,0,1,3.57-1.21,23.64,23.64,0,0,1,3.76-.3,18,18,0,0,1,2.32.14,10.92,10.92,0,0,1,3.45.94l.2.11A.92.92,0,0,1,91.77,87,.41.41,0,0,1,91.72,87Z"/><path class="cls-1" d="M81.61,84.83l-1.37,4.64a.58.58,0,0,1-.72.39.59.59,0,0,1-.39-.39l-1-3.43A8.67,8.67,0,0,1,81.61,84.83Z"/><path class="cls-1" d="M91.14,85.58l-1,3.38a.58.58,0,0,1-.72.39A.59.59,0,0,1,89,89l-1.31-4.32A11,11,0,0,1,91.14,85.58Z"/><path class="cls-13" d="M86.93,94.55a16.3,16.3,0,0,1-4.44,4.08c-.19.19-1.2.36-1.39-.27a27.68,27.68,0,0,1-2.72-5.74,6.3,6.3,0,0,1,2.12-.85,6.73,6.73,0,0,1,1.18-.11,5.87,5.87,0,0,1,1.39.16A6.37,6.37,0,0,1,86.93,94.55Z"/><polygon class="cls-14" points="86.88 78.86 82.79 82.19 88.99 81.42 86.88 78.86"/><path class="cls-1" d="M58.24,56a1.25,1.25,0,0,1,.61,1.25C58.6,59,56.32,62.41,53,65.71s-6.68,5.5-8.42,5.69a1.19,1.19,0,0,1-1.18-.68h0L31.11,45.38a2.3,2.3,0,0,1,3.13-3.1Z"/><path d="M264.94,113.1c-18.84,0-34.17-15.82-34.17-35.26a36.06,36.06,0,0,1,.93-8.15L220.6,46.83a5.7,5.7,0,0,1,.22-5.46,5.43,5.43,0,0,1,4.63-2.69,5.35,5.35,0,0,1,2.65.72l6.13,3.5,4.46-40A3.24,3.24,0,0,1,240.93.14a3.14,3.14,0,0,1,.91-.14,3.1,3.1,0,0,1,2.4,1.17L277,41.59l2.51,3,20.32-10.66a5.07,5.07,0,0,1,2.35-.58,5.72,5.72,0,0,1,5.1,8L298.13,62.1A12.14,12.14,0,0,1,299,75.59c0,.8.08,1.55.08,2.28C299.12,97.28,283.79,113.1,264.94,113.1Z"/><path class="cls-1" d="M279.35,48.34a1,1,0,0,0-.5,1.14c.33,1.69,2.68,5,6,8.29s6.62,5.58,8.28,5.85a1,1,0,0,0,1.08-.57h0L304.44,40c.83-1.9-1.34-4.05-3.14-3.11Z"/><ellipse class="cls-3" cx="264.94" cy="77.84" rx="31" ry="31.99"/><ellipse cx="259.39" cy="71.03" rx="8.34" ry="8.6"/><ellipse class="cls-1" cx="261.97" cy="68.88" rx="3.22" ry="3.33"/><ellipse class="cls-1" cx="255.64" cy="74.13" rx="1.61" ry="1.66"/><ellipse cx="289.15" cy="69.49" rx="8.34" ry="8.6"/><ellipse class="cls-1" cx="291.73" cy="67.35" rx="3.22" ry="3.33"/><ellipse class="cls-1" cx="285.41" cy="72.59" rx="1.61" ry="1.66"/><path class="cls-4" d="M279,48.9s-8,1.77-21.33,5.86-22.36,7.76-22.36,7.76l.54-5.49,2-18L239,28.71l2-18,.84-7.54,3,3.72,7.2,8.89,4.13,5.09,7.18,8.91,4.08,5,7.18,8.86Z"/><polygon class="cls-5" points="263.46 29.79 235.74 57.25 237.75 39.15 256.22 20.86 263.46 29.79"/><path class="cls-5" d="M274.82,43.83l-7,7-.28.09-11.11,3.43-.39.12-11.62,3.59-.24.08,23.4-23.31Z"/><polygon class="cls-5" points="252.06 15.72 238.91 28.74 240.93 10.65 244.82 6.79 252.06 15.72"/><path class="cls-6" d="M284,87a47.54,47.54,0,0,1-4.79,7.51,16.26,16.26,0,0,1-4.43,4.08c-.2.19-1.21.36-1.4-.27a27.64,27.64,0,0,1-2.71-5.74,13.8,13.8,0,0,1-.87-5.76,1.22,1.22,0,0,1,.52-.82,8.76,8.76,0,0,1,3.57-1.21,23.64,23.64,0,0,1,3.76-.3,18,18,0,0,1,2.32.14,10.92,10.92,0,0,1,3.45.94l.2.11a.91.91,0,0,1,.44,1.21Z"/><path class="cls-1" d="M273.93,84.83l-1.42,4.67a.58.58,0,0,1-.72.39.59.59,0,0,1-.39-.39l-1-3.43A8.58,8.58,0,0,1,273.93,84.83Z"/><path class="cls-1" d="M283.46,85.58l-1,3.38a.58.58,0,0,1-.72.39.59.59,0,0,1-.39-.39L280,84.64A11,11,0,0,1,283.46,85.58Z"/><path class="cls-7" d="M279.24,94.55a16.26,16.26,0,0,1-4.43,4.08c-.2.19-1.21.36-1.4-.27a27.64,27.64,0,0,1-2.71-5.74,6.16,6.16,0,0,1,2.11-.85,6.73,6.73,0,0,1,1.18-.11,5.87,5.87,0,0,1,1.39.16A6.31,6.31,0,0,1,279.24,94.55Z"/><polygon class="cls-8" points="279.2 78.86 275.11 82.19 281.31 81.42 279.2 78.86"/><path class="cls-1" d="M250.6,55.92a1.23,1.23,0,0,1,.61,1.25c-.25,1.79-2.53,5.16-5.86,8.46s-6.68,5.5-8.42,5.69a1.19,1.19,0,0,1-1.18-.68h0L223.44,45.3a2.3,2.3,0,0,1,3.13-3.1l24,13.72Z"/></g></svg>