<svg id="Layer_1" data-name="Layer 1" xmlns="http://www.w3.org/2000/svg" width="270" height="185" viewBox="0 0 270 185"><defs><style>.cls-1{fill:#fbb040;}.cls-2{fill:#ffdf23;}.cls-3{fill:#bc8430;}.cls-4{fill:#c99d59;opacity:0.45;}.cls-5{fill:#be1e2d;}.cls-6{fill:#fff2a7;opacity:0.46;}.cls-7{fill:#fff;}.cls-8{fill:#8d6324;opacity:0.18;}</style></defs><path class="cls-1" d="M230.28,184.8v0c-.16,0-.31-.06-.47-.09l-.71-.12h0c-26.05-4.73-50.05-14.2-73.28-25.68h0c-15.46-7.64-30.57-16.16-45.73-24.78-12.75-7.25-25.16-13.89-37.81-19C51,106.46,29.1,102,3.85,105.73.91,106.17.07,98.91,0,94.94a1.69,1.69,0,0,1,0-.23c2.37-3.63,3.55-5.42,5.94-8.91C19.88,70.38,34.46,58,50.58,48.81h0Q56.16,45.62,62,43h0a144.23,144.23,0,0,1,46.51-12.08q3-.28,6.11-.47c10.46-.61,20.64-1.05,30.66-1.64q6.15-.36,12.23-.83c3.45-.27,6.89-.57,10.31-.93,16.5-1.72,32.84-4.6,49.63-10.26l2-.68h0c0,.05,0,.1,0,.15h0q.3,4.7.61,9.39,4.88,75.23,9.62,150.46c0,.2,0,.41,0,.61v0Q230,180.77,230.28,184.8Z"/><path class="cls-2" d="M236.46,124.55a304.57,304.57,0,0,1-5.39,52.36l-1.31-.23-.1,0c-24-4.26-46-12.52-68.06-22.86-2.17-1.1-4.33-2.2-6.48-3.32-16.2-8.44-31.95-17.59-47.74-26.81C94.94,116.52,83,110.29,70.91,105.51,49.35,97,27.38,93,1.41,96.6.52,96.76.06,96,0,94.94a1.69,1.69,0,0,1,0-.23A6.48,6.48,0,0,1,1.34,91c14.52-18,29.8-33.58,49.25-46.26q5.44-3,10.9-5.6a147.36,147.36,0,0,1,44.18-13C119,24.65,132,23.65,144.8,22.41c24.24-2.34,47.9-5.55,72-14.44l.06.17q1.35,4,2.63,7.93c0,.05,0,.09,0,.14a357.58,357.58,0,0,1,14.73,66.14A307.63,307.63,0,0,1,236.46,124.55Z"/><path class="cls-3" d="M268.61,166.7c-.4,3.29-1,5.61-1.79,6.67-2.11,2.73-2.8,3.56-5.12,4.76-9.37,4.64-22,8-32.54,6.54-.43-.13-.1-3.16.49-8,1-8.66,1.72-17.48,1.95-26.11A597.78,597.78,0,0,0,223.49,38c-1.64-9.84-8-22.05-6.7-29.66C218.19.12,241.15-3.39,248,4.19c14.7,15.07,14.52,53.19,16.76,72.6C268.15,106.07,272.17,137.45,268.61,166.7Z"/><path class="cls-4" d="M234.38,175c-1.49-.38-.65-5.39-.59-5.87,1-8.52,2.36-12.53,2.58-20.69a604.39,604.39,0,0,0-8.18-113.56A93.9,93.9,0,0,0,224.68,22c-.87-2.69-1.75-5.42-2.39-7.92a9,9,0,0,1,6.86-11,29.15,29.15,0,0,1,5.94-.6c4.33,0,7.92,1,9.39,2.62a.74.74,0,0,0,.12.13c10.71,11,12.78,37.55,14.29,57,.37,4.69.71,9.13,1.15,12.88l.52,4.46c3.26,28.08,6.63,57.12,3.32,84.31-.1.77-.19,1.41-.29,2-.28,1.56-.2,1.22-1.23,2.43a5.43,5.43,0,0,1-2,1.58C252.27,173.77,235.4,176,234.38,175Z"/><path class="cls-5" d="M220.22,59.23c1.21,16.71-13.26,31-30,29.5-18.16-1.67-32-18.82-32.52-36.6C157.2,35.3,171.53,25,187.49,27.56,203.22,30.1,219,42.48,220.22,59.23Z"/><path class="cls-6" d="M158.46,152.2c-15.46-7.64-29.29-16-44.45-24.66-12.74-7.25-28.42-16.12-41.07-21.27C72.37,63.5,68.51,46.06,61.76,39a147.09,147.09,0,0,1,44.18-13c13.31-1.48,26.3-2.47,39.13-3.71C155.25,68.87,162.15,108,158.46,152.2Z"/><path class="cls-5" d="M114,52.81C113.79,67,104,77.21,91.45,80a33.21,33.21,0,0,1-10.39.57A35.09,35.09,0,0,1,66.71,75.9,32.86,32.86,0,0,1,50.58,48.8c0-.88-.07-1.77,0-2.67,0-.47,0-.93.05-1.4q5.44-3,10.9-5.6a147.36,147.36,0,0,1,44.18-13,51.63,51.63,0,0,1,2.87,4.75A46.5,46.5,0,0,1,114,49.72C114,50.74,114,51.78,114,52.81Z"/><path class="cls-5" d="M172.91,131.27a25.91,25.91,0,0,1-11.31,22.52c-18.5-9.31-36.33-19.67-54.22-30.12a36.14,36.14,0,0,1-.16-4.42c.44-17.54,15.26-30.53,32.76-25.86C156.64,97.83,172.25,113.42,172.91,131.27Z"/><path d="M105.4,83.85C93.78,85.24,83.19,74.8,81,64.57c-2-9.38,3-24.4,14.78-24.8C107.06,39.38,117,50.61,119.54,61,122.08,71.08,116.24,82.55,105.4,83.85Z"/><path class="cls-7" d="M103.75,61.62c-4.15.29-8.4-3.21-9.42-8s1.55-9,5.66-9.34,8.27,3.5,9.32,8.28S107.91,61.32,103.75,61.62Z"/><path class="cls-7" d="M92.4,71.59a4.57,4.57,0,0,1-4.78-3.76c-.5-2.38.81-4.58,2.93-4.87s4.23,1.46,4.75,3.84S94.53,71.31,92.4,71.59Z"/><path d="M175.67,66.63c-11.62,1.64-21.52-9.28-24.56-19.28-2.81-9.28,1.73-21,12.5-20.82,10.23.14,21.28,7.9,24.53,18C191.23,54.16,186.3,65.12,175.67,66.63Z"/><path class="cls-7" d="M172.68,46.52c-4,.38-8.32-3-9.59-7.46S164,31,168,30.79s8.28,2.93,9.61,7.2S176.71,46.14,172.68,46.52Z"/><path class="cls-7" d="M162.35,55.28c-2,.1-4.15-1.66-4.77-3.9s.48-4.07,2.47-4.13a5.32,5.32,0,0,1,4.78,3.86C165.47,53.31,164.37,55.19,162.35,55.28Z"/><path d="M136.54,88.92h0c-4.38-3.69-4.1-10.3.4-11.25,8.62-1.83,17.19-3.72,25.76-5.75,4.46-1.12,9.66,3.62,8.92,8.35h0C169,98.22,147.87,98.66,136.54,88.92Z"/><path class="cls-8" d="M268.61,166.7c-.42,3.3-1,5.61-1.79,6.67-2.11,2.73-2.8,3.56-5.12,4.76-9.37,4.64-22,8-32.54,6.54-.43-.13-.08-3.14.49-8C241,179.47,260.26,175.11,268.61,166.7Z"/></svg>