<svg xmlns="http://www.w3.org/2000/svg" width="465" height="138.29" viewBox="0 0 465 138.29"><defs><style>.cls-1{fill:#fff;}.cls-2{fill:#4d226d;}</style></defs><g id="Lite"><path class="cls-1" d="M69.19,138.29A69.25,69.25,0,0,1,0,70.39C-.68,31.57,31.29,0,70.14,0H394.86C433.71,0,465.68,31.57,465,70.39a69.25,69.25,0,0,1-69.18,67.9Z"/><rect class="cls-2" x="7.02" y="7.02" width="450.95" height="124.25" rx="62.12"/><path d="M395.81,14H69.19a55.12,55.12,0,0,0-55.14,55.1h0c0,1.06,0,2.12.09,3.16A55.13,55.13,0,0,1,69.19,20.36H395.81A55.13,55.13,0,0,1,450.86,72.3c.05-1,.09-2.1.09-3.16h0A55.12,55.12,0,0,0,395.81,14Z"/><path class="cls-1" d="M227.49,54.63c0-9.81-5-19.2-13.73-24A31.88,31.88,0,0,1,220,25.62c-.21,0-.53-.11-.84-.11-2.75,0-5.7,2.32-7.6,4.12a38.82,38.82,0,0,0-15.1-3c-13,0-32.2,6.75-32.2,22.37a10.09,10.09,0,0,0,9.92,10.13c11.61,0,18.06-11,19.53-21.21-2.32,3.8-6.12,7.7-10.87,7.7a5.12,5.12,0,0,1-5.39-5c0-8.33,13.41-11.07,19.75-11.07a28.88,28.88,0,0,1,11.93,2.21c-10.35,10.13-15.52,24-23.55,35.77C182.72,71.73,179,77,173.33,77c-3.07,0-5.7-2-5.7-5.27a7.35,7.35,0,0,1,2.11-5.18c-9.08,0-17.63,7.18-17.63,16.68,0,8.23,6.75,14.34,14.88,14.34,19.85,0,27.35-27.11,33-42,3-7.81,6.33-15.72,11.51-22.37a17.12,17.12,0,0,1,7.91,14.56c0,4.33-2,10.13-7.07,10.13a3.88,3.88,0,0,1-3.91-3.8,4.29,4.29,0,0,1,.32-1.58,13.17,13.17,0,0,0-9,12.24,11.08,11.08,0,0,0,11.08,10.76C222.1,75.52,227.49,64.55,227.49,54.63Z"/><path class="cls-1" d="M311.42,76.79c-1.59,2.85-7.18,10.13-13.83,14L309.3,64.87h-9.07c-1.8,4.32-7.08,19.2-12.46,19.2a1.84,1.84,0,0,1-1.8-2,14.59,14.59,0,0,1,1.48-5.27l5.49-11.92h-9.19c-1.17,2.62-3.9,8.07-6.22,13.55-1.95,2.81-4.7,5.76-7.08,5.76A2.21,2.21,0,0,1,268.34,82c0-3.69,5-13.4,6.76-17.09h-9l-1.48,2.95c-.21-2.53-2.33-3.8-4.75-3.8-7.34,0-14.58,6.84-18.58,14.42-1.88,2.72-4.76,5.74-7.29,5.74-1.37,0-1.9-1.27-1.9-2.43,0-2.85,1.48-5.38,2.53-7.81l13.1-29.44h-9.19L222,81.54c-1.37,3.06-2.85,6.64-2.85,10s1.59,5.59,5.07,5.59c4.3,0,10.16-6.24,14.5-12a19,19,0,0,0-.56,4.37c0,4,2.11,7.7,6.44,7.7,5.8,0,11.08-7.49,13.41-12.14l.21.11c-1.48,3.48-3.38,12,2.85,12,3.91,0,9.65-6.42,13.91-12.13a21.51,21.51,0,0,0-1.25,6c0,3.16,1.59,6.12,5.18,6.12,5,0,11-8.13,13.41-13.08h.21Q290.62,89.09,289,94c-6.86,4.32-20.58,13.29-20.58,22.15,0,2.33,1.26,4.33,3.9,4.33a11.58,11.58,0,0,0,5.28-1.48c9.29-5.06,13.83-14.77,18.16-24.26,9.29-5.38,13.51-11.29,17.1-17.1Zm-58.49,7.7c-1.8,0-2.64-2.11-2.64-3.59,0-4.53,5.07-14.24,10.34-14.24,1.69,0,2.43,1.79,2.43,3.27C263.06,74.47,258.21,84.49,252.93,84.49ZM279.64,114c-1.06,0-1.38-1.26-1.38-2.11,0-5.59,5.6-10.86,9.72-14C287.13,100.53,282.38,114,279.64,114Z"/></g></svg>