<svg xmlns="http://www.w3.org/2000/svg" width="466.16" height="138.72" viewBox="0 0 466.16 138.72"><defs><style>.cls-1{fill:#fff;}.cls-2{fill:#4d226d;}</style></defs><g id="Lite"><path class="cls-1" d="M69.36,138.72A69.44,69.44,0,0,1,0,70.61C-.68,31.67,31.37,0,70.32,0H395.84c39,0,71,31.67,70.3,70.61a69.43,69.43,0,0,1-69.34,68.11Z"/><rect class="cls-2" x="7.04" y="7.04" width="452.07" height="124.64" rx="62.32"/><path d="M396.8,14.08H69.36A55.28,55.28,0,0,0,14.08,69.36h0c0,1.06,0,2.12.1,3.17A55.28,55.28,0,0,1,69.36,20.42H396.8A55.29,55.29,0,0,1,452,72.53c0-1,.09-2.11.09-3.17h0A55.28,55.28,0,0,0,396.8,14.08Z"/><path class="cls-1" d="M136.69,54.92c0-9.82-5-19.21-13.72-24a31.59,31.59,0,0,1,6.23-5.06c-.22,0-.53-.11-.85-.11-2.74,0-5.7,2.33-7.6,4.12a38.82,38.82,0,0,0-15.1-3c-13,0-32.2,6.76-32.2,22.37a10.09,10.09,0,0,0,9.92,10.13c11.62,0,18.06-11,19.54-21.21C100.58,42,96.78,46,92,46a5.12,5.12,0,0,1-5.38-5c0-8.34,13.41-11.08,19.74-11.08a28.86,28.86,0,0,1,11.93,2.22C108,42.25,102.8,56.08,94.78,67.89c-2.85,4.12-6.55,9.39-12.25,9.39-3.06,0-5.7-2-5.7-5.27a7.35,7.35,0,0,1,2.11-5.17c-9.08,0-17.63,7.17-17.63,16.67,0,8.23,6.76,14.35,14.88,14.35,19.85,0,27.35-27.12,33.05-42,3-7.8,6.34-15.72,11.51-22.36a17.09,17.09,0,0,1,7.92,14.56c0,4.32-2,10.13-7.08,10.13a3.87,3.87,0,0,1-3.9-3.8A4.28,4.28,0,0,1,118,52.8,13.18,13.18,0,0,0,109,65a11.09,11.09,0,0,0,11.09,10.77C131.31,75.81,136.69,64.83,136.69,54.92Z"/><path class="cls-1" d="M206.79,91.1l11.72-25.95h-9.08c-1.8,4.33-7.08,19.2-12.46,19.2a1.83,1.83,0,0,1-1.79-2,14.58,14.58,0,0,1,1.47-5.28l5.49-11.92H193c-1.17,2.62-3.91,8.08-6.23,13.56-1.95,2.81-4.69,5.75-7.07,5.75a2.22,2.22,0,0,1-2.12-2.22c0-3.69,5-13.4,6.76-17.09h-9l-1.48,2.95c-.21-2.53-2.32-3.79-4.75-3.79-7.34,0-14.58,6.83-18.58,14.42-1.88,2.71-4.76,5.73-7.29,5.73-1.37,0-1.9-1.27-1.9-2.43,0-2.85,1.48-5.38,2.54-7.81L157,44.79h-9.19l-16.57,37c-1.37,3.06-2.85,6.65-2.85,10s1.58,5.6,5.06,5.6c4.31,0,10.16-6.25,14.51-12a18.61,18.61,0,0,0-.57,4.37c0,4,2.11,7.7,6.44,7.7,5.81,0,11.09-7.49,13.41-12.13l.21.1c-1.48,3.49-3.38,12,2.85,12,3.91,0,9.65-6.42,13.91-12.13a21.44,21.44,0,0,0-1.24,6c0,3.17,1.58,6.12,5.17,6.12,5,0,11-8.12,13.41-13.08h.21q-1.91,4.91-3.48,9.81c-6.87,4.33-20.59,13.29-20.59,22.16,0,2.32,1.27,4.32,3.91,4.32a11.69,11.69,0,0,0,5.27-1.47c9.3-5.07,13.83-14.78,18.16-24.27,9.29-5.38,13.52-11.29,17.11-17.09l-1.48-.85C219,79.92,213.44,87.2,206.79,91.1Zm-44.66-6.33c-1.79,0-2.64-2.11-2.64-3.58,0-4.54,5.07-14.25,10.35-14.25,1.69,0,2.43,1.8,2.43,3.27C172.27,74.75,167.41,84.77,162.13,84.77Zm26.71,29.55c-1.06,0-1.37-1.27-1.37-2.11,0-5.59,5.59-10.87,9.71-14C196.34,100.81,191.59,114.32,188.84,114.32Z"/><path class="cls-1" d="M363.57,60a6,6,0,0,0,6-5.91,6.07,6.07,0,0,0-6-6,6,6,0,0,0-5.92,6A5.9,5.9,0,0,0,363.57,60Z"/><path class="cls-1" d="M403.37,77.07c-1.48,2.64-5.07,7.39-8.24,7.39-1.48,0-2.11-1.16-2.11-2.43,0-3.9,4.54-8.33,4.54-13.82,0-3.06-2-4.43-5-4.43-4.43,0-9.61,4-12.14,7.38l2.85-6H374l-5.71,12.64c-1.9,3-5.26,6.67-7.8,6.67a2.15,2.15,0,0,1-2.12-2.22c0-3.69,5.07-13.29,6.76-17.09h-9.29l-5.44,12.36c-1.94,3.1-5.14,6.95-7.86,6.95a2.21,2.21,0,0,1-2.11-2.22c0-3.69,5-13.4,6.75-17.09h-9l-1.48,2.95c-.21-2.53-2.32-3.79-4.75-3.79-7.32,0-14.55,6.81-18.55,14.38a47.77,47.77,0,0,1-13.33,12.63l11.61-26.17h-9l-1.59,2.95c-.21-2.63-2.11-3.79-4.64-3.79-7.24,0-14.38,6.68-18.41,14.14-2,2.89-4.8,6-7.25,6a2.21,2.21,0,0,1-2.11-2.22c0-3.69,5-13.4,6.76-17.09h-9l-1.47,2.95c-.22-2.53-2.33-3.79-4.76-3.79-11,0-21.75,15.29-21.75,25.53,0,4,2.12,7.7,6.45,7.7,5.8,0,11.08-7.49,13.4-12.13l.22.1c-1.48,3.49-3.38,12,2.85,12,3.9,0,9.61-6.38,13.87-12.08a18.69,18.69,0,0,0-.57,4.38c0,4,2.11,7.7,6.44,7.7,5.7,0,10.77-7.6,13.09-12.13l.1.1-3.06,8.76c-6.75,4.22-20.58,13.29-20.58,22.16,0,2.32,1.26,4.32,3.9,4.32a11.7,11.7,0,0,0,5.28-1.47c9.4-5,14.57-15.2,18.79-24.48a49.53,49.53,0,0,0,12.25-10,19.49,19.49,0,0,0-.74,5.07c0,4,2.11,7.7,6.44,7.7,5.81,0,11.09-7.49,13.41-12.13l.21.1c-1.48,3.49-3.38,12,2.85,12,3.85,0,9.46-6.2,13.7-11.84a17.13,17.13,0,0,0-1.35,6.14c0,3.8,2.54,5.7,5.28,5.7,3.91,0,9.45-5.83,13.73-11.36l-4.65,10.31h9.19l7.28-15.94c1.58-3.48,6.12-11.18,10.45-11.18,1.27,0,1.69,1.06,1.69,2.11,0,5.38-8.13,12.77-8.13,20.15,0,3,1.8,5.91,5,5.91,7.17,0,16.25-14.35,19.53-19.62Zm-150,7.7c-1.8,0-2.64-2.11-2.64-3.58,0-4.54,5.07-14.25,10.34-14.25,1.69,0,2.43,1.8,2.43,3.27C263.48,74.75,258.63,84.77,253.35,84.77ZM282,114.32c-1.06,0-1.38-1.27-1.38-2.11,0-5.59,5.71-10.87,9.82-14C289.56,100.81,284.7,114.32,282,114.32Zm7.6-29.55c-1.8,0-2.64-2.11-2.64-3.58,0-4.54,5.07-14.25,10.24-14.25,1.79,0,2.43,1.8,2.43,3.27C299.59,74.75,294.84,84.77,289.56,84.77Zm35.47,0c-1.79,0-2.64-2.11-2.64-3.58,0-4.54,5.07-14.25,10.35-14.25,1.69,0,2.43,1.8,2.43,3.27C335.17,74.75,330.31,84.77,325,84.77Z"/></g></svg>