<svg id="Layer_1" data-name="Layer 1" xmlns="http://www.w3.org/2000/svg" width="16345" height="1080" viewBox="0 0 16345 1080"><defs><style>.cls-1{fill:#8557a7;}.cls-2{fill:#662d91;}.cls-3{fill:#4d226d;}.cls-4{fill:#525266;}.cls-5{fill:#271137;}</style></defs><polygon class="cls-1" points="5858.94 314.5 5819.94 259.5 5759.94 259.5 5759.94 216.5 5705.94 216.5 5666.94 161.5 5606.94 161.5 5606.94 737.5 5759.94 737.5 5759.94 835.5 5912.94 835.5 5912.94 314.5 5858.94 314.5"/><rect class="cls-1" x="1642.89" y="299.36" width="162" height="419" rx="3.07"/><rect class="cls-1" x="1456.89" y="197.36" width="135" height="457" rx="2.93"/><rect class="cls-1" x="216.89" y="282.36" width="190" height="410" rx="4.32"/><path class="cls-1" d="M645.62,159.36l-185.73,130V674.09a3.28,3.28,0,0,0,3.27,3.27H645.62a3.28,3.28,0,0,0,3.27-3.27V162.63A3.28,3.28,0,0,0,645.62,159.36Z"/><rect class="cls-1" x="695.89" y="243.36" width="179" height="445"/><path class="cls-1" d="M1052.28,212.56a8.34,8.34,0,0,0-14.12-.31L962.64,321.34a9.67,9.67,0,0,0-1.7,5.51V618.24c0,5.11,3.87,9.26,8.65,9.26h144.69c4.78,0,8.66-4.15,8.66-9.26V326.65a9.79,9.79,0,0,0-1.5-5.21Z"/><path class="cls-1" d="M1333.2,268.36h-25.59a3.19,3.19,0,0,1-3.19-3.19V239.56a3.19,3.19,0,0,0-3.19-3.2H1286.3a3.19,3.19,0,0,1-3.2-3.19V205.56a3.19,3.19,0,0,0-3.19-3.2h-16.23a3.18,3.18,0,0,1-3.15-2.72l-9.23-61.56a3.2,3.2,0,0,0-3.16-2.72h-.48a3.2,3.2,0,0,0-3.16,2.75l-8.76,61.51a3.19,3.19,0,0,1-3.16,2.74h-16.2a3.2,3.2,0,0,0-3.2,3.2v27.61a3.19,3.19,0,0,1-3.19,3.19h-14.93a3.19,3.19,0,0,0-3.19,3.2v25.61a3.19,3.19,0,0,1-3.19,3.19h-25.59a3.2,3.2,0,0,0-3.2,3.2V801.17a3.19,3.19,0,0,0,3.2,3.19H1333.2a3.19,3.19,0,0,0,3.19-3.19V271.56A3.19,3.19,0,0,0,1333.2,268.36Z"/><polygon class="cls-1" points="60.89 164.36 0.89 164.36 0.89 740.36 153.89 740.36 153.89 219.36 99.89 219.36 60.89 164.36"/><rect class="cls-2" x="1556.31" y="426.32" width="151.79" height="386.19" transform="translate(3264.41 1238.83) rotate(-180)"/><path class="cls-2" d="M1363.9,726.49h146.16a2.42,2.42,0,0,0,2.41-2.42V352.73a2.41,2.41,0,0,0-1-2L1365.25,248.42a2.37,2.37,0,0,0-3.76,1.77V724.07A2.42,2.42,0,0,0,1363.9,726.49Z"/><rect class="cls-2" x="1178.28" y="359.87" width="143" height="355.5" transform="translate(2499.55 1075.25) rotate(-180)"/><path class="cls-2" d="M992.17,743.48h124.12a12.24,12.24,0,0,0,12.24-12.23l0-337.62a12.23,12.23,0,0,0-19.69-9.7L984.71,479.37a12.24,12.24,0,0,0-4.77,9.7V731.24A12.23,12.23,0,0,0,992.17,743.48Z"/><rect class="cls-2" x="484.64" y="312.78" width="107.85" height="365.09" rx="2.34" transform="translate(1077.13 990.64) rotate(-180)"/><rect class="cls-2" x="99.42" y="422.69" width="151.79" height="327.54" rx="3.45" transform="translate(350.62 1172.92) rotate(-180)"/><polygon class="cls-2" points="-0.06 690.35 71.04 690.35 71.07 315.66 -0.06 370.35 -0.06 690.35"/><polygon class="cls-2" points="303.24 380.61 303.24 355.05 408.69 356.88 408.69 380.61 438.65 380.61 438.65 808.81 273.28 808.81 273.28 380.61 303.24 380.61"/><rect class="cls-2" x="1729.32" y="399.31" width="107.85" height="365.09" rx="2.34" transform="translate(3566.48 1163.71) rotate(-180)"/><rect class="cls-2" x="639.14" y="378.99" width="129.42" height="334.73" rx="2.46" transform="translate(1407.7 1092.72) rotate(-180)"/><ellipse class="cls-2" cx="703.85" cy="390.14" rx="51.43" ry="55.45"/><rect class="cls-2" x="701.09" y="291.4" width="5.53" height="55.33" rx="2.77"/><rect class="cls-2" x="806.49" y="337.74" width="143" height="355.5" transform="translate(1755.98 1030.99) rotate(-180)"/><rect class="cls-2" x="883.8" y="308.47" width="48.69" height="36.51"/><rect class="cls-2" x="826.26" y="318.43" width="48.69" height="36.51"/><polygon class="cls-3" points="1976.89 911.56 1847.7 911.56 1847.68 585.77 1976.89 685.12 1976.89 911.56"/><rect class="cls-3" x="1678.34" y="736.54" width="93.77" height="317.43" rx="2.04"/><path class="cls-3" d="M1846.19,463.74V731a2.28,2.28,0,0,0,2.28,2.27h62.47V418.42Z"/><rect class="cls-1" x="2104.94" y="282.5" width="190" height="410" rx="4.32"/><path class="cls-1" d="M2556.62,677.36H2374.16a3.28,3.28,0,0,1-3.27-3.27V289.36l185.73-130a3.28,3.28,0,0,1,3.27,3.27V674.09A3.28,3.28,0,0,1,2556.62,677.36Z"/><rect class="cls-1" x="2606.89" y="243.36" width="179" height="445"/><path class="cls-1" d="M2981.24,635.36H2836.55c-4.78,0-8.66-4.14-8.66-9.26V334.72a9.7,9.7,0,0,1,1.7-5.51l75.53-109.1a8.33,8.33,0,0,1,14.11.31l69.17,108.89a9.75,9.75,0,0,1,1.49,5.2V626.1C2989.89,631.22,2986,635.36,2981.24,635.36Z"/><rect class="cls-1" x="3526.94" y="324.5" width="162" height="419"/><rect class="cls-1" x="3367.89" y="197.36" width="135" height="457" rx="2.93"/><path class="cls-1" d="M3174.23,154.36H3159.3a3.19,3.19,0,0,1-3.2-3.19s-1.43-30.81-3.19-30.81h-16.23a3.18,3.18,0,0,1-3.15-2.72s-10.81-64.28-12.39-64.28h-.48c-1.59,0-11.92,64.26-11.92,64.26a3.19,3.19,0,0,1-3.16,2.74h-16.2c-1.77,0-3.2,30.81-3.2,30.81a3.19,3.19,0,0,1-3.19,3.19h-14.93c-1.76,0-35.17,33.43-35.17,35.2V719.17a3.19,3.19,0,0,0,3.2,3.19H3206.2a3.19,3.19,0,0,0,3.19-3.19V189.56C3209.39,187.79,3176,154.36,3174.23,154.36Z"/><polygon class="cls-1" points="1892.94 740.5 2045.94 740.5 2045.94 219.5 1991.94 219.5 1952.94 164.5 1892.94 164.5 1892.94 740.5"/><rect class="cls-2" x="3467.31" y="426.32" width="151.79" height="386.19" transform="translate(7086.41 1238.83) rotate(-180)"/><path class="cls-2" d="M3274.9,726.49h146.16a2.42,2.42,0,0,0,2.41-2.42V352.73a2.41,2.41,0,0,0-1-2L3276.25,248.42a2.37,2.37,0,0,0-3.76,1.77V724.07A2.42,2.42,0,0,0,3274.9,726.49Z"/><rect class="cls-2" x="3148.28" y="355.87" width="143" height="355.5" transform="translate(6439.55 1067.25) rotate(-180)"/><path class="cls-2" d="M2933.17,739.48h124.12a12.24,12.24,0,0,0,12.24-12.23l0-337.62a12.23,12.23,0,0,0-19.69-9.7l-124.15,95.44a12.24,12.24,0,0,0-4.77,9.7V727.24A12.23,12.23,0,0,0,2933.17,739.48Z"/><rect class="cls-2" x="2395.64" y="312.78" width="107.85" height="365.09" rx="2.34" transform="translate(4899.13 990.64) rotate(-180)"/><rect class="cls-2" x="2010.42" y="422.69" width="151.79" height="327.54" rx="3.45" transform="translate(4172.62 1172.92) rotate(-180)"/><polygon class="cls-2" points="1982.07 370.35 1911.9 316.4 1911.89 250.36 1857.51 250.36 1826.35 294.3 1783.21 294.3 1783.21 710.52 1911.94 710.5 1911.93 690.35 1982.07 690.35 1982.07 370.35"/><polygon class="cls-2" points="2214.24 380.61 2214.24 355.05 2319.69 356.88 2319.69 380.61 2349.65 380.61 2349.65 808.81 2184.28 808.81 2184.28 380.61 2214.24 380.61"/><rect class="cls-2" x="3640.32" y="399.31" width="107.85" height="365.09" rx="2.34" transform="translate(7388.48 1163.71) rotate(-180)"/><rect class="cls-2" x="2550.14" y="378.99" width="129.42" height="334.73" rx="2.46" transform="translate(5229.7 1092.72) rotate(-180)"/><ellipse class="cls-2" cx="2614.85" cy="390.14" rx="51.43" ry="55.45"/><rect class="cls-2" x="2612.09" y="291.4" width="5.53" height="55.33" rx="2.77"/><rect class="cls-2" x="2741.49" y="360.74" width="143" height="355.5" transform="translate(5625.98 1076.99) rotate(-180)"/><rect class="cls-2" x="2818.8" y="331.47" width="48.69" height="36.51"/><rect class="cls-2" x="2761.26" y="341.43" width="48.69" height="36.51"/><path class="cls-3" d="M3738.94,784.26h40.81a2,2,0,0,0,2-2V468.86a2,2,0,0,0-2-2h-39.86Z"/><rect class="cls-1" x="3951.89" y="283.36" width="190" height="410" rx="4.32"/><path class="cls-1" d="M4364.67,575.5H4182.21a3.28,3.28,0,0,1-3.27-3.27V187.5l185.73-130a3.28,3.28,0,0,1,3.27,3.27V572.23A3.28,3.28,0,0,1,4364.67,575.5Z"/><rect class="cls-1" x="4437.94" y="203.5" width="179" height="445"/><path class="cls-1" d="M4872.28,783.5H4727.59c-4.78,0-8.65-6.41-8.65-14.32V318.54a21,21,0,0,1,1.7-8.52l75.52-168.72c3.55-7.93,10.77-7.69,14.12.47l69.16,168.4a21.6,21.6,0,0,1,1.5,8.05v451C4880.94,777.09,4877.06,783.5,4872.28,783.5Z"/><rect class="cls-1" x="5377.94" y="336.5" width="162" height="419" rx="3.07"/><rect class="cls-1" x="5191.89" y="198.36" width="135" height="457" rx="2.93"/><path class="cls-1" d="M5045.42,255.17v.39a3.19,3.19,0,0,0-3.19-3.2H5027.3c-1.77,0-19.36-89.29-38.36-89.29s-36.18,89.29-37.95,89.29h-14.93a3.19,3.19,0,0,0-3.19,3.2v-.39a3.19,3.19,0,0,1-3.19,3.19h-25.59a3.2,3.2,0,0,0-3.2,3.2V791.17a3.19,3.19,0,0,0,3.2,3.19H5074.2a3.19,3.19,0,0,0,3.19-3.19V261.56a3.19,3.19,0,0,0-3.19-3.2h-25.59A3.19,3.19,0,0,1,5045.42,255.17Z"/><polygon class="cls-1" points="3735.89 741.36 3888.89 741.36 3888.89 220.36 3834.89 220.36 3795.89 165.36 3735.89 165.36 3735.89 741.36"/><rect class="cls-2" x="5275.31" y="426.32" width="151.79" height="386.19" transform="translate(10702.41 1238.83) rotate(-180)"/><path class="cls-2" d="M5098.9,727.49h146.16a2.42,2.42,0,0,0,2.41-2.42V353.73a2.41,2.41,0,0,0-1-2L5100.25,249.42a2.37,2.37,0,0,0-3.76,1.77V725.07A2.42,2.42,0,0,0,5098.9,727.49Z"/><rect class="cls-2" x="4913.28" y="360.87" width="143" height="355.5" transform="translate(9969.55 1077.25) rotate(-180)"/><path class="cls-2" d="M4727.17,744.48h124.12a12.24,12.24,0,0,0,12.24-12.23l0-337.62a12.23,12.23,0,0,0-19.69-9.7l-124.15,95.44a12.24,12.24,0,0,0-4.77,9.7V732.24A12.23,12.23,0,0,0,4727.17,744.48Z"/><rect class="cls-2" x="4219.64" y="313.78" width="107.85" height="365.09" rx="2.34" transform="translate(8547.13 992.64) rotate(-180)"/><rect class="cls-2" x="3834.42" y="423.69" width="151.79" height="327.54" rx="3.45" transform="translate(7820.62 1174.92) rotate(-180)"/><polygon class="cls-2" points="3734.94 765.5 3806.04 765.5 3806.07 316.66 3734.94 382.17 3734.94 765.5"/><polygon class="cls-2" points="4007.24 389.61 4007.24 364.05 4112.69 365.88 4112.69 389.61 4142.65 389.61 4142.65 817.81 3977.28 817.81 3977.28 389.61 4007.24 389.61"/><rect class="cls-2" x="5464.32" y="400.31" width="107.85" height="365.09" rx="2.34" transform="translate(11036.48 1165.71) rotate(-180)"/><rect class="cls-2" x="4374.14" y="379.99" width="129.42" height="334.73" rx="2.46" transform="translate(8877.7 1094.72) rotate(-180)"/><ellipse class="cls-2" cx="4438.85" cy="391.14" rx="51.43" ry="55.45"/><rect class="cls-2" x="4436.09" y="292.4" width="5.53" height="55.33" rx="2.77"/><rect class="cls-2" x="4541.49" y="338.74" width="143" height="355.5" transform="translate(9225.98 1032.99) rotate(-180)"/><rect class="cls-2" x="4618.8" y="309.47" width="48.69" height="36.51"/><rect class="cls-2" x="4561.26" y="319.43" width="48.69" height="36.51"/><polygon class="cls-3" points="5711.89 912.56 5582.7 912.56 5582.68 586.77 5711.89 686.12 5711.89 912.56"/><rect class="cls-3" x="5413.34" y="737.54" width="93.77" height="317.43" rx="2.04"/><path class="cls-3" d="M5581.19,464.74V732a2.28,2.28,0,0,0,2.28,2.27h62.47V419.42Z"/><polygon class="cls-2" points="5717.07 371.35 5646.9 317.4 5646.89 251.36 5592.51 251.36 5561.35 295.3 5518.21 295.3 5518.21 711.52 5646.94 711.5 5646.93 691.35 5717.07 691.35 5717.07 371.35"/><rect class="cls-1" x="7397.4" y="299.02" width="162" height="419" rx="3.07"/><rect class="cls-1" x="7211.4" y="197.02" width="135" height="457" rx="2.93"/><rect class="cls-1" x="5971.4" y="282.02" width="190" height="410" rx="4.32"/><path class="cls-1" d="M6400.14,159,6214.4,289V673.75a3.28,3.28,0,0,0,3.27,3.27h182.47a3.28,3.28,0,0,0,3.26-3.27V162.29A3.28,3.28,0,0,0,6400.14,159Z"/><rect class="cls-1" x="6450.4" y="243.02" width="179" height="445"/><path class="cls-1" d="M6806.79,212.21a8.34,8.34,0,0,0-14.12-.31L6717.15,321a9.62,9.62,0,0,0-1.7,5.51V617.89c0,5.12,3.87,9.26,8.65,9.26h144.69c4.78,0,8.66-4.14,8.66-9.26V326.3a9.67,9.67,0,0,0-1.5-5.2Z"/><path class="cls-1" d="M7087.71,286s-51.53-66-53.29-66h-16.23a3.19,3.19,0,0,1-3.15-2.72l-9.23-132.56a3.19,3.19,0,0,0-3.16-2.72h-.48a3.2,3.2,0,0,0-3.16,2.74l-8.75,132.51a3.21,3.21,0,0,1-3.17,2.75h-16.2c-1.77,0-53.29,66-53.29,66a3.19,3.19,0,0,0-3.2,3.19V818.82a3.2,3.2,0,0,0,3.2,3.2h170.11a3.19,3.19,0,0,0,3.19-3.2V289.21A3.19,3.19,0,0,0,7087.71,286Z"/><rect class="cls-2" x="7310.82" y="425.97" width="151.79" height="386.19" transform="translate(14773.43 1238.14) rotate(-180)"/><path class="cls-2" d="M7118.41,726.14h146.16a2.41,2.41,0,0,0,2.41-2.42V352.39a2.4,2.4,0,0,0-1-2L7119.76,248.08a2.37,2.37,0,0,0-3.76,1.76V723.72A2.41,2.41,0,0,0,7118.41,726.14Z"/><rect class="cls-2" x="6932.79" y="359.53" width="143" height="355.5" transform="translate(14008.57 1074.55) rotate(-180)"/><path class="cls-2" d="M6746.68,743.13H6870.8A12.23,12.23,0,0,0,6883,730.9l0-337.62a12.24,12.24,0,0,0-19.69-9.7L6739.23,479a12.21,12.21,0,0,0-4.78,9.7V730.9A12.23,12.23,0,0,0,6746.68,743.13Z"/><rect class="cls-2" x="6239.15" y="312.43" width="107.85" height="365.09" rx="2.34" transform="translate(12586.15 989.95) rotate(-180)"/><rect class="cls-2" x="5853.93" y="422.34" width="151.79" height="327.54" rx="3.45" transform="translate(11859.65 1172.23) rotate(-180)"/><polygon class="cls-2" points="5754.45 690.01 5825.55 690.01 5825.58 315.31 5754.45 370 5754.45 690.01"/><polygon class="cls-2" points="6057.75 380.26 6057.75 354.7 6163.2 356.54 6163.2 380.26 6193.16 380.26 6193.16 808.46 6027.79 808.46 6027.79 380.26 6057.75 380.26"/><rect class="cls-2" x="7483.83" y="398.97" width="107.85" height="365.09" rx="2.34" transform="translate(15075.5 1163.02) rotate(-180)"/><rect class="cls-2" x="6393.65" y="378.65" width="129.42" height="334.73" rx="2.46" transform="translate(12916.73 1092.02) rotate(-180)"/><ellipse class="cls-2" cx="6458.36" cy="389.79" rx="51.43" ry="55.45"/><rect class="cls-2" x="6455.6" y="291.05" width="5.53" height="55.33" rx="2.77"/><rect class="cls-2" x="6561" y="337.4" width="143" height="355.5" transform="translate(13265 1030.29) rotate(-180)"/><rect class="cls-2" x="6638.31" y="308.12" width="48.69" height="36.51"/><rect class="cls-2" x="6580.77" y="318.08" width="48.69" height="36.51"/><polygon class="cls-3" points="7731.4 911.21 7602.21 911.21 7602.19 585.42 7731.4 684.77 7731.4 911.21"/><rect class="cls-3" x="7432.85" y="736.19" width="93.77" height="317.43" rx="2.04"/><path class="cls-3" d="M7600.71,463.39V730.62a2.27,2.27,0,0,0,2.27,2.27h62.47V418.07Z"/><rect class="cls-1" x="7859.45" y="282.15" width="190" height="410" rx="4.32"/><path class="cls-1" d="M8311.14,677H8128.67a3.28,3.28,0,0,1-3.27-3.27V289l185.74-130a3.28,3.28,0,0,1,3.26,3.27V673.75A3.28,3.28,0,0,1,8311.14,677Z"/><rect class="cls-1" x="8361.4" y="243.02" width="179" height="445"/><path class="cls-1" d="M8735.75,635H8591.06c-4.78,0-8.66-4.15-8.66-9.26V334.37a9.75,9.75,0,0,1,1.7-5.51l75.53-109.09a8.34,8.34,0,0,1,14.12.3L8742.91,329a9.77,9.77,0,0,1,1.49,5.2v291.6C8744.4,630.87,8740.53,635,8735.75,635Z"/><rect class="cls-1" x="9281.45" y="324.15" width="162" height="419"/><rect class="cls-1" x="9122.4" y="197.02" width="135" height="457" rx="2.93"/><path class="cls-1" d="M8939.93,172.82V147.21a3.19,3.19,0,0,0-3.19-3.19h-14.93a3.2,3.2,0,0,1-3.2-3.2V113.21a3.19,3.19,0,0,0-3.19-3.19h-16.23a3.19,3.19,0,0,1-3.15-2.72l-9.23-61.56a3.19,3.19,0,0,0-3.16-2.72h-.48a3.2,3.2,0,0,0-3.16,2.74l-8.75,61.51a3.21,3.21,0,0,1-3.17,2.75h-16.2a3.19,3.19,0,0,0-3.19,3.19v27.61a3.2,3.2,0,0,1-3.2,3.2h-14.93a3.19,3.19,0,0,0-3.19,3.19v25.61a3.19,3.19,0,0,1-3.19,3.2H8798.6a3.19,3.19,0,0,0-3.2,3.19V708.82a3.2,3.2,0,0,0,3.2,3.2h170.11a3.19,3.19,0,0,0,3.19-3.2V179.21a3.19,3.19,0,0,0-3.19-3.19h-25.59A3.19,3.19,0,0,1,8939.93,172.82Z"/><polygon class="cls-1" points="7647.45 740.15 7800.45 740.15 7800.45 219.15 7746.45 219.15 7707.45 164.15 7647.45 164.15 7647.45 740.15"/><rect class="cls-2" x="9221.82" y="425.97" width="151.79" height="386.19" transform="translate(18595.43 1238.14) rotate(-180)"/><path class="cls-2" d="M9029.41,726.14h146.16a2.41,2.41,0,0,0,2.41-2.42V352.39a2.4,2.4,0,0,0-1-2L9030.76,248.08a2.37,2.37,0,0,0-3.76,1.76V723.72A2.41,2.41,0,0,0,9029.41,726.14Z"/><rect class="cls-2" x="8902.79" y="355.53" width="143" height="355.5" transform="translate(17948.57 1066.55) rotate(-180)"/><path class="cls-2" d="M8687.68,739.13H8811.8A12.23,12.23,0,0,0,8824,726.9l0-337.62a12.24,12.24,0,0,0-19.69-9.7L8680.23,475a12.21,12.21,0,0,0-4.78,9.7V726.9A12.23,12.23,0,0,0,8687.68,739.13Z"/><rect class="cls-2" x="8150.15" y="312.43" width="107.85" height="365.09" rx="2.34" transform="translate(16408.15 989.95) rotate(-180)"/><rect class="cls-2" x="7764.93" y="422.34" width="151.79" height="327.54" rx="3.45" transform="translate(15681.65 1172.23) rotate(-180)"/><polygon class="cls-2" points="7736.58 370 7666.41 316.05 7666.4 250.02 7612.02 250.02 7580.86 293.95 7537.73 293.95 7537.73 710.17 7666.45 710.15 7666.44 690.01 7736.58 690.01 7736.58 370"/><polygon class="cls-2" points="7968.75 380.26 7968.75 354.7 8074.2 356.54 8074.2 380.26 8104.16 380.26 8104.16 808.46 7938.79 808.46 7938.79 380.26 7968.75 380.26"/><rect class="cls-2" x="9394.83" y="398.97" width="107.85" height="365.09" rx="2.34" transform="translate(18897.5 1163.02) rotate(-180)"/><rect class="cls-2" x="8304.65" y="378.65" width="129.42" height="334.73" rx="2.46" transform="translate(16738.73 1092.02) rotate(-180)"/><ellipse class="cls-2" cx="8369.36" cy="389.79" rx="51.43" ry="55.45"/><rect class="cls-2" x="8366.6" y="291.05" width="5.53" height="55.33" rx="2.77"/><rect class="cls-2" x="8496" y="360.4" width="143" height="355.5" transform="translate(17135 1076.29) rotate(-180)"/><rect class="cls-2" x="8573.31" y="331.12" width="48.69" height="36.51"/><rect class="cls-2" x="8515.77" y="341.08" width="48.69" height="36.51"/><path class="cls-3" d="M9493.45,783.91h40.81a2,2,0,0,0,2-2V468.51a2,2,0,0,0-2-2H9494.4Z"/><rect class="cls-1" x="9706.4" y="283.02" width="190" height="410" rx="4.32"/><path class="cls-1" d="M9830.21,764.07h182.46a3.61,3.61,0,0,0,3.27-3.85V307.16L9830.21,154.07a3.6,3.6,0,0,0-3.27,3.85v602.3A3.6,3.6,0,0,0,9830.21,764.07Z"/><rect class="cls-1" x="10192.45" y="203.15" width="179" height="445"/><path class="cls-1" d="M10626.79,783.15H10482.1c-4.78,0-8.65-6.41-8.65-14.32V318.19a21.07,21.07,0,0,1,1.7-8.52L10550.67,141c3.55-7.93,10.77-7.68,14.12.48l69.16,168.4a21.31,21.31,0,0,1,1.5,8v451C10635.45,776.74,10631.57,783.15,10626.79,783.15Z"/><rect class="cls-1" x="11132.45" y="336.15" width="162" height="419" rx="3.07"/><rect class="cls-1" x="10946.4" y="198.02" width="135" height="457" rx="2.93"/><path class="cls-1" d="M10805.93,298.1V276.59a3,3,0,0,0-3.19-2.68h-14.93c-1.77,0-25.57-29.7-25.77-30.85l-9.23-144.71a3.07,3.07,0,0,0-3.16-2.28h-.48a3.08,3.08,0,0,0-3.16,2.3L10737.26,243c-.23,1.33-24,30.87-25.76,30.87h-14.93a3,3,0,0,0-3.19,2.68V298.1a3,3,0,0,1-3.19,2.69h-25.59a3,3,0,0,0-3.2,2.68V748.33a3,3,0,0,0,3.2,2.69h170.11a3,3,0,0,0,3.19-2.69V303.47a3,3,0,0,0-3.19-2.68h-25.59A3,3,0,0,1,10805.93,298.1Z"/><polygon class="cls-1" points="9490.4 741.02 9643.4 741.02 9643.4 220.02 9589.4 220.02 9550.4 165.02 9490.4 165.02 9490.4 741.02"/><rect class="cls-2" x="11045.82" y="426.97" width="151.79" height="386.19" transform="translate(22243.43 1240.14) rotate(-180)"/><path class="cls-2" d="M10853.41,727.14h146.16a2.41,2.41,0,0,0,2.41-2.42V353.39a2.4,2.4,0,0,0-1-2l-146.19-102.33a2.37,2.37,0,0,0-3.76,1.76V724.72A2.41,2.41,0,0,0,10853.41,727.14Z"/><rect class="cls-2" x="10667.79" y="360.53" width="143" height="355.5" transform="translate(21478.57 1076.55) rotate(-180)"/><path class="cls-2" d="M10481.68,744.13h124.12A12.23,12.23,0,0,0,10618,731.9l0-337.62a12.24,12.24,0,0,0-19.69-9.7L10474.23,480a12.21,12.21,0,0,0-4.78,9.7V731.9A12.23,12.23,0,0,0,10481.68,744.13Z"/><rect class="cls-2" x="9974.15" y="313.43" width="107.85" height="365.09" rx="2.34" transform="translate(20056.15 991.95) rotate(-180)"/><rect class="cls-2" x="9588.93" y="423.34" width="151.79" height="327.54" rx="3.45" transform="translate(19329.65 1174.23) rotate(-180)"/><polygon class="cls-2" points="9489.45 765.15 9560.55 765.15 9560.58 316.31 9489.45 381.82 9489.45 765.15"/><polygon class="cls-2" points="9761.75 389.26 9761.75 363.7 9867.2 365.54 9867.2 389.26 9897.16 389.26 9897.16 817.46 9731.79 817.46 9731.79 389.26 9761.75 389.26"/><rect class="cls-2" x="11218.83" y="399.97" width="107.85" height="365.09" rx="2.34" transform="translate(22545.5 1165.02) rotate(-180)"/><rect class="cls-2" x="10128.65" y="379.65" width="129.42" height="334.73" rx="2.46" transform="translate(20386.73 1094.02) rotate(-180)"/><ellipse class="cls-2" cx="10193.36" cy="390.79" rx="51.43" ry="55.45"/><rect class="cls-2" x="10190.6" y="292.05" width="5.53" height="55.33" rx="2.77"/><rect class="cls-2" x="10296" y="338.4" width="143" height="355.5" transform="translate(20735 1032.29) rotate(-180)"/><rect class="cls-2" x="10373.31" y="309.12" width="48.69" height="36.51"/><rect class="cls-2" x="10315.77" y="319.08" width="48.69" height="36.51"/><polygon class="cls-3" points="11466.4 912.21 11337.21 912.21 11337.19 586.42 11466.4 685.77 11466.4 912.21"/><rect class="cls-3" x="11167.85" y="737.19" width="93.77" height="317.43" rx="2.04"/><path class="cls-3" d="M11335.71,464.39V731.62a2.27,2.27,0,0,0,2.27,2.27h62.47V419.07Z"/><polygon class="cls-1" points="11372.94 747.5 11525.94 747.5 11525.94 226.5 11471.94 226.5 11432.94 171.5 11372.94 171.5 11372.94 747.5"/><rect class="cls-1" x="13130.48" y="299" width="162" height="419" rx="3.07"/><rect class="cls-1" x="12944.48" y="197" width="135" height="457" rx="2.93"/><rect class="cls-1" x="11678.94" y="276.07" width="190" height="410" rx="4.32"/><path class="cls-1" d="M12133.21,159l-185.73,130V673.73a3.28,3.28,0,0,0,3.27,3.27h182.46a3.28,3.28,0,0,0,3.27-3.27V162.27A3.28,3.28,0,0,0,12133.21,159Z"/><rect class="cls-1" x="12183.48" y="243" width="179" height="445"/><path class="cls-1" d="M12539.86,212.2a8.34,8.34,0,0,0-14.12-.31L12450.22,321a9.75,9.75,0,0,0-1.7,5.51V617.88c0,5.11,3.88,9.26,8.66,9.26h144.68c4.78,0,8.66-4.15,8.66-9.26V326.29a9.7,9.7,0,0,0-1.5-5.21Z"/><path class="cls-1" d="M12820.78,268h-25.58a3.19,3.19,0,0,1-3.2-3.19V239.2a3.19,3.19,0,0,0-3.19-3.2h-14.93a3.19,3.19,0,0,1-3.19-3.19V205.2a3.2,3.2,0,0,0-3.2-3.2h-16.22a3.19,3.19,0,0,1-3.16-2.72l-9.23-61.56a3.19,3.19,0,0,0-3.15-2.72h-.48a3.19,3.19,0,0,0-3.16,2.75l-8.76,61.51a3.2,3.2,0,0,1-3.16,2.74H12704a3.19,3.19,0,0,0-3.19,3.2v27.61a3.19,3.19,0,0,1-3.19,3.19h-14.94a3.19,3.19,0,0,0-3.19,3.2v25.61a3.19,3.19,0,0,1-3.19,3.19h-25.59a3.19,3.19,0,0,0-3.19,3.2V800.81a3.19,3.19,0,0,0,3.19,3.19h170.11a3.19,3.19,0,0,0,3.2-3.19V271.2A3.2,3.2,0,0,0,12820.78,268Z"/><polygon class="cls-1" points="11644.94 320.07 11704.94 320.07 11704.94 896.07 11551.94 896.07 11551.94 375.07 11605.94 375.07 11644.94 320.07"/><rect class="cls-2" x="13043.9" y="425.96" width="151.79" height="386.19" transform="translate(26239.58 1238.11) rotate(-180)"/><path class="cls-2" d="M12851.49,726.13h146.15a2.42,2.42,0,0,0,2.42-2.42V352.37a2.44,2.44,0,0,0-1-2l-146.2-102.33a2.38,2.38,0,0,0-3.76,1.77V723.71A2.42,2.42,0,0,0,12851.49,726.13Z"/><rect class="cls-2" x="12665.86" y="359.51" width="143" height="355.5" transform="translate(25474.72 1074.53) rotate(-180)"/><path class="cls-2" d="M12479.76,743.12h124.12a12.24,12.24,0,0,0,12.23-12.23l0-337.62a12.23,12.23,0,0,0-19.69-9.7L12472.3,479a12.25,12.25,0,0,0-4.78,9.7V730.88A12.24,12.24,0,0,0,12479.76,743.12Z"/><rect class="cls-2" x="11972.22" y="312.42" width="107.85" height="365.09" rx="2.34" transform="translate(24052.3 989.92) rotate(-180)"/><rect class="cls-2" x="11587" y="422.33" width="151.79" height="327.54" rx="3.45" transform="translate(23325.79 1172.2) rotate(-180)"/><polygon class="cls-2" points="11471.58 391.43 11471.58 371 11401.41 317.05 11401.41 251.02 11347.02 251.02 11315.86 294.95 11272.73 294.95 11272.73 711.17 11401.45 711.15 11401.44 691.01 11467.96 691.01 11467.97 763.99 11561.65 763.99 11561.65 443.99 11471.58 391.43"/><polygon class="cls-2" points="11798.82 381.25 11798.82 355.69 11904.27 357.52 11904.27 381.25 11934.23 381.25 11934.23 809.45 11768.86 809.45 11768.86 381.25 11798.82 381.25"/><rect class="cls-2" x="13216.9" y="398.95" width="107.85" height="365.09" rx="2.34" transform="translate(26541.65 1162.99) rotate(-180)"/><rect class="cls-2" x="12126.73" y="378.63" width="129.42" height="334.73" rx="2.46" transform="translate(24382.87 1092) rotate(-180)"/><ellipse class="cls-2" cx="12191.44" cy="389.78" rx="51.43" ry="55.45"/><rect class="cls-2" x="12188.67" y="291.04" width="5.53" height="55.33" rx="2.77"/><rect class="cls-2" x="12294.07" y="337.38" width="143" height="355.5" transform="translate(24731.14 1030.27) rotate(-180)"/><rect class="cls-2" x="12371.38" y="308.11" width="48.69" height="36.51"/><rect class="cls-2" x="12313.85" y="318.07" width="48.69" height="36.51"/><polygon class="cls-3" points="13464.48 911.2 13335.28 911.2 13335.26 585.41 13464.48 684.76 13464.48 911.2"/><rect class="cls-3" x="13165.92" y="736.18" width="93.77" height="317.43" rx="2.04"/><path class="cls-3" d="M13333.78,463.38V730.61a2.27,2.27,0,0,0,2.27,2.27h62.47V418.06Z"/><rect class="cls-1" x="13592.52" y="282.14" width="190" height="410" rx="4.32"/><path class="cls-1" d="M14044.21,677h-182.46a3.28,3.28,0,0,1-3.27-3.27V289l185.73-130a3.28,3.28,0,0,1,3.27,3.27V673.73A3.28,3.28,0,0,1,14044.21,677Z"/><rect class="cls-1" x="14094.48" y="243" width="179" height="445"/><path class="cls-1" d="M14468.82,635h-144.69c-4.78,0-8.65-4.14-8.65-9.26V334.36a9.62,9.62,0,0,1,1.7-5.51l75.52-109.1a8.34,8.34,0,0,1,14.12.31L14476,329a9.67,9.67,0,0,1,1.5,5.2V625.74C14477.48,630.86,14473.6,635,14468.82,635Z"/><rect class="cls-1" x="15014.52" y="324.14" width="162" height="419"/><rect class="cls-1" x="14855.48" y="197" width="135" height="457" rx="2.93"/><path class="cls-1" d="M14739,218.81V193.2a3.19,3.19,0,0,0-3.19-3.2h-14.93a3.19,3.19,0,0,1-3.19-3.19V159.2a3.2,3.2,0,0,0-3.2-3.2h-16.22a3.19,3.19,0,0,1-3.16-2.72l-9.23-61.56a3.19,3.19,0,0,0-3.15-2.72h-.48a3.19,3.19,0,0,0-3.16,2.75l-8.76,61.51a3.2,3.2,0,0,1-3.16,2.74H14651a3.19,3.19,0,0,0-3.19,3.2v27.61a3.19,3.19,0,0,1-3.19,3.19h-14.94a3.19,3.19,0,0,0-3.19,3.2v25.61a3.19,3.19,0,0,1-3.19,3.19h-25.59a3.19,3.19,0,0,0-3.19,3.2V754.81a3.19,3.19,0,0,0,3.19,3.19h170.11a3.19,3.19,0,0,0,3.2-3.19V225.2a3.2,3.2,0,0,0-3.2-3.2h-25.58A3.19,3.19,0,0,1,14739,218.81Z"/><polygon class="cls-1" points="13380.52 740.14 13533.52 740.14 13533.52 219.14 13479.52 219.14 13440.52 164.14 13380.52 164.14 13380.52 740.14"/><rect class="cls-2" x="14954.9" y="425.96" width="151.79" height="386.19" transform="translate(30061.58 1238.11) rotate(-180)"/><path class="cls-2" d="M14762.49,726.13h146.15a2.42,2.42,0,0,0,2.42-2.42V352.37a2.44,2.44,0,0,0-1-2l-146.2-102.33a2.38,2.38,0,0,0-3.76,1.77V723.71A2.42,2.42,0,0,0,14762.49,726.13Z"/><rect class="cls-2" x="14635.86" y="355.51" width="143" height="355.5" transform="translate(29414.72 1066.53) rotate(-180)"/><path class="cls-2" d="M14420.76,739.12h124.12a12.24,12.24,0,0,0,12.23-12.23l0-337.62a12.23,12.23,0,0,0-19.69-9.7L14413.3,475a12.25,12.25,0,0,0-4.78,9.7V726.88A12.24,12.24,0,0,0,14420.76,739.12Z"/><rect class="cls-2" x="13883.22" y="312.42" width="107.85" height="365.09" rx="2.34" transform="translate(27874.3 989.92) rotate(-180)"/><rect class="cls-2" x="13498" y="422.33" width="151.79" height="327.54" rx="3.45" transform="translate(27147.79 1172.2) rotate(-180)"/><polygon class="cls-2" points="13469.65 369.99 13399.48 316.04 13399.48 250 13345.09 250 13313.94 293.94 13270.8 293.94 13270.8 710.16 13399.52 710.14 13399.52 689.99 13469.65 689.99 13469.65 369.99"/><polygon class="cls-2" points="13701.82 380.25 13701.82 354.69 13807.27 356.52 13807.27 380.25 13837.23 380.25 13837.23 808.45 13671.86 808.45 13671.86 380.25 13701.82 380.25"/><rect class="cls-2" x="15127.9" y="398.95" width="107.85" height="365.09" rx="2.34" transform="translate(30363.65 1162.99) rotate(-180)"/><rect class="cls-2" x="14037.73" y="378.63" width="129.42" height="334.73" rx="2.46" transform="translate(28204.87 1092) rotate(-180)"/><ellipse class="cls-2" cx="14102.44" cy="389.78" rx="51.43" ry="55.45"/><rect class="cls-2" x="14099.67" y="291.04" width="5.53" height="55.33" rx="2.77"/><rect class="cls-2" x="14229.07" y="360.38" width="143" height="355.5" transform="translate(28601.14 1076.27) rotate(-180)"/><rect class="cls-2" x="14306.38" y="331.11" width="48.69" height="36.51"/><rect class="cls-2" x="14248.85" y="341.07" width="48.69" height="36.51"/><path class="cls-3" d="M15226.52,783.9h40.81a2,2,0,0,0,2-2V468.5a2,2,0,0,0-2-2h-39.85Z"/><rect class="cls-1" x="15439.48" y="283" width="190" height="410" rx="4.32"/><path class="cls-1" d="M15852.25,575.14h-182.46a3.28,3.28,0,0,1-3.27-3.27V187.14l185.73-130a3.28,3.28,0,0,1,3.27,3.27V571.87A3.28,3.28,0,0,1,15852.25,575.14Z"/><rect class="cls-1" x="15925.52" y="203.14" width="179" height="445"/><path class="cls-1" d="M16359.86,783.14h-144.68c-4.78,0-8.66-6.41-8.66-14.32V318.18a21.2,21.2,0,0,1,1.7-8.52l75.52-168.72c3.55-7.93,10.77-7.69,14.12.47l69.16,168.4a21.4,21.4,0,0,1,1.5,8.05v451C16368.52,776.73,16364.64,783.14,16359.86,783.14Z"/><polygon class="cls-1" points="15223.48 741 15376.48 741 15376.48 220 15322.48 220 15283.48 165 15223.48 165 15223.48 741"/><path class="cls-2" d="M16214.76,744.12h124.12a12.24,12.24,0,0,0,12.23-12.23l0-337.62a12.23,12.23,0,0,0-19.69-9.7L16207.3,480a12.25,12.25,0,0,0-4.78,9.7V731.88A12.24,12.24,0,0,0,16214.76,744.12Z"/><rect class="cls-2" x="15707.22" y="313.42" width="107.85" height="365.09" rx="2.34" transform="translate(31522.3 991.92) rotate(-180)"/><rect class="cls-2" x="15322" y="423.33" width="151.79" height="327.54" rx="3.45" transform="translate(30795.79 1174.2) rotate(-180)"/><polygon class="cls-2" points="15222.52 765.14 15293.63 765.14 15293.65 316.3 15222.52 381.81 15222.52 765.14"/><polygon class="cls-2" points="15494.82 389.25 15494.82 363.69 15600.27 365.52 15600.27 389.25 15630.23 389.25 15630.23 817.45 15464.86 817.45 15464.86 389.25 15494.82 389.25"/><rect class="cls-2" x="15861.73" y="379.63" width="129.42" height="334.73" rx="2.46" transform="translate(31852.87 1094) rotate(-180)"/><ellipse class="cls-2" cx="15926.44" cy="390.78" rx="51.43" ry="55.45"/><rect class="cls-2" x="15923.67" y="292.04" width="5.53" height="55.33" rx="2.77"/><rect class="cls-2" x="16029.07" y="338.38" width="143" height="355.5" transform="translate(32201.14 1032.27) rotate(-180)"/><rect class="cls-2" x="16106.38" y="309.11" width="48.69" height="36.51"/><rect class="cls-2" x="16048.85" y="319.07" width="48.69" height="36.51"/><path class="cls-3" d="M16309,504.16v25.45h-14.8V648.25h-24.24V595.39L16140.51,496v95.49H16110V532.85h-124.5v73.52l-36.23-27.81V462.35a2.28,2.28,0,0,0-2.28-2.27l-129.19,90.3V639.5h-25.45V507.61a3,3,0,0,0-3-3h-126.15a3,3,0,0,0-3,3V668.5h-12.71V638.21a2,2,0,0,0-2-2h-7.08V486.84h-37.56l-27.13-38.2h-90.42V577.1a2.15,2.15,0,0,0-1.5-.62h-10.34c-4-21.16-20.89-37.28-41.46-38.45V502.72a2.41,2.41,0,1,0-4.81,0V538a43.61,43.61,0,0,0-31.43,16.58V531.39L15264.3,449V590.5h-13V542.56a3,3,0,0,0-3-3h-126.15a3,3,0,0,0-3,3v77.28h-12.06l-27.13-38.2h-54.41V541.49h-26.08V519.27l-91.82,1.59v20.63h-22.59v-66a2,2,0,0,0-2-2h-89.82a2,2,0,0,0-2,2V592.85h-61.44v94.37l-38.63-24.6V581.49H14665V559.27l-70.88,1.23V528.61h-17.21V511.82h-42.39v16.79h-7.71V503.16h-42.39v25.45h-14.8V647.25h-24.25V594.39L14316,495v95.49h-30.54V531.85h-124.51v73.52l-36.23-27.81V461.35a2.27,2.27,0,0,0-2.27-2.27l-129.19,90.3V638.5h-25.46V506.61a3,3,0,0,0-3-3h-126.15a3,3,0,0,0-3,3V637.5h-13.7V607.21a2,2,0,0,0-2-2h-29.11V488.84h-37.56l-27.13-38.2h-90.42v104c-7.74-10.18-19.26-16.9-32.26-17.64V501.72a2.41,2.41,0,1,0-4.82,0V537a43.63,43.63,0,0,0-31.43,16.58V538.56l-129.39-79.42v1a2,2,0,0,0-1.74-1h-39.91l-.62,211.33h-21.72l.31-103h-31V684.14h-31V539.56h-103.53a3,3,0,0,0-3,3v77.28h-12.06l-27.13-38.2h-54.41V541.49h-26.08V519.27l-91.82,1.59v20.63h-22.59v-66a2,2,0,0,0-2-2h-89.82a2,2,0,0,0-2,2V592.85h-49.33V514.61a2.14,2.14,0,0,0-2.14-2.13h-10.33c-4-21.16-20.9-37.28-41.46-38.45V438.72a2.41,2.41,0,1,0-4.82,0V474c-20.57,1.17-37.45,17.29-41.46,38.45h-10.33a2.14,2.14,0,0,0-2.14,2.13v45.28l-35,.61V528.61h-17.21V511.82h-42.39v16.79h-7.71V503.16h-42.39v25.45H12556V647.25h-24.25V594.39L12402.33,495v95.49h-30.54V531.85h-124.51v73.52l-36.23-27.81V461.35a2.27,2.27,0,0,0-2.27-2.27l-129.19,90.3V638.5h-25.46V506.61a3,3,0,0,0-3-3H11925a3,3,0,0,0-3,3V637.5h-13.7V607.21a2,2,0,0,0-2-2h-29.11V488.84h-37.56l-27.12-38.2H11722v104a43.71,43.71,0,0,0-32.26-17.64V501.72a2.41,2.41,0,1,0-4.82,0V537a43.63,43.63,0,0,0-31.43,16.58V530.39L11524.12,448v20.47h-35.64l-.1,32.53-39.77-40.85v1a2,2,0,0,0-1.74-1H11407l-.29,97.5h-58l-.18.26V543.57a3,3,0,0,0-3-3h-126.15a3,3,0,0,0-3,3v77.28h-12.07l-27.13-38.2h-54.4V542.51h-26.09V520.28l-91.81,1.6v20.63h-22.6v-66a2,2,0,0,0-2-2h-89.83a2,2,0,0,0-2,2V593.87H10839V515.63a2.14,2.14,0,0,0-2.13-2.14h-10.34c-4-21.16-20.89-37.27-41.46-38.45V439.73a2.41,2.41,0,0,0-4.81,0V475c-20.57,1.18-37.46,17.29-41.47,38.45h-10.33a2.14,2.14,0,0,0-2.14,2.14V560.9l-35,.61V529.63h-17.22v-16.8h-42.39v16.8H10624V504.17h-42.39v25.46h-14.8V648.27h-24.25V595.4l-129.39-99.34v95.49h-30.54V532.87h-124.51v73.52l-36.23-27.82V462.36a2.27,2.27,0,0,0-2.27-2.27l-129.19,90.3v89.13H10065V507.62a3,3,0,0,0-3-3H9935.83a3,3,0,0,0-3,3v160.9h-12.71V638.23a2,2,0,0,0-2-2H9911V486.85h-37.56l-27.13-38.2H9755.9V577.11a2.15,2.15,0,0,0-1.5-.62h-10.34c-4-21.16-20.89-37.27-41.46-38.45V502.73a2.41,2.41,0,0,0-4.81,0V538a43.61,43.61,0,0,0-31.43,16.58V531.4L9537,449v141.5h-13V542.57a3,3,0,0,0-3-3H9394.84a3,3,0,0,0-3,3v77.28h-12.06l-27.13-38.2h-54.41V541.51h-26.08V519.28l-91.82,1.6v20.63h-22.59v-66a2,2,0,0,0-2-2h-89.82a2,2,0,0,0-2,2V592.87H9002.4v94.36l-38.63-24.59V581.51h-26.09V559.28l-70.88,1.23V528.63h-17.22v-16.8h-42.39v16.8h-7.7V503.17H8757.1v25.46h-14.81V647.27h-24.24V594.4l-129.4-99.34v95.49h-30.55V531.87h-124.5v73.52l-36.23-27.82V461.36a2.28,2.28,0,0,0-2.28-2.27l-129.18,90.3v89.13h-25.46V506.62a3,3,0,0,0-3-3H8111.31a3,3,0,0,0-3,3v130.9h-13.71V607.23a2,2,0,0,0-2-2h-29.11V488.85h-37.56l-27.13-38.2h-90.42v104A43.71,43.71,0,0,0,7876.07,537V501.73a2.41,2.41,0,0,0-4.81,0V537a43.63,43.63,0,0,0-31.43,16.58v-15l-129.39-79.42v1a2,2,0,0,0-1.74-1h-39.91l-.62,211.33h-21.72l.31-103h-31V684.15h-31.05V539.57H7481.19a3,3,0,0,0-3,3v77.28h-12.06L7439,581.65h-54.41V541.51H7358.5V519.28l-91.82,1.6v20.63h-22.59v-66a2,2,0,0,0-2-2h-89.82a2,2,0,0,0-2,2V592.87h-49.33V514.63a2.14,2.14,0,0,0-2.14-2.14h-10.33c-4-21.16-20.9-37.27-41.46-38.45V438.73a2.41,2.41,0,0,0-4.82,0V474c-20.57,1.18-37.45,17.29-41.46,38.45h-10.34a2.14,2.14,0,0,0-2.13,2.14V559.9l-35,.61V528.63h-17.21v-16.8h-42.39v16.8h-7.71V503.17h-42.39v25.46h-14.8V647.27H6804.4V594.4L6675,495.06v95.49h-30.55V531.87H6520v73.52l-36.23-27.82V461.36a2.28,2.28,0,0,0-2.28-2.27l-129.18,90.3v89.13h-25.46V506.62a3,3,0,0,0-3-3H6197.66a3,3,0,0,0-3,3v130.9H6181V607.23a2,2,0,0,0-2-2H6149.8V488.85h-37.56l-27.13-38.2h-90.42v104A43.71,43.71,0,0,0,5962.42,537V501.73a2.41,2.41,0,0,0-4.81,0V537a43.63,43.63,0,0,0-31.43,16.58V530.4L5796.79,448v20.46h-35.64l-.2,66.57-72.59-74.55v1a2,2,0,0,0-1.74-1h-39.91l-.28,97.5h-58l-.19.26V543.92a3,3,0,0,0-3-3H5459.11a3,3,0,0,0-3,3V621.2H5444L5416.91,583H5362.5V542.85h-26.08V520.63l-91.82,1.59v20.63H5222v-66a2,2,0,0,0-2-2h-89.82a2,2,0,0,0-2,2V594.21h-49.33V516a2.14,2.14,0,0,0-2.14-2.13h-10.33c-4-21.16-20.89-37.28-41.46-38.45V440.08a2.41,2.41,0,0,0-4.82,0v35.31c-20.56,1.17-37.45,17.29-41.46,38.45h-10.33a2.14,2.14,0,0,0-2.14,2.13v45.28l-35,.61V530h-17.21V513.18h-42.39V530h-7.71V504.52h-42.39V530h-14.8V648.61h-24.25V595.75l-129.4-99.35v95.49h-30.54V533.21H4497.88v73.52l-36.23-27.81V462.71a2.27,2.27,0,0,0-2.27-2.27l-129.19,90.3v89.12h-25.46V508a3,3,0,0,0-3-3H4175.58a3,3,0,0,0-3,3V668.86h-12.71V638.57a2,2,0,0,0-2-2h-7.07V487.2H4113.2L4086.07,449h-90.42V577.46a2.15,2.15,0,0,0-1.5-.62h-10.34c-4-21.16-20.89-37.28-41.46-38.45V503.08a2.41,2.41,0,1,0-4.82,0v35.31A43.6,43.6,0,0,0,3906.11,555V531.75l-129.4-82.39v141.5h-13V542.92a3,3,0,0,0-3-3H3634.58a3,3,0,0,0-3,3V620.2h-12.07L3592.39,582H3538V541.85h-26.09V519.63l-91.81,1.59v20.63h-22.59v-66a2,2,0,0,0-2-2h-89.83a2,2,0,0,0-2,2V593.21h-61.44v94.37L3203.51,663V581.85h-26.08V559.63l-70.88,1.23V529h-17.22V512.18h-42.39V529h-7.71V503.52h-42.39V529H2982V647.61H2957.8V594.75L2828.4,495.4v95.49h-30.55V532.21h-124.5v73.52l-36.23-27.81V461.71a2.28,2.28,0,0,0-2.28-2.27l-129.19,90.3v89.12h-25.45V507a3,3,0,0,0-3-3H2351.05a3,3,0,0,0-3,3V637.86h-13.71V607.57a2,2,0,0,0-2-2h-29.1V489.2h-37.56L2238.51,451h-90.42V555a43.75,43.75,0,0,0-32.27-17.64V502.08a2.41,2.41,0,0,0-4.82,0v35.31A43.6,43.6,0,0,0,2079.58,554V538.92l-129.4-79.42v1a2,2,0,0,0-1.73-1h-39.91l-.62,211.33h-21.73l.32-103h-31V684.5h-31V539.92H1720.93a3,3,0,0,0-3,3V620.2h-12.07L1678.74,582h-54.41V541.85h-26.09V519.63l-91.81,1.59v20.63h-22.59v-66a2,2,0,0,0-2-2H1392a2,2,0,0,0-2,2V593.21h-49.33V515a2.15,2.15,0,0,0-2.14-2.13h-10.34c-4-21.16-20.89-37.28-41.46-38.45V439.08a2.41,2.41,0,1,0-4.81,0v35.31c-20.57,1.17-37.45,17.29-41.46,38.45h-10.34a2.15,2.15,0,0,0-2.14,2.13v45.28l-35,.61V529h-17.22V512.18h-42.39V529h-7.7V503.52h-42.4V529h-14.8V647.61h-24.24V594.75L914.75,495.4v95.49H884.21V532.21H759.71v73.52l-36.23-27.81V461.71a2.28,2.28,0,0,0-2.28-2.27L592,549.74v89.12H566.56V507a3,3,0,0,0-3-3H437.41a3,3,0,0,0-3,3V637.86H420.69V607.57a2,2,0,0,0-2-2H389.55V489.2H352L324.86,451H234.44V555a43.75,43.75,0,0,0-32.27-17.64V502.08a2.41,2.41,0,1,0-4.81,0v35.31A43.61,43.61,0,0,0,165.93,554V530.75L36.53,448.36v20.47H.89L-.06,786.26H40.8a2,2,0,0,0,2-2v-27H143.42V864.74a2.14,2.14,0,0,0,2.14,2.14H254a2.14,2.14,0,0,0,2.13-2.14V851.09h70.69v69.85a2,2,0,0,0,2,2h89.83a2,2,0,0,0,1.09-.32h79.51a3,3,0,0,0,2.22,1H627.63a3,3,0,0,0,3-3V819.24h77v72.32H837.05V841.31H843v31.37a3,3,0,0,0,3,3H972.13a3,3,0,0,0,3-3V821.19h44V929.4a3,3,0,0,0,3,3h123.77v21.76h144V803.88h38.63v98.43H1453v-111h27.35v122.9h108v67.93h155.11V824.71h91.13v58.51a2,2,0,0,0,2,2h35v101a2,2,0,0,0,2,2h49l.61-202h25.24a2.07,2.07,0,0,0,2-2.1v-27h106.59V864.74a2.14,2.14,0,0,0,2.14,2.14h108.41a2.14,2.14,0,0,0,2.13-2.14V851.09h70.69v69.85a2,2,0,0,0,2,2h89.82a2,2,0,0,0,1.09-.32h79.52a3,3,0,0,0,2.22,1h126.15a3,3,0,0,0,3-3V819.24h77v72.32H2750.7V841.31h5.93v31.37a3,3,0,0,0,3,3h126.15a3,3,0,0,0,3-3V821.19h44V929.4a3,3,0,0,0,3,3h123.77v21.76h144v-14h79.74V902.31h83.4v-111H3394v122.9h108v67.93h92.36v69.85a2,2,0,0,0,2,2h89.83a2,2,0,0,0,2-2V876h65.05a2,2,0,0,0,1.09-.32h99.74a3,3,0,0,0,3-3V758.19h26.5V865.74a2.14,2.14,0,0,0,2.14,2.14h108.41a2.14,2.14,0,0,0,2.13-2.14V849.09H4066V951.94a2,2,0,0,0,2,2h89.82a2,2,0,0,0,1.09-.32h99.74a3,3,0,0,0,3-3v-26h104.15a3,3,0,0,0,3-3V820.24h77v72.32h129.38V842.31h5.92v31.37a3,3,0,0,0,3,3H4710.3a3,3,0,0,0,3-3V822.19h44V930.4a3,3,0,0,0,3,3h123.77v21.76h144V804.88h38.63v98.43h124.51v-111h27.34v122.9h108v67.93H5481.6V825.71h42.16V958.09h155.11V787.26h7.75a2.07,2.07,0,0,0,2-2.1v-27h71.61l-.08,27.72h40.87a2,2,0,0,0,2-2v-27h100.59V864.39a2.14,2.14,0,0,0,2.13,2.14h108.41a2.14,2.14,0,0,0,2.14-2.14V850.74H6087v69.85a2,2,0,0,0,2,2h89.83a2.05,2.05,0,0,0,1.09-.33h79.51a3,3,0,0,0,2.22,1h126.15a3,3,0,0,0,3-3V818.9h77v72.31h129.38V841h5.92v31.36a3,3,0,0,0,3,3h126.15a3,3,0,0,0,3-3V820.84h44V929.05a3,3,0,0,0,3,3h123.77v21.76h144V803.53h38.63V902h124.5V790.91h27.35v122.9h108v67.93h155.11V824.36h91.12v58.52a2,2,0,0,0,2,2h35v101a2,2,0,0,0,2,2h49l.61-202h25.24a2.07,2.07,0,0,0,2-2.09v-27h106.58V864.39a2.15,2.15,0,0,0,2.14,2.14h108.41a2.15,2.15,0,0,0,2.14-2.14V850.74h70.68v69.85a2,2,0,0,0,2,2h89.83a2.05,2.05,0,0,0,1.09-.33h79.51a3,3,0,0,0,2.22,1h126.15a3,3,0,0,0,3-3V818.9h77v72.31H8511V841h5.93v31.36a3,3,0,0,0,3,3H8646a3,3,0,0,0,3-3V820.84h44V929.05a3,3,0,0,0,3,3h123.77v21.76h144v-14h79.73V902h83.4V790.91h27.35v122.9h108v67.93h92.36v69.85a2,2,0,0,0,2,2h89.82a2,2,0,0,0,2-2v-176h65.05a2,2,0,0,0,1.09-.33h99.74a3,3,0,0,0,3-3V757.84h26.5V865.39a2.15,2.15,0,0,0,2.14,2.14H9754.4a2.15,2.15,0,0,0,2.14-2.14V848.74h69.68V951.59a2,2,0,0,0,2,2h89.82a2.06,2.06,0,0,0,1.1-.33h99.73a3,3,0,0,0,3-3v-26h104.15a3,3,0,0,0,3-3V819.9h77v72.31h129.37V842h5.93v31.36a3,3,0,0,0,3,3h126.15a3,3,0,0,0,3-3V821.84h44V930.05a3,3,0,0,0,3,3h123.77v21.76h144V804.53h38.63V903h124.51V791.91h27.34v122.9h108v67.93h155.11V825.36H11284V957.74h155.12V786.91h7.74a2.07,2.07,0,0,0,2-2.09v-27h38.69l-.08,28.06h40.87a2,2,0,0,0,2-2v-27H11631V864.38a2.14,2.14,0,0,0,2.13,2.14h108.41a2.14,2.14,0,0,0,2.14-2.14V850.73h70.69v69.85a2,2,0,0,0,2,2h89.83a2,2,0,0,0,1.09-.32h79.51a3,3,0,0,0,2.23,1h126.14a3,3,0,0,0,3-3V818.88h77V891.2h129.38V841h5.92v31.37a3,3,0,0,0,3,3h126.14a3,3,0,0,0,3-3V820.83h44V929a3,3,0,0,0,3,3h123.77V953.8h144V803.52h38.63V902h124.5V790.9h27.35V913.8h108v67.93H13231V824.35h91.12v58.51a2,2,0,0,0,2,2h35v101a2,2,0,0,0,2,2h49l.61-202H13436a2.07,2.07,0,0,0,2-2.09v-27h106.59V864.38a2.14,2.14,0,0,0,2.13,2.14h108.41a2.14,2.14,0,0,0,2.14-2.14V850.73H13728v69.85a2,2,0,0,0,2,2h89.83a2,2,0,0,0,1.09-.32h79.51a3,3,0,0,0,2.22,1h126.15a3,3,0,0,0,3-3V818.88h77V891.2h129.38V841h5.92v31.37a3,3,0,0,0,3,3h126.14a3,3,0,0,0,3-3V820.83h44V929a3,3,0,0,0,3,3h123.77V953.8h144v-14h79.73V902h83.4V790.9h27.35V913.8h108v67.93h92.35v69.85a2,2,0,0,0,2,2h89.82a2,2,0,0,0,2-2v-176h65.06a2,2,0,0,0,1.09-.32h99.73a3,3,0,0,0,3-3V757.83h26.49V865.38a2.15,2.15,0,0,0,2.14,2.14h108.41a2.15,2.15,0,0,0,2.14-2.14V848.73h69.68V951.58a2,2,0,0,0,2,2h89.83a2,2,0,0,0,1.09-.32h99.73a3,3,0,0,0,3-3v-26h104.14a3,3,0,0,0,3-3V819.88h77V892.2h129.37V842h5.93v31.37a3,3,0,0,0,3,3h126.15a3,3,0,0,0,3-3V821.83h44V930a3,3,0,0,0,3,3h97.07V504.16Z"/><polygon class="cls-4" points="16344.94 795.25 15319.52 795.25 15223.48 795.25 13408.48 795.25 13399.52 795.25 11517.45 795.25 11517.45 794.9 11410.41 794.9 11401.45 794.9 9586.45 794.9 9490.41 794.9 7675.4 794.9 7666.45 794.9 5755.4 794.9 5755.4 795.25 5655.89 795.25 5646.94 795.25 3831.94 795.25 3735.89 795.25 1920.89 795.25 1911.94 795.25 0.89 795.25 0.89 1080.25 1911.94 1080.25 1920.89 1080.25 3735.89 1080.25 3831.94 1080.25 5646.94 1080.25 5655.89 1080.25 5762.94 1080.25 5762.94 1079.9 7666.45 1079.9 7675.4 1079.9 9490.41 1079.9 9586.45 1079.9 11401.45 1079.9 11410.41 1079.9 11488.48 1079.9 11488.48 1080.25 13399.52 1080.25 13408.48 1080.25 15223.48 1080.25 15319.52 1080.25 16344.94 1080.25 16344.94 795.25"/><polygon class="cls-5" points="16344.94 750.08 15316.52 750.08 15221.48 750.08 13406.48 750.08 13396.52 750.08 11516.45 750.08 11486.48 750.08 11410.41 750.08 11400.45 750.08 9585.45 750.08 9490.41 750.08 7675.4 750.08 7665.45 750.08 5761.94 750.08 5755.4 750.08 5655.89 750.08 5645.94 750.08 3830.94 750.08 3735.89 750.08 1920.89 750.08 1910.94 750.08 0.89 750.08 0.89 795.08 1910.94 795.08 1920.89 795.08 3735.89 795.08 3830.94 795.08 5645.94 795.08 5655.89 795.08 5755.4 795.08 5761.94 795.08 7665.45 795.08 7675.4 795.08 9490.41 795.08 9585.45 795.08 11400.45 795.08 11410.41 795.08 11486.48 795.08 11516.45 795.08 13396.52 795.08 13406.48 795.08 15221.48 795.08 15316.52 795.08 16344.94 795.08 16344.94 750.08"/></svg>