<svg id="Layer_1" data-name="Layer 1" xmlns="http://www.w3.org/2000/svg" width="160" height="270" viewBox="0 0 160 270"><defs><style>.cls-1{fill:#a5abad;}.cls-2{fill:#b3b3b3;}.cls-3{fill:#00525f;}.cls-4{fill:none;}.cls-5{fill:#f0f0f0;}.cls-6{fill:#c9cdce;}.cls-7{fill:#868686;}.cls-8{fill:#787878;opacity:0.4;}.cls-10,.cls-14,.cls-9{fill:#fff;}.cls-10,.cls-13{opacity:0.2;}.cls-11{fill:#ece7c6;}.cls-12{fill:red;}.cls-13{fill:#3394a1;}.cls-14{opacity:0.08;}.cls-15{fill:#d4145a;}.cls-16{fill:#c2c2c2;}.cls-17{fill:#575757;}</style></defs><path class="cls-1" d="M137.35,44.2c-.2-1.51,0-4,0-5.77C137,17.05,107.94.2,72.51.78S8.31,16.19,9,40.54a25,25,0,0,0,.41,3.78,3.15,3.15,0,0,0-.37.19C8.9,48.73-3.49,53.31,1,81.69L28,237c9.5,36.36,81.59,46.66,90.86-4.5L146.08,75.8a33.45,33.45,0,0,0,.39-9C145.26,54.57,138.41,46.36,137.35,44.2Z"/><path class="cls-2" d="M74.3,16.91c-30.22.29-54.85,12.75-54.4,33.47.14,6.33,3.19,12.21,8.38,17.18C40,74.39,56,78.47,73.79,78.18c21.73-.36,40.82-7.2,52.26-17.36a21.7,21.7,0,0,0,3.3-11.51C129.17,31.12,104.53,16.61,74.3,16.91Z"/><path class="cls-3" d="M144.16,86.65,118.39,234.89c-9.27,51.16-81.36,40.86-90.86,4.51L1,86.62C24.42,136.14,119.36,133.39,144.16,86.65Z"/><path class="cls-4" d="M86.09,77.27c16.54-2.22,30.73-8.26,40-16.45a21.7,21.7,0,0,0,3.3-11.51c-.18-18.19-24.82-32.7-55-32.4-1,0-2.06,0-3.08.07l-1,.05-2.06.11L67,17.23l-1.88.16L64,17.51c-.62.06-1.24.14-1.85.22-.4,0-.79.09-1.18.15l-.93.13-1.53.24-.93.16-1.52.29-.87.17c-.56.11-1.12.24-1.67.36l-.65.15c-.77.18-1.52.37-2.27.57l-.39.1-1.82.52-.74.23-1.41.46-.81.27L44.13,22l-.78.29-1.3.52-.71.3-1.45.65-.48.22c-.63.3-1.25.6-1.85.92l-.41.22-1.37.75-.6.36-1.1.68c-.22.13-.42.27-.63.41l-1,.68-.6.43c-.34.24-.67.5-1,.75l-.52.4c-.39.32-.76.64-1.13,1l-.28.24c-.46.41-.9.83-1.32,1.25-.12.12-.22.24-.34.35-.3.32-.6.63-.89,1l-.41.49q-.37.44-.72.87l-.41.54c-.22.29-.43.58-.63.88s-.25.36-.37.55-.41.64-.6,1l-.29.49q-.36.66-.69,1.32l-.09.19c-.24.51-.46,1-.67,1.56-.06.15-.11.32-.17.47-.13.38-.26.75-.38,1.13-.06.2-.12.41-.17.61q-.15.53-.27,1.05c-.05.22-.09.43-.14.65s-.13.71-.18,1.07-.07.44-.1.65c0,.4-.08.79-.11,1.19,0,.19,0,.38,0,.57,0,.59,0,1.19,0,1.79.14,6.33,3.19,12.21,8.38,17.18C40,74.39,56,78.47,73.79,78.18A106.66,106.66,0,0,0,86.09,77.27Z"/><path class="cls-5" d="M61.43,17.81l-.45.07c.39-.06.78-.11,1.18-.15Z"/><path class="cls-6" d="M72.51.78C37.08,1.37,8.31,16.19,9,40.54c.22,7.75,4.16,14.9,10.76,20.85a24.61,24.61,0,0,1-2.9-10.94C16.65,41,21.09,32.64,29.69,26.23,37.44,20.46,48.28,16.5,61,14.79a109.45,109.45,0,0,1,13.24-.93c15.17-.14,29.5,3.3,40.37,9.69C126,30.24,132.3,39.37,132.4,49.28a23.22,23.22,0,0,1-.54,5.19,26.37,26.37,0,0,0,5.44-16C137,17.05,107.94.2,72.51.78Z"/><path class="cls-7" d="M114.64,23.55c-10.87-6.39-25.2-9.83-40.37-9.69A109.45,109.45,0,0,0,61,14.79C48.28,16.5,37.44,20.46,29.69,26.23c-8.6,6.41-13,14.78-12.83,24.22a24.61,24.61,0,0,0,2.9,10.94,52.2,52.2,0,0,0,8.52,6.17c-5.19-5-8.24-10.85-8.38-17.18,0-.6,0-1.2,0-1.79,0-.19,0-.38,0-.57,0-.4.07-.79.11-1.19,0-.21.06-.43.1-.65s.11-.71.18-1.07.09-.43.14-.65.17-.7.27-1.05c.05-.2.11-.41.17-.61.12-.38.25-.75.38-1.13.06-.15.11-.32.17-.47.21-.53.43-1.05.67-1.56l.09-.19q.33-.66.69-1.32l.29-.49c.19-.33.39-.65.6-1s.24-.37.37-.55.41-.59.63-.88l.41-.54q.35-.44.72-.87l.41-.49c.29-.32.59-.63.89-1,.12-.11.22-.23.34-.35.42-.42.86-.84,1.32-1.25l.28-.24c.37-.32.74-.64,1.13-1l.52-.4c.32-.25.65-.51,1-.75l.6-.43,1-.68c.21-.14.41-.28.63-.41l1.1-.68.6-.36,1.37-.75.41-.22c.6-.32,1.22-.62,1.85-.92l.48-.22,1.45-.65.71-.3,1.3-.52.78-.29,1.31-.48.81-.27,1.41-.46.74-.23,1.82-.52.39-.1c.75-.2,1.5-.39,2.27-.57l.65-.15c.55-.12,1.11-.25,1.67-.36l.87-.17,1.52-.29.93-.16L60.05,18l.93-.13.45-.07.73-.08c.61-.08,1.23-.16,1.85-.22l1.15-.12L67,17.23l1.14-.09L70.24,17l1-.05c1,0,2-.06,3.08-.07,30.23-.3,54.87,14.21,55.05,32.4a21.7,21.7,0,0,1-3.3,11.51,40.4,40.4,0,0,0,5.81-6.35,23.22,23.22,0,0,0,.54-5.19C132.3,39.37,126,30.24,114.64,23.55Z"/><path class="cls-8" d="M50.42,3.17A117.15,117.15,0,0,1,72.51.78C107.94.2,137,17.05,137.3,38.43a26.37,26.37,0,0,1-5.44,16,23.22,23.22,0,0,0,.54-5.19c-.1-9.91-6.4-19-17.76-25.73-10.87-6.39-25.2-9.83-40.37-9.69A109.45,109.45,0,0,0,61,14.79,83.61,83.61,0,0,0,43.49,19Z"/><path class="cls-9" d="M86.46,79.52a107.36,107.36,0,0,1-12.54.94c-17.39.28-33.81-3.55-46.25-10.8C15,62.29,7.89,52.23,7.58,41.34h0C7.34,33,10.35,25.45,16.52,19,27.68,7.34,48.11.42,72.59,0c36.21-.59,66,17,66.33,39.14.18,10.9-6.58,21.19-19,29C110.64,73.92,99.07,77.83,86.46,79.52ZM58.67,4.09C41.42,6.4,27,12.44,18.72,21.1c-5.59,5.84-8.31,12.62-8.09,20.15h0C11.21,61.76,39.58,78,73.86,77.41c16.86-.28,32.63-4.48,44.39-11.85C129.78,58.35,136,49,135.88,39.2c-.34-20.49-28.71-36.71-63.24-36.14A120.56,120.56,0,0,0,58.67,4.09Z"/><path class="cls-10" d="M141.88,85.34c-11.8,19.21-25.15,27.28-48.95,31.53a2.1,2.1,0,0,1-2.38-2.17C88.82,100.62,84.26,92,82.66,85.76c-.34-1.36.08-2.75,1.47-3,27.5-4.13,45-12.71,52.71-27.71a2,2,0,0,1,3.58,0c3.9,7.14,4.91,15.29,1.72,29.64A2.16,2.16,0,0,1,141.88,85.34Z"/><path class="cls-11" d="M31.53,204.67l-.24-1.47.41.34.43.34.42.34.44.34a2.92,2.92,0,0,1,.84.87c.15.32.27.93,0,1s-.36-.14-.52-.26l-.46-.36-.46-.37L32,205l-.45-.37m.5-2.88-.79-.63-.77-.65-.74-.65L29,199.2a.27.27,0,0,0-.15-.09l-.05,0v.1l.76,4.38a1,1,0,0,0,.29.5l.74.69.76.68.78.66.81.66c2.47,1.83,2.21-.34,2.17-.59-.13-.84-.7-2.53-3.09-4.43m-2.52-9.25-.27-1.67.32.25.32.26.32.25.33.25a2,2,0,0,1,.8.87s.37,1.07,0,1.08a1.91,1.91,0,0,1-.69-.38l-.29-.23-.29-.23-.29-.22-.29-.23m0-3.69-.69-.54-.68-.56c-.23-.18-.45-.37-.67-.56l-.64-.57c-.08-.07-.08-.07-.15-.08s-.06.05-.05.16l.85,4.88a1,1,0,0,0,.3.53l.6.54.62.54.64.53c.21.18.43.35.65.52,2.64,2,2.42-.22,2.35-.68a7.47,7.47,0,0,0-3.13-4.71m39.64,29.57c-11.14-1-9.66-10.65-7.08-12.79,3.12-2.58,16.95-2.95,16.08,6.36-.4,4.28-3.76,6.68-9,6.43m-1.1-16.9c-17.5-.73-10.22,12.53-8.84,14.06,5.59,6.19,20.45,5.52,20.86-4.83.22-5.52-3.94-8.71-12-9.23M52.42,169.37l.51-2.07.79,2.34-.33-.07-.32-.06-.33-.07-.32-.07m-1.14-13.88H51.2l-.08,0h-.07l-.08,0c-.94,4.2-2.37,9.76-3.13,14,0,0-.06.4.5.59s1.26.32,1.89.47l1.93.44,1.94.4,2,.37c.2,0,.53,0,.46-.39-1.58-4.74-3.69-11.06-5.25-15.81m-26.2,47.92a1.66,1.66,0,0,1-.2-.52l-6.2-32.12.1-.06a31.12,31.12,0,0,0,2,2.81,33.8,33.8,0,0,0,2.42,2.71c.87.88,1.8,1.75,2.79,2.58s2.05,1.65,3.16,2.43c20.5,14.71,13,20.93,11.19,21.23a6.11,6.11,0,0,1-1,.06l-.12.24c1.35,2,3.39,3.47,4.69,5.54a11.31,11.31,0,0,1,1.67,4.57c.3,4.2-3.23,4.56-5.36,4.11A14.25,14.25,0,0,1,35,214.42c-1-.8-2-1.64-3-2.5s-1.83-1.76-2.67-2.69A36.28,36.28,0,0,1,27,206.39a33.11,33.11,0,0,1-2-3m84-5,0,0,.05,0,0,0,0,0c4.43-8.48,4.9-9.37,7.94-15.78a1,1,0,0,1,.3-.37c.79-.54,1.55-1.09,2.28-1.64s1.41-1.13,2.07-1.7,1.28-1.16,1.87-1.75,1.15-1.18,1.68-1.78l.1.2,0,.05a263.57,263.57,0,0,1-12.86,28l0,.15-1.84,10.43a.85.85,0,0,1-.32.45c-.68.49-1.37,1-2.09,1.44s-1.47.93-2.23,1.38-1.56.88-2.37,1.3-1.65.84-2.51,1.23L101,220l-.1-.13,1.42-10.49,0-.1c-9.22-10.39-13.47-16-13.49-16.29.23-.25.24-.25.46-.3,1.2-.19,2.39-.41,3.57-.65s2.34-.51,3.5-.8,2.29-.6,3.42-.94,2.23-.69,3.33-1.07l.1,0,.11,0,.11,0,.1,0a.63.63,0,0,1,.36.06c3.13,5.47,3.39,5.91,5.21,9.27M68.34,226.49C45.6,224.14,39,202.12,47.92,195.77s49.81-5.09,45.48,14.5c-1.9,8.59-11.79,17-25.06,16.22m18.24-32.13A51.18,51.18,0,0,0,78,192.45c1,0,1.93-.09,2.9-.16s1.93-.14,2.89-.24,1.92-.2,2.87-.33,1.9-.26,2.85-.41c-2.08.39-3.43,1.79-2.94,3.05m23.87-.07c-1.88-3.67-3.37-6.57-3.54-6.78-.37-.46-1.06-.53-2-.2l.77-.29.75-.29.74-.3.73-.31.47-.2c.93-.4,1.83-.81,2.7-1.24s1.72-.86,2.54-1.31,1.6-.91,2.36-1.38,1.5-.94,2.2-1.43a6.58,6.58,0,0,0-1.91,2.3c-1.7,3.44-4,8-5.76,11.43M33.57,182.76c.91.51,1.85,1,2.82,1.49s2,.94,3,1.38,2,.87,3.11,1.27,2.15.8,3.25,1.16c1.28.38,2.17.08,2.45-.81l1.06-4.47,2.37.61c.79.19,1.6.37,2.41.54s1.63.34,2.45.49,1.65.29,2.48.42c2.09,5.9,2.09,5.9,3.14,6.56-8.73.19-13.42,1.46-16.72,4.52-2.12-4.4-5.48-8.53-15.67-15.56l.29.2.29.19.29.19.29.18a1.55,1.55,0,0,0,1.26.32,5.28,5.28,0,0,0,1.46,1.32m-1.78-8.19-3.65-24.88c.58.3,1.17.59,1.76.88l1.83.84c.62.27,1.25.55,1.89.81s1.29.52,2,.78c-1.23,6.66-2.5,13.55-3.78,21.57M10.5,131.9a2.29,2.29,0,0,1-.23-.67l-2.1-10.71.07-.21A27.51,27.51,0,0,0,12.09,125a42.35,42.35,0,0,0,5.4,4.4,60.85,60.85,0,0,0,6.86,4,84.19,84.19,0,0,0,8.2,3.58.91.91,0,0,1,.51.64l1.38,11.08-.15.28h-.23c-.83-.33-1.65-.67-2.45-1s-1.58-.7-2.35-1.06-1.52-.73-2.25-1.11-1.44-.76-2.14-1.15l-.29.11v.12l5.1,32.64-.26.13q-1.12-.75-2.19-1.53c-.7-.53-1.38-1.06-2-1.6s-1.27-1.1-1.88-1.66-1.16-1.14-1.71-1.72a2.49,2.49,0,0,1-.29-.59l-5.93-32.39a1.61,1.61,0,0,0-.32-.66c-.47-.45-.91-.9-1.34-1.36s-.82-.92-1.2-1.39-.74-.94-1.08-1.41-.65-1-.95-1.43m67.36,54.76a1,1,0,0,0,.51-.36l1.21-41.08a1.19,1.19,0,0,1,.59-.47c1.36,0,2.72,0,4.07-.09s2.7-.12,4-.21,2.67-.2,4-.32,2.63-.27,3.94-.44l.37.09.13.3-3,34.25.27.27h.18c.92-.18,1.82-.36,2.72-.56s1.79-.4,2.67-.62,1.76-.46,2.62-.7,1.72-.5,2.56-.77l.91-.3.89-.3.88-.31.87-.31.37.12v.07l-1.2,8.48a1.63,1.63,0,0,1-.45.49l-.84.32-.85.32-.86.31-.88.31c-1.93.65-3.91,1.23-5.92,1.75s-4.09,1-6.18,1.33-4.22.69-6.36.92-4.31.39-6.48.48h-.37c-1.28,0-2.56.07-3.84.07s-2.56,0-3.84-.08-2.55-.13-3.82-.23-2.52-.22-3.78-.37a1.17,1.17,0,0,1-.47-.31c-2.3-6.58-2.3-6.58-2.71-6.7-1.18-.18-2.36-.37-3.52-.59s-2.32-.44-3.45-.7-2.27-.52-3.37-.81-2.21-.6-3.28-.92l-.39.09,0,.05-1.17,5.55-.38.12c-1-.36-2-.73-3-1.12s-2-.79-2.9-1.22-1.87-.86-2.77-1.31-1.78-.92-2.64-1.4a1.76,1.76,0,0,1-.39-.62c2-11.54,7.21-39,7.94-39.55l.12,0q2.38.69,4.88,1.29T50.51,142c1.73.34,3.47.66,5.25.94s3.56.53,5.37.74a1.48,1.48,0,0,1,.55.4c4.62,12.81,15.44,42.58,16.18,42.56m30.43-3.29-.24,0-.11-.19,6.14-42.78a.93.93,0,0,1,.52-.59c1.08-.33,2.13-.67,3.14-1s2-.71,2.93-1.09,1.85-.76,2.73-1.16,1.71-.79,2.52-1.21l.23,0,0,.24-6,32.93.1.2.14-.05q1.17-.76,2.25-1.56c.71-.53,1.39-1.07,2-1.61s1.26-1.1,1.85-1.66,1.13-1.11,1.65-1.68l.13.12-1.7,8.21a1.36,1.36,0,0,1-.26.54,36.22,36.22,0,0,1-3.39,3.4,45.06,45.06,0,0,1-4.15,3.22,56.08,56.08,0,0,1-4.91,3q-2.67,1.44-5.68,2.7m19-50.4c-.84.44-1.71.88-2.62,1.3s-1.87.84-2.86,1.24-2,.8-3.1,1.18-2.18.75-3.32,1.1a5.06,5.06,0,0,0-3.32,3.7l-4.41,32-.67.24-.67.23-.68.22-.7.22-1.73.53-1.76.49c-.59.16-1.18.32-1.78.46l-1.81.43,3.31-32.45c-.07-.83-.2-2.54-3.1-2.38-1.39.19-2.79.36-4.21.5s-2.84.28-4.28.38-2.88.19-4.34.25-2.92.1-4.38.11c-2.23.21-3.44,1.17-3.7,2.95l-.59,27.64c-11.31-31-11.31-31-13.89-31.46-1.9-.21-3.79-.45-5.65-.73s-3.71-.58-5.52-.93-3.6-.71-5.35-1.12-3.46-.84-5.14-1.3c-1.24-.21-2.17-.24-2.74,1.29l-.86,4.3L37,139.49a5.31,5.31,0,0,0-3.28-4,86.1,86.1,0,0,1-8.63-3.59,61.74,61.74,0,0,1-7.25-4.08,42.69,42.69,0,0,1-5.71-4.46A28.8,28.8,0,0,1,8,118.65l-.51.36c0,.3.09.69.15,1l2.26,11.48a15.82,15.82,0,0,0,1.42,4.2q.38.58.78,1.17c.27.39.56.78.86,1.16s.62.76.95,1.14.67.76,1,1.13l5.62,30.27a8.91,8.91,0,0,0,1.76,3.64c-.35-.37-.69-.74-1-1.12s-.65-.75-.95-1.13-.6-.77-.88-1.16-.55-.78-.81-1.17l-.38-.48a1.94,1.94,0,0,0-.23.9l6.33,32.51a12.75,12.75,0,0,0,1.23,3.26c.62,1,1.29,2,2,3a35.9,35.9,0,0,0,2.4,2.88c.86.94,1.78,1.84,2.75,2.71s2,1.72,3.09,2.52c6.15,4.29,10.29,3.3,12.11.94C65.4,239,94.8,226.44,97.13,208c0-.24.05-.56.06-.8,1,1.13,2.36,2.63,3.38,3.74L99.24,221.3l.18.61a1.92,1.92,0,0,0,1.89-.11c.9-.43,1.78-.87,2.64-1.33s1.67-.93,2.47-1.42,1.57-1,2.32-1.5,1.47-1,2.16-1.57a5.74,5.74,0,0,0,1.94-2.84l1.88-10.27c10.75-22.16,12.43-30,12.44-30a1.49,1.49,0,0,0-.76.28v0l0,0,0,0,0,0A9.59,9.59,0,0,0,128,169.6l1.85-8.79.09-.72-.56-.26-.23.24c-.42.49-.87,1-1.35,1.46s-1,1-1.49,1.44-1.07.94-1.64,1.41-1.17.92-1.79,1.37l5.89-31.15a5.26,5.26,0,0,0-.11-1.48l-.61-.36a3.88,3.88,0,0,0-.76.21"/><path class="cls-12" d="M32.55,137a84.19,84.19,0,0,1-8.2-3.58,60.85,60.85,0,0,1-6.86-4,42.35,42.35,0,0,1-5.4-4.4,27.51,27.51,0,0,1-3.85-4.65l-.07.21,2.1,10.71a2.28,2.28,0,0,0,.23.67c.3.48.61,1,.95,1.43s.7.94,1.08,1.41.78.93,1.2,1.39.87.91,1.34,1.36a1.55,1.55,0,0,1,.32.66l5.93,32.39a2.49,2.49,0,0,0,.29.59c.55.58,1.12,1.15,1.71,1.72s1.23,1.11,1.88,1.66,1.33,1.07,2,1.6,1.44,1,2.19,1.53l.26-.13-5.1-32.64.13-.28.16,0c.7.39,1.41.77,2.14,1.15s1.48.75,2.25,1.11,1.55.72,2.35,1.06,1.62.69,2.45,1l.31,0,.07-.24-1.38-11.08a1,1,0,0,0-.51-.64"/><path class="cls-12" d="M48.34,170c-.34-.12-.51-.33-.5-.59.94-4.2,2.18-9.79,3.13-14l.08,0h.07l.08,0h.08c1.57,4.75,3.83,11,5.25,15.81,0,0,.12.44-.46.39l-2-.37-1.94-.4-1.93-.44c-.63-.15-1.26-.3-1.89-.47m47.87-26.32c-1.31.17-2.62.31-3.94.44s-2.65.23-4,.32-2.69.16-4,.21-2.71.08-4.07.09a1.19,1.19,0,0,0-.59.47L78.37,186.3c-.55.69-1,.13-1,.12-2.29-6-7.64-19.91-12.32-32.9-3.48-9.65-3.48-9.65-3.95-9.82q-2.72-.31-5.37-.74c-1.78-.28-3.52-.6-5.25-.94s-3.41-.71-5.07-1.11-3.29-.83-4.88-1.29l-.39.09-.05.12c-5.43,25.91-7.86,39.35-7.23,39.94.86.48,1.74.95,2.64,1.4s1.83.89,2.77,1.31,1.92.83,2.9,1.22,2,.76,3,1.12l.38-.09v0l1.17-5.55c.12-.05.28-.18.41-.14,1.07.32,2.17.63,3.28.92s2.23.56,3.37.81,2.29.49,3.45.7,2.34.41,3.52.59a1.39,1.39,0,0,1,.49.34C62.59,189,62.59,189,63,189c1.26.15,2.52.27,3.78.37s2.54.18,3.82.23,2.56.08,3.84.08,2.56,0,3.84-.07h.37q3.26-.13,6.48-.48t6.36-.92c2.09-.37,4.15-.82,6.18-1.33s4-1.1,5.92-1.75l.88-.31.86-.31.85-.32.84-.32a1.62,1.62,0,0,0,.45-.49l1.2-8.48-.32-.21,0,0-.87.31-.88.31-.89.3-.91.3c-.84.27-1.7.52-2.56.77s-1.74.48-2.62.7-1.77.43-2.67.62-1.8.38-2.72.56l-.38-.09-.07-.18,3-34.25-.21-.35a1.55,1.55,0,0,0-.29,0"/><path class="cls-12" d="M125.92,135.35c-.81.42-1.65.82-2.52,1.21s-1.79.79-2.73,1.16-1.92.74-2.93,1.09-2.06.7-3.14,1a.89.89,0,0,0-.52.59l-6.14,42.78.13.2.22,0q3-1.26,5.68-2.7a56.08,56.08,0,0,0,4.91-3,45.06,45.06,0,0,0,4.15-3.22,36.22,36.22,0,0,0,3.39-3.4,1.21,1.21,0,0,0,.26-.54l1.7-8.21-.13-.12q-.78.85-1.65,1.68c-.59.56-1.2,1.11-1.85,1.66s-1.33,1.08-2,1.61-1.47,1.05-2.25,1.56h-.23v-.14l6-32.93,0-.24c-.07,0-.16-.06-.23,0"/><path class="cls-12" d="M29.86,204.12a1,1,0,0,1-.29-.5l-.76-4.38v-.1l.05,0a.27.27,0,0,1,.15.09l.72.66.74.65.77.65.79.63c3.57,2.88,3.51,5.62,2.54,5.74-.55.07-1.27-.47-1.62-.72l-.81-.66-.78-.66-.76-.68-.74-.69m-2.08-12a1,1,0,0,1-.3-.53l-.85-4.88c0-.11,0-.11.05-.16s.07,0,.15.08l.64.57c.22.19.44.38.67.56l.68.56.69.54c3.48,2.77,3.73,6,2.59,6.21-.6.09-1.42-.52-1.81-.82-.22-.17-.44-.34-.65-.52l-.64-.53-.62-.54-.6-.54m1.4-10.87c-1.11-.78-2.16-1.59-3.16-2.43s-1.92-1.7-2.79-2.58a33.8,33.8,0,0,1-2.42-2.71,31.12,31.12,0,0,1-2-2.81l-.1.06,6.2,32.12a2.25,2.25,0,0,0,.2.52,33.11,33.11,0,0,0,2,3,36.28,36.28,0,0,0,2.31,2.84c.84.93,1.73,1.82,2.67,2.69s2,1.7,3,2.5c7.17,5.07,11.24,2.29,10.48-2-.67-3.87-4-7.34-5.38-8.65-.9-.85-.9-.85-.89-1.17,5.78-.21,5.43-7.8-2.85-15.57a70.14,70.14,0,0,0-7.19-5.74"/><path class="cls-12" d="M68.26,219.47c-13.13-1.27-13.16-12.64-9.66-15.84,4-3.69,21.89-3.54,21.47,7.12-.22,5.63-5,9.14-11.81,8.72M68,192.88c-40.23-2-18.32,24.64-18.08,24.91,14.79,16.71,42.15,8,43.82-9.33.91-9.41-7.27-14.36-25.74-15.58"/><path class="cls-12" d="M125.39,175.28c-.53.6-1.09,1.2-1.68,1.78s-1.22,1.18-1.87,1.75-1.35,1.14-2.07,1.7-1.49,1.1-2.28,1.64a1.09,1.09,0,0,0-.3.37c-4.38,9-4.74,9.78-7.94,15.78l0,0,0,0-.05,0,0,0c-5.16-9.4-5.2-9.39-5.57-9.33l-.1,0-.11,0-.11,0-.1,0c-1.1.38-2.21.74-3.33,1.07s-2.27.65-3.42.94-2.33.55-3.5.8-2.37.46-3.57.65c-.23.08-.57.2-.44.54,5.52,6.91,7.22,9,13.47,16.05l0,.1-1.42,10.49.16.13.16-.05c.86-.39,1.7-.8,2.51-1.23s1.6-.85,2.37-1.3,1.51-.91,2.23-1.38,1.41-.95,2.09-1.44a.9.9,0,0,0,.32-.45l1.84-10.43,0-.15c10.23-19.81,12.9-28.19,12.92-28.26s-.11-.06-.14,0"/><ellipse cx="135.99" cy="54.2" rx="24.01" ry="23.99"/><ellipse class="cls-9" cx="143.33" cy="48.73" rx="7.11" ry="7.11"/><ellipse class="cls-9" cx="127.12" cy="61.66" rx="8.89" ry="8.89"/><path class="cls-13" d="M91.62,120.76c22.57-4.37,42.88-15.9,52.54-34.11L118.39,234.89c-3.1,17.1-15.68,32.06-33,34.38Z"/><path class="cls-14" d="M98.86,120.94a87.21,87.21,0,0,0,36.33-19.38,2.16,2.16,0,0,1,3.55,2L116.59,231.68c-2.48,13.72-11,24.65-22.17,29.22a2.17,2.17,0,0,1-3-2.1L97.19,123A2.17,2.17,0,0,1,98.86,120.94Z"/><path d="M122.16,101.27l-33.48,8.88c-3.05.81-4.21,5.46-2.2,8.78h0l.07.11a27.68,27.68,0,0,1,14-5.87c9.9-1.33,18.9,2.24,22.55,8.33A32.12,32.12,0,0,0,127.63,108h0C128.11,104,125.2,100.46,122.16,101.27Z"/><path class="cls-15" d="M100.52,113.17a27.68,27.68,0,0,0-14,5.87c10.17,16.61,28,15.94,36.52,2.46C119.42,115.41,110.42,111.84,100.52,113.17Z"/><path class="cls-7" d="M41.84,42.71c6.44-9.31,23.86-6.23,35.69-3.25S95.27,47.66,92.9,56.6s-22.54,8.81-34,4.55C46.79,56.64,36.59,50.32,41.84,42.71Z"/><path class="cls-16" d="M109,31.88,94.38,43.37A22.17,22.17,0,0,1,71.54,46.1l-4.37-2a8.17,8.17,0,0,1-1.74-13.8l11.94-9.64A26,26,0,0,1,105.3,17.3l2.47,1.21A7.83,7.83,0,0,1,109,31.88Z"/><path class="cls-17" d="M82.37,39.19c-2-1.65-9.12-4.59-10.88-5.48s-.89-1.51-.16-2l5.42-3.87A10,10,0,0,1,87,27L90.85,29a4.36,4.36,0,0,1,.57,7.45l-3.29,2.35C86.44,40,84.39,40.84,82.37,39.19Z"/><path class="cls-17" d="M84.54,21.38c3,1.15,11.68,4.6,15.26,7.57a3.5,3.5,0,0,0,3.57-.28l1.94-1.36c2.1-1.48,3.06-4.28-4.29-7.74,0,0-10.67-4.87-16.66.65A.69.69,0,0,0,84.54,21.38Z"/><ellipse cx="57.09" cy="78.82" rx="24.01" ry="23.99"/><ellipse class="cls-9" cx="64.43" cy="73.35" rx="7.11" ry="7.11"/><ellipse class="cls-9" cx="48.22" cy="86.28" rx="8.89" ry="8.89"/></svg>