<svg xmlns="http://www.w3.org/2000/svg" width="418.83" height="355.91" viewBox="0 0 418.83 355.91"><defs><style>.cls-1{isolation:isolate;}.cls-2{opacity:0.95;}.cls-3{mix-blend-mode:soft-light;}.cls-4{fill:#fff;}.cls-5{fill:#4d226d;}</style></defs><g class="cls-1"><g id="Layer_8" data-name="Layer 8"><path class="cls-4" d="M407.4,118.92h0a39,39,0,0,0-55.15,0L248.41,222.76V39a39,39,0,0,0-39-39h0a39,39,0,0,0-39,39V222.76L66.58,118.92a39,39,0,0,0-55.16,0h0a39,39,0,0,0,0,55.16L154.26,316.91l27.58,27.58a39,39,0,0,0,55.15,0l27.58-27.58L407.4,174.08A39,39,0,0,0,407.4,118.92Z"/><path class="cls-5" d="M209.41,343.91A26.82,26.82,0,0,1,190.32,336L19.91,165.59a27,27,0,1,1,38.18-38.18L161.93,231.24a12,12,0,0,0,20.48-8.48V39a27,27,0,0,1,54,0V222.76a12,12,0,0,0,7.41,11.08,11.87,11.87,0,0,0,4.59.92,12,12,0,0,0,8.49-3.52L360.73,127.41a26.83,26.83,0,0,1,19.1-7.91h0a27,27,0,0,1,19.09,46.09L228.5,336A26.82,26.82,0,0,1,209.41,343.91Z"/></g></g></svg>