<svg xmlns="http://www.w3.org/2000/svg" width="135" height="370" viewBox="0 0 135 370"><defs><style>.cls-1{fill:#3f1d05;}.cls-2,.cls-3{fill:#231003;}.cls-11,.cls-2{opacity:0.2;}.cls-3{opacity:0.64;}.cls-4{fill:#c7b299;}.cls-5{fill:#e6e7e8;}.cls-6{fill:#adadae;}.cls-7{fill:#be1e2d;}.cls-8{fill:#33b46f;opacity:0.29;}.cls-9{fill:#7d7f81;}.cls-10{fill:#fff;}.cls-11{fill:#231f20;}</style></defs><g id="Lite"><path class="cls-1" d="M128,368.26c-6.52,3.73-116.82.8-121.23-2.61-10.68-21.2-6.07-36.67-4-40L19.2,129.2c2.19-28.41,21.25-41.69,26.74-44.07-.11-7.06,8.84-54.22,8.84-54.22-2.6-3.41.34-14.2,1.39-15.92C63.08-4,83.5-.14,86.32,17.6c.82,3.44,1,9.71-.31,10.79l8,57.53c5.19,1,25.17,17,25.24,42.62l13.88,198C134,332.73,138.92,353.77,128,368.26Z"/><path class="cls-2" d="M96.56,365.83c-35.29,0-75.53-1.9-84.6-3.47-8.36-18-4.67-30.8-3.24-33.08A4.94,4.94,0,0,0,9.48,327L25.86,130.58c.86-11.19,1.7-23.1,8.16-31.19C39.12,93,44.23,87.73,46.36,86.81c1.92-.84,5-2.24,5-4.3-.08-4.71,2.48-20.83,4.79-33.3,1.08-1,7.71-2.51,15.43-2.51,6.93,0,11.55,1.32,12.47,2,.27.23.53.44.77.62L90.29,87.6a5.17,5.17,0,0,0,4.09,4.31c1.28.38,6.59,3.68,11.79,10.58a45,45,0,0,1,9.3,27c0,.11,0,.23,0,.34l13.88,198c0,.14,0,.28,0,.42.09.55.2,1.2.33,2,1.22,7,4,23.07-3.47,34.52C123.91,365.15,116.79,365.83,96.56,365.83Z"/><path class="cls-3" d="M23.44,327.19,26,131.42c2.19-28.41,15.32-44.9,26.77-45.8-.12-7.06,6.51-63.57,6.51-63.57-2.39,2.18-3.31-6.28,1.64-7-4.38.12-.09-5.68-.09-5.68L56.29,15c-1,1.73-4,12.52-1.39,15.93,0,0-8.95,47.16-8.83,54.22-5.5,2.38-24.56,15.66-26.75,44.07L3,325.63c-2.12,3.37-6.73,18.84,4,40,1.3,1,11.79,2,26.11,2.73C20.85,368.4,15.4,332.83,23.44,327.19Z"/><path class="cls-4" d="M109.94,319.14h.19a4.43,4.43,0,0,0,4.2-4.5l-4.89-191.46c-.88-7.35-15.37-13-14.15-2L105.23,315A4.43,4.43,0,0,0,109.94,319.14Z"/><path class="cls-5" d="M17.05,155c11.64-27.95,93.84-33,104.08,1L131.8,308.21c-25.33-10.65-112.88-8.8-127.37-1.9Z"/><path class="cls-4" d="M83.22,17.69a30.35,30.35,0,0,0-4.69-3.64.43.43,0,0,1,0-.71l.33-.2a1.32,1.32,0,0,1,1.38,0,20.39,20.39,0,0,1,3.32,2.49A1.39,1.39,0,0,1,84,16.76l-.06.68A.43.43,0,0,1,83.22,17.69Z"/><path class="cls-4" d="M81.34,20a21.82,21.82,0,0,0-4-2.56.35.35,0,0,1,0-.59l.25-.21a1.07,1.07,0,0,1,1.12-.14,15.41,15.41,0,0,1,2.79,1.74,1.09,1.09,0,0,1,.42.91v.56A.37.37,0,0,1,81.34,20Z"/><path class="cls-6" d="M86.32,17.6c-2.13-7.27-11-13.81-19.47-11.85S56.94,14.06,55.07,18C52.57,10.47,57,2.83,67.9.29,77.93-2,90.67,10.41,86.32,17.6Z"/><path class="cls-7" d="M16.58,266.18c-2.28-1.32-1.92-12.29,0-15.18,1.19.26,2.31,1.23,4.16,3.58-1.53,5.9-2.65,9-4.14,11.6m17.1-34.86c10.49-34.57,16.82-55.44,23.16-60.15,4.25,3.35-2.21,45-23.16,60.15M54.44,167c-4.12.73-12.69,2.25-28.56,66.18-16.89-3.62-3.1-47,.13-50.63,3.26,3.33-4.81,31.85-4.91,32.13-.45,1.39-.6,1.85.38,2.51,6.17-2.46,14.83-34.47,6.23-37.34-12-4-15.39,41.92-10.89,52.09,2,4.56,5.7,4.84,8.14,5-1.1,4.47-2.11,9-3.2,13.44-10.74-8.84-9,8.39-8.3,14.88.87,8.46,6.68,1.85,6.93,1.57a29.21,29.21,0,0,0,4-6.77c3.87,6.37,6.21,8.31,10,8.3v.1c11.41-1.54,13.18-15.4,11.47-17a2.13,2.13,0,0,0-1.09-.35c-4.38,12.2-13.33,7.47-18.28,3.56.95-2.65.95-2.65,5.86-18.84C58.52,224.68,78.16,175,59.29,167.67a11,11,0,0,0-4.85-.69"/><path class="cls-7" d="M73.6,194.75c3-2.81,6.71-4.76,9.71-7.58,2.31-2.15,2.9-3.52,3.15-4.47,1.16-4.26-3.89-4.48-8.34-4.68h0a58.15,58.15,0,0,1-4.51,11.65,16,16,0,0,0-1.43,3.05A1.52,1.52,0,0,0,73.6,194.75Z"/><path class="cls-7" d="M119.18,235.31c-4.71,8.14-4.71,8.14-6.9,9.24s-4.86,2.43-6.15-2.7a17.12,17.12,0,0,1-.17-5.3c12,4.95,18.6-21.05,14.8-30.16a7,7,0,0,0-4.91-4.47c-6.12-1.12-13.36,11.73-16.4,24.05-3.74,7.57-8.35,14.86-13.78,18.52-2.57-2.83-3.11-3.43,11.69-40.65,6.09.32,8.64.18,7.5-2.54-.88-.31-6.09-.86-6.14-.87,3.17-6.89,5.27-11.44-3.39-12.37l-.69-.05c-.43.55-.83,1.27-5.3,11.67-4.89-.29-5.41-.13-5.6-.06-1.43.46-1.07,2.23-1.06,2.25.15.32.23.48,5.32,1q-2.59,6.26-4.68,11.58c-5.13,10.45-12.67,24.16-21.1,30.07,2.92-14.31,12.16-26.36,15-40.7.28-1.39,1-5.07-6-5.11a13.86,13.86,0,0,0-2.09.12c-2.63,15.09-14.05,27.07-15.46,42.59-.75,8.26,6.94,9.27,11,6.27,3.6-2.63,8.46-9.57,12.75-16.93A48.49,48.49,0,0,0,75,241.28c-.26,4.81,6,9.28,10.55,7.59,5.21-1.92,10.68-11.29,12.24-14.11.09-.17.17-.35.27-.52-.34,4.56.21,8.49,2,10.83,8,10.47,18.53,4.32,19.68-7.75C119.91,235.6,119.54,235.45,119.18,235.31Zm-1.41-29.43c1.44,2.52-1.61,25.46-11.36,28C108.52,223.35,114.45,206.61,117.77,205.88Z"/><path class="cls-8" d="M48.09,346.66c.77,2.86.73,4.07.12,5.57-.76,1.87-2,6.81,3.12,7,2.76.11,3.27-3.22,3-5.37-.64-4.54,1.12-4.86,2.09-4.85A2.58,2.58,0,0,1,59,352.3c-.24.92-1.38,3.06.59,4.11,1.55.83,5.47-.22,4.43-3-.76-2-1.32-3.75-1-5.42.37-1.86,1-2.49,2.51-2.89,2.16-.57,3,5.68,6.74-1.11C75.19,338.65,48.44,346.34,48.09,346.66Z"/><path d="M35.59,326.6a20.3,20.3,0,1,1,20.59-20.29A20.46,20.46,0,0,1,35.59,326.6Z"/><path d="M95.53,352.53c0,2.29-12.36-8.7-26.62-8.7s-21.91,4.26-23,3.79c-2.14-.91,8.77-7.15,23-7.15S95.53,350.23,95.53,352.53Z"/><ellipse class="cls-9" cx="35.59" cy="305.06" rx="17.79" ry="17.53"/><ellipse class="cls-10" cx="35.59" cy="301.88" rx="14.84" ry="14.63"/><path d="M113.82,340.47a20.3,20.3,0,1,1,20.59-20.29A20.46,20.46,0,0,1,113.82,340.47Z"/><ellipse class="cls-9" cx="114.43" cy="318.79" rx="17.79" ry="17.53"/><ellipse class="cls-10" cx="114.43" cy="316.38" rx="14.84" ry="14.63"/><path class="cls-4" d="M87.18,86l-3.27-1.15a2.09,2.09,0,0,1-1.1-2L79.48,24.56c0-.3.2-.5.57-.37a5.57,5.57,0,0,1,1.78.85,1,1,0,0,1,.37.66l6.29,59.39C88.58,86,88,86.41,87.18,86Z"/><path class="cls-11" d="M25.17,145.06a25.07,25.07,0,0,0-8.51,10.29L4.19,306.64a58.14,58.14,0,0,1,19-5.64Z"/></g></svg>