<svg id="Layer_1" data-name="Layer 1" xmlns="http://www.w3.org/2000/svg" width="335" height="145" viewBox="0 0 335 145"><defs><style>.cls-1{fill:#262626;}.cls-2{fill:#fff;}.cls-3{fill:#ed1c24;}.cls-4{fill:#29abe2;}.cls-5{fill:#bbef1f;}.cls-6{fill:#bf1051;}.cls-7{fill:#ff7bac;}.cls-8{fill:#851014;}.cls-9{fill:#888790;}.cls-10{fill:#756965;}.cls-11{fill:#2b2a2a;}.cls-12{fill:#31352e;}.cls-13{fill:#514f5b;}.cls-14{fill:#6a6975;}</style></defs><path class="cls-1" d="M49.33,141.73c-25.45,0-46.16-21.37-46.16-47.64V50.91c0-26.27,20.71-47.64,46.16-47.64H285.67c25.45,0,46.16,21.37,46.16,47.64V94.09c0,26.27-20.71,47.64-46.16,47.64Z"/><path class="cls-2" d="M285.67,6.53c23.65,0,43,20,43,44.38V94.09c0,24.41-19.35,44.38-43,44.38H49.33c-23.65,0-43-20-43-44.38V50.91c0-24.41,19.35-44.38,43-44.38H285.67m0-6.53H49.33C22.13,0,0,22.84,0,50.91V94.09C0,122.16,22.13,145,49.33,145H285.67c27.2,0,49.33-22.84,49.33-50.91V50.91C335,22.84,312.87,0,285.67,0Z"/><path d="M53.89,23.08H281.11c15.06,0,28.38,5.46,36.41,13.78-4.75-13.82-21.41-24-41.17-24H58.65c-19.76,0-36.42,10.23-41.17,24C25.51,28.54,38.83,23.08,53.89,23.08Z"/><path d="M72.38,127.27c-18.84,0-34.17-15.82-34.17-35.26a36.06,36.06,0,0,1,.93-8.15L28,61a5.69,5.69,0,0,1,.22-5.46,5.44,5.44,0,0,1,4.63-2.69,5.36,5.36,0,0,1,2.65.72l6.13,3.5,4.46-40a3.25,3.25,0,0,1,2.24-2.76,3.19,3.19,0,0,1,.91-.14,3.12,3.12,0,0,1,2.43,1.18L84.48,55.76l2.51,3L107.31,48.1a5.07,5.07,0,0,1,2.35-.58,5.73,5.73,0,0,1,5.1,8l-9.19,20.75a12.16,12.16,0,0,1,.91,13.49c0,.8.07,1.55.07,2.28C106.55,111.45,91.23,127.27,72.38,127.27Z"/><path d="M168.54,127.27c-18.84,0-34.17-15.82-34.17-35.26a36.06,36.06,0,0,1,.93-8.15L124.2,61a5.69,5.69,0,0,1,.22-5.46,5.44,5.44,0,0,1,4.63-2.69,5.36,5.36,0,0,1,2.65.72l6.13,3.5,4.46-40a3.25,3.25,0,0,1,2.24-2.76,3.19,3.19,0,0,1,.91-.14,3.12,3.12,0,0,1,2.43,1.18l32.77,40.42,2.51,3L203.47,48.1a5.1,5.1,0,0,1,2.35-.58,5.73,5.73,0,0,1,5.1,8l-9.19,20.75a12.16,12.16,0,0,1,.91,13.49c.05.8.08,1.55.08,2.28C202.72,111.45,187.39,127.27,168.54,127.27Z"/><path class="cls-2" d="M86.79,62.51a1,1,0,0,0-.5,1.14c.33,1.69,2.67,5,6,8.29s6.62,5.58,8.27,5.85a1,1,0,0,0,1.09-.57h0l10.22-23.09c.84-1.9-1.33-4.05-3.13-3.11L86.79,62.51Z"/><ellipse class="cls-3" cx="72.38" cy="92.01" rx="31" ry="31.99"/><ellipse cx="66.83" cy="85.2" rx="8.34" ry="8.6"/><ellipse class="cls-2" cx="69.41" cy="83.05" rx="3.22" ry="3.33"/><ellipse class="cls-2" cx="63.08" cy="88.3" rx="1.61" ry="1.66"/><ellipse cx="96.59" cy="83.66" rx="8.34" ry="8.6"/><ellipse class="cls-2" cx="99.17" cy="81.52" rx="3.22" ry="3.33"/><ellipse class="cls-2" cx="92.84" cy="86.76" rx="1.61" ry="1.66"/><path class="cls-4" d="M86.44,63.07s-8,1.77-21.33,5.86-22.36,7.76-22.36,7.76l.54-5.49,2-18,1.15-10.32,2-17.95.84-7.54,3,3.72L59.48,30l4.13,5.09L70.79,44l4.08,5,7.18,8.86Z"/><polygon class="cls-5" points="70.9 43.96 43.18 71.42 45.19 53.32 63.66 35.03 70.9 43.96"/><path class="cls-5" d="M82.26,58l-7,7L75,65,63.85,68.44l-.39.12L51.84,72.15l-.24.08L75,49Z"/><polygon class="cls-5" points="59.5 29.89 46.35 42.91 48.37 24.82 52.26 20.96 59.5 29.89"/><path class="cls-6" d="M91.48,101.21a47.64,47.64,0,0,1-4.79,7.51,16.35,16.35,0,0,1-4.44,4.08c-.19.19-1.2.36-1.39-.27a27.69,27.69,0,0,1-2.72-5.74,13.88,13.88,0,0,1-.86-5.76,1.17,1.17,0,0,1,.52-.82A8.59,8.59,0,0,1,81.37,99a23.2,23.2,0,0,1,3.76-.3,17.74,17.74,0,0,1,2.32.14,11,11,0,0,1,3.45.94l.2.11A.92.92,0,0,1,91.48,101.21Z"/><path class="cls-2" d="M81.37,99,80,103.64a.58.58,0,0,1-1.11,0l-1-3.43A8.59,8.59,0,0,1,81.37,99Z"/><path class="cls-2" d="M90.9,99.75l-1,3.38a.58.58,0,0,1-1.11,0l-1.31-4.32A11,11,0,0,1,90.9,99.75Z"/><path class="cls-7" d="M86.69,108.72a16.35,16.35,0,0,1-4.44,4.08c-.19.19-1.2.36-1.39-.27a27.69,27.69,0,0,1-2.72-5.74,6.13,6.13,0,0,1,2.12-.85,6.47,6.47,0,0,1,1.18-.11,5.81,5.81,0,0,1,1.39.16A6.34,6.34,0,0,1,86.69,108.72Z"/><polygon class="cls-8" points="86.64 93.03 82.55 96.36 88.75 95.59 86.64 93.03"/><path class="cls-2" d="M58,70.17a1.26,1.26,0,0,1,.61,1.25c-.25,1.79-2.53,5.16-5.86,8.46s-6.68,5.5-8.42,5.69a1.19,1.19,0,0,1-1.18-.68h0L30.87,59.55A2.3,2.3,0,0,1,34,56.45L58,70.17Z"/><path class="cls-2" d="M183,62.51a1,1,0,0,0-.5,1.14c.33,1.69,2.68,5,6,8.29s6.62,5.58,8.27,5.85a1,1,0,0,0,1.09-.57h0L208,54.13c.84-1.9-1.33-4.05-3.13-3.11L183,62.51Z"/><ellipse class="cls-3" cx="168.54" cy="92.01" rx="31" ry="31.99"/><ellipse cx="162.99" cy="85.2" rx="8.34" ry="8.6"/><ellipse class="cls-2" cx="165.57" cy="83.05" rx="3.22" ry="3.33"/><ellipse class="cls-2" cx="159.24" cy="88.3" rx="1.61" ry="1.66"/><ellipse cx="192.75" cy="83.66" rx="8.34" ry="8.6"/><ellipse class="cls-2" cx="195.33" cy="81.52" rx="3.22" ry="3.33"/><ellipse class="cls-2" cx="189" cy="86.76" rx="1.61" ry="1.66"/><path class="cls-4" d="M182.6,63.07s-8,1.77-21.33,5.86-22.36,7.76-22.36,7.76l.54-5.49,2-18,1.15-10.32,2-17.95.84-7.54,3,3.72L155.64,30l4.13,5.09L167,44,171,49l7.18,8.86Z"/><polygon class="cls-5" points="167.06 43.96 139.34 71.42 141.35 53.32 159.82 35.03 167.06 43.96"/><path class="cls-5" d="M178.42,58l-7,7-.28.09L160,68.44l-.39.12L148,72.15l-.24.08L171.18,49Z"/><polygon class="cls-5" points="155.66 29.89 142.51 42.91 144.53 24.82 148.42 20.96 155.66 29.89"/><path class="cls-6" d="M187.64,101.21a47.64,47.64,0,0,1-4.79,7.51,16.35,16.35,0,0,1-4.44,4.08c-.19.19-1.2.36-1.39-.27a27.08,27.08,0,0,1-2.71-5.74,13.8,13.8,0,0,1-.87-5.76,1.17,1.17,0,0,1,.52-.82A8.59,8.59,0,0,1,177.53,99a23.2,23.2,0,0,1,3.76-.3,17.74,17.74,0,0,1,2.32.14,11,11,0,0,1,3.45.94l.2.11A.92.92,0,0,1,187.64,101.21Z"/><path class="cls-2" d="M177.53,99l-1.42,4.67a.58.58,0,0,1-1.11,0l-1-3.43A8.59,8.59,0,0,1,177.53,99Z"/><path class="cls-2" d="M187.06,99.75l-1,3.38a.58.58,0,0,1-1.11,0l-1.31-4.32A11,11,0,0,1,187.06,99.75Z"/><path class="cls-7" d="M182.85,108.72a16.35,16.35,0,0,1-4.44,4.08c-.19.19-1.2.36-1.39-.27a27.08,27.08,0,0,1-2.71-5.74,6.08,6.08,0,0,1,2.11-.85,6.47,6.47,0,0,1,1.18-.11A5.81,5.81,0,0,1,179,106,6.34,6.34,0,0,1,182.85,108.72Z"/><polygon class="cls-8" points="182.8 93.03 178.71 96.36 184.91 95.59 182.8 93.03"/><path class="cls-2" d="M154.2,70.17a1.26,1.26,0,0,1,.61,1.25c-.25,1.79-2.53,5.16-5.86,8.46s-6.68,5.5-8.42,5.69a1.19,1.19,0,0,1-1.18-.68h0L127,59.55a2.3,2.3,0,0,1,3.13-3.1l24,13.72Z"/><path d="M264.7,127.27c-18.84,0-34.17-15.82-34.17-35.26a36.06,36.06,0,0,1,.93-8.15L220.36,61a5.69,5.69,0,0,1,.22-5.46,5.44,5.44,0,0,1,4.63-2.69,5.36,5.36,0,0,1,2.65.72l6.13,3.5,4.46-40a3.25,3.25,0,0,1,2.24-2.76,3.19,3.19,0,0,1,.91-.14A3.12,3.12,0,0,1,244,15.34L276.8,55.76l2.51,3L299.63,48.1a5.1,5.1,0,0,1,2.35-.58,5.73,5.73,0,0,1,5.1,8l-9.19,20.75a12.16,12.16,0,0,1,.91,13.49c.05.8.08,1.55.08,2.28C298.88,111.45,283.55,127.27,264.7,127.27Z"/><path class="cls-2" d="M279.11,62.51a1,1,0,0,0-.5,1.14c.33,1.69,2.68,5,6,8.29s6.62,5.58,8.28,5.85a1,1,0,0,0,1.08-.57h0L304.2,54.13c.83-1.9-1.34-4.05-3.14-3.11L279.11,62.51Z"/><ellipse class="cls-9" cx="264.7" cy="92.01" rx="31" ry="31.99"/><ellipse cx="259.15" cy="85.2" rx="8.34" ry="8.6"/><ellipse class="cls-2" cx="261.73" cy="83.05" rx="3.22" ry="3.33"/><ellipse class="cls-2" cx="255.4" cy="88.3" rx="1.61" ry="1.66"/><ellipse cx="288.91" cy="83.66" rx="8.34" ry="8.6"/><ellipse class="cls-2" cx="291.49" cy="81.52" rx="3.22" ry="3.33"/><ellipse class="cls-2" cx="285.17" cy="86.76" rx="1.61" ry="1.66"/><path class="cls-10" d="M278.76,63.07s-8,1.77-21.33,5.86-22.36,7.76-22.36,7.76l.54-5.49,2-18,1.15-10.32,2-17.95.84-7.54,3,3.72L251.8,30l4.13,5.09L263.11,44l4.08,5,7.18,8.86Z"/><polygon class="cls-11" points="263.22 43.96 235.5 71.42 237.51 53.32 255.98 35.03 263.22 43.96"/><path class="cls-11" d="M274.58,58l-7,7-.28.09-11.11,3.43-.39.12-11.62,3.59-.24.08L267.34,49Z"/><polygon class="cls-11" points="251.82 29.89 238.67 42.91 240.69 24.82 244.58 20.96 251.82 29.89"/><path class="cls-12" d="M283.8,101.21a47.64,47.64,0,0,1-4.79,7.51,16.32,16.32,0,0,1-4.43,4.08c-.2.19-1.21.36-1.4-.27a27.08,27.08,0,0,1-2.71-5.74,13.8,13.8,0,0,1-.87-5.76,1.21,1.21,0,0,1,.52-.82A8.65,8.65,0,0,1,273.69,99a23.2,23.2,0,0,1,3.76-.3,17.74,17.74,0,0,1,2.32.14,11,11,0,0,1,3.45.94l.2.11A.91.91,0,0,1,283.8,101.21Z"/><path class="cls-2" d="M273.69,99l-1.42,4.67a.58.58,0,0,1-1.11,0l-1-3.43A8.65,8.65,0,0,1,273.69,99Z"/><path class="cls-2" d="M283.22,99.75l-1,3.38a.58.58,0,0,1-1.11,0l-1.31-4.32A11,11,0,0,1,283.22,99.75Z"/><path class="cls-13" d="M279,108.72a16.32,16.32,0,0,1-4.43,4.08c-.2.19-1.21.36-1.4-.27a27.08,27.08,0,0,1-2.71-5.74,6.08,6.08,0,0,1,2.11-.85,6.56,6.56,0,0,1,1.18-.11,5.81,5.81,0,0,1,1.39.16A6.32,6.32,0,0,1,279,108.72Z"/><polygon class="cls-14" points="278.96 93.03 274.87 96.36 281.07 95.59 278.96 93.03"/><path class="cls-2" d="M250.36,70.17a1.26,1.26,0,0,1,.61,1.25c-.25,1.79-2.53,5.16-5.86,8.46s-6.68,5.5-8.42,5.69a1.19,1.19,0,0,1-1.18-.68h0L223.2,59.55a2.3,2.3,0,0,1,3.13-3.1l24,13.72Z"/></svg>