<svg id="Layer_1" data-name="Layer 1" xmlns="http://www.w3.org/2000/svg" width="335" height="145" viewBox="0 0 335 145"><defs><style>.cls-1{fill:#fff;}.cls-2{fill:#262626;}</style></defs><path class="cls-1" d="M335,50.91V94.09c0,28.07-22.13,50.91-49.33,50.91H49.34C22.13,145,0,122.16,0,94.09V50.91C0,22.84,22.13,0,49.34,0H285.67C312.87,0,335,22.84,335,50.91Z"/><path class="cls-2" d="M51.1,139.35c-25.08,0-45.48-20.64-45.48-46V51.65c0-25.36,20.4-46,45.48-46H283.9c25.08,0,45.48,20.64,45.48,46v41.7c0,25.36-20.4,46-45.48,46Z"/><path d="M55.48,23.15H279.3c14.84,0,28,5.27,35.87,13.31-4.67-13.35-21.08-23.23-40.55-23.23H60.17c-19.47,0-35.88,9.88-40.56,23.23C27.52,28.42,40.65,23.15,55.48,23.15Z"/></svg>