<svg id="Layer_1" data-name="Layer 1" xmlns="http://www.w3.org/2000/svg" width="85" height="110" viewBox="0 0 85 110"><defs><style>.cls-1{fill:#fff;}.cls-2{fill:#888790;}.cls-3{fill:#756965;}.cls-4{fill:#2b2a2a;}.cls-5{fill:#31352e;}.cls-6{fill:#514f5b;}.cls-7{fill:#6a6975;}</style></defs><path d="M43.51,110c-18.25,0-33.09-15.38-33.09-34.29a35.26,35.26,0,0,1,.9-7.93L.57,45.57a5.61,5.61,0,0,1,.21-5.32,5.28,5.28,0,0,1,4.48-2.61,5.18,5.18,0,0,1,2.58.7l5.93,3.4L18.09,2.82A3.15,3.15,0,0,1,20.26.13,2.93,2.93,0,0,1,21.14,0a3,3,0,0,1,2.35,1.14L55.23,40.46l2.43,2.89L77.33,33a4.79,4.79,0,0,1,2.28-.57,5.56,5.56,0,0,1,4.93,7.75L75.65,60.37a11.77,11.77,0,0,1,2.45,7.22,11.64,11.64,0,0,1-1.58,5.9c.06.78.08,1.51.08,2.22C76.6,94.62,61.76,110,43.51,110Z"/><path class="cls-1" d="M57.47,47a1,1,0,0,0-.5,1.1c.33,1.65,2.6,4.87,5.82,8.07s6.41,5.42,8,5.69a1,1,0,0,0,1-.55h0l9.9-22.46c.82-1.85-1.29-3.94-3-3L57.47,47Z"/><ellipse class="cls-2" cx="43.51" cy="75.71" rx="30.02" ry="31.11"/><ellipse cx="38.13" cy="69.08" rx="8.07" ry="8.37"/><ellipse class="cls-1" cx="40.63" cy="67" rx="3.12" ry="3.24"/><ellipse class="cls-1" cx="34.51" cy="72.1" rx="1.56" ry="1.62"/><ellipse cx="66.95" cy="67.59" rx="8.07" ry="8.37"/><ellipse class="cls-1" cx="69.45" cy="65.5" rx="3.12" ry="3.24"/><ellipse class="cls-1" cx="63.32" cy="70.61" rx="1.56" ry="1.62"/><path class="cls-3" d="M57.13,47.56s-7.77,1.73-20.66,5.7-21.66,7.55-21.66,7.55l.53-5.34L17.27,38l1.12-10,1.93-17.45.82-7.34L24.06,6.8l7,8.62,4,5L42,29l4,4.89,6.95,8.62Z"/><polygon class="cls-4" points="42.08 28.98 15.23 55.68 17.18 38.08 35.07 20.3 42.08 28.98"/><path class="cls-4" d="M53.07,42.6l-6.8,6.76-.27.09L35.25,52.79l-.38.11L23.62,56.4l-.24.07L46.06,33.91Z"/><polygon class="cls-4" points="31.03 15.3 18.3 27.96 20.26 10.36 24.03 6.61 31.03 15.3"/><path class="cls-5" d="M62,84.66A46.09,46.09,0,0,1,57.36,92a15.55,15.55,0,0,1-4.29,4c-.19.19-1.16.35-1.35-.26a26.83,26.83,0,0,1-2.63-5.59,13.49,13.49,0,0,1-.84-5.6,1.13,1.13,0,0,1,.5-.79,8.13,8.13,0,0,1,3.46-1.21,21.8,21.8,0,0,1,3.64-.3,18.43,18.43,0,0,1,2.25.14,10.55,10.55,0,0,1,3.34.92l.19.1A.9.9,0,0,1,62,84.66Z"/><path class="cls-1" d="M52.21,82.48,50.84,87a.56.56,0,0,1-1.08,0l-1-3.33A8.13,8.13,0,0,1,52.21,82.48Z"/><path class="cls-1" d="M61.44,83.24l-1,3.28a.56.56,0,0,1-1.08,0l-1.27-4.2A10.55,10.55,0,0,1,61.44,83.24Z"/><path class="cls-6" d="M57.36,92a15.55,15.55,0,0,1-4.29,4c-.19.19-1.16.35-1.35-.26a26.83,26.83,0,0,1-2.63-5.59,5.74,5.74,0,0,1,2-.82A6,6,0,0,1,57.36,92Z"/><polygon class="cls-7" points="57.32 76.7 53.36 79.94 59.36 79.19 57.32 76.7"/><path class="cls-1" d="M29.62,54.47a1.22,1.22,0,0,1,.59,1.22c-.24,1.74-2.45,5-5.67,8.22s-6.47,5.35-8.16,5.53a1.13,1.13,0,0,1-1.14-.66h0L3.32,44.14a2.23,2.23,0,0,1,3-3L29.62,54.47Z"/></svg>