<svg xmlns="http://www.w3.org/2000/svg" width="200" height="200" viewBox="0 0 200 200"><defs><style>.cls-1{opacity:0.4;}.cls-2{fill:#fff;}.cls-3{fill:#ed1c24;}.cls-4{fill:#710711;}</style></defs><g id="Lite"><path d="M100,.25a99.64,99.64,0,1,0,99.64,99.64A99.65,99.65,0,0,0,100,.25Zm0,103.16a3.52,3.52,0,1,1,3.5-3.52A3.51,3.51,0,0,1,100,103.41Z"/><g class="cls-1"><path class="cls-2" d="M128.67,11.61l-21.33,56a3,3,0,0,0,1.57,3.8q12.65,5.46,19.1,19.26a3.07,3.07,0,0,0,3.8,1.56l56.1-21.36A3,3,0,0,0,189.62,67C178.93,40,160.35,20.39,132.55,9.88A3,3,0,0,0,128.67,11.61Z"/></g><g class="cls-1"><path class="cls-2" d="M70.64,188,92,132a3,3,0,0,0-1.56-3.8Q77.75,122.7,71.3,108.9a3.07,3.07,0,0,0-3.8-1.56L11.4,128.7a3,3,0,0,0-1.71,3.93c10.69,26.94,29.27,46.59,57.07,57.1A3,3,0,0,0,70.64,188Z"/></g><path d="M100,55.15a44.75,44.75,0,1,0,44.75,44.74A44.75,44.75,0,0,0,100,55.15Zm0,48a3.25,3.25,0,1,1,3.24-3.25A3.24,3.24,0,0,1,100,103.14Z"/><path d="M100,200A100,100,0,0,1,29.27,29.27,100,100,0,0,1,170.73,170.73,99.4,99.4,0,0,1,100,200ZM100,.72A99.28,99.28,0,1,0,199.28,100,99.4,99.4,0,0,0,100,.72Z"/><path class="cls-3" d="M100,61.9a38,38,0,1,0,38,38A38,38,0,0,0,100,61.9Zm0,41.24a3.25,3.25,0,1,1,3.24-3.25A3.24,3.24,0,0,1,100,103.14Z"/><path d="M100,188.83A88.83,88.83,0,1,1,188.83,100,88.93,88.93,0,0,1,100,188.83ZM100,11.7A88.3,88.3,0,1,0,188.31,100,88.41,88.41,0,0,0,100,11.7Z"/><path d="M101.75,177.76a79.51,79.51,0,1,1,79.5-79.51A79.6,79.6,0,0,1,101.75,177.76Zm0-158.49a79,79,0,1,0,79,79A79.07,79.07,0,0,0,101.75,19.27Z"/><path d="M100,170.33A70.33,70.33,0,1,1,170.33,100,70.41,70.41,0,0,1,100,170.33ZM100,30.2A69.8,69.8,0,1,0,169.8,100,69.88,69.88,0,0,0,100,30.2Z"/><path d="M100,155.62A55.62,55.62,0,1,1,155.62,100,55.68,55.68,0,0,1,100,155.62Zm0-110.71A55.09,55.09,0,1,0,155.09,100,55.15,55.15,0,0,0,100,44.91Z"/><path class="cls-2" d="M100,135.69a4,4,0,0,1-3.88-2.82l-6.25-19.22H69.66a4.09,4.09,0,0,1-2.4-7.39L83.61,94.38,77.37,75.17a4.08,4.08,0,0,1,6.28-4.57L100,82.48,116.35,70.6a4.08,4.08,0,0,1,6.28,4.57l-6.24,19.21,16.35,11.88a4.09,4.09,0,0,1-2.4,7.39H110.13l-6.25,19.22A4,4,0,0,1,100,135.69Zm-6.12-22,5.86,18a.27.27,0,0,0,.52,0l5.86-18Zm17.49-3.81h19a.28.28,0,0,0,.16-.49L115.15,98.2Zm-18.73,0h14.72l4.55-14L100,87.19,88.09,95.84ZM84.85,98.2,69.5,109.35a.24.24,0,0,0-.1.3.24.24,0,0,0,.26.19h19Zm18.39-13.37,9.91,7.2L119,74a.27.27,0,0,0-.42-.31Zm-22-11.21a.32.32,0,0,0-.16.06A.25.25,0,0,0,81,74l5.86,18,9.91-7.2L81.41,73.68A.27.27,0,0,0,81.25,73.62Z"/><circle cx="120.99" cy="85.12" r="11.5"/><circle class="cls-2" cx="116.07" cy="88.54" r="3.42"/><circle class="cls-2" cx="123.65" cy="81.59" r="4.41"/><circle cx="78.7" cy="90.91" r="10.77"/><circle class="cls-2" cx="82.17" cy="93.71" r="3.42"/><circle class="cls-2" cx="74.6" cy="86.77" r="4.41"/><path d="M98,126.34a25,25,0,0,1-15.44-4.84,1.5,1.5,0,0,1,1.83-2.38c8.83,6.83,26.29,5.85,38.21-6.51a1.5,1.5,0,1,1,2.16,2.08A38.07,38.07,0,0,1,98,126.34Z"/><path d="M77.32,126.52a1.1,1.1,0,0,1-.86-.4c-3.32-3.91-4.55-7.32-3.67-10.14.79-2.51,3.21-4.31,7.19-5.37a1.13,1.13,0,0,1,.57,2.18c-3.18.84-5.07,2.15-5.61,3.87-.63,2,.49,4.77,3.23,8a1.13,1.13,0,0,1-.13,1.59A1.11,1.11,0,0,1,77.32,126.52Z"/><path d="M131.78,117.58a1.12,1.12,0,0,1-1.05-1.52,6.73,6.73,0,0,0,0-5.62c-1.12-2.13-3.84-3.74-8.1-4.79a1.13,1.13,0,0,1,.54-2.19c4.91,1.21,8.12,3.2,9.55,5.93a8.86,8.86,0,0,1,.07,7.46A1.13,1.13,0,0,1,131.78,117.58Z"/><path class="cls-4" d="M100,103.06a3.17,3.17,0,1,1,3.16-3.17A3.17,3.17,0,0,1,100,103.06Zm0-6.29a3.12,3.12,0,1,0,3.11,3.12A3.12,3.12,0,0,0,100,96.77Z"/></g></svg>