<svg xmlns="http://www.w3.org/2000/svg" width="335" height="113" viewBox="0 0 335 113"><defs><style>.cls-1{fill:#fff;}.cls-2{fill:#262626;}.cls-3{fill:#888790;}.cls-4{fill:#756965;}.cls-5{fill:#2b2a2a;}.cls-6{fill:#31352e;}.cls-7{fill:#514f5b;}.cls-8{fill:#6a6975;}</style></defs><g id="Lite"><path class="cls-1" d="M285.67,14.81H49.33C22.13,14.81,0,29.15,0,46.76v27.1c0,17.62,22.13,32,49.33,32H285.67c27.2,0,49.33-14.33,49.33-31.95V46.76C335,29.15,312.87,14.81,285.67,14.81Z"/><path class="cls-2" d="M328.28,73.7V46.59c0-15.31-19.33-27.87-42.95-27.87H49.24c-23.63,0-43,12.54-43,27.87V73.7c0,15.3,19.33,27.86,43,27.86H285.33C309,101.56,328.28,89,328.28,73.7Z"/><path d="M54.13,29.39H281.35c15.06,0,28.38,3.35,36.41,8.46-4.75-8.48-21.41-14.74-41.17-14.74H58.89c-19.76,0-36.42,6.29-41.17,14.74C25.75,32.74,39.07,29.39,54.13,29.39Z"/><path d="M168.55,111.5c-18.25,0-33.09-15.38-33.09-34.29a35.26,35.26,0,0,1,.9-7.93L125.61,47.07a5.61,5.61,0,0,1,.21-5.32,5.29,5.29,0,0,1,4.48-2.61,5.13,5.13,0,0,1,2.58.7l5.93,3.4,4.32-38.92a3.13,3.13,0,0,1,2.17-2.69,2.89,2.89,0,0,1,.88-.13,3,3,0,0,1,2.35,1.14L180.27,42l2.43,2.89L202.37,34.5a4.76,4.76,0,0,1,2.28-.57,5.58,5.58,0,0,1,4.93,7.75l-8.89,20.19A11.84,11.84,0,0,1,201.56,75c.06.78.08,1.51.08,2.22C201.64,96.12,186.8,111.5,168.55,111.5Z"/><path class="cls-1" d="M182.51,48.5a1,1,0,0,0-.5,1.1c.33,1.65,2.6,4.87,5.82,8.07s6.41,5.42,8,5.69a1,1,0,0,0,1-.55h0l9.9-22.46c.82-1.85-1.29-3.94-3-3Z"/><ellipse class="cls-3" cx="168.55" cy="77.21" rx="30.02" ry="31.11"/><ellipse cx="163.17" cy="70.58" rx="8.07" ry="8.37"/><ellipse class="cls-1" cx="165.67" cy="68.5" rx="3.12" ry="3.24"/><ellipse class="cls-1" cx="159.55" cy="73.6" rx="1.56" ry="1.62"/><ellipse cx="191.99" cy="69.09" rx="8.07" ry="8.37"/><ellipse class="cls-1" cx="194.49" cy="67" rx="3.12" ry="3.24"/><ellipse class="cls-1" cx="188.36" cy="72.11" rx="1.56" ry="1.62"/><path class="cls-4" d="M182.17,49.06s-7.77,1.73-20.66,5.7-21.66,7.55-21.66,7.55l.53-5.34,1.93-17.47,1.12-10,1.93-17.45.82-7.34L149.1,8.3l7,8.62,4,5L167,30.5l4,4.89L178,44Z"/><polygon class="cls-5" points="167.12 30.48 140.27 57.18 142.22 39.58 160.11 21.8 167.12 30.48"/><path class="cls-5" d="M178.11,44.1l-6.8,6.76L171,51l-10.75,3.34-.38.11-11.25,3.5-.24.07L171.1,35.41Z"/><polygon class="cls-5" points="156.07 16.8 143.34 29.46 145.3 11.86 149.07 8.11 156.07 16.8"/><path class="cls-6" d="M187,86.16a47.05,47.05,0,0,1-4.64,7.34,15.72,15.72,0,0,1-4.29,4c-.19.19-1.16.35-1.35-.26a26.41,26.41,0,0,1-2.63-5.59,13.36,13.36,0,0,1-.84-5.6,1.1,1.1,0,0,1,.5-.79,8.06,8.06,0,0,1,3.46-1.21,22.16,22.16,0,0,1,3.64-.3,18.88,18.88,0,0,1,2.25.14,10.58,10.58,0,0,1,3.34.92l.19.1a.91.91,0,0,1,.39,1.21Z"/><path class="cls-1" d="M177.25,84l-1.37,4.52a.56.56,0,0,1-.69.39.55.55,0,0,1-.39-.39l-1-3.33A8.12,8.12,0,0,1,177.25,84Z"/><path class="cls-1" d="M186.48,84.74l-1,3.28a.56.56,0,0,1-.69.39.55.55,0,0,1-.39-.39l-1.27-4.2A10.57,10.57,0,0,1,186.48,84.74Z"/><path class="cls-7" d="M182.4,93.5a15.72,15.72,0,0,1-4.29,4c-.19.19-1.16.35-1.35-.26a26.41,26.41,0,0,1-2.63-5.59,5.5,5.5,0,0,1,2-.82A6,6,0,0,1,182.4,93.5Z"/><polygon class="cls-8" points="182.36 78.2 178.4 81.44 184.4 80.69 182.36 78.2"/><path class="cls-1" d="M154.66,56a1.24,1.24,0,0,1,.59,1.22c-.24,1.74-2.45,5-5.67,8.22s-6.47,5.35-8.16,5.53a1.12,1.12,0,0,1-1.14-.66h0L128.36,45.64a2.23,2.23,0,0,1,1-3,2.27,2.27,0,0,1,2,0Z"/><path d="M72.46,111.5c-18.25,0-33.09-15.38-33.09-34.29a35.26,35.26,0,0,1,.9-7.93L29.52,47.07a5.61,5.61,0,0,1,.21-5.32,5.3,5.3,0,0,1,4.48-2.61,5.07,5.07,0,0,1,2.58.7l5.93,3.4L47,4.32a3.15,3.15,0,0,1,2.17-2.69,2.93,2.93,0,0,1,.88-.13,3,3,0,0,1,2.35,1.14L84.18,42l2.43,2.89L106.28,34.5a4.79,4.79,0,0,1,2.28-.57,5.56,5.56,0,0,1,4.93,7.75L104.6,61.87A11.84,11.84,0,0,1,105.47,75c.06.78.08,1.51.08,2.22C105.55,96.12,90.71,111.5,72.46,111.5Z"/><path class="cls-1" d="M86.42,48.5a1,1,0,0,0-.5,1.1c.33,1.65,2.6,4.87,5.82,8.07s6.41,5.42,8,5.69a1,1,0,0,0,1-.55h0l9.9-22.46c.82-1.85-1.29-3.94-3-3Z"/><ellipse class="cls-3" cx="72.46" cy="77.21" rx="30.02" ry="31.11"/><ellipse cx="67.08" cy="70.58" rx="8.07" ry="8.37"/><ellipse class="cls-1" cx="69.58" cy="68.5" rx="3.12" ry="3.24"/><ellipse class="cls-1" cx="63.46" cy="73.6" rx="1.56" ry="1.62"/><ellipse cx="95.9" cy="69.09" rx="8.07" ry="8.37"/><ellipse class="cls-1" cx="98.4" cy="67" rx="3.12" ry="3.24"/><ellipse class="cls-1" cx="92.27" cy="72.11" rx="1.56" ry="1.62"/><path class="cls-4" d="M86.08,49.06s-7.77,1.73-20.66,5.7-21.66,7.55-21.66,7.55L44.29,57,46.22,39.5l1.12-10,1.93-17.45.82-7.34L53,8.3l7,8.62,4,5L71,30.5l4,4.89,7,8.62Z"/><polygon class="cls-5" points="71.03 30.48 44.18 57.18 46.13 39.58 64.02 21.8 71.03 30.48"/><path class="cls-5" d="M82,44.1l-6.8,6.76L75,51,64.2,54.29l-.38.11L52.57,57.9l-.24.07L75,35.41Z"/><polygon class="cls-5" points="59.98 16.8 47.25 29.46 49.21 11.86 52.98 8.11 59.98 16.8"/><path class="cls-6" d="M91,86.16a45.62,45.62,0,0,1-4.64,7.34,15.58,15.58,0,0,1-4.29,4c-.19.19-1.16.35-1.35-.26A26.91,26.91,0,0,1,78,91.65a13.53,13.53,0,0,1-.84-5.6,1.17,1.17,0,0,1,.5-.79,8.11,8.11,0,0,1,3.46-1.21,22.16,22.16,0,0,1,3.64-.3,18.88,18.88,0,0,1,2.25.14,10.44,10.44,0,0,1,3.34.92l.19.1A.9.9,0,0,1,91,86.12Z"/><path class="cls-1" d="M81.16,84,79.79,88.5a.56.56,0,0,1-.69.39.55.55,0,0,1-.39-.39l-1-3.33A8.22,8.22,0,0,1,81.16,84Z"/><path class="cls-1" d="M90.39,84.74l-1,3.28a.56.56,0,0,1-.69.39.55.55,0,0,1-.39-.39L87,83.82A10.57,10.57,0,0,1,90.39,84.74Z"/><path class="cls-7" d="M86.31,93.5a15.58,15.58,0,0,1-4.29,4c-.19.19-1.16.35-1.35-.26A26.91,26.91,0,0,1,78,91.65a5.64,5.64,0,0,1,2-.82A6,6,0,0,1,86.31,93.5Z"/><polygon class="cls-8" points="86.27 78.2 82.31 81.44 88.31 80.69 86.27 78.2"/><path class="cls-1" d="M58.57,56a1.21,1.21,0,0,1,.59,1.22c-.24,1.74-2.45,5-5.67,8.22S47,70.76,45.33,70.94a1.13,1.13,0,0,1-1.14-.66h0L32.27,45.64a2.23,2.23,0,0,1,1-3,2.27,2.27,0,0,1,2,0Z"/><path d="M264.66,113.05c-18.84,0-34.17-15.82-34.17-35.26a36.06,36.06,0,0,1,.93-8.15l-11.1-22.86a5.7,5.7,0,0,1,.22-5.46,5.3,5.3,0,0,1,7.28-2l6.13,3.5,4.46-40A3.24,3.24,0,0,1,240.65.09a3.09,3.09,0,0,1,.91-.14A3.13,3.13,0,0,1,244,1.12l32.8,40.42,2.51,3,20.32-10.66a5,5,0,0,1,2.35-.58,5.74,5.74,0,0,1,5.57,5.89A5.89,5.89,0,0,1,307,41.3l-9.19,20.75a12.18,12.18,0,0,1,.91,13.49c.05.8.08,1.55.08,2.28C298.84,97.23,283.51,113.05,264.66,113.05Z"/><path class="cls-1" d="M279.07,48.29a1,1,0,0,0-.5,1.14c.33,1.69,2.68,5,6,8.29s6.62,5.58,8.28,5.85a1,1,0,0,0,1.08-.57h0l10.23-23.09c.83-1.9-1.34-4-3.14-3.11Z"/><ellipse class="cls-3" cx="264.66" cy="77.79" rx="31" ry="31.99"/><ellipse cx="259.11" cy="70.98" rx="8.34" ry="8.6"/><ellipse class="cls-1" cx="261.69" cy="68.83" rx="3.22" ry="3.33"/><ellipse class="cls-1" cx="255.36" cy="74.08" rx="1.61" ry="1.66"/><ellipse cx="288.87" cy="69.44" rx="8.34" ry="8.6"/><ellipse class="cls-1" cx="291.45" cy="67.3" rx="3.22" ry="3.33"/><ellipse class="cls-1" cx="285.13" cy="72.54" rx="1.61" ry="1.66"/><path class="cls-4" d="M278.72,48.85s-8,1.77-21.33,5.86S235,62.47,235,62.47l.54-5.49,2-18,1.15-10.32,2-17.95.84-7.54,3,3.72,7.2,8.89,4.13,5.09,7.18,8.91,4.08,5,7.18,8.86Z"/><polygon class="cls-5" points="263.18 29.74 235.46 57.2 237.47 39.1 255.94 20.81 263.18 29.74"/><path class="cls-5" d="M274.54,43.78l-7,7-.28.09L256.15,54.3l-.39.12L244.14,58l-.24.08,23.4-23.31Z"/><polygon class="cls-5" points="251.78 15.67 238.63 28.69 240.65 10.6 244.54 6.74 251.78 15.67"/><path class="cls-6" d="M283.76,87A47.54,47.54,0,0,1,279,94.5a16.41,16.41,0,0,1-4.43,4.08c-.2.19-1.21.36-1.4-.27a26.66,26.66,0,0,1-2.71-5.74,13.65,13.65,0,0,1-.87-5.76,1.22,1.22,0,0,1,.52-.82,8.66,8.66,0,0,1,3.57-1.21,23.64,23.64,0,0,1,3.76-.3,18.06,18.06,0,0,1,2.32.14,10.92,10.92,0,0,1,3.45.94l.2.11a.92.92,0,0,1,.44,1.21Z"/><path class="cls-1" d="M273.65,84.78l-1.42,4.67a.59.59,0,0,1-.73.39.57.57,0,0,1-.38-.39l-1-3.43A8.53,8.53,0,0,1,273.65,84.78Z"/><path class="cls-1" d="M283.18,85.53l-1,3.38a.59.59,0,0,1-.73.39.57.57,0,0,1-.38-.39l-1.31-4.32A11,11,0,0,1,283.18,85.53Z"/><path class="cls-7" d="M279,94.5a16.41,16.41,0,0,1-4.43,4.08c-.2.19-1.21.36-1.4-.27a26.66,26.66,0,0,1-2.71-5.74,6.16,6.16,0,0,1,2.11-.85,6.64,6.64,0,0,1,1.18-.11,5.93,5.93,0,0,1,1.39.16A6.33,6.33,0,0,1,279,94.5Z"/><polygon class="cls-8" points="278.92 78.81 274.83 82.14 281.03 81.37 278.92 78.81"/><path class="cls-1" d="M250.32,55.87a1.27,1.27,0,0,1,.61,1.25c-.25,1.79-2.53,5.16-5.86,8.46s-6.68,5.5-8.42,5.69a1.19,1.19,0,0,1-1.18-.68h0L223.16,45.25a2.3,2.3,0,0,1,3.13-3.1l24,13.72Z"/></g></svg>