<svg id="Layer_1" data-name="Layer 1" xmlns="http://www.w3.org/2000/svg" width="390" height="760" viewBox="0 0 390 760"><defs><style>.cls-1{opacity:0.15;}.cls-2{fill:#9512b2;}.cls-11,.cls-3{fill:#fff;}.cls-3{opacity:0.46;}.cls-4{fill:#150019;}.cls-5{fill:#22b573;}.cls-6{fill:#20150a;}.cls-7{fill:#770e12;}.cls-8{fill:#8c6239;}.cls-9{fill:#ed1c24;}.cls-10,.cls-13{fill:#b2151b;}.cls-12,.cls-25{fill:#908fb3;}.cls-12{opacity:0.4;}.cls-13{opacity:0.8;}.cls-14{fill:#29abe2;}.cls-15{fill:#bbef1f;}.cls-16{fill:#bf1051;}.cls-17{fill:#ff7bac;}.cls-18{fill:#851014;}.cls-19{fill:#07a1e2;}.cls-20{fill:#0579aa;}.cls-21{fill:#321908;}.cls-22{fill:#ac8404;}.cls-23{fill:#f9c41e;}.cls-24{fill:#033d55;opacity:0.3;}.cls-25{opacity:0.5;}</style></defs><path class="cls-1" d="M0,738.88c0-33,85.65-27,181.44-27s173.44,10.75,173.44,24-77.65,24-173.44,24S0,762.88,0,738.88Z"/><ellipse class="cls-2" cx="135.52" cy="715.91" rx="24.35" ry="24.24"/><path class="cls-3" d="M139.7,702.84l2.71-6.48a1.66,1.66,0,0,1,2.16-.88,18.64,18.64,0,0,1,10.82,10.69,1.65,1.65,0,0,1-1,2.19l-6.57,2.19a1.61,1.61,0,0,1-2-.83,9.17,9.17,0,0,0-5.21-4.73A1.61,1.61,0,0,1,139.7,702.84Z"/><ellipse class="cls-4" cx="135.31" cy="715.51" rx="9.33" ry="9.29"/><path class="cls-3" d="M130.93,728.17l-2.72,6.48a1.64,1.64,0,0,1-2.15.88,18.63,18.63,0,0,1-10.83-10.69,1.65,1.65,0,0,1,1-2.19l6.58-2.19a1.62,1.62,0,0,1,2,.83A9.09,9.09,0,0,0,130,726,1.62,1.62,0,0,1,130.93,728.17Z"/><ellipse class="cls-2" cx="295.22" cy="715.91" rx="24.35" ry="24.24"/><path class="cls-3" d="M299.4,702.84l2.72-6.48a1.65,1.65,0,0,1,2.15-.88,18.66,18.66,0,0,1,10.83,10.69,1.65,1.65,0,0,1-1,2.19l-6.58,2.19a1.61,1.61,0,0,1-2-.83,9.12,9.12,0,0,0-5.2-4.73A1.62,1.62,0,0,1,299.4,702.84Z"/><ellipse class="cls-4" cx="295.02" cy="715.51" rx="9.33" ry="9.29"/><path class="cls-3" d="M290.63,728.17l-2.71,6.48a1.65,1.65,0,0,1-2.16.88,18.61,18.61,0,0,1-10.82-10.69,1.65,1.65,0,0,1,1-2.19l6.57-2.19a1.62,1.62,0,0,1,2,.83,9.13,9.13,0,0,0,5.21,4.73A1.61,1.61,0,0,1,290.63,728.17Z"/><path class="cls-5" d="M390,658.81c.54,19-27.91,27.06-43.58,31.12a488.76,488.76,0,0,1-121.61,15.9c-39.67,0-81.94-.08-121.19-8.63-2.47-.54-5.34-1.22-8.4-2-16.94-.71-34-2.07-51.15-4.29a2.86,2.86,0,0,1-2.25-1.54,1.48,1.48,0,0,1-.14-.62V631.16c0-1,1.08-1.68,2.39-1.49a612.27,612.27,0,0,0,63.42,4.73c27.71-7.94,57.86-10.47,87-11.49,7.54-.28,15-.44,22.33-.57,38.5-.7,79.69-1.26,113.93,4.29C345.57,629,389.49,640.75,390,658.81Z"/><path class="cls-6" d="M181,639.5a2,2,0,0,0-1.4-2.55l-.9-.23-45.8-11.92-.91-.24a2,2,0,0,0-2.47,1.54l-6.32,31.55a5,5,0,0,0,7.4,5.25l19.79-11.55,11.59,19.71a5,5,0,0,0,9-1Z"/><path class="cls-6" d="M301.34,628a2,2,0,0,0-2.23-1.86l-.93.11-47,5.61-.93.12a2,2,0,0,0-1.73,2.33L254.25,666a5,5,0,0,0,8.81,2.18l14.17-18,18,14.11a5,5,0,0,0,8-4.19Z"/><path class="cls-7" d="M169.41,485.39c-6.55-1.77-13.64-3.81-21.4-6C51.82,451.63-4.47,354.58,22.27,262.58a300.36,300.36,0,0,1,15.45-40.31l31.14,20.94,5.84-82.38L.13,197,32.3,218.62c-10.54,18.94-19.06,39.07-23.9,55.73-26.74,92,29.55,189.06,125.74,216.77,12.13,3.5,22.93,6.36,32.77,8.42Z"/><polygon class="cls-8" points="181.64 628.8 181.64 643.7 167.91 633.76 161.68 639.98 153.47 629.86 139.22 635.01 137.97 626.31 125.49 630.04 132.98 621.34 185.47 474.71 212.25 478.75 181.64 628.8"/><polygon class="cls-8" points="298.92 621.34 303.91 630.04 288.94 627.55 285.2 636.25 275.22 628.8 262.74 639.98 261.35 631.11 246.52 638.74 249.01 627.55 237.42 466.63 272.32 462.59 298.92 621.34"/><path class="cls-9" d="M341.18,444.19l-1.48.62a27.6,27.6,0,0,1-36-14.49L273.26,359a27.4,27.4,0,0,1,14.55-35.88l1.48-.62a27.6,27.6,0,0,1,36,14.49l30.41,71.31A27.41,27.41,0,0,1,341.18,444.19Z"/><path class="cls-9" d="M286.93,507.84l25-126.28C328,334,341.31,313.08,242,303.38H201.76C74.27,328.43,115.84,334,131.88,381.56L152,441.26C156.53,565.88,275.7,559.07,286.93,507.84Z"/><path class="cls-9" d="M286.93,511.88l24.81-125.41a14.53,14.53,0,0,1,.46-1.72c15.87-46.85,28.46-67.59-69.49-77.26a12.21,12.21,0,0,0-1.35-.07H203.09a13.82,13.82,0,0,0-2.64.26c-125.89,24.83-84.56,30.53-68.57,77.92l19.53,57.9a13.8,13.8,0,0,1,.68,3.71C157.75,569.85,275.75,562.84,286.93,511.88Z"/><path class="cls-9" d="M99.26,468.15h0a34.55,34.55,0,0,1-23.63-42.69l21.56-74.18a34.73,34.73,0,0,1,42.87-23.53h0a34.55,34.55,0,0,1,23.63,42.7l-21.55,74.17A34.75,34.75,0,0,1,99.26,468.15Z"/><path class="cls-9" d="M355,488.75l-3.89,1.3a26.07,26.07,0,0,1-32.89-16.28l-15.16-45a25.9,25.9,0,0,1,16.35-32.74l3.89-1.3a26.08,26.08,0,0,1,32.89,16.28l15.16,45A25.9,25.9,0,0,1,355,488.75Z"/><ellipse class="cls-10" cx="190.02" cy="376.46" rx="41.74" ry="41.56"/><ellipse class="cls-9" cx="192.78" cy="370.34" rx="41.74" ry="41.56"/><ellipse class="cls-10" cx="277.11" cy="378.34" rx="39.31" ry="39.14"/><ellipse class="cls-9" cx="274.51" cy="372.57" rx="39.31" ry="39.14"/><path class="cls-11" d="M274.84,142.34a3.21,3.21,0,0,0-1.67,3.59c1.1,5.36,8.77,15.8,19.65,26.2s21.66,17.6,27.08,18.47a3.23,3.23,0,0,0,3.54-1.8h0l33.47-72.93c2.75-6-4.36-12.78-10.25-9.81l-71.82,36.28Z"/><path class="cls-12" d="M273.65,172.7c-8.88-9.35-12.13-15.84-12.51-20.79-.11-1.39,3.58-3.56,4.87-4.2h0l71.19-35.79c3.36-1.69,9.75-5.67,11.36-3.17C349.75,110.59,285.15,162.61,273.65,172.7Z"/><ellipse class="cls-9" cx="227.68" cy="235.5" rx="101.46" ry="101.02"/><ellipse cx="209.51" cy="213.99" rx="27.28" ry="27.16"/><ellipse class="cls-11" cx="217.94" cy="207.21" rx="10.55" ry="10.51"/><ellipse class="cls-11" cx="197.24" cy="223.78" rx="5.28" ry="5.25"/><ellipse cx="306.9" cy="209.14" rx="27.28" ry="27.16"/><ellipse class="cls-11" cx="315.33" cy="202.36" rx="10.55" ry="10.51"/><ellipse class="cls-11" cx="294.64" cy="218.93" rx="5.28" ry="5.25"/><path class="cls-13" d="M140.47,228.77c2.81-35,11.05-64.52,38.38-82.62a100.92,100.92,0,0,0-53.47,89c0,55.79,45.43,101,101.46,101a101.27,101.27,0,0,0,56.1-16.85c-14.28,7.65-30.83,14.66-48,12C150.45,318.22,138,259.83,140.47,228.77Z"/><path class="cls-14" d="M273.69,144.11s-26.24,5.59-69.81,18.51-73.19,24.49-73.19,24.49l1.78-17.33L139,113.11l3.76-32.6,6.54-56.68L152.06,0,162,11.76l23.49,28L199,55.83l23.5,28,13.35,15.89,23.5,28Z"/><polygon class="cls-15" points="222.83 83.77 132.1 170.46 138.69 113.32 199.14 55.57 222.83 83.77"/><path class="cls-15" d="M260,128,237,150l-.91.27-36.34,10.85-1.28.38-38,11.34-.81.24L236.3,99.79Z"/><polygon class="cls-15" points="185.51 39.34 142.49 80.45 149.08 23.31 161.82 11.14 185.51 39.34"/><path class="cls-16" d="M290.16,264.55a150.08,150.08,0,0,1-15.67,23.73c-4.41,5.31-9.41,10.17-14.51,12.89-.65.59-3.93,1.12-4.57-.87a84.87,84.87,0,0,1-8.88-18.14c-3.88-11.39-2.82-18.17-2.82-18.17a3.65,3.65,0,0,1,1.68-2.58c2.23-1.7,6.47-3.08,11.7-3.94a77.24,77.24,0,0,1,12.29-1,62.68,62.68,0,0,1,7.6.45,36.8,36.8,0,0,1,11.29,3c.43.21.64.34.64.34C290.58,261.33,291.34,263.12,290.16,264.55Z"/><path class="cls-11" d="M257.09,257.47l-4.64,14.75a1.92,1.92,0,0,1-3.66,0l-3.4-10.81C247.62,259.71,251.86,258.33,257.09,257.47Z"/><path class="cls-11" d="M288.27,260l-3.36,10.65a1.91,1.91,0,0,1-3.65,0L277,257A36.8,36.8,0,0,1,288.27,260Z"/><path class="cls-17" d="M274.49,288.28c-4.41,5.31-9.41,10.17-14.51,12.89-.65.59-3.93,1.12-4.57-.87a84.87,84.87,0,0,1-8.88-18.14,20.11,20.11,0,0,1,6.93-2.67,21.1,21.1,0,0,1,3.84-.35,20.2,20.2,0,0,1,4.57.51A20.65,20.65,0,0,1,274.49,288.28Z"/><polygon class="cls-18" points="274.35 238.73 260.95 249.24 281.24 246.81 274.35 238.73"/><polygon class="cls-10" points="274.35 238.73 266.63 226.61 273.94 239.54 260.95 249.24 274.35 238.73"/><polygon points="244.01 344.89 238.31 322.18 260.24 327.96 244.01 344.89"/><path class="cls-10" d="M207.2,447.56a23.51,23.51,0,0,1-4.09-3.2,19.45,19.45,0,0,0,6.29,6.21,19.74,19.74,0,0,0,27.11-6.41c.26-.41.5-.83.72-1.25A23.48,23.48,0,0,1,207.2,447.56Z"/><path class="cls-10" d="M208,470.58a22.58,22.58,0,0,1-4.47-2.64,19.54,19.54,0,0,0,7,5.35,19.75,19.75,0,0,0,26.06-9.84c.2-.45.38-.89.55-1.34A23.46,23.46,0,0,1,208,470.58Z"/><path class="cls-10" d="M270.59,449.18a22.14,22.14,0,0,0,4.16-2.65,18.49,18.49,0,0,1-6.51,5.31,18.78,18.78,0,0,1-25.1-8.5c-.2-.41-.39-.83-.56-1.25A22.3,22.3,0,0,0,270.59,449.18Z"/><path class="cls-10" d="M269.8,470.72a22.43,22.43,0,0,0,4.36-2.33,18.75,18.75,0,0,1-31.27-5.61c-.17-.43-.33-.86-.47-1.29A22.31,22.31,0,0,0,269.8,470.72Z"/><path class="cls-9" d="M130.35,521.65l-.87.29a27.68,27.68,0,0,1-34.91-17.28L76.31,450.52a27.5,27.5,0,0,1,17.36-34.75l.87-.29a27.66,27.66,0,0,1,34.9,17.28L147.7,486.9A27.49,27.49,0,0,1,130.35,521.65Z"/><path class="cls-19" d="M231.73,570.88l2.44,38.79h70.61L294.23,478.75s-49.51,34.75-138,0c-.81,8.89-44.44,131-44.44,131H220.5Z"/><polygon class="cls-20" points="233.36 570.88 242.91 556.85 247.97 608.05 236.15 608.05 233.36 570.88"/><path class="cls-21" d="M232.33,508.16c-34.25,0-65.09-10.73-77.54-17.93.47-1.53,1.21-4.28,2.58-9.37,21.49,7.63,46.48,15.54,72.93,15.54,21.2,0,41.67-4.95,62.5-15.14l1,12.61C276.09,503.35,255.4,508.16,232.33,508.16Z"/><polygon class="cls-19" points="175.16 502.22 172.82 501.55 177.11 486.8 179.45 487.47 175.16 502.22"/><polygon class="cls-19" points="281.33 501.71 278.96 502.26 275.48 487.3 277.85 486.75 281.33 501.71"/><ellipse class="cls-22" cx="240.26" cy="502.59" rx="23.94" ry="23.84"/><path class="cls-23" d="M255.21,487.55l-3.12,11.74,10,7a2.63,2.63,0,0,1-1.38,4.79l-12.18.68-3.6,11.6a2.65,2.65,0,0,1-5,.18l-4.41-11.33-12.19.18a2.64,2.64,0,0,1-1.72-4.68L231,500l-3.94-11.49a2.64,2.64,0,0,1,3.94-3.07L241.3,492l9.76-7.28A2.65,2.65,0,0,1,255.21,487.55Z"/><polygon class="cls-20" points="154.49 493.35 116.2 605.63 138.4 606.44 154.49 493.35"/><path class="cls-24" d="M137.53,171.58h0a8.22,8.22,0,0,0,10.65,8.72l21.06-8.65L154.18,29.37a1.18,1.18,0,0,0-2.35,0Z"/><path class="cls-11" d="M180.73,166.54a3.89,3.89,0,0,1,2,3.94c-.82,5.65-8.29,16.3-19.16,26.7s-21.87,17.39-27.57,18a3.9,3.9,0,0,1-3.88-2.15h0L91.83,133a7.41,7.41,0,0,1,10.26-9.8l78.64,43.34Z"/><path class="cls-25" d="M155.44,201.44c-8.95,8.15-15.19,11-20,11.18-1.34,0-3.46-3.59-4.09-4.85h0L96.21,137.94c-1.66-3.3-5.56-9.6-3.16-11C94.81,125.84,145.59,190,155.44,201.44Z"/></svg>