<svg id="Layer_1" data-name="Layer 1" xmlns="http://www.w3.org/2000/svg" width="155" height="300" viewBox="0 0 155 300"><defs><style>.cls-1,.cls-12,.cls-13{fill:#fff;}.cls-2{fill:#ff2600;}.cls-3{fill:#00d600;}.cls-4{fill:#ed1c24;}.cls-5{fill:#f15a24;}.cls-6{fill:#bf1051;}.cls-7{fill:#ff7bac;}.cls-8{fill:#851014;}.cls-9{fill:#b2151b;}.cls-10{fill:#adadad;}.cls-11{fill:#999;}.cls-12{opacity:0.13;}.cls-13{opacity:0.14;}</style></defs><path d="M152.8,6.52c-3.91-3.86-13.19-7.61-18.15-6.23L14.32,32.44C7.69,34.22,1.13,40.51,1.71,47.66A1147.26,1147.26,0,0,1,.06,254.78c-.66,9.65,4.39,16.36,13.64,19.75,32.76,8.75,68,16.42,101,25.08a11.89,11.89,0,0,0,8-.71c5.58-2.6,9.59-4.35,10.54-9.64C145.47,221.18,152.29,151,154.6,81.91c.75-22.41.26-43.18,0-65.6C154.44,11.82,154,7.71,152.8,6.52Z"/><path class="cls-1" d="M3,257.69A1187.66,1187.66,0,0,0,5.47,47.12c-.25-4.65,3.79-9,8.24-10L130.63,6.76c5.08-1.22,9.14,2.85,9.08,7.8q.6,33.32-.24,66.63a1451.79,1451.79,0,0,1-19.61,203.22c-.62,4.34-4.53,8.66-9.28,7.58L9.86,267.1A9.21,9.21,0,0,1,3,257.69Z"/><path d="M133.26,45.53a1461.27,1461.27,0,0,1-15.08,209.69,2.64,2.64,0,0,1-2.83,2.48L10.46,238.78A2.68,2.68,0,0,1,8.26,236q4.13-48.72,4.27-97.62.09-27.18-1.06-54.37-.32-7.44-.72-14.87a3.08,3.08,0,0,1,2.56-2.93l25.91-5.13,77.15-15.27L130.56,43A2.32,2.32,0,0,1,133.26,45.53Z"/><path class="cls-2" d="M93.77,244.38C84.6,243,79.57,233,80.45,224.64S88.77,208,98,209c9.52,1,14.76,10.94,13.54,19.68C110.54,237.35,103.23,245.85,93.77,244.38Zm2.41-21.74c-.76,0-1.38-.08-2,0a16.36,16.36,0,0,0-7.42,2.22,2.19,2.19,0,0,0-1,2.58c.44,1.6,1.84,2.57,3.46,1.75a6.29,6.29,0,0,1,.79-.35,2.89,2.89,0,0,0,2.12-2.33,1.47,1.47,0,0,1,1.16-.84c1.67.09,3.36.32,5,.53,1,.13,1.59.61,1.52,2,.45,1.56,2.3,3.62,3.72,3.75a.36.36,0,0,0,.23-.05,9.5,9.5,0,0,0,2.11-2.58c.21-.57-.41-1.83-1-2.41A14.1,14.1,0,0,0,96.18,222.64Z"/><path class="cls-1" d="M96.18,222.64a14.1,14.1,0,0,1,8.78,4.18c.54.58,1.16,1.84,1,2.41a9.5,9.5,0,0,1-2.11,2.58.36.36,0,0,1-.23.05c-1.42-.13-3.27-2.19-3.72-3.75.07-1.34-.53-1.82-1.52-2-1.65-.21-3.34-.44-5-.53a1.47,1.47,0,0,0-1.16.84A2.89,2.89,0,0,1,90,228.8a6.29,6.29,0,0,0-.79.35c-1.62.82-3-.15-3.46-1.75a2.19,2.19,0,0,1,1-2.58,16.36,16.36,0,0,1,7.42-2.22C94.8,222.56,95.42,222.62,96.18,222.64Z"/><path class="cls-3" d="M34,234.59c-8.37-1.2-14.61-9.47-14-17.61s8.4-14.46,16.55-13.64a16.1,16.1,0,0,1,14.28,17.59C50,229.38,42.75,236,34,234.59Zm-3-24.2c-2.14-.3-3.34.85-3,3a18.37,18.37,0,0,0,4.88,9.84,17,17,0,0,0,6.89,4.58c1.69.54,2.63.06,3-1.64.48-2.07.32-2.39-1.67-3.31-.37-.17-.74-.34-1.1-.53a2.5,2.5,0,0,0-2.61,0A1.39,1.39,0,0,1,36,222c-1.17-1.31-2.26-2.71-3.35-4.09-.48-.6-.34-1.11.07-1.74a3.68,3.68,0,0,0,.49-2,13.79,13.79,0,0,0-.41-2.15C32.62,211,32,210.33,31,210.39Z"/><path class="cls-1" d="M31,210.39c1.07-.06,1.65.58,1.85,1.72a13.79,13.79,0,0,1,.41,2.15,3.68,3.68,0,0,1-.49,2c-.41.63-.55,1.14-.07,1.74,1.09,1.38,2.18,2.78,3.35,4.09a1.39,1.39,0,0,0,1.33.22,2.5,2.5,0,0,1,2.61,0c.36.19.73.36,1.1.53,2,.92,2.15,1.24,1.67,3.31-.39,1.7-1.33,2.18-3,1.64a17,17,0,0,1-6.89-4.58,18.37,18.37,0,0,1-4.88-9.84C27.63,211.24,28.83,210.09,31,210.39Z"/><path class="cls-1" d="M25.22,75.25l4.23-.74Q35,85.27,40.17,96.22h.12q4.93-12.6,9.61-25.27l4.23-.74q.36,14.34.42,28.7l-3.37.4q-.06-11-.3-22l-1.67.27c1.28-2.11,2.56-4.24,3.82-6.36Q47.6,85.86,41.81,100.41l-3.05.36q-5.92-12.61-12.39-25c1.39,1.58,2.78,3.18,4.15,4.78l-1.66.27q.34,10.52.52,21l-3.37.4Q25.76,88.76,25.22,75.25Z"/><path class="cls-1" d="M65.3,96.27a10.67,10.67,0,0,1-4.65-4.63A17.28,17.28,0,0,1,59,83.91v0a19.59,19.59,0,0,1,1.53-8.21,15.33,15.33,0,0,1,11.74-9.12,12.89,12.89,0,0,1,7.21.65,9.89,9.89,0,0,1,4.72,4.64,19.25,19.25,0,0,1,1.67,8.1v0a23.54,23.54,0,0,1-1.65,8.58,15.33,15.33,0,0,1-4.65,6,14,14,0,0,1-7.11,2.73A13.06,13.06,0,0,1,65.3,96.27Zm12.29-4.53a10.87,10.87,0,0,0,3.34-4.64,17.18,17.18,0,0,0,1.17-6.58v0a15.6,15.6,0,0,0-1.21-6.27,8.14,8.14,0,0,0-3.42-3.64,8.69,8.69,0,0,0-5.19-.6,11.31,11.31,0,0,0-5.17,2.32,11.09,11.09,0,0,0-3.33,4.63,16.32,16.32,0,0,0-1.11,6.41v0a14.68,14.68,0,0,0,1.24,6,8.61,8.61,0,0,0,3.37,3.65,8.88,8.88,0,0,0,5.15.8A10.41,10.41,0,0,0,77.59,91.74Z"/><path class="cls-1" d="M90.28,63.89l4.23-.74q5.24,12.36,10,24.88h.12Q110,73.85,115,59.58l4.23-.74q0,16.23-.42,32.46l-3.38.39q.28-12.45.36-24.9l-1.66.27,4-7.12q-5.83,16.5-12,32.86l-3,.37Q97.48,78.74,91.41,64.55q2,2.76,4,5.53l-1.66.27q0,12-.13,23.93l-3.37.39Q90.42,79.28,90.28,63.89Z"/><path class="cls-1" d="M86.76,130.36A1.72,1.72,0,0,0,86,132c.45,3.82,4,7.55,6.53,10.23,2.38,2.53,5.93,6.48,9.63,6.93a1.52,1.52,0,0,0,1.46-.89h0Q112,131.56,120,114.66c1.37-2.45-1.09-5.34-3.62-3.78q-14.61,10-29.6,19.48Z"/><path class="cls-1" d="M52.44,123.31a1.07,1.07,0,0,1,.59,1.28c-.91,3.8-4.66,7.32-7.37,10s-6.22,6.22-10,7a1.14,1.14,0,0,1-1.28-.59h0q-5.82-12.48-12.19-24.69a3,3,0,0,1,3.77-3.75q13.38,5.06,26.5,10.75Z"/><path class="cls-4" d="M102.71,150.58c-2.17-11.4-14.88-15.2-19.54-25.07a12.49,12.49,0,0,0-9.32-6.79c-2.26-.36-5.84-.36-7.37,1.68-8.17-2.13-16.82,4.87-22,10.25-6.84,7.13-12.34,16.82-12.61,26.81a36.84,36.84,0,0,0,8.23,24c6.3,7.76,15.81,13.23,25.95,13.92s19.35-4.86,26-11.94C99.94,174.94,104.93,162.26,102.71,150.58Z"/><path class="cls-5" d="M110,160.07c-1.44-13-3.57-26.68-9.76-38.41-2.92-5.54-7.17-11.13-13.4-13.21-7.27-2.43-15.26.87-20.71,5.73-10.41-7.91-21.35,2.58-27,10.95-7,10.38-12.14,24.14-10.95,36.74.21,2.16,2.37,14.77-1.34,15.89-1.52.45-3-1.89-3.82-2.87-2.65,8.9,8.25,10.29,14.18,7.45a12.79,12.79,0,0,1,2.89-.88,36.88,36.88,0,0,1-8.23-24c.27-10,5.77-19.68,12.61-26.81,5.16-5.38,13.81-12.38,22-10.25,1.53-2,5.11-2,7.37-1.68a12.4,12.4,0,0,1,9.32,6.79c2.21,7.72,4.62,15.78,9.66,22.21,2.8,3.58,5.12,6.43,6,11,.83,4.32,1.51,9,.36,13.29S95,180.1,92,183.44c10.88,6.62,20.61.17,26.46-9.62C112.91,178.39,110.34,162,110,160.07Z"/><path d="M65.6,149.31c-.23,5.16,4,10.14,9.37,10.22,5.67.07,10.14-5.27,10.42-10.58s-3.79-10.54-9.45-10.24C70.5,139,65.83,144,65.6,149.31Z"/><path class="cls-1" d="M68.72,146.69a3.7,3.7,0,0,0,3.65,3.92,4.47,4.47,0,0,0,4-4.09,3.79,3.79,0,0,0-3.66-3.92C70.52,142.59,68.84,144.73,68.72,146.69Z"/><path class="cls-1" d="M77.84,152.85a1.84,1.84,0,0,0,1.81,2,2.13,2.13,0,0,0,2-2.05,1.83,1.83,0,0,0-1.8-2A2.14,2.14,0,0,0,77.84,152.85Z"/><path d="M30.3,148.26a9.7,9.7,0,0,0,9.61,9.47,10.57,10.57,0,0,0,10.21-9.9,9.3,9.3,0,0,0-9.68-9.5C35.3,138.62,30.31,143,30.3,148.26Z"/><path class="cls-1" d="M33.37,145.8a3.64,3.64,0,0,0,3.74,3.63,4.05,4.05,0,0,0,3.94-3.83A3.6,3.6,0,0,0,37.29,142,4.09,4.09,0,0,0,33.37,145.8Z"/><path class="cls-1" d="M42.64,151.5a1.81,1.81,0,0,0,1.85,1.86,2,2,0,0,0,2-1.92,1.8,1.8,0,0,0-1.86-1.86A2,2,0,0,0,42.64,151.5Z"/><path class="cls-6" d="M45.52,167.91a53,53,0,0,0,5.16,8.75,19.06,19.06,0,0,0,4.89,4.92c.21.23,1.37.48,1.64-.24a33.23,33.23,0,0,0,3.58-6.59,18.17,18.17,0,0,0,1.4-6.73,1.27,1.27,0,0,0-.55-1,9.45,9.45,0,0,0-4.12-1.53,27.09,27.09,0,0,0-4.4-.41,22.57,22.57,0,0,0-2.74.13,14,14,0,0,0-4.11,1l-.24.12C45.42,166.75,45.12,167.39,45.52,167.91Z"/><path class="cls-1" d="M57.52,165.52q.69,2.74,1.37,5.49a.68.68,0,0,0,1.31,0c.58-1.59.86-2.39,1.44-4A9.51,9.51,0,0,0,57.52,165.52Z"/><path class="cls-1" d="M46.27,166.26c.41,1.55.62,2.32,1,3.87a.68.68,0,0,0,1.31,0q.9-2.46,1.78-4.92A13.89,13.89,0,0,0,46.27,166.26Z"/><path class="cls-7" d="M50.68,176.66a20.22,20.22,0,0,0,4.89,4.92c.21.23,1.37.48,1.64-.24a36.24,36.24,0,0,0,3.58-6.59,6.75,6.75,0,0,0-2.42-1.06,7.43,7.43,0,0,0-1.36-.18,8.23,8.23,0,0,0-1.65.14A7.75,7.75,0,0,0,50.68,176.66Z"/><path class="cls-8" d="M51.62,158.6q2.34,1.92,4.66,3.87L49,161.53C50.05,160.36,50.58,159.78,51.62,158.6Z"/><path class="cls-9" d="M51.62,158.6l3-4.45-2.83,4.74q2.27,1.79,4.52,3.58Q54,160.52,51.62,158.6Z"/><path d="M70.21,138.9a11.86,11.86,0,0,1,1.18-.94A10.65,10.65,0,0,1,78.16,136c.34-.19.68-.41,1-.64a12.91,12.91,0,0,0,3.49-4c-.11.33-.23.65-.36,1a11.28,11.28,0,0,1-2.67,3.89h0a9.09,9.09,0,0,1,3.1,1.39l.27-.18a13,13,0,0,0,3.5-4c-.1.33-.23.66-.36,1a11.31,11.31,0,0,1-2.62,3.85,9.15,9.15,0,0,1,2.25,3.07,12.49,12.49,0,0,0,3.51-4c-.1.33-.23.66-.36,1a11.53,11.53,0,0,1-2.77,4,10.74,10.74,0,0,1,0,6.54c-.1.33-.22.65-.35,1a10.43,10.43,0,0,0-.75-6.65,8.83,8.83,0,0,0-.58-1,9.06,9.06,0,0,0-5.47-3.89,10.26,10.26,0,0,0-7,.91,11,11,0,0,0-1.39.85,11.22,11.22,0,0,0-3.87,4.88c.07-.32.15-.65.25-1A11.15,11.15,0,0,1,70.21,138.9Z"/><path d="M47.67,139.32a9,9,0,0,0-.93-1,9.32,9.32,0,0,0-6.18-2.42c-.29-.21-.58-.44-.85-.67a9,9,0,0,1-2.56-4c0,.31.08.61.14.92A9,9,0,0,0,39.08,136h0a10.88,10.88,0,0,0-3.32,1l-.22-.19a9,9,0,0,1-2.57-3.94c0,.31.08.61.14.92a9.06,9.06,0,0,0,1.74,3.72A10.79,10.79,0,0,0,32,140.07a8.82,8.82,0,0,1-2.57-3.92c0,.3.08.6.15.91a8.88,8.88,0,0,0,1.84,3.83,9.74,9.74,0,0,0-1.5,5.87c0,.31.07.61.12.91a9.93,9.93,0,0,1,2.21-5.89,11.28,11.28,0,0,1,.8-.89,10.87,10.87,0,0,1,6.17-3,9.53,9.53,0,0,1,6.63,1.52,8.75,8.75,0,0,1,1.16.95,9.13,9.13,0,0,1,2.64,5.13,7.83,7.83,0,0,0,0-1A9.73,9.73,0,0,0,47.67,139.32Z"/><path class="cls-10" d="M72,266c-.82,5.94-6.33,11.45-12.75,9.82-6.24-1.59-10.08-8.43-9.38-14.53s6.36-11,12.64-9.85C69.17,252.72,72.87,259.75,72,266Z"/><path class="cls-11" d="M104.43,32.54,38.49,47.4a1.13,1.13,0,0,1-1.47-1h0a1.71,1.71,0,0,1,1.33-1.64l66-15.23a1.15,1.15,0,0,1,1.44,1.18h0A1.9,1.9,0,0,1,104.43,32.54Z"/><path class="cls-12" d="M133.18,61.88C96.59,104.85,56.49,145,11.74,179.72c-.1,2.56-.21,5.11-.32,7.67C56.18,153.42,96.35,114,133,71.72Q133.12,66.8,133.18,61.88Z"/><path class="cls-12" d="M118.18,255.22q3.76-25.9,6.62-51.92c-18.32,16.12-37.31,31.46-57.09,45.81l47.64,8.59A2.64,2.64,0,0,0,118.18,255.22Z"/><path class="cls-13" d="M107.06,47.56c-29,31.81-54.17,58.19-94.53,90.83q.09-27.18-1.06-54.37A266,266,0,0,0,39.22,61.09C64.94,56,81.35,52.65,107.06,47.56Z"/></svg>