<svg id="Layer_1" data-name="Layer 1" xmlns="http://www.w3.org/2000/svg" width="360" height="110" viewBox="0 0 360 110"><defs><style>.cls-1{fill:#fff;}.cls-2{fill:#4d226d;}</style></defs><path class="cls-1" d="M38,110C17.05,110,0,85.33,0,55S17.05,0,38,0H322C343,0,360,24.67,360,55S343,110,322,110Z"/><rect class="cls-2" x="6.39" y="5" width="347.21" height="100" rx="41.22"/><path class="cls-1" d="M134,31.72c-13.24,0-21.87,5.48-21.87,13.2a6.15,6.15,0,0,0,6.32,6.4c4.68,0,8-4,9.09-8.32a3.66,3.66,0,0,1-2.63,1.13,2.64,2.64,0,0,1-2.57-2.64c0-3.77,4.74-6.74,11.6-6.74a17.41,17.41,0,0,1,4.74.6c-9.22,9.24-12.32,27.45-19.83,27.45a3,3,0,0,1-3-3,3.24,3.24,0,0,1,1.06-2.24,11.07,11.07,0,0,0-2.11-.27,8.66,8.66,0,0,0-9,8.78c0,5.81,4.61,9.37,10.21,9.37,7.77,0,13.31-5.67,17.26-20.72A64.7,64.7,0,0,1,141.1,36.4a10.2,10.2,0,0,1,6.19,9.71c0,3.49-1.84,5.47-4,5.47a3.41,3.41,0,0,1-3.36-3.3A7.14,7.14,0,0,0,135.63,55c0,3.49,3,7.12,8.24,7.12,5.93,0,11.4-5,11.4-13C155.27,38.85,146.63,31.72,134,31.72Z"/><path class="cls-1" d="M226.24,61a28.75,28.75,0,0,1-9.42,10.69l6.72-19.2H216l-2.64,7.85c-.79,2.31-2.83,6.93-5.67,6.93-1.25-.13-1.64-1.06-1.64-2.11a11.2,11.2,0,0,1,.59-3l3.23-9.63h-7.45L199.5,61h0c-1.13,2-3.37,6.4-6.07,6.4-1.45,0-2-1.12-2-2.37,0-1.72.79-3.7,4-12.54h-7.18l-.93,2.57c-.52-2.38-2.9-3.56-5.27-3.56-5.11,0-9.53,4.48-11.74,9.65-1.32,2.45-3.4,6.25-6.25,6.25-1.05,0-1.78-.72-1.78-2.24,0-1.72.93-4.16,1.45-5.81l8.17-24h-7.44l-9.29,27.52a24.16,24.16,0,0,0-1.58,7c0,3.63,1.71,5.68,4.61,5.68,3.38,0,6.89-2.42,10.64-8.21,0,.21,0,.42,0,.62,0,5.28,2.5,7.59,5.8,7.59,3.62,0,7.31-3.76,8.7-6.93a7.85,7.85,0,0,0-.14,1.39c0,2.11.79,5.6,4.48,5.6,3.42,0,6.59-2.76,9.73-7.42a15.45,15.45,0,0,0-.17,2.15c0,2.64,1.58,5.27,4.68,5.27,4.22,0,7.77-4.94,9.82-8.24l-2.11,7.85c-5.8,3.23-13,8.51-13,14.78,0,2.44,1.19,4.29,3.76,4.29,7.38,0,13.37-13.59,15.35-18.87,5.6-3.3,9-7.66,12.32-13.86Zm-46.52,6.4c-1.45,0-2.18-1.12-2.18-3,0-4.16,3.17-9.76,6.39-9.76,1.19,0,2,1.18,2,3.16C186,61.61,183,67.42,179.72,67.42Zm24.64,20.33a1.27,1.27,0,0,1-1.31-1.39c.13-3.17,3.22-5.94,5.73-7.39C208.38,80.82,206.67,87.75,204.36,87.75Z"/><path d="M40.15,15.55H317.81c7.7,0,14.81,3.85,20.51,10.29-6-9.66-14.66-15.74-24.21-15.74H43.85c-9.55,0-18.19,6.08-24.21,15.74C25.34,19.4,32.45,15.55,40.15,15.55Z"/></svg>