<svg id="Layer_1" data-name="Layer 1" xmlns="http://www.w3.org/2000/svg" width="5760" height="1080" viewBox="0 0 5760 1080"><defs><style>.cls-1,.cls-2{fill:#fff;}.cls-1{opacity:0.2;}.cls-3{fill:#8557a7;}.cls-4{fill:#662d91;}.cls-5{fill:#4d226d;}.cls-6{fill:#525266;}.cls-7{fill:#271137;}</style></defs><path class="cls-1" d="M753.36,336.54l-4-11.56a1.22,1.22,0,0,0-1.12-.82L736,323.91a1.21,1.21,0,0,1-.71-2.18l9.75-7.4a1.2,1.2,0,0,0,.43-1.32l-3.54-11.71a1.22,1.22,0,0,1,1.86-1.36l10,7a1.22,1.22,0,0,0,1.39,0l10-7a1.22,1.22,0,0,1,1.86,1.36L763.56,313a1.24,1.24,0,0,0,.43,1.32l9.76,7.4a1.22,1.22,0,0,1-.71,2.18l-12.24.25a1.21,1.21,0,0,0-1.12.82l-4,11.56A1.22,1.22,0,0,1,753.36,336.54Z"/><path class="cls-1" d="M963.09,500.1l-4-11.56a1.21,1.21,0,0,0-1.12-.82l-12.24-.25a1.21,1.21,0,0,1-.71-2.18l9.76-7.4a1.21,1.21,0,0,0,.42-1.32l-3.54-11.71a1.22,1.22,0,0,1,1.86-1.35l10,7a1.22,1.22,0,0,0,1.39,0l10-7a1.22,1.22,0,0,1,1.86,1.35l-3.54,11.71a1.2,1.2,0,0,0,.43,1.32l9.75,7.4a1.21,1.21,0,0,1-.71,2.18l-12.24.25a1.21,1.21,0,0,0-1.12.82l-4,11.56A1.22,1.22,0,0,1,963.09,500.1Z"/><path class="cls-1" d="M1195,400.49l-4-11.56a1.22,1.22,0,0,0-1.13-.81l-12.23-.25a1.22,1.22,0,0,1-.71-2.19l9.75-7.39a1.22,1.22,0,0,0,.43-1.32l-3.55-11.72a1.22,1.22,0,0,1,1.86-1.35l10,7a1.22,1.22,0,0,0,1.39,0l10-7a1.22,1.22,0,0,1,1.86,1.35L1205.23,377a1.21,1.21,0,0,0,.43,1.32l9.75,7.39a1.22,1.22,0,0,1-.71,2.19l-12.23.25a1.22,1.22,0,0,0-1.13.81l-4,11.56A1.22,1.22,0,0,1,1195,400.49Z"/><path class="cls-1" d="M1385.36,333.54l-4-11.56a1.22,1.22,0,0,0-1.12-.82l-12.24-.25a1.21,1.21,0,0,1-.71-2.18l9.75-7.4a1.2,1.2,0,0,0,.43-1.32l-3.54-11.71a1.22,1.22,0,0,1,1.86-1.36l10,7a1.22,1.22,0,0,0,1.39,0l10-7a1.22,1.22,0,0,1,1.86,1.36L1395.56,310a1.24,1.24,0,0,0,.43,1.32l9.76,7.4a1.22,1.22,0,0,1-.71,2.18l-12.24.25a1.21,1.21,0,0,0-1.12.82l-4,11.56A1.22,1.22,0,0,1,1385.36,333.54Z"/><path class="cls-1" d="M1595.09,497.1l-4-11.56a1.21,1.21,0,0,0-1.12-.82l-12.24-.25a1.21,1.21,0,0,1-.71-2.18l9.76-7.4a1.21,1.21,0,0,0,.42-1.32l-3.54-11.71a1.22,1.22,0,0,1,1.86-1.35l10,7a1.22,1.22,0,0,0,1.39,0l10-7a1.22,1.22,0,0,1,1.86,1.35l-3.54,11.71a1.2,1.2,0,0,0,.43,1.32l9.75,7.4a1.21,1.21,0,0,1-.71,2.18l-12.24.25a1.21,1.21,0,0,0-1.12.82l-4,11.56A1.22,1.22,0,0,1,1595.09,497.1Z"/><path class="cls-1" d="M1827,397.49l-4-11.56a1.22,1.22,0,0,0-1.13-.81l-12.23-.25a1.22,1.22,0,0,1-.71-2.19l9.75-7.39a1.22,1.22,0,0,0,.43-1.32l-3.55-11.72a1.22,1.22,0,0,1,1.86-1.35l10,7a1.22,1.22,0,0,0,1.39,0l10-7a1.22,1.22,0,0,1,1.86,1.35L1837.23,374a1.21,1.21,0,0,0,.43,1.32l9.75,7.39a1.22,1.22,0,0,1-.71,2.19l-12.23.25a1.22,1.22,0,0,0-1.13.81l-4,11.56A1.22,1.22,0,0,1,1827,397.49Z"/><path class="cls-2" d="M332.09,466.1l-4-11.56a1.21,1.21,0,0,0-1.12-.82l-12.24-.25a1.21,1.21,0,0,1-.71-2.18l9.76-7.4a1.21,1.21,0,0,0,.42-1.32l-3.54-11.71a1.22,1.22,0,0,1,1.86-1.35l10.05,7a1.22,1.22,0,0,0,1.39,0l10-7a1.22,1.22,0,0,1,1.86,1.35l-3.54,11.71a1.2,1.2,0,0,0,.43,1.32l9.75,7.4a1.21,1.21,0,0,1-.71,2.18l-12.24.25a1.21,1.21,0,0,0-1.12.82l-4,11.56A1.22,1.22,0,0,1,332.09,466.1Z"/><path class="cls-2" d="M564,366.49l-4-11.56a1.22,1.22,0,0,0-1.13-.81l-12.23-.25a1.22,1.22,0,0,1-.71-2.19l9.75-7.39a1.22,1.22,0,0,0,.43-1.32l-3.55-11.72a1.22,1.22,0,0,1,1.86-1.35l10.05,7a1.22,1.22,0,0,0,1.39,0l10-7a1.22,1.22,0,0,1,1.86,1.35L574.23,343a1.21,1.21,0,0,0,.43,1.32l9.75,7.39a1.22,1.22,0,0,1-.71,2.19l-12.23.25a1.22,1.22,0,0,0-1.13.81l-4,11.56A1.22,1.22,0,0,1,564,366.49Z"/><rect class="cls-3" x="1642.89" y="300.36" width="162" height="419" rx="3.07"/><rect class="cls-3" x="1456.89" y="198.36" width="135" height="457" rx="2.93"/><rect class="cls-3" x="216.89" y="283.36" width="190" height="410" rx="4.32"/><path class="cls-3" d="M645.62,160.36l-185.73,130V675.09a3.28,3.28,0,0,0,3.27,3.27H645.62a3.28,3.28,0,0,0,3.27-3.27V163.63A3.28,3.28,0,0,0,645.62,160.36Z"/><rect class="cls-3" x="695.89" y="244.36" width="179" height="445"/><path class="cls-3" d="M1052.28,213.56a8.34,8.34,0,0,0-14.12-.31L962.64,322.34a9.67,9.67,0,0,0-1.7,5.51V619.24c0,5.11,3.87,9.26,8.65,9.26h144.69c4.78,0,8.66-4.15,8.66-9.26V327.65a9.79,9.79,0,0,0-1.5-5.21Z"/><path class="cls-3" d="M1333.2,269.36h-25.59a3.19,3.19,0,0,1-3.19-3.19V240.56a3.19,3.19,0,0,0-3.19-3.2H1286.3a3.19,3.19,0,0,1-3.2-3.19V206.56a3.19,3.19,0,0,0-3.19-3.2h-16.23a3.18,3.18,0,0,1-3.15-2.72l-9.23-61.56a3.2,3.2,0,0,0-3.16-2.72h-.48a3.2,3.2,0,0,0-3.16,2.75l-8.76,61.51a3.19,3.19,0,0,1-3.16,2.74h-16.2a3.2,3.2,0,0,0-3.2,3.2v27.61a3.19,3.19,0,0,1-3.19,3.19h-14.93a3.19,3.19,0,0,0-3.19,3.2v25.61a3.19,3.19,0,0,1-3.19,3.19h-25.59a3.2,3.2,0,0,0-3.2,3.2V802.17a3.19,3.19,0,0,0,3.2,3.19H1333.2a3.19,3.19,0,0,0,3.19-3.19V272.56A3.19,3.19,0,0,0,1333.2,269.36Z"/><polygon class="cls-3" points="60.89 165.36 0.89 165.36 0.89 741.36 153.89 741.36 153.89 220.36 99.89 220.36 60.89 165.36"/><rect class="cls-4" x="1556.31" y="427.32" width="151.79" height="386.19" transform="translate(3264.41 1240.83) rotate(-180)"/><path class="cls-4" d="M1363.9,727.49h146.16a2.42,2.42,0,0,0,2.41-2.42V353.73a2.41,2.41,0,0,0-1-2L1365.25,249.42a2.37,2.37,0,0,0-3.76,1.77V725.07A2.42,2.42,0,0,0,1363.9,727.49Z"/><rect class="cls-4" x="1178.28" y="360.87" width="143" height="355.5" transform="translate(2499.55 1077.25) rotate(-180)"/><path class="cls-4" d="M992.17,744.48h124.12a12.24,12.24,0,0,0,12.24-12.23l0-337.62a12.23,12.23,0,0,0-19.69-9.7L984.71,480.37a12.24,12.24,0,0,0-4.77,9.7V732.24A12.23,12.23,0,0,0,992.17,744.48Z"/><rect class="cls-4" x="484.64" y="313.78" width="107.85" height="365.09" rx="2.34" transform="translate(1077.13 992.64) rotate(-180)"/><rect class="cls-4" x="99.42" y="423.69" width="151.79" height="327.54" rx="3.45" transform="translate(350.62 1174.92) rotate(-180)"/><polygon class="cls-4" points="-0.06 691.35 71.04 691.35 71.07 316.66 -0.06 371.35 -0.06 691.35"/><polygon class="cls-4" points="303.24 381.61 303.24 356.05 408.69 357.88 408.69 381.61 438.65 381.61 438.65 809.81 273.28 809.81 273.28 381.61 303.24 381.61"/><rect class="cls-4" x="1729.32" y="400.31" width="107.85" height="365.09" rx="2.34" transform="translate(3566.48 1165.71) rotate(-180)"/><rect class="cls-4" x="639.14" y="379.99" width="129.42" height="334.73" rx="2.46" transform="translate(1407.7 1094.72) rotate(-180)"/><ellipse class="cls-4" cx="703.85" cy="391.14" rx="51.43" ry="55.45"/><rect class="cls-4" x="701.09" y="292.4" width="5.53" height="55.33" rx="2.77"/><rect class="cls-4" x="806.49" y="338.74" width="143" height="355.5" transform="translate(1755.98 1032.99) rotate(-180)"/><rect class="cls-4" x="883.8" y="309.47" width="48.69" height="36.51"/><rect class="cls-4" x="826.26" y="319.43" width="48.69" height="36.51"/><polygon class="cls-5" points="1976.89 912.56 1847.7 912.56 1847.68 586.77 1976.89 686.12 1976.89 912.56"/><rect class="cls-5" x="1678.34" y="737.54" width="93.77" height="317.43" rx="2.04"/><path class="cls-5" d="M1846.19,464.74V732a2.28,2.28,0,0,0,2.28,2.27h62.47V419.42Z"/><path class="cls-1" d="M2664.36,336.54l-4-11.56a1.22,1.22,0,0,0-1.12-.82l-12.24-.25a1.21,1.21,0,0,1-.71-2.18l9.75-7.4a1.2,1.2,0,0,0,.43-1.32l-3.54-11.71a1.22,1.22,0,0,1,1.86-1.36l10,7a1.22,1.22,0,0,0,1.39,0l10.05-7a1.22,1.22,0,0,1,1.86,1.36L2674.56,313a1.24,1.24,0,0,0,.43,1.32l9.76,7.4a1.22,1.22,0,0,1-.71,2.18l-12.24.25a1.21,1.21,0,0,0-1.12.82l-4,11.56A1.22,1.22,0,0,1,2664.36,336.54Z"/><path class="cls-1" d="M2874.09,500.1l-4-11.56a1.21,1.21,0,0,0-1.12-.82l-12.24-.25a1.21,1.21,0,0,1-.71-2.18l9.76-7.4a1.21,1.21,0,0,0,.42-1.32l-3.54-11.71a1.22,1.22,0,0,1,1.86-1.35l10.05,7a1.22,1.22,0,0,0,1.39,0l10-7a1.22,1.22,0,0,1,1.86,1.35l-3.54,11.71a1.2,1.2,0,0,0,.43,1.32l9.75,7.4a1.21,1.21,0,0,1-.71,2.18l-12.24.25a1.21,1.21,0,0,0-1.12.82l-4,11.56A1.22,1.22,0,0,1,2874.09,500.1Z"/><path class="cls-1" d="M3106,400.49l-4-11.56a1.22,1.22,0,0,0-1.13-.81l-12.23-.25a1.22,1.22,0,0,1-.71-2.19l9.75-7.39a1.22,1.22,0,0,0,.43-1.32l-3.55-11.72a1.22,1.22,0,0,1,1.86-1.35l10.05,7a1.22,1.22,0,0,0,1.39,0l10-7a1.22,1.22,0,0,1,1.86,1.35L3116.23,377a1.21,1.21,0,0,0,.43,1.32l9.75,7.39a1.22,1.22,0,0,1-.71,2.19l-12.23.25a1.22,1.22,0,0,0-1.13.81l-4,11.56A1.22,1.22,0,0,1,3106,400.49Z"/><path class="cls-1" d="M3296.36,333.54l-4-11.56a1.22,1.22,0,0,0-1.12-.82l-12.24-.25a1.21,1.21,0,0,1-.71-2.18l9.75-7.4a1.2,1.2,0,0,0,.43-1.32l-3.54-11.71a1.22,1.22,0,0,1,1.86-1.36l10,7a1.22,1.22,0,0,0,1.39,0l10.05-7a1.22,1.22,0,0,1,1.86,1.36L3306.56,310a1.24,1.24,0,0,0,.43,1.32l9.76,7.4a1.22,1.22,0,0,1-.71,2.18l-12.24.25a1.21,1.21,0,0,0-1.12.82l-4,11.56A1.22,1.22,0,0,1,3296.36,333.54Z"/><path class="cls-1" d="M3506.09,497.1l-4-11.56a1.21,1.21,0,0,0-1.12-.82l-12.24-.25a1.21,1.21,0,0,1-.71-2.18l9.76-7.4a1.21,1.21,0,0,0,.42-1.32l-3.54-11.71a1.22,1.22,0,0,1,1.86-1.35l10.05,7a1.22,1.22,0,0,0,1.39,0l10-7a1.22,1.22,0,0,1,1.86,1.35l-3.54,11.71a1.2,1.2,0,0,0,.43,1.32l9.75,7.4a1.21,1.21,0,0,1-.71,2.18l-12.24.25a1.21,1.21,0,0,0-1.12.82l-4,11.56A1.22,1.22,0,0,1,3506.09,497.1Z"/><path class="cls-1" d="M3738,397.49l-4-11.56a1.22,1.22,0,0,0-1.13-.81l-12.23-.25a1.22,1.22,0,0,1-.71-2.19l9.75-7.39a1.22,1.22,0,0,0,.43-1.32l-3.55-11.72a1.22,1.22,0,0,1,1.86-1.35l10.05,7a1.22,1.22,0,0,0,1.39,0l10-7a1.22,1.22,0,0,1,1.86,1.35L3748.23,374a1.21,1.21,0,0,0,.43,1.32l9.75,7.39a1.22,1.22,0,0,1-.71,2.19l-12.23.25a1.22,1.22,0,0,0-1.13.81l-4,11.56A1.22,1.22,0,0,1,3738,397.49Z"/><path class="cls-2" d="M2033.36,302.54l-4-11.56a1.22,1.22,0,0,0-1.12-.82l-12.24-.25a1.21,1.21,0,0,1-.71-2.18l9.75-7.4a1.2,1.2,0,0,0,.43-1.32l-3.54-11.71a1.22,1.22,0,0,1,1.86-1.36l10,7a1.22,1.22,0,0,0,1.39,0l10-7a1.22,1.22,0,0,1,1.86,1.36L2043.56,279a1.24,1.24,0,0,0,.43,1.32l9.76,7.4a1.22,1.22,0,0,1-.71,2.18l-12.24.25a1.21,1.21,0,0,0-1.12.82l-4,11.56A1.22,1.22,0,0,1,2033.36,302.54Z"/><path class="cls-2" d="M2243.09,466.1l-4-11.56a1.21,1.21,0,0,0-1.12-.82l-12.24-.25a1.21,1.21,0,0,1-.71-2.18l9.76-7.4a1.21,1.21,0,0,0,.42-1.32l-3.54-11.71a1.22,1.22,0,0,1,1.86-1.35l10.05,7a1.22,1.22,0,0,0,1.39,0l10-7a1.22,1.22,0,0,1,1.86,1.35l-3.54,11.71a1.2,1.2,0,0,0,.43,1.32l9.75,7.4a1.21,1.21,0,0,1-.71,2.18l-12.24.25a1.21,1.21,0,0,0-1.12.82l-4,11.56A1.22,1.22,0,0,1,2243.09,466.1Z"/><path class="cls-2" d="M2475,366.49l-4-11.56a1.22,1.22,0,0,0-1.13-.81l-12.23-.25a1.22,1.22,0,0,1-.71-2.19l9.75-7.39a1.22,1.22,0,0,0,.43-1.32l-3.55-11.72a1.22,1.22,0,0,1,1.86-1.35l10.05,7a1.22,1.22,0,0,0,1.39,0l10-7a1.22,1.22,0,0,1,1.86,1.35L2485.23,343a1.21,1.21,0,0,0,.43,1.32l9.75,7.39a1.22,1.22,0,0,1-.71,2.19l-12.23.25a1.22,1.22,0,0,0-1.13.81l-4,11.56A1.22,1.22,0,0,1,2475,366.49Z"/><rect class="cls-3" x="2104.94" y="283.5" width="190" height="410" rx="4.32"/><path class="cls-3" d="M2556.62,678.36H2374.16a3.28,3.28,0,0,1-3.27-3.27V290.36l185.73-130a3.28,3.28,0,0,1,3.27,3.27V675.09A3.28,3.28,0,0,1,2556.62,678.36Z"/><rect class="cls-3" x="2606.89" y="244.36" width="179" height="445"/><path class="cls-3" d="M2981.24,636.36H2836.55c-4.78,0-8.66-4.14-8.66-9.26V335.72a9.7,9.7,0,0,1,1.7-5.51l75.53-109.1a8.33,8.33,0,0,1,14.11.31l69.17,108.89a9.75,9.75,0,0,1,1.49,5.2V627.1C2989.89,632.22,2986,636.36,2981.24,636.36Z"/><rect class="cls-3" x="3526.94" y="325.5" width="162" height="419"/><rect class="cls-3" x="3367.89" y="198.36" width="135" height="457" rx="2.93"/><path class="cls-3" d="M3185.42,153.17V127.56a3.19,3.19,0,0,0-3.19-3.2H3167.3a3.19,3.19,0,0,1-3.2-3.19V93.56a3.19,3.19,0,0,0-3.19-3.2h-16.23a3.18,3.18,0,0,1-3.15-2.72l-9.23-61.56a3.2,3.2,0,0,0-3.16-2.72h-.48a3.2,3.2,0,0,0-3.16,2.75l-8.76,61.51a3.19,3.19,0,0,1-3.16,2.74h-16.2a3.2,3.2,0,0,0-3.2,3.2v27.61a3.19,3.19,0,0,1-3.19,3.19h-14.93a3.19,3.19,0,0,0-3.19,3.2v25.61a3.19,3.19,0,0,1-3.19,3.19h-25.59a3.2,3.2,0,0,0-3.2,3.2V689.17a3.19,3.19,0,0,0,3.2,3.19H3214.2a3.19,3.19,0,0,0,3.19-3.19V159.56a3.19,3.19,0,0,0-3.19-3.2h-25.59A3.19,3.19,0,0,1,3185.42,153.17Z"/><polygon class="cls-3" points="1892.94 741.5 2045.94 741.5 2045.94 220.5 1991.94 220.5 1952.94 165.5 1892.94 165.5 1892.94 741.5"/><rect class="cls-4" x="3467.31" y="427.32" width="151.79" height="386.19" transform="translate(7086.41 1240.83) rotate(-180)"/><path class="cls-4" d="M3274.9,727.49h146.16a2.42,2.42,0,0,0,2.41-2.42V353.73a2.41,2.41,0,0,0-1-2L3276.25,249.42a2.37,2.37,0,0,0-3.76,1.77V725.07A2.42,2.42,0,0,0,3274.9,727.49Z"/><rect class="cls-4" x="3148.28" y="356.87" width="143" height="355.5" transform="translate(6439.55 1069.25) rotate(-180)"/><path class="cls-4" d="M2933.17,740.48h124.12a12.24,12.24,0,0,0,12.24-12.23l0-337.62a12.23,12.23,0,0,0-19.69-9.7l-124.15,95.44a12.24,12.24,0,0,0-4.77,9.7V728.24A12.23,12.23,0,0,0,2933.17,740.48Z"/><rect class="cls-4" x="2395.64" y="313.78" width="107.85" height="365.09" rx="2.34" transform="translate(4899.13 992.64) rotate(-180)"/><rect class="cls-4" x="2010.42" y="423.69" width="151.79" height="327.54" rx="3.45" transform="translate(4172.62 1174.92) rotate(-180)"/><polygon class="cls-4" points="1982.07 371.35 1911.9 317.4 1911.89 251.36 1857.51 251.36 1826.35 295.3 1783.21 295.3 1783.21 711.52 1911.94 711.5 1911.93 691.35 1982.07 691.35 1982.07 371.35"/><polygon class="cls-4" points="2214.24 381.61 2214.24 356.05 2319.69 357.88 2319.69 381.61 2349.65 381.61 2349.65 809.81 2184.28 809.81 2184.28 381.61 2214.24 381.61"/><rect class="cls-4" x="3640.32" y="400.31" width="107.85" height="365.09" rx="2.34" transform="translate(7388.48 1165.71) rotate(-180)"/><rect class="cls-4" x="2550.14" y="379.99" width="129.42" height="334.73" rx="2.46" transform="translate(5229.7 1094.72) rotate(-180)"/><ellipse class="cls-4" cx="2614.85" cy="391.14" rx="51.43" ry="55.45"/><rect class="cls-4" x="2612.09" y="292.4" width="5.53" height="55.33" rx="2.77"/><rect class="cls-4" x="2741.49" y="361.74" width="143" height="355.5" transform="translate(5625.98 1078.99) rotate(-180)"/><rect class="cls-4" x="2818.8" y="332.47" width="48.69" height="36.51"/><rect class="cls-4" x="2761.26" y="342.43" width="48.69" height="36.51"/><path class="cls-5" d="M3738.94,785.26h40.81a2,2,0,0,0,2-2V469.86a2,2,0,0,0-2-2h-39.86Z"/><path class="cls-1" d="M4488.36,337.54l-4-11.56a1.22,1.22,0,0,0-1.12-.82l-12.24-.25a1.21,1.21,0,0,1-.71-2.18l9.75-7.4a1.2,1.2,0,0,0,.43-1.32l-3.54-11.71a1.22,1.22,0,0,1,1.86-1.36l10,7a1.22,1.22,0,0,0,1.39,0l10.05-7a1.22,1.22,0,0,1,1.86,1.36L4498.56,314a1.24,1.24,0,0,0,.43,1.32l9.76,7.4a1.22,1.22,0,0,1-.71,2.18l-12.24.25a1.21,1.21,0,0,0-1.12.82l-4,11.56A1.22,1.22,0,0,1,4488.36,337.54Z"/><path class="cls-1" d="M4698.09,501.1l-4-11.56a1.21,1.21,0,0,0-1.12-.82l-12.24-.25a1.21,1.21,0,0,1-.71-2.18l9.76-7.4a1.21,1.21,0,0,0,.42-1.32l-3.54-11.71a1.22,1.22,0,0,1,1.86-1.35l10.05,7a1.22,1.22,0,0,0,1.39,0l10-7a1.22,1.22,0,0,1,1.86,1.35l-3.54,11.71a1.2,1.2,0,0,0,.43,1.32l9.75,7.4a1.21,1.21,0,0,1-.71,2.18l-12.24.25a1.21,1.21,0,0,0-1.12.82l-4,11.56A1.22,1.22,0,0,1,4698.09,501.1Z"/><path class="cls-1" d="M4930,401.49l-4-11.56a1.22,1.22,0,0,0-1.13-.81l-12.23-.25a1.22,1.22,0,0,1-.71-2.19l9.75-7.39a1.22,1.22,0,0,0,.43-1.32l-3.55-11.72a1.22,1.22,0,0,1,1.86-1.35l10,7a1.22,1.22,0,0,0,1.39,0l10-7a1.22,1.22,0,0,1,1.86,1.35L4940.23,378a1.21,1.21,0,0,0,.43,1.32l9.75,7.39a1.22,1.22,0,0,1-.71,2.19l-12.23.25a1.22,1.22,0,0,0-1.13.81l-4,11.56A1.22,1.22,0,0,1,4930,401.49Z"/><path class="cls-1" d="M5120.36,334.54l-4-11.56a1.22,1.22,0,0,0-1.12-.82l-12.24-.25a1.21,1.21,0,0,1-.71-2.18l9.75-7.4a1.2,1.2,0,0,0,.43-1.32l-3.54-11.71a1.22,1.22,0,0,1,1.86-1.36l10,7a1.22,1.22,0,0,0,1.39,0l10.05-7a1.22,1.22,0,0,1,1.86,1.36L5130.56,311a1.24,1.24,0,0,0,.43,1.32l9.76,7.4a1.22,1.22,0,0,1-.71,2.18l-12.24.25a1.21,1.21,0,0,0-1.12.82l-4,11.56A1.22,1.22,0,0,1,5120.36,334.54Z"/><path class="cls-1" d="M5330.09,498.1l-4-11.56a1.21,1.21,0,0,0-1.12-.82l-12.24-.25a1.21,1.21,0,0,1-.71-2.18l9.76-7.4a1.21,1.21,0,0,0,.42-1.32l-3.54-11.71a1.22,1.22,0,0,1,1.86-1.35l10.05,7a1.22,1.22,0,0,0,1.39,0l10-7a1.22,1.22,0,0,1,1.86,1.35l-3.54,11.71a1.2,1.2,0,0,0,.43,1.32l9.75,7.4a1.21,1.21,0,0,1-.71,2.18l-12.24.25a1.21,1.21,0,0,0-1.12.82l-4,11.56A1.22,1.22,0,0,1,5330.09,498.1Z"/><path class="cls-1" d="M5562,398.49l-4-11.56a1.22,1.22,0,0,0-1.13-.81l-12.23-.25a1.22,1.22,0,0,1-.71-2.19l9.75-7.39a1.22,1.22,0,0,0,.43-1.32l-3.55-11.72a1.22,1.22,0,0,1,1.86-1.35l10,7a1.22,1.22,0,0,0,1.39,0l10-7a1.22,1.22,0,0,1,1.86,1.35L5572.23,375a1.21,1.21,0,0,0,.43,1.32l9.75,7.39a1.22,1.22,0,0,1-.71,2.19l-12.23.25a1.22,1.22,0,0,0-1.13.81l-4,11.56A1.22,1.22,0,0,1,5562,398.49Z"/><path class="cls-2" d="M3857.36,303.54l-4-11.56a1.22,1.22,0,0,0-1.12-.82l-12.24-.25a1.21,1.21,0,0,1-.71-2.18l9.75-7.4a1.2,1.2,0,0,0,.43-1.32l-3.54-11.71a1.22,1.22,0,0,1,1.86-1.36l10,7a1.22,1.22,0,0,0,1.39,0l10.05-7a1.22,1.22,0,0,1,1.86,1.36L3867.56,280a1.24,1.24,0,0,0,.43,1.32l9.76,7.4a1.22,1.22,0,0,1-.71,2.18l-12.24.25a1.21,1.21,0,0,0-1.12.82l-4,11.56A1.22,1.22,0,0,1,3857.36,303.54Z"/><path class="cls-2" d="M4067.09,467.1l-4-11.56a1.21,1.21,0,0,0-1.12-.82l-12.24-.25a1.21,1.21,0,0,1-.71-2.18l9.76-7.4a1.21,1.21,0,0,0,.42-1.32l-3.54-11.71a1.22,1.22,0,0,1,1.86-1.35l10.05,7a1.22,1.22,0,0,0,1.39,0l10-7a1.22,1.22,0,0,1,1.86,1.35l-3.54,11.71a1.2,1.2,0,0,0,.43,1.32l9.75,7.4a1.21,1.21,0,0,1-.71,2.18l-12.24.25a1.21,1.21,0,0,0-1.12.82l-4,11.56A1.22,1.22,0,0,1,4067.09,467.1Z"/><path class="cls-2" d="M4299,367.49l-4-11.56a1.22,1.22,0,0,0-1.13-.81l-12.23-.25a1.22,1.22,0,0,1-.71-2.19l9.75-7.39a1.22,1.22,0,0,0,.43-1.32l-3.55-11.72a1.22,1.22,0,0,1,1.86-1.35l10,7a1.22,1.22,0,0,0,1.39,0l10-7a1.22,1.22,0,0,1,1.86,1.35L4309.23,344a1.21,1.21,0,0,0,.43,1.32l9.75,7.39a1.22,1.22,0,0,1-.71,2.19l-12.23.25a1.22,1.22,0,0,0-1.13.81l-4,11.56A1.22,1.22,0,0,1,4299,367.49Z"/><rect class="cls-3" x="3951.89" y="284.36" width="190" height="410" rx="4.32"/><path class="cls-3" d="M4364.67,576.5H4182.21a3.28,3.28,0,0,1-3.27-3.27V188.5l185.73-130a3.28,3.28,0,0,1,3.27,3.27V573.23A3.28,3.28,0,0,1,4364.67,576.5Z"/><rect class="cls-3" x="4437.94" y="204.5" width="179" height="445"/><path class="cls-3" d="M4872.28,784.5H4727.59c-4.78,0-8.65-6.41-8.65-14.32V319.54a21,21,0,0,1,1.7-8.52l75.52-168.72c3.55-7.93,10.77-7.69,14.12.47l69.16,168.4a21.6,21.6,0,0,1,1.5,8.05v451C4880.94,778.09,4877.06,784.5,4872.28,784.5Z"/><rect class="cls-3" x="5377.94" y="337.5" width="162" height="419" rx="3.07"/><rect class="cls-3" x="5191.89" y="199.36" width="135" height="457" rx="2.93"/><path class="cls-3" d="M5039.42,267.17V241.56a3.19,3.19,0,0,0-3.19-3.2H5021.3a3.19,3.19,0,0,1-3.2-3.19V207.56a3.19,3.19,0,0,0-3.19-3.2h-16.23a3.18,3.18,0,0,1-3.15-2.72l-9.23-61.56a3.2,3.2,0,0,0-3.16-2.72h-.48a3.2,3.2,0,0,0-3.16,2.75l-8.76,61.51a3.19,3.19,0,0,1-3.16,2.74h-16.2a3.2,3.2,0,0,0-3.2,3.2v27.61a3.19,3.19,0,0,1-3.19,3.19h-14.93a3.19,3.19,0,0,0-3.19,3.2v25.61a3.19,3.19,0,0,1-3.19,3.19h-25.59a3.2,3.2,0,0,0-3.2,3.2V803.17a3.19,3.19,0,0,0,3.2,3.19H5068.2a3.19,3.19,0,0,0,3.19-3.19V273.56a3.19,3.19,0,0,0-3.19-3.2h-25.59A3.19,3.19,0,0,1,5039.42,267.17Z"/><polygon class="cls-3" points="3735.89 742.36 3888.89 742.36 3888.89 221.36 3834.89 221.36 3795.89 166.36 3735.89 166.36 3735.89 742.36"/><rect class="cls-4" x="5291.31" y="428.32" width="151.79" height="386.19" transform="translate(10734.41 1242.83) rotate(-180)"/><path class="cls-4" d="M5098.9,728.49h146.16a2.42,2.42,0,0,0,2.41-2.42V354.73a2.41,2.41,0,0,0-1-2L5100.25,250.42a2.37,2.37,0,0,0-3.76,1.77V726.07A2.42,2.42,0,0,0,5098.9,728.49Z"/><rect class="cls-4" x="4913.28" y="361.87" width="143" height="355.5" transform="translate(9969.55 1079.25) rotate(-180)"/><path class="cls-4" d="M4727.17,745.48h124.12a12.24,12.24,0,0,0,12.24-12.23l0-337.62a12.23,12.23,0,0,0-19.69-9.7l-124.15,95.44a12.24,12.24,0,0,0-4.77,9.7V733.24A12.23,12.23,0,0,0,4727.17,745.48Z"/><rect class="cls-4" x="4219.64" y="314.78" width="107.85" height="365.09" rx="2.34" transform="translate(8547.13 994.64) rotate(-180)"/><rect class="cls-4" x="3834.42" y="424.69" width="151.79" height="327.54" rx="3.45" transform="translate(7820.62 1176.92) rotate(-180)"/><polygon class="cls-4" points="3734.94 766.5 3806.04 766.5 3806.07 317.66 3734.94 383.17 3734.94 766.5"/><polygon class="cls-4" points="4007.24 390.61 4007.24 365.05 4112.69 366.88 4112.69 390.61 4142.65 390.61 4142.65 818.81 3977.28 818.81 3977.28 390.61 4007.24 390.61"/><rect class="cls-4" x="5464.32" y="401.31" width="107.85" height="365.09" rx="2.34" transform="translate(11036.48 1167.71) rotate(-180)"/><rect class="cls-4" x="4374.14" y="380.99" width="129.42" height="334.73" rx="2.46" transform="translate(8877.7 1096.72) rotate(-180)"/><ellipse class="cls-4" cx="4438.85" cy="392.14" rx="51.43" ry="55.45"/><rect class="cls-4" x="4436.09" y="293.4" width="5.53" height="55.33" rx="2.77"/><rect class="cls-4" x="4541.49" y="339.74" width="143" height="355.5" transform="translate(9225.98 1034.99) rotate(-180)"/><rect class="cls-4" x="4618.8" y="310.47" width="48.69" height="36.51"/><rect class="cls-4" x="4561.26" y="320.43" width="48.69" height="36.51"/><polygon class="cls-5" points="5711.89 913.56 5582.7 913.56 5582.68 587.77 5711.89 687.12 5711.89 913.56"/><rect class="cls-5" x="5413.34" y="738.54" width="93.77" height="317.43" rx="2.04"/><path class="cls-5" d="M5581.19,465.74V733a2.28,2.28,0,0,0,2.28,2.27h62.47V420.42Z"/><polygon class="cls-3" points="5606.94 738.5 5759.94 738.5 5759.94 217.5 5705.94 217.5 5666.94 162.5 5606.94 162.5 5606.94 738.5"/><polygon class="cls-4" points="5717.07 372.35 5646.9 318.4 5646.89 252.36 5592.51 252.36 5561.35 296.3 5518.21 296.3 5518.21 712.52 5646.94 712.5 5646.93 692.35 5717.07 692.35 5717.07 372.35"/><path class="cls-5" d="M5682.69,461.5v1a2,2,0,0,0-1.74-1h-39.87l-.28,97.5h-57.92l-.19.26V544.92a3,3,0,0,0-3-3h-126a3,3,0,0,0-3,3V622.2h-12.06l-27.1-38.2h-54.35V543.85H5331.1V521.63l-91.72,1.59v20.63h-22.57v-66a2,2,0,0,0-2-2H5125a2,2,0,0,0-2,2V595.21h-49.28V517a2.14,2.14,0,0,0-2.14-2.13h-10.32c-4-21.16-20.87-37.28-41.42-38.45V441.08a2.41,2.41,0,1,0-4.81,0v35.31c-20.55,1.17-37.41,17.29-41.42,38.45h-10.32a2.14,2.14,0,0,0-2.14,2.13v45.28l-35,.61V531H4909V514.18h-42.35V531h-7.7V505.52h-42.35V531h-14.78V649.61h-24.23V596.75L4648.29,497.4v95.49h-30.51V534.21H4493.4v73.52l-36.2-27.81V463.71a2.27,2.27,0,0,0-2.27-2.27l-129.06,90.3v89.12h-25.43V509a3,3,0,0,0-3-3h-126a3,3,0,0,0-3,3V669.86h-12.7V639.57a2,2,0,0,0-2-2h-7.07V488.2H4109.1L4082,450h-90.34V578.46a2.12,2.12,0,0,0-1.5-.62h-10.32c-4-21.16-20.87-37.28-41.42-38.45V504.08a2.41,2.41,0,1,0-4.81,0v35.31a43.58,43.58,0,0,0-31.4,16.58V532.75L3773,450.36v141.5h-13V543.92a3,3,0,0,0-3-3H3631a3,3,0,0,0-3,3V621.2H3615.9L3588.8,583h-54.35V542.85h-26.06V520.63l-91.72,1.59v20.63H3394.1v-66a2,2,0,0,0-2-2h-89.73a2,2,0,0,0-2,2V594.21h-61.38v94.37L3200.32,664V582.85h-26.06V560.63l-70.81,1.23V530h-17.2V513.18H3043.9V530h-7.69V504.52h-42.35V530h-14.79V648.61h-24.22V595.75L2825.58,496.4v95.49h-30.52V533.21H2670.69v73.52l-36.19-27.81V462.71a2.28,2.28,0,0,0-2.27-2.27l-129.06,90.3v89.12h-25.44V508a3,3,0,0,0-3-3h-126a3,3,0,0,0-3,3V638.86H2332V608.57a2,2,0,0,0-2-2H2300.9V490.2h-37.52l-27.1-38.2H2146V556a43.69,43.69,0,0,0-32.24-17.64V503.08a2.41,2.41,0,1,0-4.81,0v35.31A43.54,43.54,0,0,0,2077.51,555V539.92L1948.24,460.5v1a2,2,0,0,0-1.74-1h-39.87L1906,671.83h-21.7l.32-103h-31V685.5h-31V540.92H1719.22a3,3,0,0,0-3,3V621.2h-12.06l-27.1-38.2h-54.35V542.85h-26.06V520.63l-91.72,1.59v20.63h-22.57v-66a2,2,0,0,0-2-2h-89.73a2,2,0,0,0-2,2V594.21h-49.28V516a2.14,2.14,0,0,0-2.14-2.13h-10.32c-4-21.16-20.87-37.28-41.42-38.45V440.08a2.41,2.41,0,1,0-4.81,0v35.31c-20.55,1.17-37.41,17.29-41.42,38.45h-10.32a2.14,2.14,0,0,0-2.14,2.13v45.28l-35,.61V530h-17.2V513.18h-42.35V530h-7.7V504.52h-42.35V530h-14.78V648.61H1043.1V595.75L913.84,496.4v95.49H883.33V533.21H759v73.52l-36.2-27.81V462.71a2.27,2.27,0,0,0-2.27-2.27l-129.06,90.3v89.12H566V508a3,3,0,0,0-3-3H437a3,3,0,0,0-3,3V638.86h-13.7V608.57a2,2,0,0,0-2-2H389.16V490.2H351.64L324.54,452H234.2V556A43.65,43.65,0,0,0,202,538.39V503.08a2.41,2.41,0,1,0-4.81,0v35.31A43.58,43.58,0,0,0,165.76,555V531.75L36.5,449.36v20.47H.89L-.06,787.26H40.76a2,2,0,0,0,2-2v-27H143.28V865.74a2.14,2.14,0,0,0,2.14,2.14H253.71a2.14,2.14,0,0,0,2.14-2.14V852.09h70.62v69.85a2,2,0,0,0,2,2h89.74a2,2,0,0,0,1.09-.32h79.43a3,3,0,0,0,2.22,1H627a3,3,0,0,0,3-3V820.24h77v72.32H836.22V842.31h5.92v31.37a3,3,0,0,0,3,3h126a3,3,0,0,0,3-3V822.19h43.93V930.4a3,3,0,0,0,3,3h123.65v21.76h143.84V804.88h38.59v98.43h124.38v-111h27.32v122.9h107.86v67.93h155V825.71h91v58.51a2,2,0,0,0,2,2h35v101a2,2,0,0,0,2,2h48.91l.61-202h25.21a2.07,2.07,0,0,0,2-2.1v-27H2055V865.74a2.14,2.14,0,0,0,2.14,2.14h108.3a2.14,2.14,0,0,0,2.13-2.14V852.09h70.62v69.85a2,2,0,0,0,2,2H2330a2,2,0,0,0,1.09-.32h79.44a3,3,0,0,0,2.21,1h126a3,3,0,0,0,3-3V820.24h77v72.32H2748V842.31h5.92v31.37a3,3,0,0,0,3,3h126a3,3,0,0,0,3-3V822.19h43.93V930.4a3,3,0,0,0,3,3h123.64v21.76h143.84v-14H3280V903.31h83.32v-111h27.32v122.9h107.86v67.93h92.26v69.85a2,2,0,0,0,2,2h89.73a2,2,0,0,0,2-2V877h65a2,2,0,0,0,1.09-.32h99.63a3,3,0,0,0,3-3V759.19h26.47V866.74a2.14,2.14,0,0,0,2.14,2.14h108.29a2.14,2.14,0,0,0,2.14-2.14V850.09h69.62V952.94a2,2,0,0,0,2,2h89.74a2,2,0,0,0,1.09-.32h99.63a3,3,0,0,0,3-3v-26h104a3,3,0,0,0,3-3V821.24h77v72.32h129.25V843.31h5.92v31.37a3,3,0,0,0,3,3h126a3,3,0,0,0,3-3V823.19h43.93V931.4a3,3,0,0,0,3,3h123.65v21.76H5023V805.88h38.59v98.43H5186v-111h27.32v122.9h107.86v67.93h155V826.71h42.12V959.09h154.95V788.26H5681a2.07,2.07,0,0,0,2-2.1v-27h76.95V540.92Z"/><polygon class="cls-6" points="5655.89 796.43 5646.94 796.43 3831.94 796.43 3735.89 796.43 1920.89 796.43 1911.94 796.43 0.89 796.43 0.89 1081.43 1911.94 1081.43 1920.89 1081.43 3735.89 1081.43 3831.94 1081.43 5646.94 1081.43 5655.89 1081.43 5762.94 1081.43 5762.94 796.43 5655.89 796.43"/><polygon class="cls-7" points="5655.89 751.43 5645.94 751.43 3830.94 751.43 3735.89 751.43 1920.89 751.43 1910.94 751.43 0.89 751.43 0.89 796.43 1910.94 796.43 1920.89 796.43 3735.89 796.43 3830.94 796.43 5645.94 796.43 5655.89 796.43 5761.94 796.43 5761.94 751.43 5655.89 751.43"/></svg>