<svg id="Layer_1" data-name="Layer 1" xmlns="http://www.w3.org/2000/svg" width="11519" height="1080" viewBox="0 0 11519 1080"><defs><style>.cls-1{fill:#8557a7;}.cls-2{fill:#fff;}.cls-3{fill:#662d91;}.cls-4{fill:#4d226d;}.cls-5{fill:#525266;}.cls-6{fill:#271137;}</style></defs><polygon class="cls-1" points="5858.94 315.5 5819.94 260.5 5759.94 260.5 5759.94 217.5 5705.94 217.5 5666.94 162.5 5606.94 162.5 5606.94 738.5 5759.94 738.5 5759.94 836.5 5912.94 836.5 5912.94 315.5 5858.94 315.5"/><path class="cls-2" d="M332.09,466.1l-4-11.56a1.21,1.21,0,0,0-1.12-.82l-12.24-.25a1.21,1.21,0,0,1-.71-2.18l9.76-7.4a1.21,1.21,0,0,0,.42-1.32l-3.54-11.71a1.22,1.22,0,0,1,1.86-1.35l10.05,7a1.22,1.22,0,0,0,1.39,0l10-7a1.22,1.22,0,0,1,1.86,1.35l-3.54,11.71a1.2,1.2,0,0,0,.43,1.32l9.75,7.4a1.21,1.21,0,0,1-.71,2.18l-12.24.25a1.21,1.21,0,0,0-1.12.82l-4,11.56A1.22,1.22,0,0,1,332.09,466.1Z"/><path class="cls-2" d="M564,366.49l-4-11.56a1.22,1.22,0,0,0-1.13-.81l-12.23-.25a1.22,1.22,0,0,1-.71-2.19l9.75-7.39a1.22,1.22,0,0,0,.43-1.32l-3.55-11.72a1.22,1.22,0,0,1,1.86-1.35l10.05,7a1.22,1.22,0,0,0,1.39,0l10-7a1.22,1.22,0,0,1,1.86,1.35L574.23,343a1.21,1.21,0,0,0,.43,1.32l9.75,7.39a1.22,1.22,0,0,1-.71,2.19l-12.23.25a1.22,1.22,0,0,0-1.13.81l-4,11.56A1.22,1.22,0,0,1,564,366.49Z"/><rect class="cls-1" x="1642.89" y="300.36" width="162" height="419" rx="3.07"/><rect class="cls-1" x="1456.89" y="198.36" width="135" height="457" rx="2.93"/><rect class="cls-1" x="216.89" y="283.36" width="190" height="410" rx="4.32"/><path class="cls-1" d="M645.62,160.36l-185.73,130V675.09a3.28,3.28,0,0,0,3.27,3.27H645.62a3.28,3.28,0,0,0,3.27-3.27V163.63A3.28,3.28,0,0,0,645.62,160.36Z"/><rect class="cls-1" x="695.89" y="244.36" width="179" height="445"/><path class="cls-1" d="M1052.28,213.56a8.34,8.34,0,0,0-14.12-.31L962.64,322.34a9.67,9.67,0,0,0-1.7,5.51V619.24c0,5.11,3.87,9.26,8.65,9.26h144.69c4.78,0,8.66-4.15,8.66-9.26V327.65a9.79,9.79,0,0,0-1.5-5.21Z"/><path class="cls-1" d="M1333.2,269.36h-25.59a3.19,3.19,0,0,1-3.19-3.19V240.56a3.19,3.19,0,0,0-3.19-3.2H1286.3a3.19,3.19,0,0,1-3.2-3.19V206.56a3.19,3.19,0,0,0-3.19-3.2h-16.23a3.18,3.18,0,0,1-3.15-2.72l-9.23-61.56a3.2,3.2,0,0,0-3.16-2.72h-.48a3.2,3.2,0,0,0-3.16,2.75l-8.76,61.51a3.19,3.19,0,0,1-3.16,2.74h-16.2a3.2,3.2,0,0,0-3.2,3.2v27.61a3.19,3.19,0,0,1-3.19,3.19h-14.93a3.19,3.19,0,0,0-3.19,3.2v25.61a3.19,3.19,0,0,1-3.19,3.19h-25.59a3.2,3.2,0,0,0-3.2,3.2V802.17a3.19,3.19,0,0,0,3.2,3.19H1333.2a3.19,3.19,0,0,0,3.19-3.19V272.56A3.19,3.19,0,0,0,1333.2,269.36Z"/><polygon class="cls-1" points="60.89 165.36 0.89 165.36 0.89 741.36 153.89 741.36 153.89 220.36 99.89 220.36 60.89 165.36"/><rect class="cls-3" x="1556.31" y="427.32" width="151.79" height="386.19" transform="translate(3264.41 1240.83) rotate(-180)"/><path class="cls-3" d="M1363.9,727.49h146.16a2.42,2.42,0,0,0,2.41-2.42V353.73a2.41,2.41,0,0,0-1-2L1365.25,249.42a2.37,2.37,0,0,0-3.76,1.77V725.07A2.42,2.42,0,0,0,1363.9,727.49Z"/><rect class="cls-3" x="1178.28" y="360.87" width="143" height="355.5" transform="translate(2499.55 1077.25) rotate(-180)"/><path class="cls-3" d="M992.17,744.48h124.12a12.24,12.24,0,0,0,12.24-12.23l0-337.62a12.23,12.23,0,0,0-19.69-9.7L984.71,480.37a12.24,12.24,0,0,0-4.77,9.7V732.24A12.23,12.23,0,0,0,992.17,744.48Z"/><rect class="cls-3" x="484.64" y="313.78" width="107.85" height="365.09" rx="2.34" transform="translate(1077.13 992.64) rotate(-180)"/><rect class="cls-3" x="99.42" y="423.69" width="151.79" height="327.54" rx="3.45" transform="translate(350.62 1174.92) rotate(-180)"/><polygon class="cls-3" points="-0.06 691.35 71.04 691.35 71.07 316.66 -0.06 371.35 -0.06 691.35"/><polygon class="cls-3" points="303.24 381.61 303.24 356.05 408.69 357.88 408.69 381.61 438.65 381.61 438.65 809.81 273.28 809.81 273.28 381.61 303.24 381.61"/><rect class="cls-3" x="1729.32" y="400.31" width="107.85" height="365.09" rx="2.34" transform="translate(3566.48 1165.71) rotate(-180)"/><rect class="cls-3" x="639.14" y="379.99" width="129.42" height="334.73" rx="2.46" transform="translate(1407.7 1094.72) rotate(-180)"/><ellipse class="cls-3" cx="703.85" cy="391.14" rx="51.43" ry="55.45"/><rect class="cls-3" x="701.09" y="292.4" width="5.53" height="55.33" rx="2.77"/><rect class="cls-3" x="806.49" y="338.74" width="143" height="355.5" transform="translate(1755.98 1032.99) rotate(-180)"/><rect class="cls-3" x="883.8" y="309.47" width="48.69" height="36.51"/><rect class="cls-3" x="826.26" y="319.43" width="48.69" height="36.51"/><polygon class="cls-4" points="1976.89 912.56 1847.7 912.56 1847.68 586.77 1976.89 686.12 1976.89 912.56"/><rect class="cls-4" x="1678.34" y="737.54" width="93.77" height="317.43" rx="2.04"/><path class="cls-4" d="M1846.19,464.74V732a2.28,2.28,0,0,0,2.28,2.27h62.47V419.42Z"/><path class="cls-2" d="M2033.36,302.54l-4-11.56a1.22,1.22,0,0,0-1.12-.82l-12.24-.25a1.21,1.21,0,0,1-.71-2.18l9.75-7.4a1.2,1.2,0,0,0,.43-1.32l-3.54-11.71a1.22,1.22,0,0,1,1.86-1.36l10,7a1.22,1.22,0,0,0,1.39,0l10-7a1.22,1.22,0,0,1,1.86,1.36L2043.56,279a1.24,1.24,0,0,0,.43,1.32l9.76,7.4a1.22,1.22,0,0,1-.71,2.18l-12.24.25a1.21,1.21,0,0,0-1.12.82l-4,11.56A1.22,1.22,0,0,1,2033.36,302.54Z"/><path class="cls-2" d="M2243.09,466.1l-4-11.56a1.21,1.21,0,0,0-1.12-.82l-12.24-.25a1.21,1.21,0,0,1-.71-2.18l9.76-7.4a1.21,1.21,0,0,0,.42-1.32l-3.54-11.71a1.22,1.22,0,0,1,1.86-1.35l10.05,7a1.22,1.22,0,0,0,1.39,0l10-7a1.22,1.22,0,0,1,1.86,1.35l-3.54,11.71a1.2,1.2,0,0,0,.43,1.32l9.75,7.4a1.21,1.21,0,0,1-.71,2.18l-12.24.25a1.21,1.21,0,0,0-1.12.82l-4,11.56A1.22,1.22,0,0,1,2243.09,466.1Z"/><path class="cls-2" d="M2475,366.49l-4-11.56a1.22,1.22,0,0,0-1.13-.81l-12.23-.25a1.22,1.22,0,0,1-.71-2.19l9.75-7.39a1.22,1.22,0,0,0,.43-1.32l-3.55-11.72a1.22,1.22,0,0,1,1.86-1.35l10.05,7a1.22,1.22,0,0,0,1.39,0l10-7a1.22,1.22,0,0,1,1.86,1.35L2485.23,343a1.21,1.21,0,0,0,.43,1.32l9.75,7.39a1.22,1.22,0,0,1-.71,2.19l-12.23.25a1.22,1.22,0,0,0-1.13.81l-4,11.56A1.22,1.22,0,0,1,2475,366.49Z"/><rect class="cls-1" x="2104.94" y="283.5" width="190" height="410" rx="4.32"/><path class="cls-1" d="M2556.62,678.36H2374.16a3.28,3.28,0,0,1-3.27-3.27V290.36l185.73-130a3.28,3.28,0,0,1,3.27,3.27V675.09A3.28,3.28,0,0,1,2556.62,678.36Z"/><rect class="cls-1" x="2606.89" y="244.36" width="179" height="445"/><path class="cls-1" d="M2981.24,636.36H2836.55c-4.78,0-8.66-4.14-8.66-9.26V335.72a9.7,9.7,0,0,1,1.7-5.51l75.53-109.1a8.33,8.33,0,0,1,14.11.31l69.17,108.89a9.75,9.75,0,0,1,1.49,5.2V627.1C2989.89,632.22,2986,636.36,2981.24,636.36Z"/><rect class="cls-1" x="3526.94" y="325.5" width="162" height="419"/><rect class="cls-1" x="3367.89" y="198.36" width="135" height="457" rx="2.93"/><path class="cls-1" d="M3185.42,153.17V127.56a3.19,3.19,0,0,0-3.19-3.2H3167.3a3.19,3.19,0,0,1-3.2-3.19V93.56a3.19,3.19,0,0,0-3.19-3.2h-16.23a3.18,3.18,0,0,1-3.15-2.72l-9.23-61.56a3.2,3.2,0,0,0-3.16-2.72h-.48a3.2,3.2,0,0,0-3.16,2.75l-8.76,61.51a3.19,3.19,0,0,1-3.16,2.74h-16.2a3.2,3.2,0,0,0-3.2,3.2v27.61a3.19,3.19,0,0,1-3.19,3.19h-14.93a3.19,3.19,0,0,0-3.19,3.2v25.61a3.19,3.19,0,0,1-3.19,3.19h-25.59a3.2,3.2,0,0,0-3.2,3.2V689.17a3.19,3.19,0,0,0,3.2,3.19H3214.2a3.19,3.19,0,0,0,3.19-3.19V159.56a3.19,3.19,0,0,0-3.19-3.2h-25.59A3.19,3.19,0,0,1,3185.42,153.17Z"/><polygon class="cls-1" points="1892.94 741.5 2045.94 741.5 2045.94 220.5 1991.94 220.5 1952.94 165.5 1892.94 165.5 1892.94 741.5"/><rect class="cls-3" x="3467.31" y="427.32" width="151.79" height="386.19" transform="translate(7086.41 1240.83) rotate(-180)"/><path class="cls-3" d="M3274.9,727.49h146.16a2.42,2.42,0,0,0,2.41-2.42V353.73a2.41,2.41,0,0,0-1-2L3276.25,249.42a2.37,2.37,0,0,0-3.76,1.77V725.07A2.42,2.42,0,0,0,3274.9,727.49Z"/><rect class="cls-3" x="3148.28" y="356.87" width="143" height="355.5" transform="translate(6439.55 1069.25) rotate(-180)"/><path class="cls-3" d="M2933.17,740.48h124.12a12.24,12.24,0,0,0,12.24-12.23l0-337.62a12.23,12.23,0,0,0-19.69-9.7l-124.15,95.44a12.24,12.24,0,0,0-4.77,9.7V728.24A12.23,12.23,0,0,0,2933.17,740.48Z"/><rect class="cls-3" x="2395.64" y="313.78" width="107.85" height="365.09" rx="2.34" transform="translate(4899.13 992.64) rotate(-180)"/><rect class="cls-3" x="2010.42" y="423.69" width="151.79" height="327.54" rx="3.45" transform="translate(4172.62 1174.92) rotate(-180)"/><polygon class="cls-3" points="1982.07 371.35 1911.9 317.4 1911.89 251.36 1857.51 251.36 1826.35 295.3 1783.21 295.3 1783.21 711.52 1911.94 711.5 1911.93 691.35 1982.07 691.35 1982.07 371.35"/><polygon class="cls-3" points="2214.24 381.61 2214.24 356.05 2319.69 357.88 2319.69 381.61 2349.65 381.61 2349.65 809.81 2184.28 809.81 2184.28 381.61 2214.24 381.61"/><rect class="cls-3" x="3640.32" y="400.31" width="107.85" height="365.09" rx="2.34" transform="translate(7388.48 1165.71) rotate(-180)"/><rect class="cls-3" x="2550.14" y="379.99" width="129.42" height="334.73" rx="2.46" transform="translate(5229.7 1094.72) rotate(-180)"/><ellipse class="cls-3" cx="2614.85" cy="391.14" rx="51.43" ry="55.45"/><rect class="cls-3" x="2612.09" y="292.4" width="5.53" height="55.33" rx="2.77"/><rect class="cls-3" x="2741.49" y="361.74" width="143" height="355.5" transform="translate(5625.98 1078.99) rotate(-180)"/><rect class="cls-3" x="2818.8" y="332.47" width="48.69" height="36.51"/><rect class="cls-3" x="2761.26" y="342.43" width="48.69" height="36.51"/><path class="cls-4" d="M3738.94,785.26h40.81a2,2,0,0,0,2-2V469.86a2,2,0,0,0-2-2h-39.86Z"/><path class="cls-2" d="M3857.36,303.54l-4-11.56a1.22,1.22,0,0,0-1.12-.82l-12.24-.25a1.21,1.21,0,0,1-.71-2.18l9.75-7.4a1.2,1.2,0,0,0,.43-1.32l-3.54-11.71a1.22,1.22,0,0,1,1.86-1.36l10,7a1.22,1.22,0,0,0,1.39,0l10.05-7a1.22,1.22,0,0,1,1.86,1.36L3867.56,280a1.24,1.24,0,0,0,.43,1.32l9.76,7.4a1.22,1.22,0,0,1-.71,2.18l-12.24.25a1.21,1.21,0,0,0-1.12.82l-4,11.56A1.22,1.22,0,0,1,3857.36,303.54Z"/><path class="cls-2" d="M4067.09,467.1l-4-11.56a1.21,1.21,0,0,0-1.12-.82l-12.24-.25a1.21,1.21,0,0,1-.71-2.18l9.76-7.4a1.21,1.21,0,0,0,.42-1.32l-3.54-11.71a1.22,1.22,0,0,1,1.86-1.35l10.05,7a1.22,1.22,0,0,0,1.39,0l10-7a1.22,1.22,0,0,1,1.86,1.35l-3.54,11.71a1.2,1.2,0,0,0,.43,1.32l9.75,7.4a1.21,1.21,0,0,1-.71,2.18l-12.24.25a1.21,1.21,0,0,0-1.12.82l-4,11.56A1.22,1.22,0,0,1,4067.09,467.1Z"/><path class="cls-2" d="M4299,367.49l-4-11.56a1.22,1.22,0,0,0-1.13-.81l-12.23-.25a1.22,1.22,0,0,1-.71-2.19l9.75-7.39a1.22,1.22,0,0,0,.43-1.32l-3.55-11.72a1.22,1.22,0,0,1,1.86-1.35l10,7a1.22,1.22,0,0,0,1.39,0l10-7a1.22,1.22,0,0,1,1.86,1.35L4309.23,344a1.21,1.21,0,0,0,.43,1.32l9.75,7.39a1.22,1.22,0,0,1-.71,2.19l-12.23.25a1.22,1.22,0,0,0-1.13.81l-4,11.56A1.22,1.22,0,0,1,4299,367.49Z"/><rect class="cls-1" x="3951.89" y="284.36" width="190" height="410" rx="4.32"/><path class="cls-1" d="M4364.67,576.5H4182.21a3.28,3.28,0,0,1-3.27-3.27V188.5l185.73-130a3.28,3.28,0,0,1,3.27,3.27V573.23A3.28,3.28,0,0,1,4364.67,576.5Z"/><rect class="cls-1" x="4437.94" y="204.5" width="179" height="445"/><path class="cls-1" d="M4872.28,784.5H4727.59c-4.78,0-8.65-6.41-8.65-14.32V319.54a21,21,0,0,1,1.7-8.52l75.52-168.72c3.55-7.93,10.77-7.69,14.12.47l69.16,168.4a21.6,21.6,0,0,1,1.5,8.05v451C4880.94,778.09,4877.06,784.5,4872.28,784.5Z"/><rect class="cls-1" x="5377.94" y="337.5" width="162" height="419" rx="3.07"/><rect class="cls-1" x="5191.89" y="199.36" width="135" height="457" rx="2.93"/><path class="cls-1" d="M5039.42,267.17V241.56a3.19,3.19,0,0,0-3.19-3.2H5021.3a3.19,3.19,0,0,1-3.2-3.19V207.56a3.19,3.19,0,0,0-3.19-3.2h-16.23a3.18,3.18,0,0,1-3.15-2.72l-9.23-61.56a3.2,3.2,0,0,0-3.16-2.72h-.48a3.2,3.2,0,0,0-3.16,2.75l-8.76,61.51a3.19,3.19,0,0,1-3.16,2.74h-16.2a3.2,3.2,0,0,0-3.2,3.2v27.61a3.19,3.19,0,0,1-3.19,3.19h-14.93a3.19,3.19,0,0,0-3.19,3.2v25.61a3.19,3.19,0,0,1-3.19,3.19h-25.59a3.2,3.2,0,0,0-3.2,3.2V803.17a3.19,3.19,0,0,0,3.2,3.19H5068.2a3.19,3.19,0,0,0,3.19-3.19V273.56a3.19,3.19,0,0,0-3.19-3.2h-25.59A3.19,3.19,0,0,1,5039.42,267.17Z"/><polygon class="cls-1" points="3735.89 742.36 3888.89 742.36 3888.89 221.36 3834.89 221.36 3795.89 166.36 3735.89 166.36 3735.89 742.36"/><rect class="cls-3" x="5275.31" y="427.32" width="151.79" height="386.19" transform="translate(10702.41 1240.83) rotate(-180)"/><path class="cls-3" d="M5098.9,728.49h146.16a2.42,2.42,0,0,0,2.41-2.42V354.73a2.41,2.41,0,0,0-1-2L5100.25,250.42a2.37,2.37,0,0,0-3.76,1.77V726.07A2.42,2.42,0,0,0,5098.9,728.49Z"/><rect class="cls-3" x="4913.28" y="361.87" width="143" height="355.5" transform="translate(9969.55 1079.25) rotate(-180)"/><path class="cls-3" d="M4727.17,745.48h124.12a12.24,12.24,0,0,0,12.24-12.23l0-337.62a12.23,12.23,0,0,0-19.69-9.7l-124.15,95.44a12.24,12.24,0,0,0-4.77,9.7V733.24A12.23,12.23,0,0,0,4727.17,745.48Z"/><rect class="cls-3" x="4219.64" y="314.78" width="107.85" height="365.09" rx="2.34" transform="translate(8547.13 994.64) rotate(-180)"/><rect class="cls-3" x="3834.42" y="424.69" width="151.79" height="327.54" rx="3.45" transform="translate(7820.62 1176.92) rotate(-180)"/><polygon class="cls-3" points="3734.94 766.5 3806.04 766.5 3806.07 317.66 3734.94 383.17 3734.94 766.5"/><polygon class="cls-3" points="4007.24 390.61 4007.24 365.05 4112.69 366.88 4112.69 390.61 4142.65 390.61 4142.65 818.81 3977.28 818.81 3977.28 390.61 4007.24 390.61"/><rect class="cls-3" x="5464.32" y="401.31" width="107.85" height="365.09" rx="2.34" transform="translate(11036.48 1167.71) rotate(-180)"/><rect class="cls-3" x="4374.14" y="380.99" width="129.42" height="334.73" rx="2.46" transform="translate(8877.7 1096.72) rotate(-180)"/><ellipse class="cls-3" cx="4438.85" cy="392.14" rx="51.43" ry="55.45"/><rect class="cls-3" x="4436.09" y="293.4" width="5.53" height="55.33" rx="2.77"/><rect class="cls-3" x="4541.49" y="339.74" width="143" height="355.5" transform="translate(9225.98 1034.99) rotate(-180)"/><rect class="cls-3" x="4618.8" y="310.47" width="48.69" height="36.51"/><rect class="cls-3" x="4561.26" y="320.43" width="48.69" height="36.51"/><polygon class="cls-4" points="5711.89 913.56 5582.7 913.56 5582.68 587.77 5711.89 687.12 5711.89 913.56"/><rect class="cls-4" x="5413.34" y="738.54" width="93.77" height="317.43" rx="2.04"/><path class="cls-4" d="M5581.19,465.74V733a2.28,2.28,0,0,0,2.28,2.27h62.47V420.42Z"/><polygon class="cls-3" points="5717.07 372.35 5646.9 318.4 5646.89 252.36 5592.51 252.36 5561.35 296.3 5518.21 296.3 5518.21 712.52 5646.94 712.5 5646.93 692.35 5717.07 692.35 5717.07 372.35"/><path class="cls-2" d="M6086.6,465.75l-4-11.56a1.22,1.22,0,0,0-1.12-.82l-12.24-.24a1.22,1.22,0,0,1-.71-2.19l9.76-7.39a1.25,1.25,0,0,0,.43-1.33l-3.55-11.71a1.22,1.22,0,0,1,1.86-1.35l10.05,7a1.22,1.22,0,0,0,1.39,0l10-7a1.22,1.22,0,0,1,1.86,1.35l-3.54,11.71a1.22,1.22,0,0,0,.43,1.33l9.75,7.39a1.22,1.22,0,0,1-.71,2.19l-12.24.24a1.23,1.23,0,0,0-1.12.82l-4,11.56A1.22,1.22,0,0,1,6086.6,465.75Z"/><path class="cls-2" d="M6318.54,366.15l-4-11.56a1.23,1.23,0,0,0-1.13-.82l-12.23-.25a1.22,1.22,0,0,1-.71-2.19l9.75-7.39a1.22,1.22,0,0,0,.43-1.32l-3.55-11.72a1.22,1.22,0,0,1,1.86-1.35l10.05,7a1.19,1.19,0,0,0,1.39,0l10.05-7a1.21,1.21,0,0,1,1.85,1.35l-3.54,11.72a1.2,1.2,0,0,0,.43,1.32l9.75,7.39a1.22,1.22,0,0,1-.71,2.19l-12.23.25a1.23,1.23,0,0,0-1.13.82l-4,11.56A1.21,1.21,0,0,1,6318.54,366.15Z"/><rect class="cls-1" x="7397.4" y="300.02" width="162" height="419" rx="3.07"/><rect class="cls-1" x="7211.4" y="198.02" width="135" height="457" rx="2.93"/><rect class="cls-1" x="5971.4" y="283.02" width="190" height="410" rx="4.32"/><path class="cls-1" d="M6400.14,160,6214.4,290V674.75a3.28,3.28,0,0,0,3.27,3.27h182.47a3.28,3.28,0,0,0,3.26-3.27V163.29A3.28,3.28,0,0,0,6400.14,160Z"/><rect class="cls-1" x="6450.4" y="244.02" width="179" height="445"/><path class="cls-1" d="M6806.79,213.21a8.34,8.34,0,0,0-14.12-.31L6717.15,322a9.62,9.62,0,0,0-1.7,5.51V618.89c0,5.12,3.87,9.26,8.65,9.26h144.69c4.78,0,8.66-4.14,8.66-9.26V327.3a9.67,9.67,0,0,0-1.5-5.2Z"/><path class="cls-1" d="M7087.71,269h-25.59a3.19,3.19,0,0,1-3.19-3.2V240.21a3.19,3.19,0,0,0-3.19-3.19h-14.93a3.2,3.2,0,0,1-3.2-3.2V206.21a3.19,3.19,0,0,0-3.19-3.19h-16.23a3.19,3.19,0,0,1-3.15-2.72l-9.23-61.56a3.19,3.19,0,0,0-3.16-2.72h-.48a3.2,3.2,0,0,0-3.16,2.74l-8.75,61.51a3.21,3.21,0,0,1-3.17,2.75h-16.2a3.19,3.19,0,0,0-3.19,3.19v27.61a3.2,3.2,0,0,1-3.2,3.2h-14.93a3.19,3.19,0,0,0-3.19,3.19v25.61a3.19,3.19,0,0,1-3.19,3.2H6917.6a3.19,3.19,0,0,0-3.2,3.19V801.82a3.2,3.2,0,0,0,3.2,3.2h170.11a3.19,3.19,0,0,0,3.19-3.2V272.21A3.19,3.19,0,0,0,7087.71,269Z"/><rect class="cls-3" x="7310.82" y="426.97" width="151.79" height="386.19" transform="translate(14773.43 1240.14) rotate(-180)"/><path class="cls-3" d="M7118.41,727.14h146.16a2.41,2.41,0,0,0,2.41-2.42V353.39a2.4,2.4,0,0,0-1-2L7119.76,249.08a2.37,2.37,0,0,0-3.76,1.76V724.72A2.41,2.41,0,0,0,7118.41,727.14Z"/><rect class="cls-3" x="6932.79" y="360.53" width="143" height="355.5" transform="translate(14008.57 1076.55) rotate(-180)"/><path class="cls-3" d="M6746.68,744.13H6870.8A12.23,12.23,0,0,0,6883,731.9l0-337.62a12.24,12.24,0,0,0-19.69-9.7L6739.23,480a12.21,12.21,0,0,0-4.78,9.7V731.9A12.23,12.23,0,0,0,6746.68,744.13Z"/><rect class="cls-3" x="6239.15" y="313.43" width="107.85" height="365.09" rx="2.34" transform="translate(12586.15 991.95) rotate(-180)"/><rect class="cls-3" x="5853.93" y="423.34" width="151.79" height="327.54" rx="3.45" transform="translate(11859.65 1174.23) rotate(-180)"/><polygon class="cls-3" points="5754.45 691.01 5825.55 691.01 5825.58 316.31 5754.45 371 5754.45 691.01"/><polygon class="cls-3" points="6057.75 381.26 6057.75 355.7 6163.2 357.54 6163.2 381.26 6193.16 381.26 6193.16 809.46 6027.79 809.46 6027.79 381.26 6057.75 381.26"/><rect class="cls-3" x="7483.83" y="399.97" width="107.85" height="365.09" rx="2.34" transform="translate(15075.5 1165.02) rotate(-180)"/><rect class="cls-3" x="6393.65" y="379.65" width="129.42" height="334.73" rx="2.46" transform="translate(12916.73 1094.02) rotate(-180)"/><ellipse class="cls-3" cx="6458.36" cy="390.79" rx="51.43" ry="55.45"/><rect class="cls-3" x="6455.6" y="292.05" width="5.53" height="55.33" rx="2.77"/><rect class="cls-3" x="6561" y="338.4" width="143" height="355.5" transform="translate(13265 1032.29) rotate(-180)"/><rect class="cls-3" x="6638.31" y="309.12" width="48.69" height="36.51"/><rect class="cls-3" x="6580.77" y="319.08" width="48.69" height="36.51"/><polygon class="cls-4" points="7731.4 912.21 7602.21 912.21 7602.19 586.42 7731.4 685.77 7731.4 912.21"/><rect class="cls-4" x="7432.85" y="737.19" width="93.77" height="317.43" rx="2.04"/><path class="cls-4" d="M7600.71,464.39V731.62a2.27,2.27,0,0,0,2.27,2.27h62.47V419.07Z"/><path class="cls-2" d="M7787.87,302.19l-4-11.56a1.22,1.22,0,0,0-1.12-.82l-12.24-.25a1.21,1.21,0,0,1-.71-2.18l9.75-7.4a1.2,1.2,0,0,0,.43-1.32L7776.42,267a1.22,1.22,0,0,1,1.86-1.35l10,7a1.22,1.22,0,0,0,1.39,0l10.05-7a1.22,1.22,0,0,1,1.86,1.35l-3.55,11.71a1.23,1.23,0,0,0,.43,1.32l9.76,7.4a1.21,1.21,0,0,1-.71,2.18l-12.24.25a1.21,1.21,0,0,0-1.12.82l-4,11.56A1.22,1.22,0,0,1,7787.87,302.19Z"/><path class="cls-2" d="M7997.6,465.75l-4-11.56a1.22,1.22,0,0,0-1.12-.82l-12.24-.24a1.22,1.22,0,0,1-.71-2.19l9.76-7.39a1.25,1.25,0,0,0,.43-1.33l-3.55-11.71a1.22,1.22,0,0,1,1.86-1.35l10.05,7a1.22,1.22,0,0,0,1.39,0l10-7a1.22,1.22,0,0,1,1.86,1.35l-3.54,11.71a1.22,1.22,0,0,0,.43,1.33l9.75,7.39a1.22,1.22,0,0,1-.71,2.19l-12.24.24a1.23,1.23,0,0,0-1.12.82l-4,11.56A1.22,1.22,0,0,1,7997.6,465.75Z"/><path class="cls-2" d="M8229.54,366.15l-4-11.56a1.23,1.23,0,0,0-1.13-.82l-12.23-.25a1.22,1.22,0,0,1-.71-2.19l9.75-7.39a1.22,1.22,0,0,0,.43-1.32l-3.55-11.72a1.22,1.22,0,0,1,1.86-1.35l10,7a1.19,1.19,0,0,0,1.39,0l10.05-7a1.21,1.21,0,0,1,1.85,1.35l-3.54,11.72a1.2,1.2,0,0,0,.43,1.32l9.75,7.39a1.22,1.22,0,0,1-.71,2.19l-12.23.25a1.23,1.23,0,0,0-1.13.82l-4,11.56A1.21,1.21,0,0,1,8229.54,366.15Z"/><rect class="cls-1" x="7859.45" y="283.15" width="190" height="410" rx="4.32"/><path class="cls-1" d="M8311.14,678H8128.67a3.28,3.28,0,0,1-3.27-3.27V290l185.74-130a3.28,3.28,0,0,1,3.26,3.27V674.75A3.28,3.28,0,0,1,8311.14,678Z"/><rect class="cls-1" x="8361.4" y="244.02" width="179" height="445"/><path class="cls-1" d="M8735.75,636H8591.06c-4.78,0-8.66-4.15-8.66-9.26V335.37a9.75,9.75,0,0,1,1.7-5.51l75.53-109.09a8.34,8.34,0,0,1,14.12.3L8742.91,330a9.77,9.77,0,0,1,1.49,5.2v291.6C8744.4,631.87,8740.53,636,8735.75,636Z"/><rect class="cls-1" x="9281.45" y="325.15" width="162" height="419"/><rect class="cls-1" x="9122.4" y="198.02" width="135" height="457" rx="2.93"/><path class="cls-1" d="M8939.93,152.82V127.21a3.19,3.19,0,0,0-3.19-3.19h-14.93a3.2,3.2,0,0,1-3.2-3.2V93.21a3.19,3.19,0,0,0-3.19-3.19h-16.23A3.19,3.19,0,0,1,8896,87.3l-9.23-61.56a3.19,3.19,0,0,0-3.16-2.72h-.48a3.2,3.2,0,0,0-3.16,2.74l-8.75,61.51a3.21,3.21,0,0,1-3.17,2.75h-16.2a3.19,3.19,0,0,0-3.19,3.19v27.61a3.2,3.2,0,0,1-3.2,3.2h-14.93a3.19,3.19,0,0,0-3.19,3.19v25.61a3.19,3.19,0,0,1-3.19,3.2H8798.6a3.19,3.19,0,0,0-3.2,3.19V688.82a3.2,3.2,0,0,0,3.2,3.2h170.11a3.19,3.19,0,0,0,3.19-3.2V159.21a3.19,3.19,0,0,0-3.19-3.19h-25.59A3.19,3.19,0,0,1,8939.93,152.82Z"/><polygon class="cls-1" points="7647.45 741.15 7800.45 741.15 7800.45 220.15 7746.45 220.15 7707.45 165.15 7647.45 165.15 7647.45 741.15"/><rect class="cls-3" x="9221.82" y="426.97" width="151.79" height="386.19" transform="translate(18595.43 1240.14) rotate(-180)"/><path class="cls-3" d="M9029.41,727.14h146.16a2.41,2.41,0,0,0,2.41-2.42V353.39a2.4,2.4,0,0,0-1-2L9030.76,249.08a2.37,2.37,0,0,0-3.76,1.76V724.72A2.41,2.41,0,0,0,9029.41,727.14Z"/><rect class="cls-3" x="8902.79" y="356.53" width="143" height="355.5" transform="translate(17948.57 1068.55) rotate(-180)"/><path class="cls-3" d="M8687.68,740.13H8811.8A12.23,12.23,0,0,0,8824,727.9l0-337.62a12.24,12.24,0,0,0-19.69-9.7L8680.23,476a12.21,12.21,0,0,0-4.78,9.7V727.9A12.23,12.23,0,0,0,8687.68,740.13Z"/><rect class="cls-3" x="8150.15" y="313.43" width="107.85" height="365.09" rx="2.34" transform="translate(16408.15 991.95) rotate(-180)"/><rect class="cls-3" x="7764.93" y="423.34" width="151.79" height="327.54" rx="3.45" transform="translate(15681.65 1174.23) rotate(-180)"/><polygon class="cls-3" points="7736.58 371 7666.41 317.05 7666.4 251.02 7612.02 251.02 7580.86 294.95 7537.73 294.95 7537.73 711.17 7666.45 711.15 7666.44 691.01 7736.58 691.01 7736.58 371"/><polygon class="cls-3" points="7968.75 381.26 7968.75 355.7 8074.2 357.54 8074.2 381.26 8104.16 381.26 8104.16 809.46 7938.79 809.46 7938.79 381.26 7968.75 381.26"/><rect class="cls-3" x="9394.83" y="399.97" width="107.85" height="365.09" rx="2.34" transform="translate(18897.5 1165.02) rotate(-180)"/><rect class="cls-3" x="8304.65" y="379.65" width="129.42" height="334.73" rx="2.46" transform="translate(16738.73 1094.02) rotate(-180)"/><ellipse class="cls-3" cx="8369.36" cy="390.79" rx="51.43" ry="55.45"/><rect class="cls-3" x="8366.6" y="292.05" width="5.53" height="55.33" rx="2.77"/><rect class="cls-3" x="8496" y="361.4" width="143" height="355.5" transform="translate(17135 1078.29) rotate(-180)"/><rect class="cls-3" x="8573.31" y="332.12" width="48.69" height="36.51"/><rect class="cls-3" x="8515.77" y="342.08" width="48.69" height="36.51"/><path class="cls-4" d="M9493.45,784.91h40.81a2,2,0,0,0,2-2V469.51a2,2,0,0,0-2-2H9494.4Z"/><path class="cls-2" d="M9611.87,303.19l-4-11.56a1.22,1.22,0,0,0-1.12-.82l-12.24-.25a1.21,1.21,0,0,1-.71-2.18l9.75-7.4a1.2,1.2,0,0,0,.43-1.32L9600.42,268a1.22,1.22,0,0,1,1.86-1.35l10,7a1.22,1.22,0,0,0,1.39,0l10.05-7a1.22,1.22,0,0,1,1.86,1.35l-3.55,11.71a1.23,1.23,0,0,0,.43,1.32l9.76,7.4a1.21,1.21,0,0,1-.71,2.18l-12.24.25a1.21,1.21,0,0,0-1.12.82l-4,11.56A1.22,1.22,0,0,1,9611.87,303.19Z"/><path class="cls-2" d="M9821.6,466.75l-4-11.56a1.22,1.22,0,0,0-1.12-.82l-12.24-.24a1.22,1.22,0,0,1-.71-2.19l9.76-7.39a1.25,1.25,0,0,0,.43-1.33l-3.55-11.71a1.22,1.22,0,0,1,1.86-1.35l10,7a1.22,1.22,0,0,0,1.39,0l10-7a1.22,1.22,0,0,1,1.86,1.35l-3.54,11.71a1.22,1.22,0,0,0,.43,1.33l9.75,7.39a1.22,1.22,0,0,1-.71,2.19l-12.24.24a1.23,1.23,0,0,0-1.12.82l-4,11.56A1.22,1.22,0,0,1,9821.6,466.75Z"/><path class="cls-2" d="M10053.54,367.15l-4-11.56a1.23,1.23,0,0,0-1.13-.82l-12.23-.25a1.22,1.22,0,0,1-.71-2.19l9.75-7.39a1.22,1.22,0,0,0,.43-1.32l-3.55-11.72a1.22,1.22,0,0,1,1.86-1.35l10,7a1.19,1.19,0,0,0,1.39,0l10.05-7a1.21,1.21,0,0,1,1.85,1.35l-3.54,11.72a1.2,1.2,0,0,0,.43,1.32l9.75,7.39a1.22,1.22,0,0,1-.71,2.19l-12.23.25a1.23,1.23,0,0,0-1.13.82l-4,11.56A1.21,1.21,0,0,1,10053.54,367.15Z"/><rect class="cls-1" x="9706.4" y="284.02" width="190" height="410" rx="4.32"/><path class="cls-1" d="M10119.18,576.15H9936.72a3.28,3.28,0,0,1-3.27-3.27V188.15l185.73-130a3.28,3.28,0,0,1,3.27,3.27V572.88A3.28,3.28,0,0,1,10119.18,576.15Z"/><rect class="cls-1" x="10192.45" y="204.15" width="179" height="445"/><path class="cls-1" d="M10626.79,784.15H10482.1c-4.78,0-8.65-6.41-8.65-14.32V319.19a21.07,21.07,0,0,1,1.7-8.52L10550.67,142c3.55-7.93,10.77-7.68,14.12.48l69.16,168.4a21.31,21.31,0,0,1,1.5,8v451C10635.45,777.74,10631.57,784.15,10626.79,784.15Z"/><rect class="cls-1" x="11132.45" y="337.15" width="162" height="419" rx="3.07"/><rect class="cls-1" x="10946.4" y="199.02" width="135" height="457" rx="2.93"/><path class="cls-1" d="M10793.93,266.82V241.21a3.19,3.19,0,0,0-3.19-3.19h-14.93a3.2,3.2,0,0,1-3.2-3.2V207.21a3.19,3.19,0,0,0-3.19-3.19h-16.23a3.19,3.19,0,0,1-3.15-2.72l-9.23-61.56a3.19,3.19,0,0,0-3.16-2.72h-.48a3.2,3.2,0,0,0-3.16,2.74l-8.75,61.51a3.21,3.21,0,0,1-3.17,2.75h-16.2a3.19,3.19,0,0,0-3.19,3.19v27.61a3.2,3.2,0,0,1-3.2,3.2h-14.93a3.19,3.19,0,0,0-3.19,3.19v25.61a3.19,3.19,0,0,1-3.19,3.2h-25.59a3.19,3.19,0,0,0-3.2,3.19V802.82a3.2,3.2,0,0,0,3.2,3.2h170.11a3.19,3.19,0,0,0,3.19-3.2V273.21a3.19,3.19,0,0,0-3.19-3.19h-25.59A3.19,3.19,0,0,1,10793.93,266.82Z"/><polygon class="cls-1" points="9490.4 742.02 9643.4 742.02 9643.4 221.02 9589.4 221.02 9550.4 166.02 9490.4 166.02 9490.4 742.02"/><rect class="cls-3" x="11045.82" y="427.97" width="151.79" height="386.19" transform="translate(22243.43 1242.14) rotate(-180)"/><path class="cls-3" d="M10853.41,728.14h146.16a2.41,2.41,0,0,0,2.41-2.42V354.39a2.4,2.4,0,0,0-1-2l-146.19-102.33a2.37,2.37,0,0,0-3.76,1.76V725.72A2.41,2.41,0,0,0,10853.41,728.14Z"/><rect class="cls-3" x="10667.79" y="361.53" width="143" height="355.5" transform="translate(21478.57 1078.55) rotate(-180)"/><path class="cls-3" d="M10481.68,745.13h124.12A12.23,12.23,0,0,0,10618,732.9l0-337.62a12.24,12.24,0,0,0-19.69-9.7L10474.23,481a12.21,12.21,0,0,0-4.78,9.7V732.9A12.23,12.23,0,0,0,10481.68,745.13Z"/><rect class="cls-3" x="9974.15" y="314.43" width="107.85" height="365.09" rx="2.34" transform="translate(20056.15 993.95) rotate(-180)"/><rect class="cls-3" x="9588.93" y="424.34" width="151.79" height="327.54" rx="3.45" transform="translate(19329.65 1176.23) rotate(-180)"/><polygon class="cls-3" points="9489.45 766.15 9560.55 766.15 9560.58 317.31 9489.45 382.82 9489.45 766.15"/><polygon class="cls-3" points="9761.75 390.26 9761.75 364.7 9867.2 366.54 9867.2 390.26 9897.16 390.26 9897.16 818.46 9731.79 818.46 9731.79 390.26 9761.75 390.26"/><rect class="cls-3" x="11218.83" y="400.97" width="107.85" height="365.09" rx="2.34" transform="translate(22545.5 1167.02) rotate(-180)"/><rect class="cls-3" x="10128.65" y="380.65" width="129.42" height="334.73" rx="2.46" transform="translate(20386.73 1096.02) rotate(-180)"/><ellipse class="cls-3" cx="10193.36" cy="391.79" rx="51.43" ry="55.45"/><rect class="cls-3" x="10190.6" y="293.05" width="5.53" height="55.33" rx="2.77"/><rect class="cls-3" x="10296" y="339.4" width="143" height="355.5" transform="translate(20735 1034.29) rotate(-180)"/><rect class="cls-3" x="10373.31" y="310.12" width="48.69" height="36.51"/><rect class="cls-3" x="10315.77" y="320.08" width="48.69" height="36.51"/><polygon class="cls-4" points="11466.4 913.21 11337.21 913.21 11337.19 587.42 11466.4 686.77 11466.4 913.21"/><rect class="cls-4" x="11167.85" y="738.19" width="93.77" height="317.43" rx="2.04"/><path class="cls-4" d="M11335.71,465.39V732.62a2.27,2.27,0,0,0,2.27,2.27h62.47V420.07Z"/><polygon class="cls-1" points="11372.94 748.5 11525.94 748.5 11525.94 227.5 11471.94 227.5 11432.94 172.5 11372.94 172.5 11372.94 748.5"/><polygon class="cls-3" points="11471.58 372 11401.41 318.05 11401.4 252.02 11347.02 252.02 11315.86 295.95 11272.73 295.95 11272.73 712.17 11401.45 712.15 11401.44 692.01 11471.58 692.01 11471.58 372"/><path class="cls-4" d="M11448.61,461.15v1a2,2,0,0,0-1.74-1H11407l-.29,97.5h-58l-.18.26V544.57a3,3,0,0,0-3-3h-126.15a3,3,0,0,0-3,3v77.28h-12.07l-27.13-38.2h-54.4V543.51h-26.09V521.28l-91.81,1.6v20.63h-22.6v-66a2,2,0,0,0-2-2h-89.83a2,2,0,0,0-2,2V594.87H10839V516.63a2.14,2.14,0,0,0-2.13-2.14h-10.34c-4-21.16-20.89-37.27-41.46-38.45V440.73a2.41,2.41,0,0,0-4.81,0V476c-20.57,1.18-37.46,17.29-41.47,38.45h-10.33a2.14,2.14,0,0,0-2.14,2.14V561.9l-35,.61V530.63h-17.22v-16.8h-42.39v16.8H10624V505.17h-42.39v25.46h-14.8V649.27h-24.25V596.4l-129.39-99.34v95.49h-30.54V533.87h-124.51v73.52l-36.23-27.82V463.36a2.27,2.27,0,0,0-2.27-2.27l-129.19,90.3v89.13H10065V508.62a3,3,0,0,0-3-3H9935.83a3,3,0,0,0-3,3v160.9h-12.71V639.23a2,2,0,0,0-2-2H9911V487.85h-37.56l-27.13-38.2H9755.9V578.11a2.15,2.15,0,0,0-1.5-.62h-10.34c-4-21.16-20.89-37.27-41.46-38.45V503.73a2.41,2.41,0,0,0-4.81,0V539a43.61,43.61,0,0,0-31.43,16.58V532.4L9537,450v141.5h-13V543.57a3,3,0,0,0-3-3H9394.84a3,3,0,0,0-3,3v77.28h-12.06l-27.13-38.2h-54.41V542.51h-26.08V520.28l-91.82,1.6v20.63h-22.59v-66a2,2,0,0,0-2-2h-89.82a2,2,0,0,0-2,2V593.87H9002.4v94.36l-38.63-24.59V582.51h-26.09V560.28l-70.88,1.23V529.63h-17.22v-16.8h-42.39v16.8h-7.7V504.17H8757.1v25.46h-14.81V648.27h-24.24V595.4l-129.4-99.34v95.49h-30.55V532.87h-124.5v73.52l-36.23-27.82V462.36a2.28,2.28,0,0,0-2.28-2.27l-129.18,90.3v89.13h-25.46V507.62a3,3,0,0,0-3-3H8111.31a3,3,0,0,0-3,3v130.9h-13.71V608.23a2,2,0,0,0-2-2h-29.11V489.85h-37.56l-27.13-38.2h-90.42v104A43.71,43.71,0,0,0,7876.07,538V502.73a2.41,2.41,0,0,0-4.81,0V538a43.63,43.63,0,0,0-31.43,16.58v-15l-129.39-79.42v1a2,2,0,0,0-1.74-1h-39.91l-.62,211.33h-21.72l.31-103h-31V685.15h-31.05V540.57H7481.19a3,3,0,0,0-3,3v77.28h-12.06L7439,582.65h-54.41V542.51H7358.5V520.28l-91.82,1.6v20.63h-22.59v-66a2,2,0,0,0-2-2h-89.82a2,2,0,0,0-2,2V593.87h-49.33V515.63a2.14,2.14,0,0,0-2.14-2.14h-10.33c-4-21.16-20.9-37.27-41.46-38.45V439.73a2.41,2.41,0,0,0-4.82,0V475c-20.57,1.18-37.45,17.29-41.46,38.45h-10.34a2.14,2.14,0,0,0-2.13,2.14V560.9l-35,.61V529.63h-17.21v-16.8h-42.39v16.8h-7.71V504.17h-42.39v25.46h-14.8V648.27H6804.4V595.4L6675,496.06v95.49h-30.55V532.87H6520v73.52l-36.23-27.82V462.36a2.28,2.28,0,0,0-2.28-2.27l-129.18,90.3v89.13h-25.46V507.62a3,3,0,0,0-3-3H6197.66a3,3,0,0,0-3,3v130.9H6181V608.23a2,2,0,0,0-2-2H6149.8V489.85h-37.56l-27.13-38.2h-90.42v104A43.71,43.71,0,0,0,5962.42,538V502.73a2.41,2.41,0,0,0-4.81,0V538a43.63,43.63,0,0,0-31.43,16.58V531.4L5796.79,449v20.46h-35.64l-.2,66.57-72.59-74.55v1a2,2,0,0,0-1.74-1h-39.91l-.28,97.5h-58l-.19.26V544.92a3,3,0,0,0-3-3H5459.11a3,3,0,0,0-3,3V622.2H5444L5416.91,584H5362.5V543.85h-26.08V521.63l-91.82,1.59v20.63H5222v-66a2,2,0,0,0-2-2h-89.82a2,2,0,0,0-2,2V595.21h-49.33V517a2.14,2.14,0,0,0-2.14-2.13h-10.33c-4-21.16-20.89-37.28-41.46-38.45V441.08a2.41,2.41,0,0,0-4.82,0v35.31c-20.56,1.17-37.45,17.29-41.46,38.45h-10.33a2.14,2.14,0,0,0-2.14,2.13v45.28l-35,.61V531h-17.21V514.18h-42.39V531h-7.71V505.52h-42.39V531h-14.8V649.61h-24.25V596.75l-129.4-99.35v95.49h-30.54V534.21H4497.88v73.52l-36.23-27.81V463.71a2.27,2.27,0,0,0-2.27-2.27l-129.19,90.3v89.12h-25.46V509a3,3,0,0,0-3-3H4175.58a3,3,0,0,0-3,3V669.86h-12.71V639.57a2,2,0,0,0-2-2h-7.07V488.2H4113.2L4086.07,450h-90.42V578.46a2.15,2.15,0,0,0-1.5-.62h-10.34c-4-21.16-20.89-37.28-41.46-38.45V504.08a2.41,2.41,0,1,0-4.82,0v35.31A43.6,43.6,0,0,0,3906.11,556V532.75l-129.4-82.39v141.5h-13V543.92a3,3,0,0,0-3-3H3634.58a3,3,0,0,0-3,3V621.2h-12.07L3592.39,583H3538V542.85h-26.09V520.63l-91.81,1.59v20.63h-22.59v-66a2,2,0,0,0-2-2h-89.83a2,2,0,0,0-2,2V594.21h-61.44v94.37L3203.51,664V582.85h-26.08V560.63l-70.88,1.23V530h-17.22V513.18h-42.39V530h-7.71V504.52h-42.39V530H2982V648.61H2957.8V595.75L2828.4,496.4v95.49h-30.54V533.21h-124.5v73.52l-36.23-27.81V462.71a2.28,2.28,0,0,0-2.28-2.27l-129.19,90.3v89.12h-25.45V508a3,3,0,0,0-3-3H2351.05a3,3,0,0,0-3,3V638.86h-13.71V608.57a2,2,0,0,0-2-2h-29.1V490.2h-37.56L2238.51,452h-90.42V556a43.75,43.75,0,0,0-32.27-17.64V503.08a2.41,2.41,0,0,0-4.82,0v35.31A43.6,43.6,0,0,0,2079.58,555V539.92l-129.4-79.42v1a2,2,0,0,0-1.74-1h-39.9l-.62,211.33h-21.73l.32-103h-31V685.5h-31V540.92H1720.94a3,3,0,0,0-3,3V621.2h-12.07L1678.74,583h-54.41V542.85h-26.09V520.63l-91.81,1.59v20.63h-22.59v-66a2,2,0,0,0-2-2H1392a2,2,0,0,0-2,2V594.21h-49.33V516a2.15,2.15,0,0,0-2.14-2.13h-10.34c-4-21.16-20.89-37.28-41.46-38.45V440.08a2.41,2.41,0,1,0-4.81,0v35.31c-20.57,1.17-37.45,17.29-41.46,38.45h-10.34a2.15,2.15,0,0,0-2.14,2.13v45.28l-35,.61V530h-17.22V513.18h-42.39V530h-7.7V504.52h-42.4V530h-14.8V648.61h-24.24V595.75L914.75,496.4v95.49H884.21V533.21H759.71v73.52l-36.23-27.81V462.71a2.28,2.28,0,0,0-2.28-2.27L592,550.74v89.12H566.56V508a3,3,0,0,0-3-3H437.4a3,3,0,0,0-3,3V638.86H420.69V608.57a2,2,0,0,0-2-2h-29.1V490.2H352L324.86,452H234.44V556a43.75,43.75,0,0,0-32.27-17.64V503.08a2.41,2.41,0,1,0-4.81,0v35.31A43.61,43.61,0,0,0,165.93,555V531.75L36.53,449.36v20.47H.89L-.06,787.26H40.8a2,2,0,0,0,2-2v-27H143.42V865.74a2.14,2.14,0,0,0,2.14,2.14H254a2.14,2.14,0,0,0,2.13-2.14V852.09h70.69v69.85a2,2,0,0,0,2,2h89.82a2.05,2.05,0,0,0,1.1-.32h79.51a3,3,0,0,0,2.22,1H627.63a3,3,0,0,0,3-3V820.24h77v72.32H837.05V842.31H843v31.37a3,3,0,0,0,3,3H972.13a3,3,0,0,0,3-3V822.19h44V930.4a3,3,0,0,0,3,3h123.77v21.76h144V804.88h38.63v98.43H1453v-111h27.35v122.9h108v67.93h155.11V825.71h91.13v58.51a2,2,0,0,0,2,2h35v101a2,2,0,0,0,2,2h49l.61-202h25.23a2.07,2.07,0,0,0,2-2.1v-27h106.59V865.74a2.14,2.14,0,0,0,2.14,2.14h108.41a2.14,2.14,0,0,0,2.13-2.14V852.09h70.69v69.85a2,2,0,0,0,2,2h89.82a2,2,0,0,0,1.09-.32h79.52a3,3,0,0,0,2.22,1h126.15a3,3,0,0,0,3-3V820.24h77v72.32H2750.7V842.31h5.93v31.37a3,3,0,0,0,3,3h126.15a3,3,0,0,0,3-3V822.19h44V930.4a3,3,0,0,0,3,3h123.77v21.76h144v-14h79.74V903.31h83.4v-111H3394v122.9h108v67.93h92.36v69.85a2,2,0,0,0,2,2h89.83a2,2,0,0,0,2-2V877h65.05a2,2,0,0,0,1.09-.32h99.74a3,3,0,0,0,3-3V759.19h26.5V866.74a2.14,2.14,0,0,0,2.14,2.14h108.41a2.14,2.14,0,0,0,2.13-2.14V850.09H4066V952.94a2,2,0,0,0,2,2h89.82a2,2,0,0,0,1.09-.32h99.74a3,3,0,0,0,3-3v-26h104.15a3,3,0,0,0,3-3V821.24h77v72.32h129.38V843.31h5.92v31.37a3,3,0,0,0,3,3H4710.3a3,3,0,0,0,3-3V823.19h44V931.4a3,3,0,0,0,3,3h123.77v21.76h144V805.88h38.63v98.43h124.51v-111h27.34v122.9h108v67.93H5481.6V826.71h42.16V959.09h155.11V788.26h7.75a2.07,2.07,0,0,0,2-2.1v-27h71.61l-.08,27.72h40.87a2,2,0,0,0,2-2v-27h100.59V865.39a2.14,2.14,0,0,0,2.13,2.14h108.41a2.15,2.15,0,0,0,2.14-2.14V851.74H6087v69.85a2,2,0,0,0,2,2h89.83a2.05,2.05,0,0,0,1.09-.33h79.51a3,3,0,0,0,2.22,1h126.15a3,3,0,0,0,3-3V819.9h77v72.31h129.38V842h5.92v31.36a3,3,0,0,0,3,3h126.15a3,3,0,0,0,3-3V821.84h44V930.05a3,3,0,0,0,3,3h123.77v21.76h144V804.53h38.63V903h124.5V791.91h27.35v122.9h108v67.93h155.11V825.36h91.12v58.52a2,2,0,0,0,2,2h35v101a2,2,0,0,0,2,2h49l.61-202h25.24a2.07,2.07,0,0,0,2-2.09v-27h106.58V865.39a2.15,2.15,0,0,0,2.14,2.14h108.41a2.15,2.15,0,0,0,2.14-2.14V851.74h70.68v69.85a2,2,0,0,0,2,2h89.83a2.05,2.05,0,0,0,1.09-.33h79.51a3,3,0,0,0,2.22,1h126.15a3,3,0,0,0,3-3V819.9h77v72.31H8511V842h5.93v31.36a3,3,0,0,0,3,3H8646a3,3,0,0,0,3-3V821.84h44V930.05a3,3,0,0,0,3,3h123.77v21.76h144v-14h79.73V903h83.4V791.91h27.35v122.9h108v67.93h92.36v69.85a2,2,0,0,0,2,2h89.82a2,2,0,0,0,2-2v-176h65.05a2,2,0,0,0,1.09-.33h99.74a3,3,0,0,0,3-3V758.84h26.5V866.39a2.15,2.15,0,0,0,2.14,2.14H9754.4a2.15,2.15,0,0,0,2.14-2.14V849.74h69.68V952.59a2,2,0,0,0,2,2h89.83a2.05,2.05,0,0,0,1.09-.33h99.73a3,3,0,0,0,3-3v-26h104.15a3,3,0,0,0,3-3V820.9h77v72.31h129.37V843h5.92v31.36a3,3,0,0,0,3,3h126.15a3,3,0,0,0,3-3V822.84h44V931.05a3,3,0,0,0,3,3h123.77v21.76h144V805.53h38.63V904h124.51V792.91h27.34v122.9h108v67.93h155.11V826.36H11284V958.74h155.12V787.91h7.74a2.07,2.07,0,0,0,2-2.09v-27h77V540.57Z"/><polygon class="cls-5" points="11410.41 796.09 11401.45 796.09 9586.45 796.09 9490.41 796.09 7675.4 796.09 7666.45 796.09 5755.4 796.09 5755.4 796.43 5655.89 796.43 5646.94 796.43 3831.94 796.43 3735.89 796.43 1920.89 796.43 1911.94 796.43 0.89 796.43 0.89 1081.43 1911.94 1081.43 1920.89 1081.43 3735.89 1081.43 3831.94 1081.43 5646.94 1081.43 5655.89 1081.43 5762.94 1081.43 5762.94 1081.09 7666.45 1081.09 7675.4 1081.09 9490.41 1081.09 9586.45 1081.09 11401.45 1081.09 11410.41 1081.09 11517.45 1081.09 11517.45 796.09 11410.41 796.09"/><polygon class="cls-6" points="11410.41 751.26 11400.45 751.26 9585.45 751.26 9490.41 751.26 7675.4 751.26 7665.45 751.26 5761.94 751.26 5755.4 751.26 5655.89 751.26 5645.94 751.26 3830.94 751.26 3735.89 751.26 1920.89 751.26 1910.94 751.26 0.89 751.26 0.89 796.26 1910.94 796.26 1920.89 796.26 3735.89 796.26 3830.94 796.26 5645.94 796.26 5655.89 796.26 5755.4 796.26 5761.94 796.26 7665.45 796.26 7675.4 796.26 9490.41 796.26 9585.45 796.26 11400.45 796.26 11410.41 796.26 11516.45 796.26 11516.45 751.26 11410.41 751.26"/></svg>