<svg id="Layer_1" data-name="Layer 1" xmlns="http://www.w3.org/2000/svg" width="160" height="75" viewBox="0 0 160 75"><defs><style>.cls-1{fill:#220a34;}.cls-2{fill:#fff;}</style></defs><path class="cls-1" d="M160,45.63c0-6.34-5.42-11.49-12.08-11.49a12.21,12.21,0,0,0-10.31,5.52,10.09,10.09,0,0,0-9.22-5.08c-6.19,0-11.91,3-16.37,7.05-1.12-4.15-4.87-6.87-9.88-6.87a18,18,0,0,0-7.64,2.1,11.37,11.37,0,0,0-7-2.1,16.41,16.41,0,0,0-6.42,1.44,6.27,6.27,0,0,0-1.89-.28H72.57a10.18,10.18,0,0,0,.64-3.53,10.53,10.53,0,0,0-2.9-7.22,25,25,0,0,0,9.47-8.4,5.68,5.68,0,0,0,.85-2.23l.09-.62a5.5,5.5,0,0,0-.58-3.42L79.86,10A6.06,6.06,0,0,0,75.77,6.9,6.46,6.46,0,0,0,70.68,8,8.15,8.15,0,0,1,65.9,9.51c-3.45,0-7-1-10.81-2.11-2.33-.67-4.71-1.35-7.2-1.84A5.77,5.77,0,0,0,44.77.74a6.35,6.35,0,0,0-6.72.48,14.78,14.78,0,0,0-3.79,4.19c-11.89,1.7-29,9.52-29,22.53A12.53,12.53,0,0,0,11.82,39C4.74,42.54,0,49.35,0,57.19c0,9.94,8.67,17.72,19.75,17.72,8.21,0,14.73-4,20-10a10.43,10.43,0,0,0,10.74,9.89A11.73,11.73,0,0,0,56,73.41a6.41,6.41,0,0,0,2.54.52h8.13a6.28,6.28,0,0,0,3.92-1.36,6.29,6.29,0,0,0,3.93,1.36h8.13a6.2,6.2,0,0,0,5.08-2.59,10,10,0,0,0,7.9,3.48c3.2,0,6.43-1.33,9.85-4.1a13.2,13.2,0,0,0,10,4.1c5.58,0,10.44-2.53,14.57-6.09A12.15,12.15,0,0,0,140.82,75c6.66,0,12.08-5.16,12.08-11.5a11,11,0,0,0-2.27-6.67A11.66,11.66,0,0,0,160,45.63ZM28.21,43.92a5.51,5.51,0,0,0-.14-3.71,6.55,6.55,0,0,0-.5-1c5.14-2.3,9.74-6.84,13.34-13.25h0C38.05,31.12,32.74,40.19,28.21,43.92Z"/><path class="cls-2" d="M74.59,13.72l.09-.62-.28-.54a14.41,14.41,0,0,1-8.5,2.76c-8.69,0-16.44-4.71-25.13-4.71a29.36,29.36,0,0,0,1-4.8,9.51,9.51,0,0,0-3.36,5.07c-9.06.17-27.09,6.66-27.09,17.06,0,4.54,3.73,7.2,8.22,7.2,9,0,15-9.15,18-16.09,4.11,1.07,8.22,2.31,12.43,3C45.35,29.9,35.53,51.41,24.7,51.41c-2.62,0-4.86-1.42-4.86-4.09a6.45,6.45,0,0,1,2.52-5.06c-8.69.26-16.26,6.4-16.26,14.93,0,7.2,6.45,11.91,13.65,11.91,19.34,0,28.49-32.53,33.44-46.31C61.32,23.5,70.2,20.48,74.59,13.72ZM21.24,28.12c-2.34,0-4.77-1.33-4.77-3.73,0-5.07,7.57-6.4,11.59-6.4a36,36,0,0,1,6.91.53C32.27,23.5,27.59,28.12,21.24,28.12Z"/><path class="cls-2" d="M56.55,32.39a5.11,5.11,0,0,0,5.23,5,5.19,5.19,0,0,0,5.33-5,5.26,5.26,0,0,0-5.33-5.07A5.18,5.18,0,0,0,56.55,32.39Z"/><path class="cls-2" d="M134.47,51.77C132,55.68,128.3,59.24,122,59.24a4.11,4.11,0,0,1-4.4-4.09c5.52-.54,15-5,15-11,0-2.49-1.78-3.73-4.21-3.73-7.19,0-14.57,6.23-18.08,13.12-1.64,2.13-4.13,4.48-6,4.48a1.83,1.83,0,0,1-1.87-2c0-3.2,3.84-6.94,3.84-11.65,0-2.58-1.69-3.73-4.12-3.73-2.61,0-7.56,2.4-10.27,5.51.46-3-.19-5.51-4.4-5.51-3.36,0-7.84,2.66-10.55,5.86l2.24-4.71H70.94L65.8,52.65C64.08,55.15,61.24,58,59.07,58a1.84,1.84,0,0,1-1.86-1.87c0-3.11,4.48-11.2,6-14.4H55L47.77,57.28a16.82,16.82,0,0,0-2,6.93A4.5,4.5,0,0,0,50.48,69c3.44,0,8.3-4.84,12.08-9.48l-4.05,8.6h8.13L73.09,54.7c1.4-2.93,5.7-9.42,9.06-9.42,2.43,0,1.59,3.29,1,4.35l-8.69,18.5h8.13l6.91-14.76c2.34-4.89,5.14-8.09,7.38-8.09,1.12,0,1.5.89,1.5,1.78,0,4.53-6.82,10.4-6.92,17.42,0,2.58,1.31,4.53,4.11,4.53,4.06,0,9.07-5.28,12.86-10.26a13.9,13.9,0,0,0-.25,2.53c0,4.44,2.34,7.73,7.29,7.73,9,0,16.54-10.75,20.27-16.53Zm-9.81-9c1.3,0,1.49,1.07,1.49,2,0,3.92-4.86,7.92-8.6,8.63C117.46,50.35,120.92,42.79,124.66,42.79Z"/><ellipse class="cls-2" cx="147.92" cy="45.63" rx="5.98" ry="5.69"/><ellipse class="cls-2" cx="140.82" cy="63.5" rx="5.98" ry="5.69"/></svg>