<svg id="Layer_1" data-name="Layer 1" xmlns="http://www.w3.org/2000/svg" width="360" height="110" viewBox="0 0 360 110"><defs><style>.cls-1{fill:#fff;}.cls-2{fill:#4d226d;}</style></defs><path class="cls-1" d="M38,110C17.05,110,0,85.33,0,55S17.05,0,38,0H322C343,0,360,24.67,360,55S343,110,322,110Z"/><rect class="cls-2" x="6.39" y="5" width="347.21" height="100" rx="41.22"/><path d="M41.17,15.55H318.83c7.7,0,14.81,3.85,20.51,10.29-6-9.66-14.66-15.74-24.21-15.74H44.87c-9.55,0-18.19,6.08-24.21,15.74C26.36,19.4,33.47,15.55,41.17,15.55Z"/><path class="cls-1" d="M128.21,31.31c-2.82,4.56-8.51,6.6-13.72,6.12-3.17,9.3-9,31.26-21.45,31.26-4.61,0-8.74-3.18-8.74-8,0-5.76,4.85-9.9,10.42-10.08A4.45,4.45,0,0,0,93.1,54c0,1.8,1.44,2.76,3.12,2.76,7,0,13.24-14.52,16.23-19.8-2.69-.48-5.33-1.32-8-2-1.92,4.68-5.81,10.86-11.57,10.86-2.87,0-5.27-1.8-5.27-4.86,0-7,11.56-11.4,17.38-11.52A6.39,6.39,0,0,1,107.18,26a20.69,20.69,0,0,1-.66,3.24c5.57,0,10.55,3.18,16.12,3.18a9,9,0,0,0,5.45-1.86l.18.36ZM98.38,34.19c-2.58,0-7.43.9-7.43,4.32C91,40.13,92.5,41,94,41c4.08,0,7.07-3.12,8.81-6.48A21.78,21.78,0,0,0,98.38,34.19Z"/><path class="cls-1" d="M112.75,52.07c0-1.92,1.86-4.14,3.54-4.14a1.11,1.11,0,0,1,1.14,1.26,2.63,2.63,0,0,1-.48,1.5,3.92,3.92,0,0,0,2.15.48,27.46,27.46,0,0,0,6.29-1l.12.72c-1.85,1.62-4.79,5.58-4.79,8.1,0,1.26.54,2.22,1.86,2.22,1.74,0,3.77-2.64,4.67-4.2l.84.48c-1.86,3.18-7.43,11.16-11.44,11.16a3,3,0,0,1-3.3-3.3c0-4.68,5.69-10.44,9.17-13.08l-.06-.06c-2.1,1-4.37,2.76-6.77,2.76a3.77,3.77,0,0,1-1.14-.18c-.72,1.26-1.44,2.4-2,3.3a.92.92,0,0,1-.71.54H111a27.6,27.6,0,0,0,2.51-4.32A2.77,2.77,0,0,1,112.75,52.07Z"/><path class="cls-1" d="M145.88,57l.84.48a25.73,25.73,0,0,1-9.7,9.72c-2.46,5.4-5,10.92-10.31,13.8a6.59,6.59,0,0,1-3,.84,2.21,2.21,0,0,1-2.22-2.46c0-5,7.79-10.14,11.68-12.6q.9-2.79,2-5.58H135c-1.38,2.82-4.79,7.44-7.61,7.44-2,0-2.93-1.68-2.93-3.48,0-3.54,4.43-12.12,5.69-14.94h5.21L132.28,57a8.26,8.26,0,0,0-.84,3,1,1,0,0,0,1,1.14c3.06,0,6-8.46,7.07-10.92h5.15L138,65A25.28,25.28,0,0,0,145.88,57ZM127.07,77c0,.48.18,1.2.78,1.2,1.56,0,4.25-7.68,4.73-9.18C130.25,70.79,127.07,73.79,127.07,77Z"/><path class="cls-1" d="M170.92,47.93a7.87,7.87,0,0,1,7.31-4.8,8.14,8.14,0,0,1,5.15,1.92c1.8-1.92,3.36-4.08,5.16-5.94a39.14,39.14,0,0,1,18.51-11c-5.27,5.4-11.39,19.14-11.39,26.7,0,1.44.6,3.42,2.34,3.42,1.92,0,3.42-1.92,4.2-3.48-.24,5.22-4.38,14-10.43,14-3.41,0-4.91-3.12-4.91-6.12a24.23,24.23,0,0,1,1-6.24,17.18,17.18,0,0,0-3.36-4.68c-4.07,7-10.06,17-19.23,17a8.09,8.09,0,0,1-8.38-8.1c0-5.52,4.91-9.24,10.12-9.24A3.59,3.59,0,0,0,166,53.87a2.93,2.93,0,0,0,3.12,3c4.13,0,9-5,11.32-8.1a10.26,10.26,0,0,0-5.63-1.26A20.89,20.89,0,0,0,170.92,47.93Zm8.75-9.06c-2.94,0-6.89-1.56-6.89-5,0-3.66,3.89-5.94,7.25-5.94a10.33,10.33,0,0,1,2.34.24,2.71,2.71,0,0,0-1.44,2.46c0,1.68,1.68,2.28,3.11,2.28,3.72,0,8.33-2.34,11.09-4.8C192,33.65,186.38,38.87,179.67,38.87Zm21.93-7.44c-5.4,3.3-12.58,11.7-15.4,17.4.9,1.8,1.62,3.72,2.4,5.58A71.87,71.87,0,0,1,201.6,31.43Z"/><path class="cls-1" d="M215.5,67.07c-2.4,5.28-5.34,11.1-10.67,13.92a6.59,6.59,0,0,1-3,.84,2.21,2.21,0,0,1-2.22-2.46c0-5,7.85-10.2,11.68-12.6l1.74-5-.06-.06c-1.32,2.58-4.19,6.9-7.43,6.9-2.45,0-3.65-2.1-3.65-4.38,0-5.76,6.11-14.52,12.34-14.52,1.44,0,2.51.66,2.63,2.16l.9-1.68h5.09l-6.59,14.88a26.14,26.14,0,0,0,8.15-8.1l.84.48A26.74,26.74,0,0,1,215.5,67.07ZM205.19,77c0,.48.18,1.2.78,1.2,1.56,0,4.31-7.68,4.79-9.18C208.43,70.79,205.19,73.79,205.19,77Zm9.41-25.74c-2.94,0-5.81,5.52-5.81,8.1,0,.84.48,2,1.49,2,3,0,5.7-5.7,5.7-8.28C216,52.25,215.62,51.23,214.6,51.23Z"/><path class="cls-1" d="M233.29,61.73c-1.32,2.64-4.31,6.9-7.61,6.9-2.46,0-3.65-2.1-3.65-4.38,0-5.82,6.11-14.52,12.34-14.52a2.44,2.44,0,0,1,2.69,2.16l.84-1.68H243c-1,2.1-3.83,7.62-3.83,9.72a1.26,1.26,0,0,0,1.2,1.26c1.62,0,3.53-2.4,4.61-4.2l.84.48C244.31,60,238.44,68.63,235,68.63s-2.46-4.86-1.62-6.84Zm1.5-10.5c-3,0-5.87,5.52-5.87,8.1,0,.84.48,2,1.49,2,3,0,5.75-5.7,5.75-8.28C236.16,52.25,235.74,51.23,234.79,51.23Z"/><path class="cls-1" d="M253.18,50.21c-1,2.16-3.84,7.62-3.84,9.72a1.22,1.22,0,0,0,1.2,1.26c1.56,0,3.66-2.4,4.67-4.2l.84.48c-1.61,2.76-7.48,11.16-11,11.16a3,3,0,0,1-3-3.24,11.82,11.82,0,0,1,1.25-4.68l4.62-10.5Zm-.9-9.72a3.45,3.45,0,0,1,3.41,3.42,3.4,3.4,0,0,1-3.41,3.36,3.35,3.35,0,0,1-3.36-3.36A3.41,3.41,0,0,1,252.28,40.49Z"/><path class="cls-1" d="M264.62,68.63c-1.8,0-2.82-1.68-2.82-3.36,0-4.2,4.62-8.4,4.62-11.46,0-.6-.24-1.2-1-1.2-2.46,0-5,4.38-5.93,6.36L255.39,68h-5.21l8-17.82h5.27l-1.62,3.42c1.44-1.92,4.38-4.2,6.89-4.2,1.68,0,2.82.78,2.82,2.52,0,3.12-2.58,5.64-2.58,7.86,0,.72.36,1.38,1.2,1.38,1.8,0,3.84-2.7,4.67-4.2l.84.48C273.85,60.47,268.69,68.63,264.62,68.63Z"/></svg>