<svg xmlns="http://www.w3.org/2000/svg" width="465" height="138.29" viewBox="0 0 465 138.29"><defs><style>.cls-1{fill:#fff;}.cls-2{fill:#4d226d;}</style></defs><g id="Lite"><path class="cls-1" d="M69.19,138.29A69.25,69.25,0,0,1,0,70.39C-.68,31.57,31.29,0,70.14,0H394.86C433.71,0,465.68,31.57,465,70.39a69.25,69.25,0,0,1-69.18,67.9Z"/><rect class="cls-2" x="7.02" y="7.02" width="450.95" height="124.25" rx="62.12"/><path d="M395.81,14H69.19a55.12,55.12,0,0,0-55.14,55.1h0c0,1.06,0,2.12.09,3.16A55.13,55.13,0,0,1,69.19,20.36H395.81A55.13,55.13,0,0,1,450.86,72.3c.05-1,.09-2.1.09-3.16h0A55.12,55.12,0,0,0,395.81,14Z"/><path class="cls-1" d="M163.51,33.27l.11-.74-.32-.64a15.81,15.81,0,0,1-9.61,3.28c-9.82,0-18.58-5.6-28.4-5.6a36.13,36.13,0,0,0,1.16-5.69,11.32,11.32,0,0,0-3.8,6C112.41,30.1,92,37.8,92,50.15c0,5.38,4.23,8.54,9.29,8.54,10.14,0,17-10.86,20.38-19.09,4.65,1.26,9.29,2.74,14,3.58C130.46,52.47,119.38,78,107.13,78c-3,0-5.49-1.69-5.49-4.85a7.85,7.85,0,0,1,2.85-6c-9.82.32-18.37,7.6-18.37,17.73,0,8.55,7.29,14.14,15.41,14.14,21.86,0,32.21-38.62,37.8-55C148.52,44.87,158.55,41.29,163.51,33.27ZM103.22,50.36c-2.64,0-5.38-1.58-5.38-4.43,0-6,8.55-7.6,13.09-7.6a38.92,38.92,0,0,1,7.81.63C115.68,44.87,110.4,50.36,103.22,50.36Z"/><path class="cls-1" d="M180.82,92.46l11.72-26h-9.08c-1.79,4.33-7.07,19.2-12.46,19.2a1.82,1.82,0,0,1-1.79-2,14.45,14.45,0,0,1,1.48-5.28l5.49-11.92H167c-1.18,2.63-3.93,8.12-6.26,13.62-1.82,2.62-4.66,5.69-7.15,5.69-2.32,0-3.27-1.69-3.27-3.9,0-4.43,5.17-11.4,8.45-14.25l-.21-1.26a48.92,48.92,0,0,1-11.09,1.79,7,7,0,0,1-3.8-.84,4.63,4.63,0,0,0,.84-2.64c0-1.27-.63-2.22-2-2.22-3,0-6.23,3.91-6.23,7.28a4.88,4.88,0,0,0,1.37,3.91,47.85,47.85,0,0,1-4.43,7.59h1.47a1.61,1.61,0,0,0,1.27-1c1-1.58,2.22-3.58,3.49-5.8a6.58,6.58,0,0,0,2,.32c4.23,0,8.24-3.06,11.93-4.86l.11.11c-6.13,4.64-16.16,14.77-16.16,23,0,3.69,2.12,5.8,5.81,5.8,4.72,0,10.65-6.23,15.05-12A21.5,21.5,0,0,0,157,92.77c0,3.17,1.58,6.12,5.17,6.12,5,0,11-8.12,13.41-13.08h.21q-1.89,4.91-3.48,9.81c-6.86,4.33-20.59,13.3-20.59,22.16,0,2.32,1.27,4.33,3.91,4.33a11.78,11.78,0,0,0,5.28-1.48c9.29-5.07,13.83-14.77,18.16-24.27,9.29-5.38,13.51-11.29,17.1-17.09l-1.48-.85C193.07,81.27,187.47,88.55,180.82,92.46Zm-17.95,23.21c-1.05,0-1.37-1.27-1.37-2.11,0-5.59,5.6-10.87,9.71-14C170.37,102.16,165.62,115.67,162.87,115.67Z"/><path class="cls-1" d="M337.6,61.33a6,6,0,0,0,6-5.91,6.08,6.08,0,0,0-6-6,6,6,0,0,0-5.91,6A5.9,5.9,0,0,0,337.6,61.33Z"/><path class="cls-1" d="M377.4,78.42c-1.48,2.64-5.07,7.39-8.23,7.39a2.14,2.14,0,0,1-2.12-2.43c0-3.9,4.54-8.33,4.54-13.82,0-3.06-2-4.43-5-4.43-4.43,0-9.61,4-12.14,7.39l2.85-6h-9.29l-5.7,12.64c-1.91,3-5.27,6.67-7.81,6.67a2.13,2.13,0,0,1-2.11-2.22c0-3.69,5.06-13.29,6.75-17.09h-9.29l-5.44,12.37c-1.94,3.1-5.14,6.94-7.86,6.94a2.21,2.21,0,0,1-2.11-2.22c0-3.69,5-13.4,6.76-17.09h-9l-1.48,3c-.21-2.54-2.32-3.8-4.75-3.8-7.32,0-14.55,6.81-18.55,14.38a47.63,47.63,0,0,1-13.33,12.63L285.76,66.5h-9l-1.59,3c-.21-2.64-2.11-3.8-4.64-3.8-7.23,0-14.37,6.68-18.41,14.14-2,2.89-4.79,6-7.24,6a2.21,2.21,0,0,1-2.12-2.22c0-3.69,5-13.4,6.76-17.09h-9l-1.48,3c-.21-2.54-2.32-3.8-4.75-3.8-11,0-21.75,15.3-21.75,25.53,0,4,2.11,7.7,6.44,7.7,5.81,0,11.08-7.49,13.41-12.13l.21.11c-1.48,3.48-3.38,12,2.85,12,3.9,0,9.62-6.38,13.88-12.08a18.72,18.72,0,0,0-.58,4.38c0,4,2.11,7.7,6.44,7.7,5.7,0,10.77-7.59,13.09-12.13l.11.11-3.06,8.75c-6.76,4.22-20.59,13.3-20.59,22.16,0,2.32,1.26,4.33,3.9,4.33a11.71,11.71,0,0,0,5.28-1.48c9.4-5,14.57-15.19,18.8-24.48a49.91,49.91,0,0,0,12.25-10,19.45,19.45,0,0,0-.75,5.06c0,4,2.12,7.7,6.44,7.7,5.81,0,11.09-7.49,13.41-12.13l.21.11c-1.47,3.48-3.37,12,2.85,12,3.85,0,9.46-6.2,13.7-11.84a17.12,17.12,0,0,0-1.34,6.15c0,3.79,2.53,5.69,5.27,5.69,3.92,0,9.45-5.82,13.74-11.36L333.9,97.84h9.19l7.28-15.93c1.59-3.49,6.13-11.19,10.46-11.19,1.26,0,1.69,1.06,1.69,2.11,0,5.38-8.13,12.77-8.13,20.15,0,3,1.79,5.91,5,5.91,7.18,0,16.26-14.35,19.53-19.62Zm-150,7.71c-1.8,0-2.64-2.11-2.64-3.59,0-4.54,5.07-14.24,10.35-14.24,1.69,0,2.43,1.79,2.43,3.27C237.52,76.1,232.66,86.13,227.38,86.13ZM256,115.67c-1.06,0-1.37-1.27-1.37-2.11,0-5.59,5.7-10.87,9.82-14C263.59,102.16,258.73,115.67,256,115.67Zm7.6-29.54c-1.79,0-2.64-2.11-2.64-3.59C261,78,266,68.3,271.19,68.3c1.8,0,2.43,1.79,2.43,3.27C273.62,76.1,268.87,86.13,263.59,86.13Zm35.48,0c-1.8,0-2.64-2.11-2.64-3.59,0-4.54,5.06-14.24,10.34-14.24,1.69,0,2.43,1.79,2.43,3.27C309.2,76.1,304.34,86.13,299.07,86.13Z"/></g></svg>