<svg xmlns="http://www.w3.org/2000/svg" width="335" height="113.1" viewBox="0 0 335 113.1"><defs><style>.cls-1{fill:#fff;}.cls-2{fill:#262626;}.cls-3{fill:#ed1c24;}.cls-4{fill:#29abe2;}.cls-5{fill:#bbef1f;}.cls-6{fill:#bf1051;}.cls-7{fill:#ff7bac;}.cls-8{fill:#851014;}.cls-9{fill:#888790;}.cls-10{fill:#756965;}.cls-11{fill:#2b2a2a;}.cls-12{fill:#31352e;}.cls-13{fill:#514f5b;}.cls-14{fill:#6a6975;}</style></defs><g id="Lite"><path class="cls-1" d="M285.67,18.69H49.33C22.13,18.69,0,33,0,50.64v27.1c0,17.61,22.13,32,49.33,32H285.67c27.2,0,49.33-14.34,49.33-31.95V50.64C335,33,312.87,18.69,285.67,18.69Z"/><path class="cls-2" d="M328.28,77.57V50.46c0-15.31-19.33-27.86-42.95-27.86H49.24c-23.63,0-43,12.53-43,27.86V77.57c0,15.31,19.33,27.87,43,27.87H285.33C309,105.44,328.28,92.9,328.28,77.57Z"/><path d="M54.13,33.27H281.35c15.06,0,28.38,3.35,36.41,8.46C313,33.24,296.35,27,276.59,27H58.89c-19.76,0-36.42,6.28-41.17,14.74C25.75,36.62,39.07,33.27,54.13,33.27Z"/><path d="M72.34,113.1c-18.84,0-34.17-15.82-34.17-35.26a36.06,36.06,0,0,1,.93-8.15L28,46.83a5.7,5.7,0,0,1,.22-5.46,5.3,5.3,0,0,1,7.28-2l6.13,3.5,4.46-40A3.24,3.24,0,0,1,48.29.14,3.09,3.09,0,0,1,49.2,0a3.13,3.13,0,0,1,2.43,1.18L84.44,41.59l2.51,3,20.32-10.66a5,5,0,0,1,2.35-.58,5.74,5.74,0,0,1,5.57,5.89,5.89,5.89,0,0,1-.47,2.11L105.53,62.1a12.18,12.18,0,0,1,.91,13.49c0,.8.07,1.55.07,2.28C106.51,97.28,91.19,113.1,72.34,113.1Z"/><path d="M168.5,113.1c-18.84,0-34.17-15.82-34.17-35.26a36.06,36.06,0,0,1,.93-8.15l-11.1-22.86a5.7,5.7,0,0,1,.22-5.46,5.3,5.3,0,0,1,7.28-2l6.13,3.5,4.46-40A3.24,3.24,0,0,1,144.49.14,3.09,3.09,0,0,1,145.4,0a3.13,3.13,0,0,1,2.43,1.18L180.6,41.6l2.51,3,20.32-10.67a5,5,0,0,1,2.35-.58,5.74,5.74,0,0,1,5.57,5.89,5.89,5.89,0,0,1-.47,2.11L201.69,62.1a12.18,12.18,0,0,1,.91,13.49c.05.8.08,1.55.08,2.28C202.68,97.28,187.35,113.1,168.5,113.1Z"/><path class="cls-1" d="M86.75,48.34a1,1,0,0,0-.5,1.14c.33,1.69,2.67,5,6,8.29s6.62,5.58,8.27,5.85a1,1,0,0,0,1.09-.57h0L111.83,40c.84-1.9-1.33-4.05-3.13-3.11Z"/><ellipse class="cls-3" cx="72.34" cy="77.84" rx="31" ry="31.99"/><ellipse cx="66.79" cy="71.03" rx="8.34" ry="8.6"/><ellipse class="cls-1" cx="69.37" cy="68.88" rx="3.22" ry="3.33"/><ellipse class="cls-1" cx="63.04" cy="74.13" rx="1.61" ry="1.66"/><ellipse cx="96.55" cy="69.49" rx="8.34" ry="8.6"/><ellipse class="cls-1" cx="99.13" cy="67.35" rx="3.22" ry="3.33"/><ellipse class="cls-1" cx="92.8" cy="72.59" rx="1.61" ry="1.66"/><path class="cls-4" d="M86.4,48.9s-8,1.77-21.33,5.86-22.36,7.76-22.36,7.76L43.25,57l2-18L46.4,28.71l2-18,.84-7.54,3,3.72,7.2,8.89,4.13,5.09,7.18,8.91,4.08,5L82,43.69Z"/><polygon class="cls-5" points="70.86 29.79 43.14 57.25 45.15 39.15 63.62 20.86 70.86 29.79"/><path class="cls-5" d="M82.22,43.92l-7,7H75L63.81,54.36l-.39.12L51.8,58.07l-.24.08L75,34.92Z"/><polygon class="cls-5" points="59.46 15.72 46.31 28.74 48.33 10.65 52.22 6.79 59.46 15.72"/><path class="cls-6" d="M91.44,87a47.54,47.54,0,0,1-4.79,7.51,16.45,16.45,0,0,1-4.44,4.08c-.19.19-1.2.36-1.39-.27a27.18,27.18,0,0,1-2.72-5.74,13.8,13.8,0,0,1-.86-5.76,1.13,1.13,0,0,1,.52-.82,8.52,8.52,0,0,1,3.57-1.21,23.64,23.64,0,0,1,3.76-.3,18.06,18.06,0,0,1,2.32.14,10.92,10.92,0,0,1,3.45.94l.2.11A.92.92,0,0,1,91.49,87Z"/><path class="cls-1" d="M81.33,84.83,80,89.47a.59.59,0,0,1-.73.39.57.57,0,0,1-.38-.39l-1-3.43A8.61,8.61,0,0,1,81.33,84.83Z"/><path class="cls-1" d="M90.86,85.58l-1,3.38a.59.59,0,0,1-.73.39.57.57,0,0,1-.38-.39l-1.31-4.32A11,11,0,0,1,90.86,85.58Z"/><path class="cls-7" d="M86.65,94.55a16.45,16.45,0,0,1-4.44,4.08c-.19.19-1.2.36-1.39-.27a27.18,27.18,0,0,1-2.72-5.74,6.13,6.13,0,0,1,2.12-.85,6.64,6.64,0,0,1,1.18-.11,5.93,5.93,0,0,1,1.39.16A6.37,6.37,0,0,1,86.65,94.55Z"/><polygon class="cls-8" points="86.6 78.86 82.51 82.19 88.71 81.42 86.6 78.86"/><path class="cls-1" d="M58,56a1.28,1.28,0,0,1,.61,1.25C58.32,59,56,62.41,52.71,65.71S46,71.21,44.29,71.4a1.19,1.19,0,0,1-1.18-.68h0L30.83,45.38A2.3,2.3,0,0,1,34,42.28Z"/><path class="cls-1" d="M183,48.34a1,1,0,0,0-.5,1.14c.33,1.69,2.68,5,6,8.29s6.62,5.58,8.27,5.85a1,1,0,0,0,1.09-.57h0L208,40c.84-1.9-1.33-4.05-3.13-3.11Z"/><ellipse class="cls-3" cx="168.5" cy="77.84" rx="31" ry="31.99"/><ellipse cx="162.95" cy="71.03" rx="8.34" ry="8.6"/><ellipse class="cls-1" cx="165.53" cy="68.88" rx="3.22" ry="3.33"/><ellipse class="cls-1" cx="159.2" cy="74.13" rx="1.61" ry="1.66"/><ellipse cx="192.71" cy="69.49" rx="8.34" ry="8.6"/><ellipse class="cls-1" cx="195.29" cy="67.35" rx="3.22" ry="3.33"/><ellipse class="cls-1" cx="188.96" cy="72.59" rx="1.61" ry="1.66"/><path class="cls-4" d="M182.56,48.9s-8,1.77-21.33,5.86-22.36,7.76-22.36,7.76l.54-5.49,2-18,1.15-10.32,2-18,.84-7.54,3,3.72,7.2,8.89,4.13,5.09L167,29.83l4,5,7.18,8.86Z"/><polygon class="cls-5" points="167.02 29.79 139.3 57.25 141.31 39.15 159.78 20.86 167.02 29.79"/><path class="cls-5" d="M178.38,43.83l-7,7-.28.09L160,54.27l-.39.12L148,58l-.24.08,23.42-23.23Z"/><polygon class="cls-5" points="155.62 15.72 142.47 28.74 144.49 10.65 148.38 6.79 155.62 15.72"/><path class="cls-6" d="M187.6,87a47.54,47.54,0,0,1-4.79,7.51,16.45,16.45,0,0,1-4.44,4.08c-.19.19-1.2.36-1.39-.27a26.66,26.66,0,0,1-2.71-5.74,13.65,13.65,0,0,1-.87-5.76,1.13,1.13,0,0,1,.52-.82,8.52,8.52,0,0,1,3.57-1.21,23.64,23.64,0,0,1,3.76-.3,18.06,18.06,0,0,1,2.32.14,10.92,10.92,0,0,1,3.45.94l.2.11a.92.92,0,0,1,.43,1.23Z"/><path class="cls-1" d="M177.49,84.83l-1.42,4.67a.59.59,0,0,1-.73.39.57.57,0,0,1-.38-.39l-1-3.43A8.53,8.53,0,0,1,177.49,84.83Z"/><path class="cls-1" d="M187,85.58,186,89a.59.59,0,0,1-.73.39.57.57,0,0,1-.38-.39l-1.31-4.32A11,11,0,0,1,187,85.58Z"/><path class="cls-7" d="M182.81,94.55a16.45,16.45,0,0,1-4.44,4.08c-.19.19-1.2.36-1.39-.27a26.66,26.66,0,0,1-2.71-5.74,6.16,6.16,0,0,1,2.11-.85,6.64,6.64,0,0,1,1.18-.11,6,6,0,0,1,1.4.17A6.36,6.36,0,0,1,182.81,94.55Z"/><polygon class="cls-8" points="182.76 78.86 178.67 82.19 184.87 81.42 182.76 78.86"/><path class="cls-1" d="M154.16,55.92a1.27,1.27,0,0,1,.61,1.25c-.25,1.79-2.53,5.16-5.86,8.46s-6.68,5.5-8.42,5.69a1.19,1.19,0,0,1-1.18-.68h0L127,45.3a2.3,2.3,0,0,1,3.13-3.1l24,13.72Z"/><path d="M264.66,113.1c-18.84,0-34.17-15.82-34.17-35.26a36.06,36.06,0,0,1,.93-8.15l-11.1-22.86a5.7,5.7,0,0,1,.22-5.46,5.3,5.3,0,0,1,7.28-2L234,42.9l4.46-40A3.24,3.24,0,0,1,240.65.14a3.09,3.09,0,0,1,.91-.14A3.13,3.13,0,0,1,244,1.17l32.8,40.42,2.51,3,20.32-10.66a5,5,0,0,1,2.35-.58,5.74,5.74,0,0,1,5.57,5.89,5.89,5.89,0,0,1-.47,2.11L297.85,62.1a12.18,12.18,0,0,1,.91,13.49c.05.8.08,1.55.08,2.28C298.84,97.28,283.51,113.1,264.66,113.1Z"/><path class="cls-1" d="M279.07,48.34a1,1,0,0,0-.5,1.14c.33,1.69,2.68,5,6,8.29s6.62,5.58,8.28,5.85a1,1,0,0,0,1.08-.57h0L304.16,40c.83-1.9-1.34-4.05-3.14-3.11Z"/><ellipse class="cls-9" cx="264.66" cy="77.84" rx="31" ry="31.99"/><ellipse cx="259.11" cy="71.03" rx="8.34" ry="8.6"/><ellipse class="cls-1" cx="261.69" cy="68.88" rx="3.22" ry="3.33"/><ellipse class="cls-1" cx="255.36" cy="74.13" rx="1.61" ry="1.66"/><ellipse cx="288.87" cy="69.49" rx="8.34" ry="8.6"/><ellipse class="cls-1" cx="291.45" cy="67.35" rx="3.22" ry="3.33"/><ellipse class="cls-1" cx="285.13" cy="72.59" rx="1.61" ry="1.66"/><path class="cls-10" d="M278.72,48.9s-8,1.77-21.33,5.86S235,62.52,235,62.52l.54-5.49,2-18,1.15-10.32,2-18,.84-7.54,3,3.72,7.2,8.89,4.13,5.09,7.18,8.91,4.08,5,7.18,8.86Z"/><polygon class="cls-11" points="263.18 29.79 235.46 57.25 237.47 39.15 255.94 20.86 263.18 29.79"/><path class="cls-11" d="M274.54,43.83l-7,7-.28.09-11.11,3.43-.39.12-11.62,3.59-.24.08,23.4-23.31Z"/><polygon class="cls-11" points="251.78 15.72 238.63 28.74 240.65 10.65 244.54 6.79 251.78 15.72"/><path class="cls-12" d="M283.76,87A47.54,47.54,0,0,1,279,94.55a16.41,16.41,0,0,1-4.43,4.08c-.2.19-1.21.36-1.4-.27a26.66,26.66,0,0,1-2.71-5.74,13.65,13.65,0,0,1-.87-5.76,1.22,1.22,0,0,1,.52-.82,8.66,8.66,0,0,1,3.57-1.21,23.64,23.64,0,0,1,3.76-.3,18.06,18.06,0,0,1,2.32.14,10.92,10.92,0,0,1,3.45.94l.2.11a.92.92,0,0,1,.44,1.21Z"/><path class="cls-1" d="M273.65,84.83l-1.42,4.67a.59.59,0,0,1-.73.39.57.57,0,0,1-.38-.39l-1-3.43A8.53,8.53,0,0,1,273.65,84.83Z"/><path class="cls-1" d="M283.18,85.58l-1,3.38a.59.59,0,0,1-.73.39.57.57,0,0,1-.38-.39l-1.31-4.32A11,11,0,0,1,283.18,85.58Z"/><path class="cls-13" d="M279,94.55a16.41,16.41,0,0,1-4.43,4.08c-.2.19-1.21.36-1.4-.27a26.66,26.66,0,0,1-2.71-5.74,6.16,6.16,0,0,1,2.11-.85,6.64,6.64,0,0,1,1.18-.11,5.93,5.93,0,0,1,1.39.16A6.33,6.33,0,0,1,279,94.55Z"/><polygon class="cls-14" points="278.92 78.86 274.83 82.19 281.03 81.42 278.92 78.86"/><path class="cls-1" d="M250.32,55.92a1.27,1.27,0,0,1,.61,1.25c-.25,1.79-2.53,5.16-5.86,8.46s-6.68,5.5-8.42,5.69a1.19,1.19,0,0,1-1.18-.68h0L223.16,45.3a2.3,2.3,0,0,1,3.13-3.1l24,13.72Z"/></g></svg>