<svg id="Layer_1" data-name="Layer 1" xmlns="http://www.w3.org/2000/svg" width="130" height="220" viewBox="0 0 130 220"><defs><style>.cls-1{fill:#c9cdce;}.cls-2{fill:#0670a8;}.cls-3,.cls-9{fill:#fff;}.cls-3{opacity:0.31;}.cls-4{fill:#e6e7e8;}.cls-5{fill:#bb3b3c;}.cls-6{opacity:0.5;}.cls-7{isolation:isolate;}.cls-8{fill:#2e3192;}.cls-10{fill:#7d7f81;}.cls-11{fill:none;stroke:#000;stroke-linecap:round;stroke-miterlimit:10;stroke-width:3.65px;}</style></defs><path class="cls-1" d="M.07,200.49h0a3,3,0,0,0,1.29,2.61l9.44,6.65a3.13,3.13,0,0,1,.83.87l4.56,7.24a3,3,0,0,0,2.31,1.42c11.5,1.14,80.16,1.1,93.3-1.4a3.08,3.08,0,0,0,2.32-2l1.06-3.09a3,3,0,0,1,1-1.38l12.68-10.2a3,3,0,0,0,1.13-2.63l-.57-6.46a3.07,3.07,0,0,0-3.28-2.78L2.94,197.57A3.05,3.05,0,0,0,.07,200.49Z"/><path class="cls-2" d="M116,41.16a34.33,34.33,0,0,0-12.22-18.74h0C92.35-6.43,27.6-.54,22.48,23.72a5.55,5.55,0,0,1-.27,2h0c-5.36,4-9.13,8.72-10.46,13.83L0,200.18q65.46-.93,130,.1Z"/><path class="cls-3" d="M94.11,186.21h0a2.78,2.78,0,0,1-2.8-2.68L86.24,31.21c0-1.54.33-3.67,1.89-3.7l2.94.81A2.77,2.77,0,0,1,93.91,31l3,152.36A2.78,2.78,0,0,1,94.11,186.21Z"/><path class="cls-4" d="M103.85,22.7C92.11-6.42,28.77-.08,22.58,23.6,25-5.37,98.46-9.94,103.85,22.7Z"/><path class="cls-5" d="M22.21,25.25c16.87-16.37,67.32-14.2,81.64-3C99.13-1.74,30.52-6.76,22.21,25.25Z"/><path class="cls-5" d="M0,200.18l.56-7.71c19.43-1.77,125-3,128.83-.36l.61,8.17Z"/><g class="cls-6"><g class="cls-7"><path class="cls-8" d="M22.86,120c-1.63.24-4.1.61-4.17-10.92,0-.28,0-28,3.88-33.54,1-1.38,4.62-2.51,5.95,4.95.71,4,2.36,37.93-5.66,39.51m.87-46.52c-5.61,2.1-8.22,45.81-2.84,47.73,10.33,3.68,11.3-37.09,7.6-44.92-1.75-3.7-4-3-4.76-2.81m-2.21,52.73C2.43,129.69,10.3,85,17.23,74.86,24,65,38.22,64.61,41.71,82.68c3.07,15.88-3.13,40.12-20.19,43.5m4.17-58.84C6.88,72.79,5.91,121.55,15,126.71,27.73,134,50,108.14,42.45,80.21c-3.25-12-11.06-14.42-16.76-12.87"/><path class="cls-9" d="M22.8,121.25c-2.33.39-4.83-.08-5-10.75,0-.29-.21-29.53,4.23-35.73,1.62-2.27,6.16-3.13,7.61,5.47.06.39,3.37,39-6.83,41m2.82-52.71c-18.15,5.23-18.94,52-10.18,56.94,12,6.78,32.94-18.2,25.81-44.79-3-11.25-10-13.65-15.63-12.15"/><path class="cls-8" d="M44.35,131.59,43,129.28c9.85-6.72,6.07-9.68,6-9.69-1-.22-2.16,0-3.17-.49a2.73,2.73,0,0,1-1.42-1.6c-.4-1.2-.43-4.67,1.85-6.18,3-2,10.69-1.29,8.78,8.55-.89,4.56-4.09,8.07-10.69,11.72m4.94-22.39c-7.72.53-7.22,8.8-4.84,10.65a6.49,6.49,0,0,0,4,1c-.1,1.4-.23,3.32-5.78,7.13a1.56,1.56,0,0,0-.77,2c2,3.44,2,3.44,5.61,1.22,7-4.34,8.22-8.61,8.62-10,1-3.41,1.65-12.23-6.8-12"/><path class="cls-9" d="M49.24,110.49c-6.31.41-5.52,6.92-4,8.21a5.17,5.17,0,0,0,3.38.86c1,0,1.45.41,1,2.62-.64,3-5,6-6.58,7.1l1.36,2.31c15.86-8.77,11.29-19.83,7-20.9a8.22,8.22,0,0,0-2.12-.2"/><path class="cls-8" d="M77.23,114.22c-1.51-.18-4.63-.57-5.2-11.11,0-.24-1.17-24.07,3.11-27.54,3.9-3.17,9.52,6,7,30.46-.89,8.61-3.71,8.31-4.91,8.19M76.28,74c-7.28-.52-7,34.87-2.71,39.76.09.1,8.8,7.87,10-8.65,1.9-26.76-2.88-30.68-7.26-31.11M76,119.44c-21.37-2.33-21.8-35.58-8.94-46,10.54-8.52,30.26-.92,27.39,27.66-1.28,12.66-8,19.34-18.45,18.32m2.28-50.3C57.49,67,52.1,100.5,62.82,113.74c8.58,10.59,30,11.94,32.69-11.51,2.08-18-5-31.64-17.26-33.09"/><path class="cls-9" d="M77.2,115.52c-2.82-.35-5.8-2-6.46-11.43,0-.26-1.57-25.87,3.59-29.57,7.09-5.1,12.06,13.79,8.86,33.69-1.11,6.91-3.78,7.54-6,7.31m1-45.14c-19.58-2-24.5,30-14.32,42.57,7.94,9.84,27.85,10.9,30.44-11.14,2-17.15-4.61-30.08-16.12-31.43"/><path class="cls-8" d="M117.8,109.61c-1.25-1.06-1-10.3.28-10.41,1.74-.14,1.23,9.79.66,10.53-.27.34-.61.15-.94-.12m.78-11.35c-2.39-2-2.12,7.54-2,8.9.38,4.3,2,4.24,2.41,3.73.82-1.17,1-11.21-.41-12.63m-.93,14.46c-4.24-3.73-3.8-17.19-.69-17.11,4.1.11,4.21,15.69,2.5,17.49-.27.29-.71.5-1.81-.38m.86-17.5c-3.53-3.06-5.1,2.54-4.53,9.49.65,7.93,4.61,10.82,5.67,9.61s1.72-16.28-1.14-19.1m-10.87-7.57c-.41-.17-1.49-.62-1.44-4.16,0-1.31.08-5.3,1.58-6.1,0,0,1.82-.93,2.56,1.78a18.56,18.56,0,0,1-.07,7.38c-.56,1.68-1.59,1.52-2.63,1.1m1.64-11.37c-4.9-1.93-4.25,8.66-3.4,10.7.94,2.25,3.8,3.16,4.85,1,.91-1.89,1.38-10.34-1.45-11.68m-1.91,14.57c-7.77-3.48-6.45-15.56-2.43-17a6.19,6.19,0,0,1,7,3.45c1.58,3.3,1.39,10,.44,12.22-.83,2-2.38,2.38-5,1.31m-.72,15.76a173.79,173.79,0,0,0,10.73-27.7l.32.3.31.3.3.3.28.3a152.72,152.72,0,0,1-9.66,27.38l-.55-.23-.57-.22-.57-.22-.59-.21m11.94-27.67c-.09-.11-.19-.21-.28-.31l-.3-.3-.31-.3-.32-.3-.18-.07a.83.83,0,0,0-.23.3c-1.72,5.48-1.9,6.06-3.39,10.09,2-15.16-7-17.4-10.38-14.69-4.89,4-2.94,18.3,6.35,19.32a2.85,2.85,0,0,0,2.51-.73c-2,4.7-4.62,9.11-6.27,14a1.77,1.77,0,0,0,.85,2l.59.22.58.21.56.22.56.22c.38.08.47,0,.7-.33,6.16-14.49,10.26-28,9-29.46"/><path class="cls-9" d="M117.8,110.83c-2.27-2.15-1.33-12.77.13-12.89,2.24-.17,2,11.56,1.06,13-.18.25-.5.51-1.19-.06m.71-14.41c-3.21-2.8-4.3,2.14-4,7.91.47,7.9,4.1,9.62,4.9,8.77,1.05-1.1,1.61-14.13-.95-16.68m-10.88-7.54c-1.08-.52-2.33-1.64-2.34-5.74,0-2.39.3-6.49,2.33-7.08,4.27-1.25,4.57,8.87,3.11,11.9-.59,1.24-1.61,1.54-3.1.92m1.52-14.5c-8.64-3.61-7.73,8.2-6.5,11.54,1.73,4.67,8,7.69,9.75,3.62.65-1.56,2.34-12.5-3.25-15.16m9.44,5.73-.28-.3-.3-.3-.31-.3-.32-.3a168.12,168.12,0,0,1-10.73,27.7l.59.21.57.22.57.22.55.23a157.12,157.12,0,0,0,9.66-27.38"/></g></g><ellipse cx="28.85" cy="161.06" rx="19.6" ry="19.41"/><ellipse class="cls-10" cx="29.65" cy="160.37" rx="17.52" ry="17.36"/><path class="cls-9" d="M30.29,172.64a14.5,14.5,0,1,1,14.64-14.5A14.59,14.59,0,0,1,30.29,172.64Z"/><ellipse cx="107.02" cy="166.61" rx="19.6" ry="19.41"/><path class="cls-10" d="M107.82,183.28a17.36,17.36,0,1,1,17.52-17.36A17.46,17.46,0,0,1,107.82,183.28Z"/><path class="cls-9" d="M108.46,178.19A14.5,14.5,0,1,1,123.1,163.7,14.58,14.58,0,0,1,108.46,178.19Z"/><path class="cls-11" d="M46.32,202c6.41-21.79,34.31-28.67,37.39,0"/><path class="cls-1" d="M.07,200.49h0a3,3,0,0,0,1.29,2.61l9.44,6.65a3.13,3.13,0,0,1,.83.87l4.56,7.24a3,3,0,0,0,2.31,1.42c11.5,1.14,80.16,1.1,93.3-1.4a3.08,3.08,0,0,0,2.32-2l1.06-3.09a3,3,0,0,1,1-1.38l12.68-10.2a3,3,0,0,0,1.13-2.63l-.57-6.46a3.07,3.07,0,0,0-3.28-2.78L2.94,197.57A3.05,3.05,0,0,0,.07,200.49Z"/><path class="cls-2" d="M116,41.16a34.33,34.33,0,0,0-12.22-18.74h0C92.35-6.43,27.6-.54,22.48,23.72a5.55,5.55,0,0,1-.27,2h0c-5.36,4-9.13,8.72-10.46,13.83L0,200.18q65.46-.93,130,.1Z"/><path class="cls-3" d="M94.11,186.21h0a2.78,2.78,0,0,1-2.8-2.68L86.24,31.21c0-1.54.33-3.67,1.89-3.7l2.94.81A2.77,2.77,0,0,1,93.91,31l3,152.36A2.78,2.78,0,0,1,94.11,186.21Z"/><path class="cls-4" d="M103.85,22.7C92.11-6.42,28.77-.08,22.58,23.6,25-5.37,98.46-9.94,103.85,22.7Z"/><path class="cls-5" d="M22.21,25.25c16.87-16.37,67.32-14.2,81.64-3C99.13-1.74,30.52-6.76,22.21,25.25Z"/><path class="cls-5" d="M0,200.18l.56-7.71c19.43-1.77,125-3,128.83-.36l.61,8.17Z"/><g class="cls-6"><g class="cls-7"><path class="cls-8" d="M22.86,120c-1.63.24-4.1.61-4.17-10.92,0-.28,0-28,3.88-33.54,1-1.38,4.62-2.51,5.95,4.95.71,4,2.36,37.93-5.66,39.51m.87-46.52c-5.61,2.1-8.22,45.81-2.84,47.73,10.33,3.68,11.3-37.09,7.6-44.92-1.75-3.7-4-3-4.76-2.81m-2.21,52.73C2.43,129.69,10.3,85,17.23,74.86,24,65,38.22,64.61,41.71,82.68c3.07,15.88-3.13,40.12-20.19,43.5m4.17-58.84C6.88,72.79,5.91,121.55,15,126.71,27.73,134,50,108.14,42.45,80.21c-3.25-12-11.06-14.42-16.76-12.87"/><path class="cls-9" d="M22.8,121.25c-2.33.39-4.83-.08-5-10.75,0-.29-.21-29.53,4.23-35.73,1.62-2.27,6.16-3.13,7.61,5.47.06.39,3.37,39-6.83,41m2.82-52.71c-18.15,5.23-18.94,52-10.18,56.94,12,6.78,32.94-18.2,25.81-44.79-3-11.25-10-13.65-15.63-12.15"/><path class="cls-8" d="M44.35,131.59,43,129.28c9.85-6.72,6.07-9.68,6-9.69-1-.22-2.16,0-3.17-.49a2.73,2.73,0,0,1-1.42-1.6c-.4-1.2-.43-4.67,1.85-6.18,3-2,10.69-1.29,8.78,8.55-.89,4.56-4.09,8.07-10.69,11.72m4.94-22.39c-7.72.53-7.22,8.8-4.84,10.65a6.49,6.49,0,0,0,4,1c-.1,1.4-.23,3.32-5.78,7.13a1.56,1.56,0,0,0-.77,2c2,3.44,2,3.44,5.61,1.22,7-4.34,8.22-8.61,8.62-10,1-3.41,1.65-12.23-6.8-12"/><path class="cls-9" d="M49.24,110.49c-6.31.41-5.52,6.92-4,8.21a5.17,5.17,0,0,0,3.38.86c1,0,1.45.41,1,2.62-.64,3-5,6-6.58,7.1l1.36,2.31c15.86-8.77,11.29-19.83,7-20.9a8.22,8.22,0,0,0-2.12-.2"/><path class="cls-8" d="M77.23,114.22c-1.51-.18-4.63-.57-5.2-11.11,0-.24-1.17-24.07,3.11-27.54,3.9-3.17,9.52,6,7,30.46-.89,8.61-3.71,8.31-4.91,8.19M76.28,74c-7.28-.52-7,34.87-2.71,39.76.09.1,8.8,7.87,10-8.65,1.9-26.76-2.88-30.68-7.26-31.11M76,119.44c-21.37-2.33-21.8-35.58-8.94-46,10.54-8.52,30.26-.92,27.39,27.66-1.28,12.66-8,19.34-18.45,18.32m2.28-50.3C57.49,67,52.1,100.5,62.82,113.74c8.58,10.59,30,11.94,32.69-11.51,2.08-18-5-31.64-17.26-33.09"/><path class="cls-9" d="M77.2,115.52c-2.82-.35-5.8-2-6.46-11.43,0-.26-1.57-25.87,3.59-29.57,7.09-5.1,12.06,13.79,8.86,33.69-1.11,6.91-3.78,7.54-6,7.31m1-45.14c-19.58-2-24.5,30-14.32,42.57,7.94,9.84,27.85,10.9,30.44-11.14,2-17.15-4.61-30.08-16.12-31.43"/><path class="cls-8" d="M117.8,109.61c-1.25-1.06-1-10.3.28-10.41,1.74-.14,1.23,9.79.66,10.53-.27.34-.61.15-.94-.12m.78-11.35c-2.39-2-2.12,7.54-2,8.9.38,4.3,2,4.24,2.41,3.73.82-1.17,1-11.21-.41-12.63m-.93,14.46c-4.24-3.73-3.8-17.19-.69-17.11,4.1.11,4.21,15.69,2.5,17.49-.27.29-.71.5-1.81-.38m.86-17.5c-3.53-3.06-5.1,2.54-4.53,9.49.65,7.93,4.61,10.82,5.67,9.61s1.72-16.28-1.14-19.1m-10.87-7.57c-.41-.17-1.49-.62-1.44-4.16,0-1.31.08-5.3,1.58-6.1,0,0,1.82-.93,2.56,1.78a18.56,18.56,0,0,1-.07,7.38c-.56,1.68-1.59,1.52-2.63,1.1m1.64-11.37c-4.9-1.93-4.25,8.66-3.4,10.7.94,2.25,3.8,3.16,4.85,1,.91-1.89,1.38-10.34-1.45-11.68m-1.91,14.57c-7.77-3.48-6.45-15.56-2.43-17a6.19,6.19,0,0,1,7,3.45c1.58,3.3,1.39,10,.44,12.22-.83,2-2.38,2.38-5,1.31m-.72,15.76a173.79,173.79,0,0,0,10.73-27.7l.32.3.31.3.3.3.28.3a152.72,152.72,0,0,1-9.66,27.38l-.55-.23-.57-.22-.57-.22-.59-.21m11.94-27.67c-.09-.11-.19-.21-.28-.31l-.3-.3-.31-.3-.32-.3-.18-.07a.83.83,0,0,0-.23.3c-1.72,5.48-1.9,6.06-3.39,10.09,2-15.16-7-17.4-10.38-14.69-4.89,4-2.94,18.3,6.35,19.32a2.85,2.85,0,0,0,2.51-.73c-2,4.7-4.62,9.11-6.27,14a1.77,1.77,0,0,0,.85,2l.59.22.58.21.56.22.56.22c.38.08.47,0,.7-.33,6.16-14.49,10.26-28,9-29.46"/><path class="cls-9" d="M117.8,110.83c-2.27-2.15-1.33-12.77.13-12.89,2.24-.17,2,11.56,1.06,13-.18.25-.5.51-1.19-.06m.71-14.41c-3.21-2.8-4.3,2.14-4,7.91.47,7.9,4.1,9.62,4.9,8.77,1.05-1.1,1.61-14.13-.95-16.68m-10.88-7.54c-1.08-.52-2.33-1.64-2.34-5.74,0-2.39.3-6.49,2.33-7.08,4.27-1.25,4.57,8.87,3.11,11.9-.59,1.24-1.61,1.54-3.1.92m1.52-14.5c-8.64-3.61-7.73,8.2-6.5,11.54,1.73,4.67,8,7.69,9.75,3.62.65-1.56,2.34-12.5-3.25-15.16m9.44,5.73-.28-.3-.3-.3-.31-.3-.32-.3a168.12,168.12,0,0,1-10.73,27.7l.59.21.57.22.57.22.55.23a157.12,157.12,0,0,0,9.66-27.38"/></g></g><ellipse cx="28.85" cy="161.06" rx="19.6" ry="19.41"/><ellipse class="cls-10" cx="29.65" cy="160.37" rx="17.52" ry="17.36"/><path class="cls-9" d="M30.29,172.64a14.5,14.5,0,1,1,14.64-14.5A14.59,14.59,0,0,1,30.29,172.64Z"/><ellipse cx="107.02" cy="166.61" rx="19.6" ry="19.41"/><path class="cls-10" d="M107.82,183.28a17.36,17.36,0,1,1,17.52-17.36A17.46,17.46,0,0,1,107.82,183.28Z"/><path class="cls-9" d="M108.46,178.19A14.5,14.5,0,1,1,123.1,163.7,14.58,14.58,0,0,1,108.46,178.19Z"/><path class="cls-11" d="M46.32,202c6.41-21.79,34.31-28.67,37.39,0"/></svg>