<svg xmlns="http://www.w3.org/2000/svg" width="465" height="138.29" viewBox="0 0 465 138.29"><defs><style>.cls-1{fill:#fff;}.cls-2{fill:#4d226d;}</style></defs><g id="Lite"><path class="cls-1" d="M69.19,138.29A69.25,69.25,0,0,1,0,70.39C-.68,31.57,31.29,0,70.14,0H394.86C433.71,0,465.68,31.57,465,70.39a69.25,69.25,0,0,1-69.18,67.9Z"/><rect class="cls-2" x="7.02" y="7.02" width="450.95" height="124.25" rx="62.12"/><path d="M395.81,14H69.19a55.12,55.12,0,0,0-55.14,55.1h0c0,1.06,0,2.12.09,3.16A55.13,55.13,0,0,1,69.19,20.36H395.81A55.13,55.13,0,0,1,450.86,72.3c.05-1,.09-2.1.09-3.16h0A55.12,55.12,0,0,0,395.81,14Z"/><path class="cls-1" d="M125.34,30.5C116.26,36,101,39.57,95,41.58,84.38,45.16,72.66,48.43,72.66,59.2c0,6.22,5.28,10.34,11,10.34,6.55,0,13.41-4.86,13.41-15.62-.74,2.53-2.22,4.33-5.07,4.33A3.28,3.28,0,0,1,88.5,55c0-7.92,16.47-11.93,27.76-16.89-5.49,9-22.8,45.9-34.52,45.9a4.73,4.73,0,0,1-5.07-4.64,5.15,5.15,0,0,1,3.59-4.85,17.35,17.35,0,0,0-7-1.69C65,72.81,59.15,80.19,59.15,88c0,9.18,7.17,15,16,15C85.75,103,93,95.49,99,85.15,108.87,67.74,121.33,34,125.34,30.5Z"/><path class="cls-1" d="M307.78,65.42a6,6,0,0,0,6-5.91,6.07,6.07,0,0,0-6-6,6,6,0,0,0-5.92,6A5.9,5.9,0,0,0,307.78,65.42Z"/><path class="cls-1" d="M404.38,82.51c-1.9,3-4.23,6.23-7.39,8.45a21.68,21.68,0,0,0,.95-7.39c0-1.69-.11-3.48-.11-5.28a14.76,14.76,0,0,1,.95-6,3.08,3.08,0,0,0,1,.1c1.48,0,3-.63,3-2.42,0-1.16-1.27-1.9-2.33-1.9-5.8,0-14,7.7-17.84,11.82-.32,0-.74-.11-1-.11-4.65,0-7.18,4.59-7.91,9a5.17,5.17,0,0,1-2.86,1.08c-1.48,0-2.11-1.16-2.11-2.43,0-3.9,4.54-8.33,4.54-13.82,0-3.06-2-4.43-5-4.43-4.43,0-9.6,4-12.14,7.39l2.85-6h-9.29l-5.71,12.66c-1.44,2.34-3.77,5.17-6.53,5.17h-.53a24.26,24.26,0,0,0,2.53-10.13c0-4.85-1.79-9.7-7.39-9.7C324.09,68.59,315.84,76,312,84c-2,2.86-5,5.93-7.33,5.93a2.15,2.15,0,0,1-2.11-2.22c0-3.69,5.07-13.29,6.76-17.09h-9.29l-5.53,12.57c-1.77,3-5.46,6.63-8.51,6.63-1.8,0-2.54-1.05-2.54-2.74a10.05,10.05,0,0,1,1.06-4.22l4-9.39h4.75l1.37-2.85h-4.85l5-11.08H293a21.4,21.4,0,0,1-15.95,11.08l-1.26,2.85h3.59L275,83.37c-2.8,4.47-7.32,8.11-12.69,8.11-4.22,0-6-2.53-6-6,0-4.75,3.7-11,8.35-13.51a7.22,7.22,0,0,0-.53,2.54c0,2.11,1.26,4.11,3.59,4.11a4.8,4.8,0,0,0,4.85-5,4.17,4.17,0,0,0-3.9-4.43c-7.55,0-15.66,7-19.85,14.66-1.81,2.69-5,6-7.29,6-1.69,0-2.32-1.37-2.32-2.85a7.62,7.62,0,0,1,.85-3.38l5.8-13.08h-9.08c-2,4.43-7.7,19.2-13.19,19.2-1.48,0-2.12-1-2.12-2.32a13.26,13.26,0,0,1,1.38-5l5.38-11.92H219L213.43,83c-1.7,2.77-5.06,6.91-8,6.91-2.32,0-3.27-1.69-3.27-3.9,0-4.44,5.17-11.4,8.45-14.25l-.21-1.26a48.92,48.92,0,0,1-11.09,1.79,7,7,0,0,1-3.8-.84,4.63,4.63,0,0,0,.84-2.64c0-1.27-.63-2.22-2-2.22-3,0-6.23,3.91-6.23,7.28a4.9,4.9,0,0,0,1.37,3.91A50.73,50.73,0,0,1,185.39,85c-1.95,2.47-4.81,4.83-7.26,4.83-1.8,0-2.53-1.05-2.53-2.74a10,10,0,0,1,1.05-4.22l4-9.39h4.75l1.38-2.85h-4.86l5-11.08H185.1a21.4,21.4,0,0,1-15.94,11.08l-1.27,2.85h3.59l-4.31,9.69a28.17,28.17,0,0,1-7,7.83,21.43,21.43,0,0,0,.95-7.39c0-1.69-.1-3.48-.1-5.28a14.59,14.59,0,0,1,.95-6,3,3,0,0,0,1,.1c1.47,0,2.95-.63,2.95-2.42,0-1.16-1.26-1.9-2.32-1.9-5.81,0-14,7.7-17.84,11.82-.32,0-.74-.11-1.06-.11-4.65,0-7.18,4.59-7.9,9a5.2,5.2,0,0,1-2.87,1.08,2.14,2.14,0,0,1-2.11-2.43c0-3.9,4.54-8.33,4.54-13.82,0-3.06-2-4.43-5-4.43-4.43,0-9.61,4-12.14,7.39l2.85-6h-9.29L98.63,101.93h9.19L115.1,86c1.58-3.49,6.12-11.19,10.45-11.19,1.27,0,1.69,1.06,1.69,2.11,0,5.38-8.13,12.77-8.13,20.15,0,3,1.8,5.91,5,5.91,4,0,8.72-4.58,12.6-9.52.76,5.5,4.68,9.73,10.73,9.73s12.05-6,16.48-11.91a20.61,20.61,0,0,0-.86,5.48c0,3.48,1.37,6.22,5.18,6.22,7.86,0,16.61-13.53,19.95-19.09.91-1.49,2-3.29,3.17-5.28a6.58,6.58,0,0,0,2,.32c4.23,0,8.24-3.06,11.93-4.86l.11.11c-6.13,4.64-16.16,14.77-16.16,23,0,3.69,2.12,5.8,5.81,5.8,4.68,0,10.55-6.12,14.94-11.89a18.44,18.44,0,0,0-.9,5.25c0,3.06.85,6.75,4.86,6.75,6.54,0,12.56-8.44,15.2-13.19l.11.11a18.31,18.31,0,0,0-1.69,7.17c0,2.85,1.05,5.91,4.43,5.91,4.25,0,10.1-6.77,14.26-12.48a15.82,15.82,0,0,0-.32,3.09c0,5.17,2.32,9.28,8,9.28,7.08,0,13.32-6,18-12.24a21.27,21.27,0,0,0-1,6c0,3.48,1.37,6.22,5.17,6.22,5.13,0,10.63-5.74,14.76-11.29a16.45,16.45,0,0,0-1.14,5.6c0,3.79,2.53,5.69,5.28,5.69,4.35,0,10.72-7.21,15.13-13.22a15.4,15.4,0,0,0-.24,2.67c0,5.49,2.95,10.66,9,10.66,7.5,0,13.73-6.75,17.1-12.87a7.24,7.24,0,0,0,5.48-1.6l-6,13.31h9.19L351.9,86c1.59-3.49,6.13-11.19,10.46-11.19,1.26,0,1.69,1.06,1.69,2.11,0,5.38-8.13,12.77-8.13,20.15,0,3,1.79,5.91,5,5.91,4.06,0,8.72-4.58,12.6-9.52.76,5.5,4.68,9.73,10.73,9.73,9,0,18-13.29,21.64-19.83ZM148.57,91.38A2.53,2.53,0,0,1,146,89.27a5.79,5.79,0,0,0,2.85-4.75,5.54,5.54,0,0,0-1.26-3.59,34.55,34.55,0,0,1,11.82-9.49C155.85,75.76,155.64,91.38,148.57,91.38ZM330,81.35a8.63,8.63,0,0,0,1.79,5.28c-1.58,2.21-4.12,4-6.86,4-3.38,0-4.65-2.64-4.65-5.59,0-5.91,5.6-14,12-14a3.15,3.15,0,0,1,3.38,2.75C332.48,74.39,330,78.19,330,81.35Zm55.42,10a2.52,2.52,0,0,1-2.53-2.11,5.79,5.79,0,0,0,2.85-4.75,5.49,5.49,0,0,0-1.27-3.59,34.58,34.58,0,0,1,11.83-9.49C392.66,75.76,392.45,91.38,385.37,91.38Z"/></g></svg>