<svg xmlns="http://www.w3.org/2000/svg" width="465" height="138.29" viewBox="0 0 465 138.29"><defs><style>.cls-1{fill:#fff;}.cls-2{fill:#4d226d;}</style></defs><g id="Lite"><path class="cls-1" d="M69.19,138.29A69.25,69.25,0,0,1,0,70.39C-.68,31.57,31.29,0,70.14,0H394.86C433.71,0,465.68,31.57,465,70.39a69.25,69.25,0,0,1-69.18,67.9Z"/><rect class="cls-2" x="7.02" y="7.02" width="450.95" height="124.25" rx="62.12"/><path d="M395.81,14H69.19a55.12,55.12,0,0,0-55.14,55.1h0c0,1.06,0,2.12.09,3.16A55.13,55.13,0,0,1,69.19,20.36H395.81A55.13,55.13,0,0,1,450.86,72.3c.05-1,.09-2.1.09-3.16h0A55.12,55.12,0,0,0,395.81,14Z"/><path class="cls-1" d="M144.82,71.88a4.21,4.21,0,0,0-1.58.32,4.45,4.45,0,0,1,2.64,3.8c0,3.06-3.8,4-6.23,4A32.68,32.68,0,0,1,130,78.42a87.94,87.94,0,0,0,9.18-13.5C159.71,58.38,172,41.29,172,30.73c0-3.06-1.37-5.06-4.64-5.06-11,0-24,12.66-35.48,36.08-6.33-.84-9.39-4.43-9.39-10.13,0-13.29,13.72-21,24.91-24.26a1.41,1.41,0,0,0-.95-.53c-14.14,0-38.85,14-38.85,30,0,8.23,7.71,10.77,14.57,10.77a53,53,0,0,0,7.07-.42c-1.68,3.58-3.8,7.8-4.75,9.49A38.38,38.38,0,0,0,113,74.84c-7.81,0-16.47,5-16.47,13.61,0,5.48,5,8.76,10.14,8.76s9.81-2.64,13.51-5.91c5.39,3.27,11.3,5.91,17.74,5.91,8.34,0,16.68-5.28,16.68-14.35C154.64,77.26,150.63,71.88,144.82,71.88Zm.63-21c2.85-7.49,6.87-15.62,11.2-15.62,1.79,0,1.79,2.11,1.79,3.38,0,7.91-7.81,18.46-17,22.05C142.71,58,143.87,55,145.45,50.89ZM107.23,94.15c-2.11,0-4.85-1-4.85-3.49,0-3,3.59-4.11,6-4.11a16.48,16.48,0,0,1,8.23,2.64C114.1,91.72,111,94.15,107.23,94.15Z"/><path class="cls-1" d="M198,83.91c-1.8,0-2.54-1-2.54-2.74A10,10,0,0,1,196.55,77l4-9.39h4.75l1.38-2.85h-4.86l5-11.08H205a21.43,21.43,0,0,1-15.95,11.08l-1.26,2.85h3.59L187,77.4c-2.75,4.33-6.89,8.09-13.68,8.09a4.74,4.74,0,0,1-5-4.85c6.23-.63,17-5.91,17-13.08,0-3-2-4.43-4.75-4.43-11.19,0-22.81,14-22.81,24.79,0,5.28,2.64,9.18,8.24,9.18,7,0,13.3-6.14,17.89-12.2a21.27,21.27,0,0,0-1,6c0,3.49,1.37,6.23,5.17,6.23,8.13,0,17.21-14.46,20.28-19.62l-1.48-.85C205.31,79.69,201.3,83.91,198,83.91ZM176.39,66c1.47,0,1.69,1.27,1.69,2.43,0,4.64-5.49,9.39-9.72,10.24C168.26,74.94,172.16,66,176.39,66Z"/><path class="cls-1" d="M229.81,32.53a6.54,6.54,0,0,0-6.44-6.44A6.35,6.35,0,0,0,217,32.42a6.26,6.26,0,0,0,5.6,6.33,10.23,10.23,0,0,1-9.29,5.07l-.11.63a15.2,15.2,0,0,0,2.11.21C222.52,44.66,229.81,39.28,229.81,32.53Z"/><path class="cls-1" d="M236,85.07a21.62,21.62,0,0,0,1-7.38c0-1.69-.11-3.49-.11-5.28a14.76,14.76,0,0,1,1-6,3.08,3.08,0,0,0,.95.1c1.48,0,3-.63,3-2.42,0-1.17-1.27-1.9-2.33-1.9-5.8,0-14,7.7-17.84,11.81-.31,0-.74-.1-1-.1-5.6,0-8.13,6.64-8.13,11.71,0,6.44,4.11,11.71,10.87,11.71,9,0,18-13.29,21.65-19.83l-1.48-.85C241.53,79.59,239.2,82.86,236,85.07Zm-11.62.42a2.52,2.52,0,0,1-2.53-2.11,5.77,5.77,0,0,0,2.85-4.74,5.49,5.49,0,0,0-1.27-3.59,34.61,34.61,0,0,1,11.83-9.5C231.71,69.88,231.5,85.49,224.42,85.49Z"/><path class="cls-1" d="M332.43,76.63c-1.37,2.43-3.91,5.91-7,5.91h-.53a24.34,24.34,0,0,0,2.54-10.13c0-4.85-1.8-9.71-7.39-9.71-7.85,0-16.09,7.37-19.9,15.35a47.37,47.37,0,0,1-13.47,12.82l11.62-26.16h-9l-1.58,3c-.21-2.64-2.11-3.8-4.65-3.8-11,0-21.75,15.41-21.75,25.54,0,4,2.12,7.7,6.44,7.7,5.71,0,10.77-7.6,13.1-12.13l.1.1L278,93.83c-6.76,4.22-20.59,13.29-20.59,22.16,0,2.32,1.27,4.32,3.91,4.32a11.65,11.65,0,0,0,5.28-1.48c9.39-5,14.57-15.19,18.79-24.47a49,49,0,0,0,13-10.9,15.82,15.82,0,0,0-.32,3.09c0,5.49,3,10.66,9,10.66,7.5,0,13.73-6.76,17.11-12.88,4.54.64,7.81-3.37,9.82-6.85Zm-63.88,37.25c-1.05,0-1.37-1.27-1.37-2.11,0-5.6,5.7-10.87,9.82-14C276.15,100.37,271.3,113.88,268.55,113.88Zm7.6-29.55c-1.79,0-2.63-2.11-2.63-3.58,0-4.54,5.06-14.25,10.24-14.25,1.79,0,2.42,1.8,2.42,3.27C286.18,74.31,281.43,84.33,276.15,84.33Zm41.92-8.86a8.63,8.63,0,0,0,1.79,5.28c-1.58,2.21-4.11,4-6.86,4-3.38,0-4.64-2.64-4.64-5.6,0-5.91,5.59-14,12-14a3.15,3.15,0,0,1,3.38,2.74C320.6,68.51,318.07,72.31,318.07,75.47Z"/><path class="cls-1" d="M368.43,34.32c0-3.69-1.8-7.17-5.91-7.17-3.91,0-7.29,3.58-9.93,10-5.59,13.61-5,29.33-10,43.05l1.37.53C349.74,66.5,368.43,49,368.43,34.32Z"/><ellipse class="cls-1" cx="339.61" cy="90.56" rx="6.76" ry="6.75"/></g></svg>