<svg xmlns="http://www.w3.org/2000/svg" width="270" height="300" viewBox="0 0 270 300"><defs><style>.cls-1{fill:#666;opacity:0.15;}.cls-1,.cls-8{isolation:isolate;}.cls-2{fill:#c2b6ac;}.cls-3,.cls-4{fill:#fff;}.cls-3{opacity:0.3;}.cls-5{fill:#615b56;}.cls-6{fill:#928981;}.cls-7{fill:#ffd413;}.cls-8{fill:#f7931e;opacity:0.4;}.cls-9{fill:none;stroke:#615b56;stroke-linecap:round;stroke-miterlimit:10;stroke-width:1.05px;}</style></defs><g id="Lite"><path d="M187.62,5.27a7.25,7.25,0,0,0-7-5.27H89.37a7.25,7.25,0,0,0-7,5.27L0,300H270Z"/><path class="cls-1" d="M211.55,300H40.43L85.12,12.46A8.87,8.87,0,0,1,93.92,5h76.5a8.89,8.89,0,0,1,8.86,7.83Z"/><path class="cls-2" d="M167.85,28V82c0,23.76-18.36,43-41,43-22.25,0-40.36-18.6-41-41.8,0-.41,0-.82,0-1.23V28C112.56,22.34,139.92,22.59,167.85,28Z"/><path class="cls-3" d="M161.37,53.12c0,36-13,65.23-42,65.23-14.09,0-24.81-11.86-31.64-29.8L85.85,78.28V39.43C109.64,33.91,134.43,33.8,160,38A75.59,75.59,0,0,1,161.37,53.12Z"/><path class="cls-4" d="M160.21,16H93.49a7.58,7.58,0,0,0-7.64,7.53v15.9C109.64,33.91,134.43,33.8,160,38c2.6.43,5.21.89,7.83,1.41V23.53h0A7.58,7.58,0,0,0,160.21,16Z"/><ellipse cx="94.89" cy="47.3" rx="3.71" ry="3.67"/><ellipse cx="130.58" cy="50.44" rx="3.71" ry="3.67"/><path d="M104.26,42.35,89.57,36.92a1.51,1.51,0,0,1-.9-1.94h0l.54-1.43a1.54,1.54,0,0,1,2-.89h0l14.68,5.42a1.5,1.5,0,0,1,.9,1.93h0l-.54,1.43a1.54,1.54,0,0,1-2,.9Z"/><path d="M119.45,42.7l14.69-5.43a1.51,1.51,0,0,0,.9-1.92v0l-.54-1.41a1.52,1.52,0,0,0-2-.9l0,0L117.8,38.46a1.5,1.5,0,0,0-.9,1.93h0l.54,1.43a1.54,1.54,0,0,0,2,.87Z"/><path d="M120.86,63.78a1.12,1.12,0,0,1-1-.73c-1-2.68-4.17-5.39-9.2-5.39-7,0-8.3,3.14-9.23,5.43a1.11,1.11,0,0,1-1.43.61,1.09,1.09,0,0,1-.62-1.41h0c1-2.38,2.75-6.81,11.28-6.81,6.11,0,10.07,3.44,11.29,6.85a1.1,1.1,0,0,1-.68,1.4h0A1.4,1.4,0,0,1,120.86,63.78Z"/><path class="cls-5" d="M101.76,86.59a1.18,1.18,0,0,1,1,.37c.9,1.37,3.91,2.75,8.62,2.75,6.57,0,7.76-1.6,8.62-2.77a1.42,1.42,0,0,1,1.35-.31c.53.11.79.44.58.72-.9,1.22-2.58,3.48-10.55,3.48-5.72,0-9.43-1.76-10.57-3.5-.19-.29.09-.61.63-.71A1.73,1.73,0,0,1,101.76,86.59Z"/><path class="cls-5" d="M99.64,92.58A1.65,1.65,0,0,1,101,93c1.21,1.69,5.27,3.4,11.62,3.4,8.87,0,10.47-2,11.64-3.43a2.13,2.13,0,0,1,1.82-.38c.72.14,1.07.54.78.9-1.22,1.5-3.48,4.29-14.24,4.29-7.71,0-12.72-2.17-14.25-4.32-.26-.36.12-.76.85-.88A2.38,2.38,0,0,1,99.64,92.58Z"/><path class="cls-6" d="M192.05,197.63l-6.06,4.8a6.56,6.56,0,0,1-9.16-1h0a6.41,6.41,0,0,1,.92-9l.08-.06,6-4.8a6.56,6.56,0,0,1,9.17,1h0a6.4,6.4,0,0,1-.89,9Z"/><path class="cls-2" d="M188.68,192l.1.59A12.15,12.15,0,0,1,178.6,206.4h-.06l-16,2.47a6.87,6.87,0,0,1-7.85-5.68l-.93-5.86a6.82,6.82,0,0,1,5.71-7.76h0l21.33-3.29a6.85,6.85,0,0,1,7.85,5.67Z"/><polygon class="cls-7" points="62.49 194.95 56.59 168.29 181.4 141.16 188.9 174.84 62.49 194.95"/><path d="M62.14,168.18l1.62,7.37a.6.6,0,0,0,.69.45h.2a.58.58,0,0,0,.45-.69h0l-1.62-7.37a.15.15,0,0,0-.19-.12h0l-1,.22A.14.14,0,0,0,62.14,168.18Z"/><polygon class="cls-8" points="186.77 173.69 184.28 162.07 62.36 185.83 63.89 193.01 186.77 173.69"/><path d="M117.17,155.92l3,13.6a.65.65,0,0,0,.76.48h.1a.64.64,0,0,0,.49-.75l-3-13.6Z"/><path d="M86.35,161.92l3,13.6a.65.65,0,0,0,.76.48h.09a.64.64,0,0,0,.49-.75l-3-13.6Z"/><path d="M150.85,148.91l3,13.6a.65.65,0,0,0,.76.49h.09a.62.62,0,0,0,.5-.72v0l-3-13.6Z"/><path d="M134,152.3l2.27,10.32a.71.71,0,0,0,.82.52h0a.7.7,0,0,0,.52-.81L135.34,152a.18.18,0,0,0-.22-.15h0l-1,.21a.18.18,0,0,0-.11.23Z"/><path d="M101.85,159.22l2.27,10.31a.69.69,0,0,0,.82.52h0a.69.69,0,0,0,.53-.8l-2.27-10.33a.19.19,0,0,0-.24-.15h0l-1,.21A.2.2,0,0,0,101.85,159.22Z"/><path d="M70.78,165.92l2.27,10.32a.68.68,0,0,0,.81.52h0a.68.68,0,0,0,.53-.8h0l-2.27-10.33a.21.21,0,0,0-.23-.15l-1,.21A.19.19,0,0,0,70.78,165.92Z"/><path d="M167.81,145l2.27,10.32a.69.69,0,0,0,.82.51h0a.67.67,0,0,0,.52-.79h0l-2.27-10.32a.18.18,0,0,0-.22-.15h0l-1,.21a.18.18,0,0,0-.11.23Z"/><path d="M142.25,150.18l1.62,7.37a.59.59,0,0,0,.7.45h.2a.56.56,0,0,0,.44-.67h0l-1.62-7.38a.16.16,0,0,0-.2-.12l-1,.22A.17.17,0,0,0,142.25,150.18Z"/><path d="M110.13,157.4l1.63,7.37a.6.6,0,0,0,.69.45l.2-.05a.58.58,0,0,0,.45-.69h0l-1.62-7.37a.15.15,0,0,0-.19-.12h0l-1,.22a.15.15,0,0,0-.15.16Z"/><path d="M79.06,164.19l1.62,7.37a.58.58,0,0,0,.69.44h.2a.58.58,0,0,0,.45-.69h0l-1.62-7.37a.17.17,0,0,0-.2-.13l-1,.22A.16.16,0,0,0,79.06,164.19Z"/><path d="M176.09,143.19l1.62,7.37a.6.6,0,0,0,.7.45l.2,0a.57.57,0,0,0,.44-.68h0l-1.62-7.35a.16.16,0,0,0-.2-.12l-1,.22A.16.16,0,0,0,176.09,143.19Z"/><path d="M125.33,154.19l1.62,7.37a.59.59,0,0,0,.7.44h.2a.58.58,0,0,0,.44-.69l-1.62-7.37a.17.17,0,0,0-.2-.13l-1,.22A.16.16,0,0,0,125.33,154.19Z"/><path d="M93.21,161.19l1.63,7.37a.58.58,0,0,0,.69.44h.2a.58.58,0,0,0,.45-.69h0l-1.62-7.37a.17.17,0,0,0-.2-.13l-1,.22A.17.17,0,0,0,93.21,161.19Z"/><path d="M159.17,147.19l1.62,7.37a.59.59,0,0,0,.7.44h.2a.58.58,0,0,0,.44-.69l-1.62-7.37a.17.17,0,0,0-.2-.13l-1,.22A.16.16,0,0,0,159.17,147.19Z"/><path class="cls-2" d="M54.05,192.92l-5.56-25.26a6.81,6.81,0,0,1,5.22-8.09h0l27.81-6,7,31.91Z"/><path class="cls-9" d="M127.4,55c.71,1.75,4.42,4.37,6.19,4"/><path class="cls-9" d="M90.67,55.07c1.87.34,6.1-1.35,6.75-3"/></g></svg>