<svg xmlns="http://www.w3.org/2000/svg" width="390.06" height="705.83" viewBox="0 0 390.06 705.83"><defs><style>.cls-1{fill:#22b573;}.cls-2{fill:#20150a;}.cls-3{fill:#770e12;}.cls-4{fill:#8c6239;}.cls-5{fill:#ed1c24;}.cls-6,.cls-9{fill:#b2151b;}.cls-7{fill:#fff;}.cls-21,.cls-8{fill:#908fb3;}.cls-8{opacity:0.4;}.cls-20,.cls-21,.cls-8,.cls-9{isolation:isolate;}.cls-9{opacity:0.8;}.cls-10{fill:#29abe2;}.cls-11{fill:#bbef1f;}.cls-12{fill:#bf1051;}.cls-13{fill:#ff7bac;}.cls-14{fill:#851014;}.cls-15{fill:#07a1e2;}.cls-16{fill:#0579aa;}.cls-17{fill:#321908;}.cls-18{fill:#ac8404;}.cls-19{fill:#f9c41e;}.cls-20{fill:#033d55;opacity:0.3;}.cls-21{opacity:0.5;}</style></defs><g id="Lite"><path class="cls-1" d="M390.05,658.81c.54,19-27.91,27.06-43.58,31.12a488.43,488.43,0,0,1-121.61,15.9c-39.67,0-81.94-.08-121.19-8.63-2.47-.54-5.34-1.22-8.4-2-16.94-.71-34-2.07-51.15-4.29a2.86,2.86,0,0,1-2.25-1.54,1.48,1.48,0,0,1-.14-.62V631.16c0-1,1.08-1.68,2.39-1.49a614.16,614.16,0,0,0,63.42,4.73c27.71-7.94,57.86-10.47,87-11.49,7.54-.28,15-.44,22.33-.57,38.5-.7,79.69-1.26,113.93,4.29C345.62,629,389.54,640.75,390.05,658.81Z"/><path class="cls-2" d="M180.87,639.5a2,2,0,0,0-1.29-2.52l-.11,0-.9-.23-45.8-11.92-.91-.24a2,2,0,0,0-2.44,1.42l0,.12-6.32,31.55a5,5,0,0,0,7.4,5.25l19.79-11.55,11.59,19.71a5,5,0,0,0,9-1Z"/><path class="cls-2" d="M301.21,628a2,2,0,0,0-2.12-1.87H299l-.93.11-47,5.61-.93.12a2,2,0,0,0-1.75,2.23s0,.07,0,.1L254.12,666a5,5,0,0,0,5.86,4,5,5,0,0,0,2.95-1.78l14.17-18,18,14.11a5,5,0,0,0,8-4.19Z"/><path class="cls-3" d="M169.28,485.39c-6.55-1.77-13.64-3.81-21.4-6C51.69,451.63-4.6,354.58,22.14,262.58a300.92,300.92,0,0,1,15.45-40.31l31.14,20.94,5.84-82.38L0,197l32.17,21.62c-10.54,18.94-19.06,39.07-23.9,55.73-26.74,92,29.55,189.06,125.74,216.77,12.13,3.5,22.93,6.36,32.77,8.42Z"/><polygon class="cls-4" points="181.73 628.8 181.73 643.7 168 633.76 161.77 639.98 153.56 629.86 139.31 635.01 138.06 626.31 125.58 630.04 133.07 621.34 185.56 474.71 212.34 478.75 181.73 628.8"/><polygon class="cls-4" points="298.79 621.34 303.78 630.04 288.81 627.55 285.07 636.25 275.09 628.8 262.61 639.98 261.22 631.11 246.39 638.74 248.88 627.55 237.29 466.63 272.19 462.59 298.79 621.34"/><path class="cls-5" d="M341.05,444.19l-1.48.62a27.6,27.6,0,0,1-36-14.49L273.13,359a27.39,27.39,0,0,1,14.55-35.88l1.48-.62a27.6,27.6,0,0,1,36,14.49l30.41,71.31A27.41,27.41,0,0,1,341.05,444.19Z"/><path class="cls-5" d="M286.8,507.46l25-126.28c16.07-47.56,29.38-68.48-69.93-78.18H201.63c-127.49,25.05-85.92,30.62-69.88,78.18l20.12,59.7C156.4,565.5,275.57,558.69,286.8,507.46Z"/><path class="cls-5" d="M286.8,511.46l24.81-125.41a14.53,14.53,0,0,1,.46-1.72c15.87-46.85,28.46-67.59-69.49-77.26a12.21,12.21,0,0,0-1.35-.07H203a13.74,13.74,0,0,0-2.64.26c-125.89,24.83-84.56,30.53-68.57,77.92l19.53,57.9a13.8,13.8,0,0,1,.68,3.71C157.62,569.43,275.62,562.42,286.8,511.46Z"/><path class="cls-5" d="M99.13,468.15h0A34.55,34.55,0,0,1,75.5,425.46l21.56-74.18a34.73,34.73,0,0,1,42.87-23.53h0a34.56,34.56,0,0,1,23.63,42.7L142,444.62A34.74,34.74,0,0,1,99.13,468.15Z"/><path class="cls-5" d="M354.87,488.75l-3.89,1.3a26.07,26.07,0,0,1-32.89-16.28l-15.16-45A25.9,25.9,0,0,1,319.28,396l3.89-1.3A26.08,26.08,0,0,1,356.06,411l15.16,45A25.9,25.9,0,0,1,354.87,488.75Z"/><ellipse class="cls-6" cx="189.89" cy="376.46" rx="41.74" ry="41.56"/><ellipse class="cls-5" cx="192.65" cy="370.34" rx="41.74" ry="41.56"/><ellipse class="cls-6" cx="276.98" cy="378.34" rx="39.31" ry="39.14"/><ellipse class="cls-5" cx="274.38" cy="372.57" rx="39.31" ry="39.14"/><path class="cls-7" d="M274.71,142.34a3.2,3.2,0,0,0-1.67,3.59c1.1,5.36,8.77,15.8,19.65,26.2s21.66,17.6,27.08,18.47a3.24,3.24,0,0,0,3.54-1.8h0l33.47-72.93c2.75-6-4.36-12.78-10.25-9.81l-71.82,36.28Z"/><path class="cls-8" d="M273.52,172.7c-8.88-9.35-12.13-15.84-12.51-20.79-.11-1.39,3.58-3.56,4.87-4.2h0l71.19-35.79c3.36-1.69,9.75-5.67,11.36-3.17C349.62,110.59,285,162.61,273.52,172.7Z"/><ellipse class="cls-5" cx="227.55" cy="235.5" rx="101.46" ry="101.02"/><ellipse cx="209.38" cy="213.99" rx="27.28" ry="27.16"/><ellipse class="cls-7" cx="217.81" cy="207.21" rx="10.55" ry="10.51"/><ellipse class="cls-7" cx="197.11" cy="223.78" rx="5.28" ry="5.25"/><ellipse cx="306.77" cy="209.14" rx="27.28" ry="27.16"/><ellipse class="cls-7" cx="315.2" cy="202.36" rx="10.55" ry="10.51"/><ellipse class="cls-7" cx="294.51" cy="218.93" rx="5.28" ry="5.25"/><path class="cls-9" d="M140.34,228.77c2.81-35,11-64.52,38.38-82.62a100.93,100.93,0,0,0-53.47,89c0,55.79,45.43,101,101.46,101a101.29,101.29,0,0,0,56.1-16.85c-14.28,7.65-30.83,14.66-48,12C150.32,318.22,137.87,259.83,140.34,228.77Z"/><path class="cls-10" d="M273.56,144.11s-26.24,5.59-69.81,18.51-73.19,24.49-73.19,24.49l1.78-17.33,6.53-56.67,3.76-32.6,6.54-56.68L151.93,0l9.94,11.76,23.49,28,13.51,16.07,23.5,28,13.35,15.89,23.5,28Z"/><polygon class="cls-11" points="222.7 83.77 131.97 170.46 138.56 113.32 199.01 55.57 222.7 83.77"/><path class="cls-11" d="M259.87,128l-23,22-.91.27-36.34,10.85-1.28.38-38,11.34-.81.24,76.64-73.29Z"/><polygon class="cls-11" points="185.38 39.34 142.36 80.45 148.95 23.31 161.69 11.14 185.38 39.34"/><path class="cls-12" d="M290,264.55a150.32,150.32,0,0,1-15.67,23.73c-4.41,5.31-9.41,10.17-14.51,12.89-.65.59-3.93,1.12-4.57-.87a85,85,0,0,1-8.88-18.14c-3.88-11.39-2.82-18.17-2.82-18.17a3.64,3.64,0,0,1,1.68-2.58c2.23-1.7,6.47-3.08,11.7-3.94a77.77,77.77,0,0,1,12.29-1,64.32,64.32,0,0,1,7.6.45,36.86,36.86,0,0,1,11.29,3c.43.21.64.34.64.34C290.45,261.33,291.21,263.12,290,264.55Z"/><path class="cls-7" d="M257,257.47l-4.64,14.75a1.92,1.92,0,0,1-3.66,0l-3.4-10.81C247.49,259.71,251.73,258.33,257,257.47Z"/><path class="cls-7" d="M288.14,260l-3.36,10.65a1.91,1.91,0,0,1-3.65,0L276.87,257A36.74,36.74,0,0,1,288.14,260Z"/><path class="cls-13" d="M274.36,288.28c-4.41,5.31-9.41,10.17-14.51,12.89-.65.59-3.93,1.12-4.57-.87a85,85,0,0,1-8.88-18.14,20.05,20.05,0,0,1,6.93-2.67,21.51,21.51,0,0,1,3.84-.35,20.74,20.74,0,0,1,17.19,9.14Z"/><polygon class="cls-14" points="274.22 238.73 260.82 249.24 281.11 246.81 274.22 238.73"/><polygon class="cls-6" points="274.22 238.73 266.5 226.61 273.81 239.54 260.82 249.24 274.22 238.73"/><polygon points="243.88 344.89 238.18 322.18 260.11 327.96 243.88 344.89"/><path class="cls-6" d="M207.07,447.56a23.47,23.47,0,0,1-4.09-3.2,19.34,19.34,0,0,0,6.29,6.21,19.74,19.74,0,0,0,27.11-6.41c.26-.41.5-.83.72-1.25A23.48,23.48,0,0,1,207.07,447.56Z"/><path class="cls-6" d="M207.87,470.58a22.56,22.56,0,0,1-4.47-2.64,19.65,19.65,0,0,0,33.06-4.49c.2-.45.38-.89.55-1.34A23.46,23.46,0,0,1,207.87,470.58Z"/><path class="cls-6" d="M270.46,449.18a22.05,22.05,0,0,0,4.16-2.65,18.43,18.43,0,0,1-6.51,5.31,18.78,18.78,0,0,1-25.1-8.5c-.2-.41-.39-.83-.56-1.25A22.31,22.31,0,0,0,270.46,449.18Z"/><path class="cls-6" d="M269.67,470.72a22.55,22.55,0,0,0,4.36-2.33,18.74,18.74,0,0,1-31.27-5.61c-.17-.43-.33-.86-.47-1.29A22.3,22.3,0,0,0,269.67,470.72Z"/><path class="cls-5" d="M130.22,521.65l-.87.29a27.68,27.68,0,0,1-34.91-17.28L76.18,450.52a27.5,27.5,0,0,1,17.36-34.75l.87-.29a27.67,27.67,0,0,1,34.9,17.28l18.26,54.14A27.49,27.49,0,0,1,130.22,521.65Z"/><path class="cls-15" d="M231.6,570.88,234,609h70.61L294.1,478.75s-49.51,34.75-138,0c-.81,8.89-44.44,131-44.44,131.25H220.37Z"/><polygon class="cls-16" points="233.23 570.83 242.78 556.8 247.84 608 236.02 608 233.23 570.83"/><path class="cls-17" d="M232.2,508.16c-34.25,0-65.09-10.73-77.54-17.93.47-1.53,1.21-4.28,2.58-9.37,21.49,7.63,46.48,15.54,72.93,15.54,21.2,0,41.67-4.95,62.5-15.14l1,12.61C276,503.35,255.27,508.16,232.2,508.16Z"/><polygon class="cls-15" points="175.03 502.22 172.69 501.55 176.98 486.8 179.32 487.47 175.03 502.22"/><polygon class="cls-15" points="281.2 501.71 278.83 502.26 275.35 487.3 277.72 486.75 281.2 501.71"/><ellipse class="cls-18" cx="240.13" cy="502.59" rx="23.94" ry="23.84"/><path class="cls-19" d="M255.08,487.34,252,499.08l10,7a2.63,2.63,0,0,1-1.38,4.79l-12.18.68-3.6,11.6a2.65,2.65,0,0,1-5,.18L235.39,512l-12.19.18a2.64,2.64,0,0,1-1.72-4.68l9.39-7.71-3.94-11.49a2.64,2.64,0,0,1,3.94-3.07l10.3,6.56,9.76-7.28a2.65,2.65,0,0,1,4.15,2.83Z"/><polygon class="cls-16" points="154.36 493.35 116.07 605.63 138.27 606.44 154.36 493.35"/><path class="cls-20" d="M137.4,171.58h0a8.21,8.21,0,0,0,7.29,9,8.13,8.13,0,0,0,3.36-.33l21.06-8.65L154.05,29.37a1.18,1.18,0,0,0-2.35,0Z"/><path class="cls-7" d="M180.6,166.54a3.89,3.89,0,0,1,2,3.94c-.82,5.65-8.29,16.3-19.16,26.7s-21.87,17.39-27.57,18A3.91,3.91,0,0,1,132,213h0L91.7,133A7.41,7.41,0,0,1,102,123.2l78.64,43.34Z"/><path class="cls-21" d="M155.31,201.44c-8.95,8.15-15.19,11-20,11.18-1.34,0-3.46-3.59-4.09-4.85h0L96.08,137.94c-1.66-3.3-5.56-9.6-3.16-11C94.68,125.84,145.46,190,155.31,201.44Z"/></g></svg>