<svg id="Layer_1" data-name="Layer 1" xmlns="http://www.w3.org/2000/svg" width="175" height="75" viewBox="0 0 175 75"><defs><style>.cls-1{fill:#220a34;}.cls-2{fill:#fff;}</style></defs><path class="cls-1" d="M175,44.13a11.93,11.93,0,0,0-22.16-6.28,9.86,9.86,0,0,0-9.12-5.33,22.47,22.47,0,0,0-13.9,5.38,6.14,6.14,0,0,0-2.35-3,6,6,0,0,0-3.35-1,5.86,5.86,0,0,0-1.38.17l-.72.17c-1.65.39-3.25.77-4.78,1a7.6,7.6,0,0,0-7.18-4.8c-3.6,0-6.81,2.14-8.92,5a11.76,11.76,0,0,0-8.37-3.22c-4.25,0-9.56,1.87-14.33,5.82a9.4,9.4,0,0,0-8.32-5.26c-4.72,0-9.7,2.06-14.18,5.77a44.94,44.94,0,0,0-1.26-4.93c8.44-3.4,16.21-9.94,16.21-19.87,0-7.57-5.24-12.46-13.34-12.46A28.94,28.94,0,0,0,39,8.4,19.09,19.09,0,0,0,23.61,0C14.79,0,8.14,6.4,8.14,14.89c0,7.34,4.09,13.3,11.42,17.15A21,21,0,0,0,0,53c0,12.48,10,21.9,23.33,21.9A34.24,34.24,0,0,0,45.4,67a12.25,12.25,0,0,0,11.87,7.84c4.55,0,8.93-1.75,13.24-5.32a13.13,13.13,0,0,0,10.8,5.42c7.37,0,13.84-5,18.18-11.25,0,6.57,4.61,11.15,11.13,11.15,3.25,0,6.64-1.49,10.22-4.52A12.65,12.65,0,0,0,131,74.81c5.53,0,10.33-2.66,14.42-6.4A11.93,11.93,0,0,0,168,62.92a12.05,12.05,0,0,0-2.24-7A12.08,12.08,0,0,0,175,44.13ZM31,19l0,0h.06A.08.08,0,0,0,31,19Z"/><path class="cls-2" d="M47,29.56c7.58-1.68,17.84-6.73,17.84-15.89,0-4.58-3.14-6.35-7.3-6.35C47,7.32,36.28,16.38,35,27c-4.9-.56-10.44-3.55-10.44-9.15,0-3.37,3.51-5,6.47-5a8.57,8.57,0,0,1,4.25,1.22c-2-4.49-6.66-8-11.65-8-5.18,0-9.43,3.37-9.43,8.79,0,10.37,12,14.2,20.34,15.32C33.87,37.59,36.65,44.7,36.65,52c0,7.76-5.46,13.74-13.22,13.74-6.66,0-12.86-4.39-12.86-11.59,0-3.27,1.76-6.63,5.46-6.63a4.62,4.62,0,0,1,4.34,4.39,4.43,4.43,0,0,1-3.88,4.39,10,10,0,0,0,6.1,2.43,9.75,9.75,0,0,0,10.08-9.9c0-6.36-5-10.75-11.09-10.75C13.16,38.06,6,44.32,6,53,6,62.73,14.27,68.8,23.33,68.8c13.87,0,27.1-10.28,27.1-25C50.43,38.81,48.48,34.23,47,29.56ZM46,23.3c0-4,1.66-12.62,6.84-12.62,2.68,0,3.42,3.09,3.42,5.33,0,5.51-4.62,9.81-9.8,10.74A14,14,0,0,1,46,23.3Z"/><path class="cls-2" d="M73.45,59.36c0,5,2.59,9.44,7.86,9.44,6.84,0,13.13-6.82,16.18-13.92,5.27-.75,9.25-6.17,10.17-7.66a8.31,8.31,0,0,0,1.48.18c3.7,0,7.21-2.7,10.45-4.29l.09.09c-5.36,4.11-14.15,13.08-14.15,20.37,0,3.27,1.85,5.14,5.09,5.14,4.21,0,9.53-5.74,13.4-11a15.44,15.44,0,0,0-.28,2.84c0,4.67,2.32,8.13,7.22,8.13,8.87,0,16.36-11.31,20.06-17.38l-1.29-.75c-2.41,4.11-6.1,7.85-12.39,7.85a4.17,4.17,0,0,1-4.35-4.3c5.46-.56,14.89-5.23,14.89-11.58,0-2.62-1.76-3.93-4.16-3.93-7.11,0-14.41,6.54-17.89,13.77-1.58,2.25-3.9,4.73-6.06,4.73s-2.86-1.49-2.86-3.46c0-3.92,4.53-10.09,7.39-12.61l-.18-1.12a42,42,0,0,1-9.71,1.59,6.06,6.06,0,0,1-3.33-.75,4.14,4.14,0,0,0,.74-2.34c0-1.12-.55-2-1.76-2-2.59,0-5.45,3.55-5.45,6.08,0,1.3.18,3.17,1.48,3.92-.83,1.59-4.26,5.33-7.77,6.17a21.07,21.07,0,0,0,.93-5c.18-4.58-1.21-9.34-6.48-9.34-7,0-14.23,6.62-17.51,13.73-2.47,3.66-6.25,6.54-10.69,6.54-3.7,0-5.27-2.24-5.27-5.32,0-4.21,3.24-9.72,7.31-12a6.42,6.42,0,0,0-.47,2.24c0,1.87,1.11,3.64,3.15,3.64a4.23,4.23,0,0,0,4.25-4.39,3.68,3.68,0,0,0-3.42-3.92c-9.43,0-19.88,12.52-19.88,21.67,0,4.58,2,8.23,7,8.23,6.51,0,12.21-5.91,16.38-11.67A14.36,14.36,0,0,0,73.45,59.36ZM140,41.14c1.29,0,1.48,1.12,1.48,2.15,0,4.11-4.81,8.32-8.51,9.07C132.9,49.09,136.32,41.14,140,41.14ZM82.51,52.45c.18-5.14,5-12.05,10.54-12.05a2.77,2.77,0,0,1,3,2.43c-2.68.46-5,4.39-5.18,7a6.23,6.23,0,0,0,1.76,4.39,7.77,7.77,0,0,1-6,3.56C83.53,57.78,82.42,55.16,82.51,52.45Z"/><ellipse class="cls-2" cx="156.01" cy="62.92" rx="5.92" ry="5.98"/><ellipse class="cls-2" cx="163.04" cy="44.13" rx="5.92" ry="5.98"/></svg>