<svg id="Layer_1" data-name="Layer 1" xmlns="http://www.w3.org/2000/svg" xmlns:xlink="http://www.w3.org/1999/xlink" width="1920" height="1080" viewBox="0 0 1920 1080"><defs><style>.cls-1{fill:url(#linear-gradient);}.cls-2{fill:#feefd8;}.cls-3{opacity:0.5;}.cls-4{fill:#fff;opacity:0.61;}</style><linearGradient id="linear-gradient" x1="957.39" y1="1082.79" x2="957.39" y2="-0.57" gradientUnits="userSpaceOnUse"><stop offset="0.28" stop-color="#ed1e79"/><stop offset="0.72" stop-color="#662d91"/><stop offset="0.88" stop-color="#1b1464"/><stop offset="1" stop-color="#120334"/></linearGradient></defs><rect class="cls-1" x="-5.15" y="-0.57" width="1925.08" height="1083.36"/><path class="cls-2" d="M1726.72,55a98.38,98.38,0,0,0-78.29,12.39,4.68,4.68,0,0,0,2.1,8.61,99.12,99.12,0,0,1,16.74,2.89c52.79,13.87,84.31,68.06,70.4,121.05A99,99,0,0,1,1716,240.62a4.68,4.68,0,0,0,4.42,7.69,99.22,99.22,0,0,0,76.72-72.23C1811,123.09,1779.52,68.89,1726.72,55Z"/><g class="cls-3"><path class="cls-4" d="M571.38,96.53l-6.28-18a1.91,1.91,0,0,0-1.75-1.28l-19.11-.39a1.9,1.9,0,0,1-1.11-3.41l15.23-11.54a1.91,1.91,0,0,0,.67-2.07L553.5,41.5a1.89,1.89,0,0,1,2.9-2.1l15.68,10.91a1.91,1.91,0,0,0,2.17,0L589.94,39.4a1.89,1.89,0,0,1,2.9,2.1l-5.53,18.29a1.91,1.91,0,0,0,.67,2.07L603.2,73.4a1.89,1.89,0,0,1-1.1,3.41L583,77.2a1.91,1.91,0,0,0-1.75,1.28l-6.28,18A1.89,1.89,0,0,1,571.38,96.53Z"/><path class="cls-4" d="M765.53,152.65l-4-11.59a1.21,1.21,0,0,0-1.13-.82L748.1,140a1.22,1.22,0,0,1-.71-2.19l9.78-7.42a1.21,1.21,0,0,0,.43-1.32l-3.55-11.75a1.21,1.21,0,0,1,1.86-1.35L766,123a1.24,1.24,0,0,0,1.4,0l10.07-7a1.21,1.21,0,0,1,1.86,1.35l-3.55,11.75a1.21,1.21,0,0,0,.43,1.32L786,137.8a1.22,1.22,0,0,1-.71,2.19l-12.27.25a1.21,1.21,0,0,0-1.13.82l-4,11.59A1.22,1.22,0,0,1,765.53,152.65Z"/><path class="cls-4" d="M336.4,65.42l-4-11.6a1.22,1.22,0,0,0-1.13-.81L319,52.76a1.22,1.22,0,0,1-.71-2.2L328,43.15a1.22,1.22,0,0,0,.43-1.32l-3.56-11.75a1.22,1.22,0,0,1,1.87-1.35l10.07,7a1.22,1.22,0,0,0,1.39,0l10.08-7a1.21,1.21,0,0,1,1.86,1.35l-3.55,11.75a1.21,1.21,0,0,0,.43,1.32l9.78,7.41a1.23,1.23,0,0,1-.72,2.2L343.86,53a1.22,1.22,0,0,0-1.13.81l-4,11.6A1.22,1.22,0,0,1,336.4,65.42Z"/><path class="cls-4" d="M896.21,196.05l-2.58-7.43a.78.78,0,0,0-.73-.52l-7.86-.16a.79.79,0,0,1-.46-1.41l6.27-4.75a.8.8,0,0,0,.28-.85l-2.28-7.53a.78.78,0,0,1,1.19-.87l6.46,4.5a.8.8,0,0,0,.89,0l6.46-4.5a.79.79,0,0,1,1.2.87l-2.28,7.53a.77.77,0,0,0,.27.85l6.27,4.75a.78.78,0,0,1-.45,1.41l-7.87.16a.76.76,0,0,0-.72.52l-2.58,7.43A.78.78,0,0,1,896.21,196.05Z"/><path class="cls-4" d="M978.38,101l-4.74-13.64a1.46,1.46,0,0,0-1.33-1l-14.44-.29a1.44,1.44,0,0,1-.84-2.58l11.51-8.73a1.44,1.44,0,0,0,.51-1.56l-4.18-13.82a1.43,1.43,0,0,1,2.19-1.6l11.86,8.25a1.41,1.41,0,0,0,1.64,0l11.85-8.25a1.44,1.44,0,0,1,2.2,1.6l-4.18,13.82a1.42,1.42,0,0,0,.5,1.56l11.51,8.73a1.43,1.43,0,0,1-.83,2.58l-14.45.29a1.43,1.43,0,0,0-1.32,1L981.09,101A1.43,1.43,0,0,1,978.38,101Z"/><path class="cls-4" d="M1147.81,167.67l-4-11.6a1.22,1.22,0,0,0-1.13-.81l-12.27-.25a1.23,1.23,0,0,1-.71-2.2l9.78-7.41a1.21,1.21,0,0,0,.43-1.32l-3.55-11.75a1.21,1.21,0,0,1,1.86-1.35l10.07,7a1.24,1.24,0,0,0,1.4,0l10.07-7a1.21,1.21,0,0,1,1.86,1.35L1158,144.08a1.21,1.21,0,0,0,.43,1.32l9.78,7.41a1.23,1.23,0,0,1-.71,2.2l-12.27.25a1.22,1.22,0,0,0-1.13.81l-4,11.6A1.22,1.22,0,0,1,1147.81,167.67Z"/><path class="cls-4" d="M1313.27,112.78l-7.44-21.42a2.25,2.25,0,0,0-2.09-1.51l-22.67-.46a2.26,2.26,0,0,1-1.31-4l18.07-13.7a2.25,2.25,0,0,0,.79-2.45l-6.56-21.7a2.25,2.25,0,0,1,3.44-2.5l18.61,12.95a2.26,2.26,0,0,0,2.58,0L1335.3,45a2.25,2.25,0,0,1,3.44,2.5l-6.56,21.7a2.25,2.25,0,0,0,.79,2.45L1351,85.34a2.26,2.26,0,0,1-1.32,4l-22.66.46a2.25,2.25,0,0,0-2.09,1.51l-7.44,21.42A2.25,2.25,0,0,1,1313.27,112.78Z"/><path class="cls-4" d="M1377.91,210l-2.28-6.56a.7.7,0,0,0-.64-.47l-7-.14a.69.69,0,0,1-.4-1.24l5.54-4.2a.67.67,0,0,0,.24-.75l-2-6.65a.69.69,0,0,1,1.06-.77l5.7,4a.68.68,0,0,0,.79,0l5.71-4a.69.69,0,0,1,1,.77l-2,6.65a.69.69,0,0,0,.24.75l5.54,4.2a.69.69,0,0,1-.4,1.24l-6.95.14a.71.71,0,0,0-.64.47l-2.28,6.56A.69.69,0,0,1,1377.91,210Z"/><path class="cls-4" d="M94.52,57.57,92.24,51a.69.69,0,0,0-.64-.47l-6.95-.14a.69.69,0,0,1-.4-1.24L89.79,45a.67.67,0,0,0,.24-.75l-2-6.65a.69.69,0,0,1,1.06-.77l5.7,4a.71.71,0,0,0,.79,0l5.71-4a.69.69,0,0,1,1,.77l-2,6.65a.69.69,0,0,0,.24.75l5.54,4.2a.69.69,0,0,1-.4,1.24l-7,.14a.7.7,0,0,0-.64.47l-2.28,6.56A.69.69,0,0,1,94.52,57.57Z"/><path class="cls-4" d="M1489.44,119.56l-4-11.59a1.23,1.23,0,0,0-1.13-.82L1472,106.9a1.22,1.22,0,0,1-.72-2.19l9.78-7.42a1.2,1.2,0,0,0,.43-1.32L1478,84.22a1.22,1.22,0,0,1,1.86-1.35l10.08,7a1.22,1.22,0,0,0,1.39,0l10.07-7a1.22,1.22,0,0,1,1.87,1.35L1499.67,96a1.21,1.21,0,0,0,.43,1.32l9.78,7.42a1.22,1.22,0,0,1-.71,2.19l-12.27.25a1.23,1.23,0,0,0-1.13.82l-4,11.59A1.22,1.22,0,0,1,1489.44,119.56Z"/><path class="cls-4" d="M1864.7,91.46l-4-11.59a1.23,1.23,0,0,0-1.12-.82l-12.27-.25a1.22,1.22,0,0,1-.72-2.19l9.78-7.41a1.22,1.22,0,0,0,.43-1.33l-3.55-11.74a1.22,1.22,0,0,1,1.86-1.35l10.08,7a1.19,1.19,0,0,0,1.39,0l10.07-7a1.22,1.22,0,0,1,1.87,1.35l-3.56,11.74a1.25,1.25,0,0,0,.43,1.33l9.78,7.41a1.22,1.22,0,0,1-.71,2.19l-12.27.25a1.24,1.24,0,0,0-1.13.82l-4,11.59A1.22,1.22,0,0,1,1864.7,91.46Z"/><path class="cls-4" d="M203,110.53l-4-11.59a1.2,1.2,0,0,0-1.12-.81l-12.27-.25a1.22,1.22,0,0,1-.71-2.2l9.78-7.41a1.24,1.24,0,0,0,.43-1.32L191.56,75.2a1.22,1.22,0,0,1,1.87-1.35l10.07,7a1.19,1.19,0,0,0,1.39,0l10.07-7a1.22,1.22,0,0,1,1.87,1.35L213.27,87a1.23,1.23,0,0,0,.44,1.32l9.77,7.41a1.22,1.22,0,0,1-.71,2.2l-12.27.25a1.2,1.2,0,0,0-1.12.81l-4,11.59A1.22,1.22,0,0,1,203,110.53Z"/><path class="cls-4" d="M431.92,157.64l-4-11.59a1.23,1.23,0,0,0-1.13-.82L414.49,145a1.22,1.22,0,0,1-.71-2.19l9.78-7.42a1.2,1.2,0,0,0,.43-1.32l-3.55-11.75A1.22,1.22,0,0,1,422.3,121l10.07,7a1.24,1.24,0,0,0,1.4,0l10.07-7a1.22,1.22,0,0,1,1.86,1.35l-3.55,11.75a1.2,1.2,0,0,0,.43,1.32l9.78,7.42a1.22,1.22,0,0,1-.71,2.19l-12.27.25a1.23,1.23,0,0,0-1.13.82l-4,11.59A1.22,1.22,0,0,1,431.92,157.64Z"/></g></svg>