<svg xmlns="http://www.w3.org/2000/svg" width="335" height="113.1" viewBox="0 0 335 113.1"><defs><style>.cls-1{fill:#fff;}.cls-2{fill:#262626;}.cls-3{fill:#ed1c24;}.cls-4{fill:#29abe2;}.cls-5{fill:#bbef1f;}.cls-6{fill:#bf1051;}.cls-7{fill:#ff7bac;}.cls-8{fill:#851014;}</style></defs><g id="Lite"><path class="cls-1" d="M285.67,13.56H49.33C22.13,13.56,0,27.89,0,45.51v27.1c0,17.62,22.13,32,49.33,32H285.67c27.2,0,49.33-14.33,49.33-31.95V45.51C335,27.89,312.87,13.56,285.67,13.56Z"/><path class="cls-2" d="M328.28,72.45V45.33c0-15.3-19.33-27.86-42.95-27.86H49.24c-23.63,0-43,12.54-43,27.86V72.45c0,15.3,19.33,27.86,43,27.86H285.33C309,100.31,328.28,87.77,328.28,72.45Z"/><path d="M54.13,28.14H281.35c15.06,0,28.38,3.35,36.41,8.46-4.75-8.49-21.41-14.74-41.17-14.74H58.89c-19.76,0-36.42,6.28-41.17,14.74C25.75,31.49,39.07,28.14,54.13,28.14Z"/><path d="M70.75,113.74c-18.84,0-34.17-15.82-34.17-35.26a36.13,36.13,0,0,1,.93-8.15L26.37,47.47A5.7,5.7,0,0,1,26.59,42a5.3,5.3,0,0,1,7.28-2L40,43.54l4.46-40A3.25,3.25,0,0,1,46.7.78a3.46,3.46,0,0,1,.91-.14A3.16,3.16,0,0,1,50,1.82L82.85,42.23l2.51,3,20.32-10.66A5.17,5.17,0,0,1,108,34a5.74,5.74,0,0,1,5.57,5.89,5.84,5.84,0,0,1-.47,2.11l-9.19,20.75a12.18,12.18,0,0,1,.91,13.49c0,.8.07,1.55.07,2.28C104.92,97.92,89.6,113.74,70.75,113.74Z"/><path class="cls-1" d="M85.16,49a1,1,0,0,0-.5,1.14c.33,1.69,2.67,5,6,8.29s6.62,5.58,8.27,5.85a1,1,0,0,0,1.09-.57h0L110.24,40.6c.84-1.9-1.33-4.05-3.13-3.11Z"/><ellipse class="cls-3" cx="70.75" cy="78.48" rx="31" ry="31.99"/><ellipse cx="65.2" cy="71.67" rx="8.34" ry="8.6"/><ellipse class="cls-1" cx="67.78" cy="69.52" rx="3.22" ry="3.33"/><ellipse class="cls-1" cx="61.45" cy="74.77" rx="1.61" ry="1.66"/><ellipse cx="94.96" cy="70.13" rx="8.34" ry="8.6"/><ellipse class="cls-1" cx="97.54" cy="67.99" rx="3.22" ry="3.33"/><ellipse class="cls-1" cx="91.21" cy="73.23" rx="1.61" ry="1.66"/><path class="cls-4" d="M84.81,49.54s-8,1.77-21.33,5.86-22.36,7.76-22.36,7.76l.54-5.49,2-18,1.15-10.32,2-18,.84-7.54,3,3.72,7.2,8.89L62,21.56l7.18,8.91,4.08,5,7.18,8.86Z"/><polygon class="cls-5" points="69.27 30.43 41.55 57.89 43.56 39.79 62.03 21.5 69.27 30.43"/><path class="cls-5" d="M80.63,44.56l-7,7h-.26L62.22,55l-.39.12L50.21,58.71l-.24.08,23.4-23.23Z"/><polygon class="cls-5" points="57.87 16.36 44.72 29.38 46.74 11.29 50.63 7.43 57.87 16.36"/><path class="cls-6" d="M89.85,87.68a47.09,47.09,0,0,1-4.79,7.51,16.29,16.29,0,0,1-4.44,4.08c-.19.19-1.2.36-1.39-.27a26.94,26.94,0,0,1-2.72-5.74,13.77,13.77,0,0,1-.86-5.76,1.15,1.15,0,0,1,.52-.82,8.66,8.66,0,0,1,3.57-1.21,23.64,23.64,0,0,1,3.76-.3,20.06,20.06,0,0,1,2.32.14,11.48,11.48,0,0,1,3.45.94l.2.11a.92.92,0,0,1,.43,1.23Z"/><path class="cls-1" d="M79.74,85.47l-1.37,4.64a.59.59,0,0,1-.73.39.57.57,0,0,1-.38-.39l-1-3.43A8.61,8.61,0,0,1,79.74,85.47Z"/><path class="cls-1" d="M89.27,86.22l-1,3.38a.59.59,0,0,1-.73.39.57.57,0,0,1-.38-.39l-1.31-4.32A11.29,11.29,0,0,1,89.27,86.22Z"/><path class="cls-7" d="M85.06,95.19a16.29,16.29,0,0,1-4.44,4.08c-.19.19-1.2.36-1.39-.27a26.94,26.94,0,0,1-2.72-5.74,6.13,6.13,0,0,1,2.12-.85,6.64,6.64,0,0,1,1.18-.11,6.51,6.51,0,0,1,1.39.16A6.37,6.37,0,0,1,85.06,95.19Z"/><polygon class="cls-8" points="85.01 79.5 80.92 82.83 87.12 82.06 85.01 79.5"/><path class="cls-1" d="M56.37,56.64A1.28,1.28,0,0,1,57,57.89c-.25,1.79-2.53,5.16-5.86,8.46S44.44,71.85,42.7,72a1.16,1.16,0,0,1-1.18-.68h0L29.24,46a2.3,2.3,0,0,1,1-3.11,2.34,2.34,0,0,1,2.18,0Z"/><path d="M170.84,113.74c-18.84,0-34.17-15.82-34.17-35.26a36.13,36.13,0,0,1,.93-8.15L126.5,47.47a5.7,5.7,0,0,1,.22-5.46A5.3,5.3,0,0,1,134,40l6.13,3.5,4.46-40A3.25,3.25,0,0,1,146.83.78a3.46,3.46,0,0,1,.91-.14,3.14,3.14,0,0,1,2.43,1.18l32.77,40.42,2.51,3,20.32-10.67a5.3,5.3,0,0,1,2.35-.58,5.74,5.74,0,0,1,5.57,5.89,5.64,5.64,0,0,1-.47,2.11L204,62.74a12.16,12.16,0,0,1,.91,13.49c.05.8.08,1.55.08,2.28C205,97.92,189.69,113.74,170.84,113.74Z"/><path class="cls-1" d="M185.3,49a1,1,0,0,0-.5,1.14c.33,1.69,2.68,5,6,8.29s6.62,5.58,8.27,5.85a1,1,0,0,0,1.09-.57h0L210.3,40.6c.84-1.9-1.33-4.05-3.13-3.11Z"/><ellipse class="cls-3" cx="170.84" cy="78.48" rx="31" ry="31.99"/><ellipse cx="165.29" cy="71.67" rx="8.34" ry="8.6"/><ellipse class="cls-1" cx="167.87" cy="69.52" rx="3.22" ry="3.33"/><ellipse class="cls-1" cx="161.54" cy="74.77" rx="1.61" ry="1.66"/><ellipse cx="195.05" cy="70.13" rx="8.34" ry="8.6"/><ellipse class="cls-1" cx="197.63" cy="67.99" rx="3.22" ry="3.33"/><ellipse class="cls-1" cx="191.3" cy="73.23" rx="1.61" ry="1.66"/><path class="cls-4" d="M184.9,49.54s-8,1.77-21.33,5.86-22.36,7.76-22.36,7.76l.54-5.49,2-18,1.15-10.32,2-18,.84-7.54,3,3.72,7.2,8.89,4.13,5.09,7.23,8.91,4,5,7.18,8.86Z"/><polygon class="cls-5" points="169.36 30.43 141.64 57.89 143.65 39.79 162.12 21.5 169.36 30.43"/><path class="cls-5" d="M180.72,44.47l-7,7-.28.09L162.3,54.91l-.39.12L150.3,58.62l-.24.08,23.42-23.23Z"/><polygon class="cls-5" points="157.96 16.36 144.81 29.38 146.83 11.29 150.72 7.43 157.96 16.36"/><path class="cls-6" d="M189.94,87.68a47.09,47.09,0,0,1-4.79,7.51,16.14,16.14,0,0,1-4.44,4.08c-.19.19-1.2.36-1.39-.27a26.44,26.44,0,0,1-2.71-5.74,13.78,13.78,0,0,1-.87-5.76,1.22,1.22,0,0,1,.52-.82,8.71,8.71,0,0,1,3.57-1.21,23.64,23.64,0,0,1,3.76-.3,20.06,20.06,0,0,1,2.32.14,11.48,11.48,0,0,1,3.45.94l.2.11a.92.92,0,0,1,.43,1.23A.41.41,0,0,1,189.94,87.68Z"/><path class="cls-1" d="M179.83,85.47l-1.42,4.67a.58.58,0,0,1-.72.39.59.59,0,0,1-.39-.39l-1-3.43A8.73,8.73,0,0,1,179.83,85.47Z"/><path class="cls-1" d="M189.36,86.22l-1,3.38a.58.58,0,0,1-.72.39.59.59,0,0,1-.39-.39l-1.31-4.32A11.29,11.29,0,0,1,189.36,86.22Z"/><path class="cls-7" d="M185.15,95.19a16.14,16.14,0,0,1-4.44,4.08c-.19.19-1.2.36-1.39-.27a26.44,26.44,0,0,1-2.71-5.74,6.16,6.16,0,0,1,2.11-.85,6.64,6.64,0,0,1,1.18-.11,6,6,0,0,1,1.4.17A6.4,6.4,0,0,1,185.15,95.19Z"/><polygon class="cls-8" points="185.1 79.5 181.01 82.83 187.21 82.06 185.1 79.5"/><path class="cls-1" d="M156.5,56.56a1.25,1.25,0,0,1,.61,1.25c-.25,1.79-2.53,5.16-5.86,8.46s-6.68,5.5-8.42,5.69a1.19,1.19,0,0,1-1.18-.68h0L129.3,45.94a2.3,2.3,0,0,1,3.13-3.1l24,13.72Z"/><path d="M270.92,109.36c-18.25,0-33.09-15.38-33.09-34.29a35.85,35.85,0,0,1,.9-7.93L228,44.93a5.61,5.61,0,0,1,.21-5.32A5.27,5.27,0,0,1,232.67,37a5.07,5.07,0,0,1,2.58.7l5.93,3.4L245.5,2.18a3.16,3.16,0,0,1,2.17-2.69,2.68,2.68,0,0,1,.88-.13A3,3,0,0,1,250.9.5l31.74,39.32,2.43,2.89,19.67-10.35a4.7,4.7,0,0,1,2.28-.57,5.55,5.55,0,0,1,5.38,5.73,5.4,5.4,0,0,1-.45,2l-8.89,20.19a11.84,11.84,0,0,1,.87,13.12c.06.78.08,1.51.08,2.22C304,94,289.17,109.36,270.92,109.36Z"/><path class="cls-1" d="M284.88,46.36a1,1,0,0,0-.5,1.1c.33,1.65,2.6,4.87,5.82,8.07s6.41,5.42,8,5.69a1,1,0,0,0,1-.55h0l9.9-22.46c.82-1.85-1.29-3.94-3-3Z"/><ellipse class="cls-3" cx="270.92" cy="75.07" rx="30.02" ry="31.11"/><ellipse cx="265.54" cy="68.44" rx="8.07" ry="8.37"/><ellipse class="cls-1" cx="268.04" cy="66.36" rx="3.12" ry="3.24"/><ellipse class="cls-1" cx="261.92" cy="71.46" rx="1.56" ry="1.62"/><ellipse cx="294.36" cy="66.95" rx="8.07" ry="8.37"/><ellipse class="cls-1" cx="296.86" cy="64.86" rx="3.12" ry="3.24"/><ellipse class="cls-1" cx="290.73" cy="69.97" rx="1.56" ry="1.62"/><path class="cls-4" d="M284.54,46.92s-7.77,1.73-20.66,5.7-21.66,7.55-21.66,7.55l.53-5.34,1.93-17.47,1.12-10,1.93-17.45.82-7.34,2.92,3.59,7,8.62,4,5,6.94,8.58,4,4.89,6.95,8.62Z"/><polygon class="cls-5" points="269.49 28.34 242.64 55.04 244.59 37.44 262.48 19.66 269.49 28.34"/><path class="cls-5" d="M280.48,42l-6.8,6.76-.27.09-10.75,3.34-.38.11L251,55.76l-.24.07,22.68-22.56Z"/><polygon class="cls-5" points="258.44 14.66 245.71 27.32 247.67 9.72 251.44 5.97 258.44 14.66"/><path class="cls-6" d="M289.41,84a46.06,46.06,0,0,1-4.64,7.34,15.44,15.44,0,0,1-4.29,4c-.19.19-1.16.35-1.35-.26a27.69,27.69,0,0,1-2.63-5.59,13.72,13.72,0,0,1-.84-5.6,1.12,1.12,0,0,1,.5-.79,8,8,0,0,1,3.46-1.21,20.25,20.25,0,0,1,3.64-.3,16.78,16.78,0,0,1,2.25.14,10.44,10.44,0,0,1,3.34.92l.19.1a.9.9,0,0,1,.4,1.21Z"/><path class="cls-1" d="M279.62,81.84l-1.37,4.52a.56.56,0,0,1-.68.39.6.6,0,0,1-.4-.39l-1-3.33A8.08,8.08,0,0,1,279.62,81.84Z"/><path class="cls-1" d="M288.85,82.6l-1,3.28a.56.56,0,0,1-.68.39.6.6,0,0,1-.4-.39l-1.27-4.2A10.5,10.5,0,0,1,288.85,82.6Z"/><path class="cls-7" d="M284.77,91.36a15.44,15.44,0,0,1-4.29,4c-.19.19-1.16.35-1.35-.26a27.69,27.69,0,0,1-2.63-5.59,5.64,5.64,0,0,1,2-.82A6,6,0,0,1,284.77,91.36Z"/><polygon class="cls-8" points="284.73 76.06 280.77 79.3 286.77 78.55 284.73 76.06"/><path class="cls-1" d="M257,53.83a1.21,1.21,0,0,1,.59,1.22c-.24,1.74-2.45,5-5.67,8.22s-6.47,5.35-8.16,5.53a1.15,1.15,0,0,1-1.14-.66h0L230.73,43.5a2.23,2.23,0,0,1,1-3,2.18,2.18,0,0,1,2,0Z"/></g></svg>