<svg xmlns="http://www.w3.org/2000/svg" width="48.7" height="48.48" viewBox="0 0 48.7 48.48"><defs><style>.cls-1{fill:#9512b2;}.cls-2{fill:#fff;opacity:0.46;isolation:isolate;}.cls-3{fill:#150019;}</style></defs><g id="Lite"><ellipse class="cls-1" cx="24.35" cy="24.24" rx="24.35" ry="24.24"/><path class="cls-2" d="M28.53,11.17l2.72-6.48a1.65,1.65,0,0,1,2.15-.88A18.68,18.68,0,0,1,44.23,14.5a1.64,1.64,0,0,1-.9,2.15l-.1,0-6.58,2.19a1.61,1.61,0,0,1-2-.83,9.1,9.1,0,0,0-5.2-4.73,1.63,1.63,0,0,1-.95-2.09Z"/><ellipse class="cls-3" cx="24.15" cy="23.84" rx="9.33" ry="9.29"/><path class="cls-2" d="M19.76,36.5,17.05,43a1.65,1.65,0,0,1-2.16.88A18.63,18.63,0,0,1,4.07,33.17,1.64,1.64,0,0,1,5,31l.1,0,6.57-2.19a1.62,1.62,0,0,1,2,.83,9.12,9.12,0,0,0,5.21,4.73,1.61,1.61,0,0,1,.94,2.07Z"/></g></svg>